<?xml version="1.0" standalone="no"?>
<!DOCTYPE svg PUBLIC "-//W3C//DTD SVG 20010904//EN"
 "http://www.w3.org/TR/2001/REC-SVG-20010904/DTD/svg10.dtd">
<svg version="1.0" xmlns="http://www.w3.org/2000/svg"
 width="482.000000pt" height="558.000000pt" viewBox="0 0 482.000000 558.000000"
 preserveAspectRatio="xMidYMid meet">
<metadata>
Created by potrace 1.11, written by Peter Selinger 2001-2013
</metadata>
<g transform="translate(0.000000,558.000000) scale(0.100000,-0.100000)"
fill="#000000" stroke="none">
<path d="M2332 5573 c-12 -2 -20 -8 -17 -13 3 -5 -6 -12 -20 -16 -14 -3 -25
-12 -25 -20 0 -8 -4 -14 -9 -14 -5 0 -12 -11 -15 -25 -4 -14 -10 -23 -15 -21
-5 3 -11 -8 -15 -26 -3 -17 -9 -28 -13 -24 -4 4 -12 -10 -18 -31 -7 -21 -16
-37 -22 -36 -6 1 -13 -12 -17 -29 -3 -17 -9 -28 -13 -24 -4 4 -12 -10 -18 -31
-6 -21 -15 -36 -19 -33 -5 3 -14 -13 -21 -35 -6 -22 -16 -39 -22 -38 -6 1 -13
-12 -17 -29 -3 -17 -9 -28 -13 -24 -4 4 -12 -10 -18 -31 -6 -21 -15 -36 -19
-33 -5 3 -14 -13 -21 -35 -6 -22 -16 -39 -22 -38 -6 1 -13 -12 -17 -29 -3 -17
-9 -28 -13 -24 -4 4 -12 -10 -18 -31 -7 -21 -16 -37 -22 -36 -6 1 -13 -12 -17
-29 -3 -17 -9 -28 -13 -24 -4 4 -12 -10 -18 -31 -6 -21 -15 -36 -19 -33 -5 3
-14 -13 -21 -35 -6 -22 -16 -39 -22 -38 -6 1 -13 -12 -17 -29 -3 -17 -9 -28
-13 -24 -4 4 -12 -9 -18 -29 -5 -20 -14 -36 -20 -35 -5 1 -14 -16 -20 -37 -7
-21 -16 -37 -22 -36 -6 1 -13 -12 -17 -29 -3 -17 -9 -28 -13 -24 -4 4 -12 -10
-18 -31 -7 -21 -16 -37 -22 -36 -6 1 -13 -12 -17 -29 -3 -17 -9 -28 -13 -24
-4 4 -12 -10 -18 -31 -6 -21 -15 -37 -20 -36 -6 1 -15 -15 -21 -35 -6 -20 -15
-36 -21 -35 -6 1 -13 -12 -17 -29 -3 -17 -9 -28 -13 -24 -4 4 -12 -9 -18 -29
-5 -20 -14 -36 -20 -35 -5 1 -14 -16 -20 -37 -7 -21 -16 -37 -22 -36 -6 1 -13
-12 -17 -29 -3 -17 -9 -28 -13 -24 -4 4 -12 -10 -18 -31 -7 -21 -16 -37 -22
-36 -6 1 -13 -12 -17 -29 -3 -17 -9 -28 -13 -24 -4 4 -12 -10 -18 -31 -6 -21
-15 -36 -19 -33 -5 3 -14 -13 -21 -35 -6 -22 -16 -39 -22 -38 -6 1 -13 -12
-17 -29 -3 -17 -9 -28 -13 -24 -4 4 -12 -9 -18 -29 -5 -20 -14 -36 -20 -35 -5
1 -14 -16 -20 -37 -7 -21 -16 -37 -22 -36 -6 1 -13 -12 -17 -29 -3 -17 -9 -28
-13 -24 -4 4 -12 -9 -18 -29 -5 -20 -14 -36 -20 -35 -5 1 -14 -16 -20 -37 -7
-21 -16 -37 -22 -36 -6 1 -13 -12 -17 -29 -3 -17 -9 -28 -13 -24 -4 4 -12 -9
-18 -29 -5 -20 -14 -36 -20 -35 -5 1 -14 -16 -20 -37 -7 -21 -16 -37 -22 -36
-6 1 -13 -12 -17 -29 -3 -17 -9 -28 -13 -24 -4 4 -12 -10 -18 -30 -5 -20 -14
-35 -19 -33 -5 2 -14 -14 -21 -36 -6 -22 -16 -39 -22 -38 -6 1 -13 -12 -17
-29 -3 -17 -9 -28 -13 -24 -4 4 -12 -10 -18 -31 -6 -21 -15 -36 -19 -33 -5 3
-14 -13 -21 -35 -6 -22 -16 -39 -22 -38 -6 1 -13 -12 -17 -29 -3 -17 -9 -28
-13 -24 -4 4 -12 -10 -18 -30 -5 -20 -14 -35 -19 -33 -5 2 -14 -14 -21 -36 -6
-22 -16 -39 -22 -38 -6 1 -13 -12 -17 -29 -3 -17 -9 -28 -13 -24 -4 4 -12 -10
-18 -30 -5 -20 -14 -36 -20 -36 -5 0 -15 -16 -20 -36 -6 -20 -15 -35 -19 -32
-5 3 -14 -13 -21 -35 -6 -22 -16 -39 -22 -38 -6 1 -13 -12 -17 -29 -3 -17 -9
-28 -13 -24 -4 4 -12 -10 -18 -30 -5 -20 -14 -36 -20 -36 -5 0 -14 -15 -20
-35 -5 -20 -14 -34 -19 -32 -5 2 -14 -14 -21 -36 -6 -22 -16 -39 -22 -38 -6 1
-13 -12 -17 -29 -3 -17 -9 -28 -13 -24 -4 4 -12 -10 -18 -31 -6 -21 -15 -36
-19 -33 -5 3 -14 -12 -20 -34 -6 -21 -15 -37 -19 -35 -5 2 -17 -21 -27 -51
-10 -30 -28 -62 -40 -72 l-21 -17 -2 -798 c-1 -439 2 -808 6 -821 5 -12 13
-20 18 -16 6 3 9 -2 7 -12 -3 -18 67 -19 2363 -22 l2366 -2 19 22 c12 13 13
18 4 13 -13 -7 -13 -6 -2 7 20 25 16 1647 -4 1655 -8 3 -14 16 -14 30 0 13 -4
22 -9 18 -12 -7 -31 26 -31 55 0 12 -4 19 -9 15 -12 -7 -31 26 -31 54 0 12 -5
20 -12 18 -7 -1 -15 12 -19 28 -4 17 -7 26 -8 20 -3 -19 -31 29 -31 52 0 13
-5 22 -12 20 -7 -1 -15 12 -19 28 -4 17 -7 26 -8 20 -3 -19 -31 29 -31 52 0
13 -5 22 -12 20 -7 -1 -14 12 -18 28 -3 17 -10 28 -15 26 -6 -3 -12 8 -15 25
-3 16 -10 27 -15 24 -5 -3 -13 9 -16 25 -4 17 -7 26 -8 20 -3 -19 -31 29 -31
52 0 13 -5 22 -12 20 -7 -1 -14 11 -17 27 -3 17 -10 28 -16 25 -5 -2 -13 10
-16 26 -4 17 -7 26 -8 20 -3 -19 -31 29 -31 52 0 13 -5 22 -12 20 -7 -1 -14
12 -18 28 -3 17 -10 28 -15 26 -6 -3 -12 8 -15 25 -3 16 -10 27 -15 25 -6 -3
-12 8 -15 24 -3 16 -9 27 -15 25 -5 -2 -13 9 -16 26 -4 16 -7 25 -8 19 -3 -19
-31 29 -31 52 0 13 -5 22 -12 21 -7 -2 -14 11 -18 27 -3 17 -10 28 -15 25 -5
-3 -12 8 -15 24 -3 17 -9 28 -15 25 -5 -2 -12 10 -15 26 -3 17 -10 28 -15 25
-5 -3 -13 9 -16 25 -4 17 -7 26 -8 20 -3 -19 -31 29 -31 52 0 13 -5 22 -12 21
-7 -2 -14 10 -17 26 -3 17 -10 28 -16 25 -5 -2 -12 10 -15 26 -3 17 -10 28
-15 26 -6 -3 -12 8 -15 24 -3 16 -9 27 -15 25 -5 -2 -13 9 -16 26 -4 16 -7 25
-8 19 -3 -19 -31 29 -31 52 0 13 -5 22 -12 21 -7 -2 -14 11 -18 27 -3 17 -10
28 -15 25 -5 -3 -12 9 -15 25 -3 17 -10 28 -15 25 -5 -3 -12 9 -15 25 -3 17
-10 28 -15 25 -5 -3 -12 9 -15 25 -3 17 -10 28 -15 26 -6 -3 -13 8 -16 25 -4
16 -7 25 -8 19 -3 -19 -31 29 -31 53 0 13 -4 21 -9 17 -12 -7 -31 26 -31 54 0
12 -5 20 -12 19 -7 -2 -15 11 -19 27 -4 17 -7 26 -8 20 -3 -19 -31 29 -31 53
0 13 -4 21 -9 17 -12 -7 -31 26 -31 54 0 12 -5 20 -12 19 -7 -2 -15 11 -19 27
-4 17 -7 26 -8 20 -3 -19 -31 29 -31 52 0 13 -5 22 -12 21 -7 -2 -15 11 -19
27 -4 17 -7 26 -8 20 -3 -19 -31 29 -31 53 0 13 -4 21 -9 17 -12 -7 -31 26
-31 54 0 12 -5 20 -12 19 -7 -2 -15 11 -19 27 -4 17 -7 26 -8 20 -3 -19 -31
29 -31 53 0 13 -4 21 -9 17 -12 -7 -31 26 -31 54 0 12 -5 20 -12 18 -7 -1 -15
12 -19 28 -4 17 -7 26 -8 20 -3 -19 -31 29 -31 52 0 13 -5 22 -12 20 -7 -1
-15 12 -19 28 -4 17 -7 26 -8 20 -3 -19 -31 29 -31 53 0 13 -4 21 -9 17 -12
-7 -31 26 -31 54 0 12 -5 20 -12 18 -7 -1 -15 12 -19 28 -4 17 -7 26 -8 20 -3
-19 -31 29 -31 52 0 13 -5 22 -12 20 -7 -1 -15 12 -19 28 -4 17 -7 26 -8 20
-3 -19 -31 29 -31 52 0 13 -5 22 -12 20 -7 -1 -15 12 -19 28 -4 17 -7 26 -8
20 -3 -19 -31 29 -31 53 0 13 -4 21 -9 17 -12 -7 -31 26 -31 54 0 12 -5 20
-12 19 -7 -2 -15 11 -19 27 -4 17 -7 26 -8 20 -3 -19 -31 29 -31 52 0 13 -5
22 -12 21 -7 -2 -15 11 -19 27 -4 17 -7 26 -8 20 -3 -19 -31 29 -31 52 0 13
-5 22 -12 21 -7 -2 -14 11 -18 27 -3 17 -10 29 -15 27 -6 -2 -12 5 -14 15 -2
10 -6 20 -10 23 -3 3 -11 14 -17 25 -6 11 -26 28 -45 37 -19 9 -29 18 -24 18
6 1 1 5 -10 10 -21 9 -122 11 -163 3z m28 -1545 c11 -18 18 -42 16 -53 -5 -20
19 -55 37 -55 6 0 2 7 -9 15 -10 8 -14 15 -7 15 19 0 95 -63 130 -108 18 -24
38 -62 45 -85 17 -59 14 -248 -6 -327 -20 -82 -20 -177 -1 -243 14 -48 21 -55
78 -89 60 -36 105 -56 212 -94 50 -18 115 -67 115 -86 0 -16 32 -37 47 -31 17
7 17 30 1 36 -10 3 -10 7 -1 18 8 10 9 20 3 29 -7 11 -10 12 -10 2 0 -8 -12
-4 -32 12 -18 13 -60 40 -94 60 -70 40 -144 110 -144 136 0 26 -21 81 -29 76
-4 -3 -8 10 -9 29 -2 18 3 37 9 40 8 6 8 9 -1 15 -23 14 67 200 97 200 6 0 14
9 18 19 3 11 28 47 55 82 60 75 63 95 14 115 -20 8 -39 13 -42 10 -3 -3 1 -6
8 -6 8 0 -1 -15 -20 -35 -36 -37 -60 -45 -60 -20 0 9 9 15 23 15 17 0 19 2 7
9 -8 6 -18 7 -23 4 -14 -8 1 46 19 75 20 31 72 52 128 52 35 0 50 -6 75 -29
17 -16 31 -39 31 -51 0 -11 4 -19 9 -16 27 17 23 -115 -6 -164 -8 -14 -12 -17
-9 -7 3 9 9 25 12 35 3 9 -2 6 -10 -8 -8 -14 -15 -33 -16 -44 0 -10 -16 -45
-36 -78 -27 -44 -39 -56 -45 -46 -6 9 -9 6 -9 -11 0 -14 -5 -39 -11 -56 -19
-51 -6 -76 60 -118 68 -44 127 -104 163 -168 31 -53 45 -95 29 -85 -7 5 -9 1
-5 -8 3 -9 10 -14 14 -11 19 11 21 -82 5 -181 -6 -36 -77 -110 -96 -99 -8 6
-10 4 -5 -4 5 -8 0 -14 -13 -18 -13 -3 -29 -23 -41 -52 -13 -28 -46 -70 -86
-107 l-64 -60 31 -43 c23 -33 29 -49 24 -69 -3 -14 -49 -69 -101 -121 -51 -53
-106 -113 -121 -133 -16 -20 -47 -60 -70 -90 -38 -49 -40 -56 -33 -93 l8 -40
1 35 c2 31 3 33 11 12 5 -12 7 -28 4 -36 -11 -27 -153 -36 -175 -10 -8 10 -12
44 -12 95 l0 79 74 97 c115 151 130 174 123 196 -5 17 -3 17 18 7 22 -11 22
-10 3 5 -11 8 -25 13 -32 11 -12 -5 -46 26 -77 69 -14 19 -15 19 -26 -7 -7
-15 -20 -30 -29 -33 -9 -4 -74 -10 -146 -14 -71 -5 -143 -14 -158 -22 -27 -12
-28 -16 -22 -57 4 -28 2 -48 -6 -58 -15 -19 -83 -18 -99 1 -7 8 -18 15 -24 15
-6 0 -4 -5 4 -11 11 -8 9 -9 -10 -3 -36 9 -50 23 -50 48 0 12 6 28 13 35 10
11 10 13 0 7 -20 -11 -16 24 7 69 18 36 43 60 54 53 3 -2 11 5 19 16 20 27
198 52 182 26 -3 -5 -2 -10 2 -10 16 0 33 23 33 44 0 11 8 28 18 39 10 12 11
17 3 12 -12 -7 -13 0 -7 41 3 26 10 52 15 57 13 13 2 37 -15 37 -8 0 -14 5
-14 11 0 5 -4 8 -9 4 -19 -11 -91 8 -116 31 -15 13 -29 24 -33 24 -4 0 2 -7
12 -15 11 -8 16 -15 10 -15 -16 1 -44 27 -37 34 4 4 1 5 -7 2 -9 -4 -37 11
-66 33 -47 35 -58 39 -137 46 l-85 7 -9 -54 c-6 -37 -6 -59 3 -73 6 -11 15
-36 18 -55 9 -53 41 -97 86 -120 44 -22 49 -40 26 -93 -29 -70 -94 -92 -141
-47 -14 13 -25 29 -25 36 0 6 -8 14 -18 16 -10 3 -37 41 -62 88 l-43 83 7 136
c4 75 8 157 10 183 5 93 53 129 145 110 75 -16 112 -15 136 3 19 15 19 16 0
33 -18 16 -18 16 -6 0 27 -36 -5 -16 -56 34 -29 29 -53 60 -53 70 0 10 -4 18
-10 18 -5 0 -10 8 -10 18 0 9 -5 24 -11 32 -9 12 -10 12 -5 -4 5 -16 4 -17 -8
-7 -11 9 -20 9 -35 2 -28 -16 -61 -60 -61 -84 0 -52 -97 -122 -144 -104 -19 8
-21 57 -3 76 10 11 10 13 0 7 -31 -17 7 118 44 157 46 48 131 108 179 124 44
15 45 15 85 -13 42 -29 119 -110 119 -125 0 -5 10 -9 23 -9 36 0 67 11 67 24
0 19 60 75 102 97 39 20 49 47 25 67 -14 12 -198 21 -190 10 10 -17 -46 -7
-70 12 -14 11 -32 20 -39 20 -22 0 -61 46 -53 61 5 7 4 10 -2 6 -19 -12 -23
35 -5 50 9 8 11 12 5 8 -17 -8 -16 5 2 28 27 36 109 88 90 57 -4 -6 1 -7 11
-3 11 4 13 8 6 11 -17 5 -5 22 16 22 10 0 22 8 28 18 7 10 62 47 124 82 74 41
118 73 129 92 9 15 21 28 27 28 7 0 14 9 17 20 8 30 35 24 57 -12z m-1482
-3097 c2 -58 -1 -77 -14 -92 -9 -11 -23 -19 -31 -19 -18 0 -53 37 -53 56 0 11
-5 14 -16 10 -9 -3 -20 -6 -25 -6 -5 0 -9 -61 -10 -137 -1 -230 -13 -383 -29
-393 -20 -13 -67 -13 -75 0 -14 23 -17 66 -22 285 -2 127 -6 236 -9 244 -3 10
-14 3 -38 -22 -36 -40 -65 -46 -90 -21 -12 11 -16 36 -16 95 l0 79 213 -2 212
-3 3 -74z m2024 62 c17 -15 18 -37 18 -279 l0 -263 150 -3 c163 -3 170 -5 170
-61 0 -20 -7 -30 -26 -37 -34 -13 -360 -13 -385 0 -18 10 -19 24 -19 315 0
292 1 306 20 325 24 24 47 25 72 3z m-1762 -33 c12 -8 15 -37 14 -162 0 -84 3
-137 7 -118 4 21 7 26 8 13 2 -32 35 -18 87 37 60 64 105 87 138 72 14 -6 26
-17 26 -23 0 -7 -8 -5 -19 5 -11 10 -26 16 -33 13 -9 -4 -7 -6 4 -6 9 -1 23
-10 31 -21 8 -11 17 -17 20 -13 4 3 7 0 7 -8 0 -7 -34 -45 -75 -84 -41 -38
-75 -75 -75 -82 0 -7 34 -38 76 -69 41 -31 82 -67 90 -80 19 -28 15 -73 -7
-87 -27 -17 -61 0 -164 82 -111 89 -107 89 -119 -9 -8 -63 -19 -80 -51 -80
-32 0 -51 29 -56 85 -9 110 0 517 12 531 13 16 57 18 79 4z m590 0 c12 -8 15
-37 15 -162 -1 -92 2 -131 5 -98 6 52 7 53 8 13 1 -24 5 -43 8 -43 4 0 22 13
41 30 18 16 40 30 47 30 7 0 17 10 23 23 6 12 27 31 47 42 33 18 39 19 64 5
51 -29 42 -59 -42 -134 -42 -37 -76 -72 -76 -76 0 -5 41 -43 90 -85 79 -67 90
-80 90 -109 0 -36 -15 -56 -42 -56 -28 0 -67 22 -73 42 -4 10 -12 18 -18 18
-7 0 -43 25 -82 54 -75 59 -85 58 -85 -6 0 -42 -16 -89 -33 -100 -22 -14 -56
-8 -66 10 -15 27 -15 581 0 598 13 16 57 18 79 4z m2370 -9 c5 -11 10 -40 10
-65 0 -24 4 -56 10 -70 8 -23 15 -26 52 -25 l43 2 -35 8 c-25 5 -11 7 51 6 79
-2 88 -4 122 -32 l36 -30 2 -105 3 -105 6 85 c6 80 6 78 8 -50 l2 -136 -37
-36 c-47 -45 -79 -58 -146 -57 -69 0 -122 19 -121 42 2 17 1 17 -17 1 -14 -13
-16 -20 -7 -25 8 -5 2 -10 -16 -15 -52 -13 -60 9 -66 171 -8 224 2 434 20 445
26 17 69 11 80 -9z m-1780 -161 c25 -25 32 -25 72 0 61 37 190 22 228 -27 23
-29 28 -121 8 -141 -32 -32 -98 1 -98 50 0 10 -10 20 -25 24 -27 7 -51 -6
-122 -64 l-43 -34 0 -93 c0 -109 -12 -153 -46 -161 -38 -10 -57 2 -50 30 3 14
2 28 -4 31 -14 8 -13 360 0 386 14 25 54 25 80 -1z m1403 9 c20 -5 37 -14 37
-20 0 -6 4 -8 10 -4 5 3 17 -7 27 -22 15 -23 19 -55 21 -205 3 -111 0 -183 -6
-191 -7 -8 -57 -12 -171 -12 l-161 0 -32 33 c-31 30 -33 38 -36 110 -4 74 -3
79 25 109 34 36 85 53 163 53 75 0 100 8 100 32 0 12 4 17 13 12 6 -4 9 -3 4
1 -4 5 -50 9 -103 9 -87 1 -97 3 -114 23 -22 28 -16 61 14 73 30 12 164 12
209 -1z"/>
<path d="M4170 675 c-19 -14 -41 -36 -48 -48 l-13 -22 4 23 c3 12 1 20 -3 17
-14 -9 -22 -88 -11 -115 8 -22 10 -22 11 -5 l1 20 11 -20 c14 -29 62 -64 95
-71 20 -4 36 1 56 16 26 20 27 25 27 110 0 80 -2 90 -22 104 -32 23 -69 20
-108 -9z"/>
<path d="M3514 535 c17 -66 18 -75 6 -75 -10 0 -10 -4 0 -15 10 -12 15 -13 21
-4 4 8 24 10 56 7 33 -3 53 0 62 9 7 7 16 11 21 8 11 -7 54 14 46 22 -3 3 -12
0 -20 -6 -13 -11 -13 -9 -3 12 6 14 15 23 19 21 5 -3 8 -1 8 5 0 5 -4 13 -10
16 -5 3 -10 3 -10 -2 0 -13 -184 -3 -193 11 -5 6 -6 3 -3 -9z"/>
</g>
</svg>
