  0
SECTION
  2
HEADER
  9
$ACADVER
  1
AC1014
  9
$HANDSEED
  5
FFFF
  9
$MEASUREMENT
 70
     1
  0
ENDSEC
  0
SECTION
  2
TABLES
  0
TABLE
  2
VPORT
  5
8
330
0
100
AcDbSymbolTable
 70
     4
  0
VPORT
  5
2E
330
8
100
AcDbSymbolTableRecord
100
AcDbViewportTableRecord
  2
*ACTIVE
 70
     0
 10
0.0
 20
0.0
 11
1.0
 21
1.0
 12
210.0
 22
148.5
 13
0.0
 23
0.0
 14
10.0
 24
10.0
 15
10.0
 25
10.0
 16
0.0
 26
0.0
 36
1.0
 17
0.0
 27
0.0
 37
0.0
 40
341.0
 41
1.24
 42
50.0
 43
0.0
 44
0.0
 50
0.0
 51
0.0
 71
     0
 72
   100
 73
     1
 74
     3
 75
     0
 76
     0
 77
     0
 78
     0
  0
ENDTAB
  0
TABLE
  2
LTYPE
  5
5
330
0
100
AcDbSymbolTable
 70
     1
  0
LTYPE
  5
14
330
5
100
AcDbSymbolTableRecord
100
AcDbLinetypeTableRecord
  2
BYBLOCK
 70
     0
  3

 72
    65
 73
     0
 40
0.0
  0
LTYPE
  5
15
330
5
100
AcDbSymbolTableRecord
100
AcDbLinetypeTableRecord
  2
BYLAYER
 70
     0
  3

 72
    65
 73
     0
 40
0.0
  0
LTYPE
  5
16
330
5
100
AcDbSymbolTableRecord
100
AcDbLinetypeTableRecord
  2
CONTINUOUS
 70
     0
  3
Solid line
 72
    65
 73
     0
 40
0.0
  0
ENDTAB
  0
TABLE
  2
LAYER
  5
2
100
AcDbSymbolTable
 70
1
  0
LAYER
  5
50
100
AcDbSymbolTableRecord
100
AcDbLayerTableRecord
  2
0
 70
0
  6
CONTINUOUS
  0
ENDTAB
  0
TABLE
  2
STYLE
  5
3
330
0
100
AcDbSymbolTable
 70
     1
  0
STYLE
  5
11
330
3
100
AcDbSymbolTableRecord
100
AcDbTextStyleTableRecord
  2
STANDARD
 70
     0
 40
0.0
 41
1.0
 50
0.0
 71
     0
 42
2.5
  3
txt
  4

  0
ENDTAB
  0
TABLE
  2
VIEW
  5
6
330
0
100
AcDbSymbolTable
 70
     0
  0
ENDTAB
  0
TABLE
  2
UCS
  5
7
330
0
100
AcDbSymbolTable
 70
     0
  0
ENDTAB
  0
TABLE
  2
APPID
  5
9
330
0
100
AcDbSymbolTable
 70
     2
  0
APPID
  5
12
330
9
100
AcDbSymbolTableRecord
100
AcDbRegAppTableRecord
  2
ACAD
 70
     0
  0
ENDTAB
  0
TABLE
  2
DIMSTYLE
  5
A
330
0
100
AcDbSymbolTable
 70
     1
  0
DIMSTYLE
105
27
330
A
100
AcDbSymbolTableRecord
100
AcDbDimStyleTableRecord
  2
ISO-25
 70
     0
  3

  4

  5

  6

  7

 40
1.0
 41
2.5
 42
0.625
 43
3.75
 44
1.25
 45
0.0
 46
0.0
 47
0.0
 48
0.0
140
2.5
141
2.5
142
0.0
143
0.03937007874016
144
1.0
145
0.0
146
1.0
147
0.625
 71
     0
 72
     0
 73
     0
 74
     0
 75
     0
 76
     0
 77
     1
 78
     8
170
     0
171
     3
172
     1
173
     0
174
     0
175
     0
176
     0
177
     0
178
     0
270
     2
271
     2
272
     2
273
     2
274
     3
340
11
275
     0
280
     0
281
     0
282
     0
283
     0
284
     8
285
     0
286
     0
287
     3
288
     0
  0
ENDTAB
  0
TABLE
  2
BLOCK_RECORD
  5
1
330
0
100
AcDbSymbolTable
 70
     1
  0
BLOCK_RECORD
  5
1F
330
1
100
AcDbSymbolTableRecord
100
AcDbBlockTableRecord
  2
*MODEL_SPACE
  0
BLOCK_RECORD
  5
1B
330
1
100
AcDbSymbolTableRecord
100
AcDbBlockTableRecord
  2
*PAPER_SPACE
  0
ENDTAB
  0
ENDSEC
  0
SECTION
  2
BLOCKS
  0
BLOCK
  5
20
330
1F
100
AcDbEntity
  8
0
100
AcDbBlockBegin
  2
*MODEL_SPACE
 70
     0
 10
0.0
 20
0.0
 30
0.0
  3
*MODEL_SPACE
  1

  0
ENDBLK
  5
21
330
1F
100
AcDbEntity
  8
0
100
AcDbBlockEnd
  0
BLOCK
  5
1C
330
1B
100
AcDbEntity
 67
     1
  8
0
100
AcDbBlockBegin
  2
*PAPER_SPACE
  1

  0
ENDBLK
  5
1D
330
1B
100
AcDbEntity
 67
     1
  8
0
100
AcDbBlockEnd
  0
ENDSEC
  0
SECTION
  2
ENTITIES
  0
SPLINE
  5
100
100
AcDbEntity
  8
0
 62
7
100
AcDbSpline
 70
8
 71
3
 72
8
 73
4
 74
0
 40
0
 40
0
 40
0
 40
0
 40
1
 40
1
 40
1
 40
1
 10
0.086977
 20
0.594177
 30
0.0
 10
0.061078
 20
0.622803
 30
0.0
 10
0.047624
 20
0.655175
 30
0.0
 10
0.040645
 20
0.904983
 30
0.0
  0
SPLINE
  5
101
100
AcDbEntity
  8
0
 62
7
100
AcDbSpline
 70
8
 71
3
 72
8
 73
4
 74
0
 40
0
 40
0
 40
0
 40
0
 40
1
 40
1
 40
1
 40
1
 10
0.040645
 20
0.904983
 30
0.0
 10
0.033666
 20
1.154790
 30
0.0
 10
0.033161
 20
1.622034
 30
0.0
 10
0.033161
 20
2.520402
 30
0.0
  0
SPLINE
  5
102
100
AcDbEntity
  8
0
 62
7
100
AcDbSpline
 70
8
 71
3
 72
8
 73
4
 74
0
 40
0
 40
0
 40
0
 40
0
 40
1
 40
1
 40
1
 40
1
 10
0.100805
 20
4.514144
 30
0.0
 10
0.218271
 20
4.734684
 30
0.0
 10
1.704812
 20
7.309129
 30
0.0
 10
3.193402
 20
9.878204
 30
0.0
  0
SPLINE
  5
103
100
AcDbEntity
  8
0
 62
7
100
AcDbSpline
 70
8
 71
3
 72
8
 73
4
 74
0
 40
0
 40
0
 40
0
 40
0
 40
1
 40
1
 40
1
 40
1
 10
3.193402
 20
9.878204
 30
0.0
 10
4.681992
 20
12.447280
 30
0.0
 10
6.172632
 20
15.010987
 30
0.0
 10
6.298296
 20
15.210052
 30
0.0
  0
SPLINE
  5
104
100
AcDbEntity
  8
0
 62
7
100
AcDbSpline
 70
8
 71
3
 72
8
 73
4
 74
0
 40
0
 40
0
 40
0
 40
0
 40
1
 40
1
 40
1
 40
1
 10
6.298296
 20
15.210052
 30
0.0
 10
6.349131
 20
15.290580
 30
0.0
 10
6.402080
 20
15.343300
 30
0.0
 10
6.474079
 20
15.375874
 30
0.0
  0
SPLINE
  5
105
100
AcDbEntity
  8
0
 62
7
100
AcDbSpline
 70
8
 71
3
 72
8
 73
4
 74
0
 40
0
 40
0
 40
0
 40
0
 40
1
 40
1
 40
1
 40
1
 10
6.474079
 20
15.375874
 30
0.0
 10
6.546078
 20
15.408448
 30
0.0
 10
6.637126
 20
15.420875
 30
0.0
 10
6.764161
 20
15.420819
 30
0.0
  0
SPLINE
  5
106
100
AcDbEntity
  8
0
 62
7
100
AcDbSpline
 70
8
 71
3
 72
8
 73
4
 74
0
 40
0
 40
0
 40
0
 40
0
 40
1
 40
1
 40
1
 40
1
 10
6.764161
 20
15.420819
 30
0.0
 10
6.846106
 20
15.420782
 30
0.0
 10
6.905677
 20
15.417238
 30
0.0
 10
6.956177
 20
15.407664
 30
0.0
  0
SPLINE
  5
107
100
AcDbEntity
  8
0
 62
7
100
AcDbSpline
 70
8
 71
3
 72
8
 73
4
 74
0
 40
0
 40
0
 40
0
 40
0
 40
1
 40
1
 40
1
 40
1
 10
6.956177
 20
15.407664
 30
0.0
 10
7.006677
 20
15.398090
 30
0.0
 10
7.048105
 20
15.382486
 30
0.0
 10
7.093763
 20
15.358331
 30
0.0
  0
SPLINE
  5
108
100
AcDbEntity
  8
0
 62
7
100
AcDbSpline
 70
8
 71
3
 72
8
 73
4
 74
0
 40
0
 40
0
 40
0
 40
0
 40
1
 40
1
 40
1
 40
1
 10
7.093763
 20
15.358331
 30
0.0
 10
7.166501
 20
15.319848
 30
0.0
 10
7.182300
 20
15.334349
 30
0.0
 10
7.436000
 20
14.918210
 30
0.0
  0
SPLINE
  5
109
100
AcDbEntity
  8
0
 62
7
100
AcDbSpline
 70
8
 71
3
 72
8
 73
4
 74
0
 40
0
 40
0
 40
0
 40
0
 40
1
 40
1
 40
1
 40
1
 10
7.436000
 20
14.918210
 30
0.0
 10
7.689700
 20
14.502072
 30
0.0
 10
8.181302
 20
13.655294
 30
0.0
 10
9.205648
 20
11.894256
 30
0.0
  0
SPLINE
  5
10a
100
AcDbEntity
  8
0
 62
7
100
AcDbSpline
 70
8
 71
3
 72
8
 73
4
 74
0
 40
0
 40
0
 40
0
 40
0
 40
1
 40
1
 40
1
 40
1
 10
9.205648
 20
11.894256
 30
0.0
 10
9.697909
 20
11.047969
 30
0.0
 10
10.131945
 20
10.304341
 30
0.0
 10
10.560976
 20
9.572598
 30
0.0
  0
SPLINE
  5
10b
100
AcDbEntity
  8
0
 62
7
100
AcDbSpline
 70
8
 71
3
 72
8
 73
4
 74
0
 40
0
 40
0
 40
0
 40
0
 40
1
 40
1
 40
1
 40
1
 10
10.560976
 20
9.572598
 30
0.0
 10
10.990007
 20
8.840855
 30
0.0
 10
11.414034
 20
8.120998
 30
0.0
 10
11.886277
 20
7.322256
 30
0.0
  0
SPLINE
  5
10c
100
AcDbEntity
  8
0
 62
7
100
AcDbSpline
 70
8
 71
3
 72
8
 73
4
 74
0
 40
0
 40
0
 40
0
 40
0
 40
1
 40
1
 40
1
 40
1
 10
11.886277
 20
7.322256
 30
0.0
 10
12.351028
 20
6.536186
 30
0.0
 10
12.703685
 20
5.937924
 30
0.0
 10
12.957370
 20
5.505081
 30
0.0
  0
SPLINE
  5
10d
100
AcDbEntity
  8
0
 62
7
100
AcDbSpline
 70
8
 71
3
 72
8
 73
4
 74
0
 40
0
 40
0
 40
0
 40
0
 40
1
 40
1
 40
1
 40
1
 10
12.957370
 20
5.505081
 30
0.0
 10
13.211056
 20
5.072238
 30
0.0
 10
13.365768
 20
4.804814
 30
0.0
 10
13.434633
 20
4.680420
 30
0.0
  0
LWPOLYLINE
  5
10e
100
AcDbEntity
  8
0
 62
7
100
AcDbPolyline
 90
5
 70
0
 10
0.033161
 20
2.520402
 30
0.0
 10
0.033161
 20
3.453773
 30
0.0
 10
0.033161
 20
4.387144
 30
0.0
 10
0.066983
 20
4.450644
 30
0.0
 10
0.100805
 20
4.514144
 30
0.0
  0
SPLINE
  5
10f
100
AcDbEntity
  8
0
 62
7
100
AcDbSpline
 70
8
 71
3
 72
8
 73
4
 74
0
 40
0
 40
0
 40
0
 40
0
 40
1
 40
1
 40
1
 40
1
 10
9.131209
 20
1.718212
 30
0.0
 10
9.220186
 20
1.735399
 30
0.0
 10
9.277196
 20
1.771499
 30
0.0
 10
9.298021
 20
1.817244
 30
0.0
  0
SPLINE
  5
110
100
AcDbEntity
  8
0
 62
7
100
AcDbSpline
 70
8
 71
3
 72
8
 73
4
 74
0
 40
0
 40
0
 40
0
 40
0
 40
1
 40
1
 40
1
 40
1
 10
9.298021
 20
1.817244
 30
0.0
 10
9.318845
 20
1.862988
 30
0.0
 10
9.303483
 20
1.918378
 30
0.0
 10
9.247717
 20
1.974144
 30
0.0
  0
SPLINE
  5
111
100
AcDbEntity
  8
0
 62
7
100
AcDbSpline
 70
8
 71
3
 72
8
 73
4
 74
0
 40
0
 40
0
 40
0
 40
0
 40
1
 40
1
 40
1
 40
1
 10
9.247717
 20
1.974144
 30
0.0
 10
9.221941
 20
1.999920
 30
0.0
 10
9.198423
 20
2.014031
 30
0.0
 10
9.131796
 20
2.021698
 30
0.0
  0
SPLINE
  5
112
100
AcDbEntity
  8
0
 62
7
100
AcDbSpline
 70
8
 71
3
 72
8
 73
4
 74
0
 40
0
 40
0
 40
0
 40
0
 40
1
 40
1
 40
1
 40
1
 10
9.131796
 20
2.021698
 30
0.0
 10
9.065170
 20
2.029365
 30
0.0
 10
8.955436
 20
2.030589
 30
0.0
 10
8.757229
 20
2.030589
 30
0.0
  0
LWPOLYLINE
  5
113
100
AcDbEntity
  8
0
 62
7
100
AcDbPolyline
 90
13
 70
0
 10
13.434633
 20
4.680420
 30
0.0
 10
13.486257
 20
4.587170
 30
0.0
 10
13.537881
 20
4.493919
 30
0.0
 10
13.534256
 20
3.507670
 30
0.0
 10
13.530631
 20
2.521420
 30
0.0
 10
13.527007
 20
1.535171
 30
0.0
 10
13.523383
 20
0.548922
 30
0.0
 10
10.177736
 20
0.545365
 30
0.0
 10
6.832088
 20
0.541808
 30
0.0
 10
3.486440
 20
0.538251
 30
0.0
 10
0.140793
 20
0.534694
 30
0.0
 10
0.113885
 20
0.564436
 30
0.0
 10
0.086977
 20
0.594177
 30
0.0
  0
SPLINE
  5
114
100
AcDbEntity
  8
0
 62
7
100
AcDbSpline
 70
8
 71
3
 72
8
 73
4
 74
0
 40
0
 40
0
 40
0
 40
0
 40
1
 40
1
 40
1
 40
1
 10
8.311225
 20
2.827867
 30
0.0
 10
8.304726
 20
3.261059
 30
0.0
 10
8.298986
 20
3.492211
 30
0.0
 10
8.277976
 20
3.614970
 30
0.0
  0
SPLINE
  5
115
100
AcDbEntity
  8
0
 62
7
100
AcDbSpline
 70
8
 71
3
 72
8
 73
4
 74
0
 40
0
 40
0
 40
0
 40
0
 40
1
 40
1
 40
1
 40
1
 10
8.277976
 20
3.614970
 30
0.0
 10
8.256967
 20
3.737728
 30
0.0
 10
8.220688
 20
3.752094
 30
0.0
 10
8.153113
 20
3.751712
 30
0.0
  0
SPLINE
  5
116
100
AcDbEntity
  8
0
 62
7
100
AcDbSpline
 70
8
 71
3
 72
8
 73
4
 74
0
 40
0
 40
0
 40
0
 40
0
 40
1
 40
1
 40
1
 40
1
 10
8.153113
 20
3.751712
 30
0.0
 10
8.058182
 20
3.751176
 30
0.0
 10
8.007973
 20
3.734937
 30
0.0
 10
7.981302
 20
3.579720
 30
0.0
  0
SPLINE
  5
117
100
AcDbEntity
  8
0
 62
7
100
AcDbSpline
 70
8
 71
3
 72
8
 73
4
 74
0
 40
0
 40
0
 40
0
 40
0
 40
1
 40
1
 40
1
 40
1
 10
7.981302
 20
3.579720
 30
0.0
 10
7.954631
 20
3.424503
 30
0.0
 10
7.951498
 20
3.130310
 30
0.0
 10
7.950724
 20
2.573867
 30
0.0
  0
LWPOLYLINE
  5
118
100
AcDbEntity
  8
0
 62
7
100
AcDbPolyline
 90
5
 70
0
 10
8.757229
 20
2.030589
 30
0.0
 10
8.540207
 20
2.030589
 30
0.0
 10
8.323185
 20
2.030589
 30
0.0
 10
8.317205
 20
2.429228
 30
0.0
 10
8.311225
 20
2.827867
 30
0.0
  0
SPLINE
  5
119
100
AcDbEntity
  8
0
 62
7
100
AcDbSpline
 70
8
 71
3
 72
8
 73
4
 74
0
 40
0
 40
0
 40
0
 40
0
 40
1
 40
1
 40
1
 40
1
 10
8.478665
 20
1.693147
 30
0.0
 10
8.624186
 20
1.693486
 30
0.0
 10
8.770358
 20
1.696474
 30
0.0
 10
8.888632
 20
1.701016
 30
0.0
  0
SPLINE
  5
11a
100
AcDbEntity
  8
0
 62
7
100
AcDbSpline
 70
8
 71
3
 72
8
 73
4
 74
0
 40
0
 40
0
 40
0
 40
0
 40
1
 40
1
 40
1
 40
1
 10
8.888632
 20
1.701016
 30
0.0
 10
9.006907
 20
1.705558
 30
0.0
 10
9.097283
 20
1.711654
 30
0.0
 10
9.131213
 20
1.718208
 30
0.0
  0
LWPOLYLINE
  5
11b
100
AcDbEntity
  8
0
 62
7
100
AcDbPolyline
 90
5
 70
0
 10
7.950724
 20
2.573867
 30
0.0
 10
7.950111
 20
2.132894
 30
0.0
 10
7.949499
 20
1.691922
 30
0.0
 10
8.214082
 20
1.692535
 30
0.0
 10
8.478665
 20
1.693147
 30
0.0
  0
SPLINE
  5
11c
100
AcDbEntity
  8
0
 62
7
100
AcDbSpline
 70
8
 71
3
 72
8
 73
4
 74
0
 40
0
 40
0
 40
0
 40
0
 40
1
 40
1
 40
1
 40
1
 10
10.774194
 20
1.738540
 30
0.0
 10
10.828371
 20
1.760217
 30
0.0
 10
10.858882
 20
1.771054
 30
0.0
 10
10.885040
 20
1.771043
 30
0.0
  0
SPLINE
  5
11d
100
AcDbEntity
  8
0
 62
7
100
AcDbSpline
 70
8
 71
3
 72
8
 73
4
 74
0
 40
0
 40
0
 40
0
 40
0
 40
1
 40
1
 40
1
 40
1
 10
10.885040
 20
1.771043
 30
0.0
 10
10.911199
 20
1.771032
 30
0.0
 10
10.933005
 20
1.760172
 30
0.0
 10
10.969774
 20
1.738455
 30
0.0
  0
SPLINE
  5
11e
100
AcDbEntity
  8
0
 62
7
100
AcDbSpline
 70
8
 71
3
 72
8
 73
4
 74
0
 40
0
 40
0
 40
0
 40
0
 40
1
 40
1
 40
1
 40
1
 10
10.969774
 20
1.738455
 30
0.0
 10
11.015091
 20
1.711686
 30
0.0
 10
11.054139
 20
1.702218
 30
0.0
 10
11.087711
 20
1.710241
 30
0.0
  0
SPLINE
  5
11f
100
AcDbEntity
  8
0
 62
7
100
AcDbSpline
 70
8
 71
3
 72
8
 73
4
 74
0
 40
0
 40
0
 40
0
 40
0
 40
1
 40
1
 40
1
 40
1
 10
11.087711
 20
1.710241
 30
0.0
 10
11.121284
 20
1.718264
 30
0.0
 10
11.149381
 20
1.743777
 30
0.0
 10
11.172797
 20
1.786972
 30
0.0
  0
SPLINE
  5
120
100
AcDbEntity
  8
0
 62
7
100
AcDbSpline
 70
8
 71
3
 72
8
 73
4
 74
0
 40
0
 40
0
 40
0
 40
0
 40
1
 40
1
 40
1
 40
1
 10
11.172797
 20
1.786972
 30
0.0
 10
11.213789
 20
1.862588
 30
0.0
 10
11.225590
 20
2.145570
 30
0.0
 10
11.215601
 20
2.427265
 30
0.0
  0
SPLINE
  5
121
100
AcDbEntity
  8
0
 62
7
100
AcDbSpline
 70
8
 71
3
 72
8
 73
4
 74
0
 40
0
 40
0
 40
0
 40
0
 40
1
 40
1
 40
1
 40
1
 10
11.215601
 20
2.427265
 30
0.0
 10
11.205612
 20
2.708961
 30
0.0
 10
11.173832
 20
2.989369
 30
0.0
 10
11.127660
 20
3.059836
 30
0.0
  0
SPLINE
  5
122
100
AcDbEntity
  8
0
 62
7
100
AcDbSpline
 70
8
 71
3
 72
8
 73
4
 74
0
 40
0
 40
0
 40
0
 40
0
 40
1
 40
1
 40
1
 40
1
 10
11.127660
 20
3.059836
 30
0.0
 10
11.088528
 20
3.119560
 30
0.0
 10
11.030421
 20
3.161787
 30
0.0
 10
10.941229
 20
3.190405
 30
0.0
  0
SPLINE
  5
123
100
AcDbEntity
  8
0
 62
7
100
AcDbSpline
 70
8
 71
3
 72
8
 73
4
 74
0
 40
0
 40
0
 40
0
 40
0
 40
1
 40
1
 40
1
 40
1
 10
10.941229
 20
3.190405
 30
0.0
 10
10.852037
 20
3.219023
 30
0.0
 10
10.731760
 20
3.234031
 30
0.0
 10
10.568288
 20
3.239315
 30
0.0
  0
SPLINE
  5
124
100
AcDbEntity
  8
0
 62
7
100
AcDbSpline
 70
8
 71
3
 72
8
 73
4
 74
0
 40
0
 40
0
 40
0
 40
0
 40
1
 40
1
 40
1
 40
1
 10
10.568288
 20
3.239315
 30
0.0
 10
10.422192
 20
3.244037
 30
0.0
 10
10.346046
 20
3.245884
 30
0.0
 10
10.297754
 20
3.237881
 30
0.0
  0
SPLINE
  5
125
100
AcDbEntity
  8
0
 62
7
100
AcDbSpline
 70
8
 71
3
 72
8
 73
4
 74
0
 40
0
 40
0
 40
0
 40
0
 40
1
 40
1
 40
1
 40
1
 10
10.297754
 20
3.237881
 30
0.0
 10
10.249462
 20
3.229878
 30
0.0
 10
10.229025
 20
3.212025
 30
0.0
 10
10.194344
 20
3.177344
 30
0.0
  0
SPLINE
  5
126
100
AcDbEntity
  8
0
 62
7
100
AcDbSpline
 70
8
 71
3
 72
8
 73
4
 74
0
 40
0
 40
0
 40
0
 40
0
 40
1
 40
1
 40
1
 40
1
 10
10.194344
 20
3.177344
 30
0.0
 10
10.151116
 20
3.134116
 30
0.0
 10
10.128544
 20
3.099010
 30
0.0
 10
10.126153
 20
3.065338
 30
0.0
  0
SPLINE
  5
127
100
AcDbEntity
  8
0
 62
7
100
AcDbSpline
 70
8
 71
3
 72
8
 73
4
 74
0
 40
0
 40
0
 40
0
 40
0
 40
1
 40
1
 40
1
 40
1
 10
10.126153
 20
3.065338
 30
0.0
 10
10.123763
 20
3.031665
 30
0.0
 10
10.141553
 20
2.999426
 30
0.0
 10
10.179050
 20
2.961929
 30
0.0
  0
SPLINE
  5
128
100
AcDbEntity
  8
0
 62
7
100
AcDbSpline
 70
8
 71
3
 72
8
 73
4
 74
0
 40
0
 40
0
 40
0
 40
0
 40
1
 40
1
 40
1
 40
1
 10
10.179050
 20
2.961929
 30
0.0
 10
10.203121
 20
2.937857
 30
0.0
 10
10.226640
 20
2.923746
 30
0.0
 10
10.271419
 20
2.915653
 30
0.0
  0
SPLINE
  5
129
100
AcDbEntity
  8
0
 62
7
100
AcDbSpline
 70
8
 71
3
 72
8
 73
4
 74
0
 40
0
 40
0
 40
0
 40
0
 40
1
 40
1
 40
1
 40
1
 10
10.271419
 20
2.915653
 30
0.0
 10
10.316198
 20
2.907560
 30
0.0
 10
10.382237
 20
2.905484
 30
0.0
 10
10.491350
 20
2.905484
 30
0.0
  0
SPLINE
  5
12a
100
AcDbEntity
  8
0
 62
7
100
AcDbSpline
 70
8
 71
3
 72
8
 73
4
 74
0
 40
0
 40
0
 40
0
 40
0
 40
1
 40
1
 40
1
 40
1
 10
10.491350
 20
2.905484
 30
0.0
 10
10.641444
 20
2.905481
 30
0.0
 10
10.732703
 20
2.899168
 30
0.0
 10
10.786437
 20
2.878249
 30
0.0
  0
SPLINE
  5
12b
100
AcDbEntity
  8
0
 62
7
100
AcDbSpline
 70
8
 71
3
 72
8
 73
4
 74
0
 40
0
 40
0
 40
0
 40
0
 40
1
 40
1
 40
1
 40
1
 10
10.786437
 20
2.878249
 30
0.0
 10
10.840172
 20
2.857330
 30
0.0
 10
10.856383
 20
2.821804
 30
0.0
 10
10.856383
 20
2.763374
 30
0.0
  0
LWPOLYLINE
  5
12c
100
AcDbEntity
  8
0
 62
7
100
AcDbPolyline
 90
3
 70
0
 10
9.131213
 20
1.718208
 30
0.0
 10
9.131212
 20
1.718209
 30
0.0
 10
9.131209
 20
1.718212
 30
0.0
  0
SPLINE
  5
12d
100
AcDbEntity
  8
0
 62
7
100
AcDbSpline
 70
8
 71
3
 72
8
 73
4
 74
0
 40
0
 40
0
 40
0
 40
0
 40
1
 40
1
 40
1
 40
1
 10
10.530921
 20
2.679700
 30
0.0
 10
10.271293
 20
2.679700
 30
0.0
 10
10.112845
 20
2.658182
 30
0.0
 10
10.019280
 20
2.587867
 30
0.0
  0
SPLINE
  5
12e
100
AcDbEntity
  8
0
 62
7
100
AcDbSpline
 70
8
 71
3
 72
8
 73
4
 74
0
 40
0
 40
0
 40
0
 40
0
 40
1
 40
1
 40
1
 40
1
 10
10.019280
 20
2.587867
 30
0.0
 10
9.925715
 20
2.517552
 30
0.0
 10
9.897032
 20
2.398440
 30
0.0
 10
9.896933
 20
2.203253
 30
0.0
  0
SPLINE
  5
12f
100
AcDbEntity
  8
0
 62
7
100
AcDbSpline
 70
8
 71
3
 72
8
 73
4
 74
0
 40
0
 40
0
 40
0
 40
0
 40
1
 40
1
 40
1
 40
1
 10
9.896933
 20
2.203253
 30
0.0
 10
9.896877
 20
2.056370
 30
0.0
 10
9.914089
 20
1.957864
 30
0.0
 10
9.965040
 20
1.883886
 30
0.0
  0
SPLINE
  5
130
100
AcDbEntity
  8
0
 62
7
100
AcDbSpline
 70
8
 71
3
 72
8
 73
4
 74
0
 40
0
 40
0
 40
0
 40
0
 40
1
 40
1
 40
1
 40
1
 10
9.965040
 20
1.883886
 30
0.0
 10
10.015991
 20
1.809908
 30
0.0
 10
10.100666
 20
1.760459
 30
0.0
 10
10.235494
 20
1.711690
 30
0.0
  0
SPLINE
  5
131
100
AcDbEntity
  8
0
 62
7
100
AcDbSpline
 70
8
 71
3
 72
8
 73
4
 74
0
 40
0
 40
0
 40
0
 40
0
 40
1
 40
1
 40
1
 40
1
 10
10.235494
 20
1.711690
 30
0.0
 10
10.283187
 20
1.694439
 30
0.0
 10
10.389845
 20
1.689941
 30
0.0
 10
10.498588
 20
1.695361
 30
0.0
  0
SPLINE
  5
132
100
AcDbEntity
  8
0
 62
7
100
AcDbSpline
 70
8
 71
3
 72
8
 73
4
 74
0
 40
0
 40
0
 40
0
 40
0
 40
1
 40
1
 40
1
 40
1
 10
10.498588
 20
1.695361
 30
0.0
 10
10.607330
 20
1.700781
 30
0.0
 10
10.718159
 20
1.716119
 30
0.0
 10
10.774194
 20
1.738539
 30
0.0
  0
LWPOLYLINE
  5
133
100
AcDbEntity
  8
0
 62
7
100
AcDbPolyline
 90
5
 70
0
 10
10.856383
 20
2.763374
 30
0.0
 10
10.856383
 20
2.721537
 30
0.0
 10
10.856383
 20
2.679700
 30
0.0
 10
10.693652
 20
2.679700
 30
0.0
 10
10.530921
 20
2.679700
 30
0.0
  0
SPLINE
  5
134
100
AcDbEntity
  8
0
 62
7
100
AcDbSpline
 70
8
 71
3
 72
8
 73
4
 74
0
 40
0
 40
0
 40
0
 40
0
 40
1
 40
1
 40
1
 40
1
 10
10.298994
 20
2.057996
 30
0.0
 10
10.272741
 20
2.069249
 30
0.0
 10
10.256866
 20
2.081590
 30
0.0
 10
10.247554
 20
2.104337
 30
0.0
  0
SPLINE
  5
135
100
AcDbEntity
  8
0
 62
7
100
AcDbSpline
 70
8
 71
3
 72
8
 73
4
 74
0
 40
0
 40
0
 40
0
 40
0
 40
1
 40
1
 40
1
 40
1
 10
10.247554
 20
2.104337
 30
0.0
 10
10.238242
 20
2.127085
 30
0.0
 10
10.235494
 20
2.160240
 30
0.0
 10
10.235494
 20
2.213124
 30
0.0
  0
LWPOLYLINE
  5
136
100
AcDbEntity
  8
0
 62
7
100
AcDbPolyline
 90
2
 70
0
 10
10.774194
 20
1.738539
 30
0.0
 10
10.774194
 20
1.738540
 30
0.0
  0
SPLINE
  5
137
100
AcDbEntity
  8
0
 62
7
100
AcDbSpline
 70
8
 71
3
 72
8
 73
4
 74
0
 40
0
 40
0
 40
0
 40
0
 40
1
 40
1
 40
1
 40
1
 10
10.546825
 20
2.341033
 30
0.0
 10
10.677925
 20
2.341033
 30
0.0
 10
10.756456
 20
2.339213
 30
0.0
 10
10.804078
 20
2.332530
 30
0.0
  0
SPLINE
  5
138
100
AcDbEntity
  8
0
 62
7
100
AcDbSpline
 70
8
 71
3
 72
8
 73
4
 74
0
 40
0
 40
0
 40
0
 40
0
 40
1
 40
1
 40
1
 40
1
 10
10.804078
 20
2.332530
 30
0.0
 10
10.851700
 20
2.325848
 30
0.0
 10
10.868411
 20
2.314306
 30
0.0
 10
10.875872
 20
2.294864
 30
0.0
  0
SPLINE
  5
139
100
AcDbEntity
  8
0
 62
7
100
AcDbSpline
 70
8
 71
3
 72
8
 73
4
 74
0
 40
0
 40
0
 40
0
 40
0
 40
1
 40
1
 40
1
 40
1
 10
10.875872
 20
2.294864
 30
0.0
 10
10.896770
 20
2.240403
 30
0.0
 10
10.862147
 20
2.181974
 30
0.0
 10
10.794105
 20
2.134876
 30
0.0
  0
SPLINE
  5
13a
100
AcDbEntity
  8
0
 62
7
100
AcDbSpline
 70
8
 71
3
 72
8
 73
4
 74
0
 40
0
 40
0
 40
0
 40
0
 40
1
 40
1
 40
1
 40
1
 10
10.794105
 20
2.134876
 30
0.0
 10
10.726062
 20
2.087778
 30
0.0
 10
10.624601
 20
2.052012
 30
0.0
 10
10.511823
 20
2.042875
 30
0.0
  0
SPLINE
  5
13b
100
AcDbEntity
  8
0
 62
7
100
AcDbSpline
 70
8
 71
3
 72
8
 73
4
 74
0
 40
0
 40
0
 40
0
 40
0
 40
1
 40
1
 40
1
 40
1
 10
10.511823
 20
2.042875
 30
0.0
 10
10.470758
 20
2.039548
 30
0.0
 10
10.426282
 20
2.039584
 30
0.0
 10
10.387707
 20
2.042322
 30
0.0
  0
SPLINE
  5
13c
100
AcDbEntity
  8
0
 62
7
100
AcDbSpline
 70
8
 71
3
 72
8
 73
4
 74
0
 40
0
 40
0
 40
0
 40
0
 40
1
 40
1
 40
1
 40
1
 10
10.387707
 20
2.042322
 30
0.0
 10
10.349132
 20
2.045062
 30
0.0
 10
10.316457
 20
2.050505
 30
0.0
 10
10.298994
 20
2.057995
 30
0.0
  0
LWPOLYLINE
  5
13d
100
AcDbEntity
  8
0
 62
7
100
AcDbPolyline
 90
5
 70
0
 10
10.235494
 20
2.213124
 30
0.0
 10
10.235494
 20
2.277079
 30
0.0
 10
10.235494
 20
2.341033
 30
0.0
 10
10.391159
 20
2.341033
 30
0.0
 10
10.546825
 20
2.341033
 30
0.0
  0
SPLINE
  5
13e
100
AcDbEntity
  8
0
 62
7
100
AcDbSpline
 70
8
 71
3
 72
8
 73
4
 74
0
 40
0
 40
0
 40
0
 40
0
 40
1
 40
1
 40
1
 40
1
 10
12.079229
 20
1.749616
 30
0.0
 10
12.113988
 20
1.776957
 30
0.0
 10
12.133482
 20
1.790782
 30
0.0
 10
12.154802
 20
1.792334
 30
0.0
  0
SPLINE
  5
13f
100
AcDbEntity
  8
0
 62
7
100
AcDbSpline
 70
8
 71
3
 72
8
 73
4
 74
0
 40
0
 40
0
 40
0
 40
0
 40
1
 40
1
 40
1
 40
1
 10
12.154802
 20
1.792334
 30
0.0
 10
12.176122
 20
1.793887
 30
0.0
 10
12.199266
 20
1.783166
 30
0.0
 10
12.241324
 20
1.761417
 30
0.0
  0
SPLINE
  5
140
100
AcDbEntity
  8
0
 62
7
100
AcDbSpline
 70
8
 71
3
 72
8
 73
4
 74
0
 40
0
 40
0
 40
0
 40
0
 40
1
 40
1
 40
1
 40
1
 10
12.241324
 20
1.761417
 30
0.0
 10
12.269709
 20
1.746738
 30
0.0
 10
12.311773
 20
1.734884
 30
0.0
 10
12.364384
 20
1.726362
 30
0.0
  0
SPLINE
  5
141
100
AcDbEntity
  8
0
 62
7
100
AcDbSpline
 70
8
 71
3
 72
8
 73
4
 74
0
 40
0
 40
0
 40
0
 40
0
 40
1
 40
1
 40
1
 40
1
 10
12.364384
 20
1.726362
 30
0.0
 10
12.416994
 20
1.717840
 30
0.0
 10
12.480152
 20
1.712649
 30
0.0
 10
12.550724
 20
1.711298
 30
0.0
  0
SPLINE
  5
142
100
AcDbEntity
  8
0
 62
7
100
AcDbSpline
 70
8
 71
3
 72
8
 73
4
 74
0
 40
0
 40
0
 40
0
 40
0
 40
1
 40
1
 40
1
 40
1
 10
12.550724
 20
1.711298
 30
0.0
 10
12.652921
 20
1.709342
 30
0.0
 10
12.710331
 20
1.709884
 30
0.0
 10
12.756319
 20
1.720957
 30
0.0
  0
SPLINE
  5
143
100
AcDbEntity
  8
0
 62
7
100
AcDbSpline
 70
8
 71
3
 72
8
 73
4
 74
0
 40
0
 40
0
 40
0
 40
0
 40
1
 40
1
 40
1
 40
1
 10
12.756319
 20
1.720957
 30
0.0
 10
12.802307
 20
1.732031
 30
0.0
 10
12.836872
 20
1.753637
 30
0.0
 10
12.893379
 20
1.793809
 30
0.0
  0
SPLINE
  5
144
100
AcDbEntity
  8
0
 62
7
100
AcDbSpline
 70
8
 71
3
 72
8
 73
4
 74
0
 40
0
 40
0
 40
0
 40
0
 40
1
 40
1
 40
1
 40
1
 10
12.893379
 20
1.793809
 30
0.0
 10
12.977580
 20
1.853670
 30
0.0
 10
13.037513
 20
1.921411
 30
0.0
 10
13.079398
 20
2.010219
 30
0.0
  0
SPLINE
  5
145
100
AcDbEntity
  8
0
 62
7
100
AcDbSpline
 70
8
 71
3
 72
8
 73
4
 74
0
 40
0
 40
0
 40
0
 40
0
 40
1
 40
1
 40
1
 40
1
 10
13.079398
 20
2.010219
 30
0.0
 10
13.121282
 20
2.099027
 30
0.0
 10
13.145118
 20
2.208902
 30
0.0
 10
13.157124
 20
2.353031
 30
0.0
  0
SPLINE
  5
146
100
AcDbEntity
  8
0
 62
7
100
AcDbSpline
 70
8
 71
3
 72
8
 73
4
 74
0
 40
0
 40
0
 40
0
 40
0
 40
1
 40
1
 40
1
 40
1
 10
13.157124
 20
2.353031
 30
0.0
 10
13.175281
 20
2.571011
 30
0.0
 10
13.168944
 20
2.726806
 30
0.0
 10
13.128806
 20
2.848672
 30
0.0
  0
SPLINE
  5
147
100
AcDbEntity
  8
0
 62
7
100
AcDbSpline
 70
8
 71
3
 72
8
 73
4
 74
0
 40
0
 40
0
 40
0
 40
0
 40
1
 40
1
 40
1
 40
1
 10
13.128806
 20
2.848672
 30
0.0
 10
13.088669
 20
2.970537
 30
0.0
 10
13.014731
 20
3.058473
 30
0.0
 10
12.897688
 20
3.140735
 30
0.0
  0
SPLINE
  5
148
100
AcDbEntity
  8
0
 62
7
100
AcDbSpline
 70
8
 71
3
 72
8
 73
4
 74
0
 40
0
 40
0
 40
0
 40
0
 40
1
 40
1
 40
1
 40
1
 10
12.897688
 20
3.140735
 30
0.0
 10
12.844790
 20
3.177913
 30
0.0
 10
12.810250
 20
3.198423
 30
0.0
 10
12.763468
 20
3.209527
 30
0.0
  0
SPLINE
  5
149
100
AcDbEntity
  8
0
 62
7
100
AcDbSpline
 70
8
 71
3
 72
8
 73
4
 74
0
 40
0
 40
0
 40
0
 40
0
 40
1
 40
1
 40
1
 40
1
 10
12.763468
 20
3.209527
 30
0.0
 10
12.716686
 20
3.220631
 30
0.0
 10
12.657662
 20
3.222329
 30
0.0
 10
12.555796
 20
3.221884
 30
0.0
  0
SPLINE
  5
14a
100
AcDbEntity
  8
0
 62
7
100
AcDbSpline
 70
8
 71
3
 72
8
 73
4
 74
0
 40
0
 40
0
 40
0
 40
0
 40
1
 40
1
 40
1
 40
1
 10
12.555796
 20
3.221884
 30
0.0
 10
12.482533
 20
3.221565
 30
0.0
 10
12.418883
 20
3.217496
 30
0.0
 10
12.366650
 20
3.209940
 30
0.0
  0
SPLINE
  5
14b
100
AcDbEntity
  8
0
 62
7
100
AcDbSpline
 70
8
 71
3
 72
8
 73
4
 74
0
 40
0
 40
0
 40
0
 40
0
 40
1
 40
1
 40
1
 40
1
 10
12.366650
 20
3.209940
 30
0.0
 10
12.314417
 20
3.202384
 30
0.0
 10
12.273601
 20
3.191341
 30
0.0
 10
12.246008
 20
3.177072
 30
0.0
  0
LWPOLYLINE
  5
14c
100
AcDbEntity
  8
0
 62
7
100
AcDbPolyline
 90
2
 70
0
 10
10.298994
 20
2.057995
 30
0.0
 10
10.298994
 20
2.057996
 30
0.0
  0
SPLINE
  5
14d
100
AcDbEntity
  8
0
 62
7
100
AcDbSpline
 70
8
 71
3
 72
8
 73
4
 74
0
 40
0
 40
0
 40
0
 40
0
 40
1
 40
1
 40
1
 40
1
 10
12.149555
 20
3.400670
 30
0.0
 10
12.143122
 20
3.547763
 30
0.0
 10
12.131901
 20
3.637395
 30
0.0
 10
12.105600
 20
3.690255
 30
0.0
  0
SPLINE
  5
14e
100
AcDbEntity
  8
0
 62
7
100
AcDbSpline
 70
8
 71
3
 72
8
 73
4
 74
0
 40
0
 40
0
 40
0
 40
0
 40
1
 40
1
 40
1
 40
1
 10
12.105600
 20
3.690255
 30
0.0
 10
12.079299
 20
3.743114
 30
0.0
 10
12.037917
 20
3.759200
 30
0.0
 10
11.971161
 20
3.759200
 30
0.0
  0
SPLINE
  5
14f
100
AcDbEntity
  8
0
 62
7
100
AcDbSpline
 70
8
 71
3
 72
8
 73
4
 74
0
 40
0
 40
0
 40
0
 40
0
 40
1
 40
1
 40
1
 40
1
 10
11.971161
 20
3.759200
 30
0.0
 10
11.889322
 20
3.759200
 30
0.0
 10
11.848335
 20
3.758788
 30
0.0
 10
11.827457
 20
3.630597
 30
0.0
  0
SPLINE
  5
150
100
AcDbEntity
  8
0
 62
7
100
AcDbSpline
 70
8
 71
3
 72
8
 73
4
 74
0
 40
0
 40
0
 40
0
 40
0
 40
1
 40
1
 40
1
 40
1
 10
11.827457
 20
3.630597
 30
0.0
 10
11.806578
 20
3.502407
 30
0.0
 10
11.805808
 20
3.246439
 30
0.0
 10
11.804402
 20
2.735330
 30
0.0
  0
LWPOLYLINE
  5
151
100
AcDbEntity
  8
0
 62
7
100
AcDbPolyline
 90
5
 70
0
 10
12.246008
 20
3.177072
 30
0.0
 10
12.203630
 20
3.155157
 30
0.0
 10
12.161251
 20
3.133243
 30
0.0
 10
12.155403
 20
3.266956
 30
0.0
 10
12.149555
 20
3.400670
 30
0.0
  0
SPLINE
  5
152
100
AcDbEntity
  8
0
 62
7
100
AcDbSpline
 70
8
 71
3
 72
8
 73
4
 74
0
 40
0
 40
0
 40
0
 40
0
 40
1
 40
1
 40
1
 40
1
 10
11.868454
 20
1.745987
 30
0.0
 10
11.910679
 20
1.711723
 30
0.0
 10
11.940633
 20
1.694743
 30
0.0
 10
11.971401
 20
1.695273
 30
0.0
  0
SPLINE
  5
153
100
AcDbEntity
  8
0
 62
7
100
AcDbSpline
 70
8
 71
3
 72
8
 73
4
 74
0
 40
0
 40
0
 40
0
 40
0
 40
1
 40
1
 40
1
 40
1
 10
11.971401
 20
1.695273
 30
0.0
 10
12.002168
 20
1.695803
 30
0.0
 10
12.033749
 20
1.713842
 30
0.0
 10
12.079229
 20
1.749616
 30
0.0
  0
LWPOLYLINE
  5
154
100
AcDbEntity
  8
0
 62
7
100
AcDbPolyline
 90
5
 70
0
 10
11.804402
 20
2.735330
 30
0.0
 10
11.803115
 20
2.267691
 30
0.0
 10
11.801828
 20
1.800051
 30
0.0
 10
11.835141
 20
1.773019
 30
0.0
 10
11.868454
 20
1.745987
 30
0.0
  0
SPLINE
  5
155
100
AcDbEntity
  8
0
 62
7
100
AcDbSpline
 70
8
 71
3
 72
8
 73
4
 74
0
 40
0
 40
0
 40
0
 40
0
 40
1
 40
1
 40
1
 40
1
 10
12.436828
 20
2.050705
 30
0.0
 10
12.425186
 20
2.055011
 30
0.0
 10
12.401109
 20
2.069826
 30
0.0
 10
12.371696
 20
2.090226
 30
0.0
  0
SPLINE
  5
156
100
AcDbEntity
  8
0
 62
7
100
AcDbSpline
 70
8
 71
3
 72
8
 73
4
 74
0
 40
0
 40
0
 40
0
 40
0
 40
1
 40
1
 40
1
 40
1
 10
12.371696
 20
2.090226
 30
0.0
 10
12.342283
 20
2.110625
 30
0.0
 10
12.307535
 20
2.136610
 30
0.0
 10
12.274550
 20
2.163255
 30
0.0
  0
LWPOLYLINE
  5
157
100
AcDbEntity
  8
0
 62
7
100
AcDbPolyline
 90
2
 70
0
 10
12.079229
 20
1.749616
 30
0.0
 10
12.079229
 20
1.749616
 30
0.0
  0
SPLINE
  5
158
100
AcDbEntity
  8
0
 62
7
100
AcDbSpline
 70
8
 71
3
 72
8
 73
4
 74
0
 40
0
 40
0
 40
0
 40
0
 40
1
 40
1
 40
1
 40
1
 10
12.154606
 20
2.467414
 30
0.0
 10
12.154606
 20
2.566995
 30
0.0
 10
12.155503
 20
2.619568
 30
0.0
 10
12.167416
 20
2.656536
 30
0.0
  0
SPLINE
  5
159
100
AcDbEntity
  8
0
 62
7
100
AcDbSpline
 70
8
 71
3
 72
8
 73
4
 74
0
 40
0
 40
0
 40
0
 40
0
 40
1
 40
1
 40
1
 40
1
 10
12.167416
 20
2.656536
 30
0.0
 10
12.179330
 20
2.693503
 30
0.0
 10
12.202260
 20
2.714865
 30
0.0
 10
12.246328
 20
2.752023
 30
0.0
  0
SPLINE
  5
15a
100
AcDbEntity
  8
0
 62
7
100
AcDbSpline
 70
8
 71
3
 72
8
 73
4
 74
0
 40
0
 40
0
 40
0
 40
0
 40
1
 40
1
 40
1
 40
1
 10
12.246328
 20
2.752023
 30
0.0
 10
12.340216
 20
2.831191
 30
0.0
 10
12.436236
 20
2.878356
 30
0.0
 10
12.524042
 20
2.891920
 30
0.0
  0
SPLINE
  5
15b
100
AcDbEntity
  8
0
 62
7
100
AcDbSpline
 70
8
 71
3
 72
8
 73
4
 74
0
 40
0
 40
0
 40
0
 40
0
 40
1
 40
1
 40
1
 40
1
 10
12.524042
 20
2.891920
 30
0.0
 10
12.611849
 20
2.905485
 30
0.0
 10
12.691442
 20
2.885448
 30
0.0
 10
12.752476
 20
2.830213
 30
0.0
  0
SPLINE
  5
15c
100
AcDbEntity
  8
0
 62
7
100
AcDbSpline
 70
8
 71
3
 72
8
 73
4
 74
0
 40
0
 40
0
 40
0
 40
0
 40
1
 40
1
 40
1
 40
1
 10
12.752476
 20
2.830213
 30
0.0
 10
12.774343
 20
2.810424
 30
0.0
 10
12.787153
 20
2.787178
 30
0.0
 10
12.794496
 20
2.734939
 30
0.0
  0
SPLINE
  5
15d
100
AcDbEntity
  8
0
 62
7
100
AcDbSpline
 70
8
 71
3
 72
8
 73
4
 74
0
 40
0
 40
0
 40
0
 40
0
 40
1
 40
1
 40
1
 40
1
 10
12.794496
 20
2.734939
 30
0.0
 10
12.801840
 20
2.682701
 30
0.0
 10
12.803717
 20
2.601469
 30
0.0
 10
12.803717
 20
2.465708
 30
0.0
  0
SPLINE
  5
15e
100
AcDbEntity
  8
0
 62
7
100
AcDbSpline
 70
8
 71
3
 72
8
 73
4
 74
0
 40
0
 40
0
 40
0
 40
0
 40
1
 40
1
 40
1
 40
1
 10
12.803717
 20
2.465708
 30
0.0
 10
12.803717
 20
2.310673
 30
0.0
 10
12.803243
 20
2.230769
 30
0.0
 10
12.793712
 20
2.182498
 30
0.0
  0
SPLINE
  5
15f
100
AcDbEntity
  8
0
 62
7
100
AcDbSpline
 70
8
 71
3
 72
8
 73
4
 74
0
 40
0
 40
0
 40
0
 40
0
 40
1
 40
1
 40
1
 40
1
 10
12.793712
 20
2.182498
 30
0.0
 10
12.784180
 20
2.134226
 30
0.0
 10
12.765590
 20
2.117587
 30
0.0
 10
12.729354
 20
2.089082
 30
0.0
  0
SPLINE
  5
160
100
AcDbEntity
  8
0
 62
7
100
AcDbSpline
 70
8
 71
3
 72
8
 73
4
 74
0
 40
0
 40
0
 40
0
 40
0
 40
1
 40
1
 40
1
 40
1
 10
12.729354
 20
2.089082
 30
0.0
 10
12.693928
 20
2.061215
 30
0.0
 10
12.643964
 20
2.043051
 30
0.0
 10
12.591273
 20
2.036138
 30
0.0
  0
SPLINE
  5
161
100
AcDbEntity
  8
0
 62
7
100
AcDbSpline
 70
8
 71
3
 72
8
 73
4
 74
0
 40
0
 40
0
 40
0
 40
0
 40
1
 40
1
 40
1
 40
1
 10
12.591273
 20
2.036138
 30
0.0
 10
12.538582
 20
2.029225
 30
0.0
 10
12.483163
 20
2.033564
 30
0.0
 10
12.436828
 20
2.050705
 30
0.0
  0
LWPOLYLINE
  5
162
100
AcDbEntity
  8
0
 62
7
100
AcDbPolyline
 90
5
 70
0
 10
12.274550
 20
2.163255
 30
0.0
 10
12.214578
 20
2.211700
 30
0.0
 10
12.154606
 20
2.260146
 30
0.0
 10
12.154606
 20
2.363780
 30
0.0
 10
12.154606
 20
2.467414
 30
0.0
  0
SPLINE
  5
163
100
AcDbEntity
  8
0
 62
7
100
AcDbSpline
 70
8
 71
3
 72
8
 73
4
 74
0
 40
0
 40
0
 40
0
 40
0
 40
1
 40
1
 40
1
 40
1
 10
1.076744
 20
1.758520
 30
0.0
 10
1.101009
 20
1.776264
 30
0.0
 10
1.114377
 20
1.801334
 30
0.0
 10
1.123198
 20
1.917031
 30
0.0
  0
SPLINE
  5
164
100
AcDbEntity
  8
0
 62
7
100
AcDbSpline
 70
8
 71
3
 72
8
 73
4
 74
0
 40
0
 40
0
 40
0
 40
0
 40
1
 40
1
 40
1
 40
1
 10
1.123198
 20
1.917031
 30
0.0
 10
1.132018
 20
2.032728
 30
0.0
 10
1.136291
 20
2.239051
 30
0.0
 10
1.142366
 20
2.619298
 30
0.0
  0
SPLINE
  5
165
100
AcDbEntity
  8
0
 62
7
100
AcDbSpline
 70
8
 71
3
 72
8
 73
4
 74
0
 40
0
 40
0
 40
0
 40
0
 40
1
 40
1
 40
1
 40
1
 10
1.142366
 20
2.619298
 30
0.0
 10
1.148356
 20
2.994170
 30
0.0
 10
1.152700
 20
3.199770
 30
0.0
 10
1.161009
 20
3.311653
 30
0.0
  0
SPLINE
  5
166
100
AcDbEntity
  8
0
 62
7
100
AcDbSpline
 70
8
 71
3
 72
8
 73
4
 74
0
 40
0
 40
0
 40
0
 40
0
 40
1
 40
1
 40
1
 40
1
 10
1.161009
 20
3.311653
 30
0.0
 10
1.169317
 20
3.423535
 30
0.0
 10
1.181591
 20
3.441700
 30
0.0
 10
1.203439
 20
3.441700
 30
0.0
  0
SPLINE
  5
167
100
AcDbEntity
  8
0
 62
7
100
AcDbSpline
 70
8
 71
3
 72
8
 73
4
 74
0
 40
0
 40
0
 40
0
 40
0
 40
1
 40
1
 40
1
 40
1
 10
1.203439
 20
3.441700
 30
0.0
 10
1.216620
 20
3.441700
 30
0.0
 10
1.236286
 20
3.429794
 30
0.0
 10
1.257351
 20
3.410612
 30
0.0
  0
SPLINE
  5
168
100
AcDbEntity
  8
0
 62
7
100
AcDbSpline
 70
8
 71
3
 72
8
 73
4
 74
0
 40
0
 40
0
 40
0
 40
0
 40
1
 40
1
 40
1
 40
1
 10
1.257351
 20
3.410612
 30
0.0
 10
1.278417
 20
3.391429
 30
0.0
 10
1.300882
 20
3.364971
 30
0.0
 10
1.319662
 20
3.335867
 30
0.0
  0
SPLINE
  5
169
100
AcDbEntity
  8
0
 62
7
100
AcDbSpline
 70
8
 71
3
 72
8
 73
4
 74
0
 40
0
 40
0
 40
0
 40
0
 40
1
 40
1
 40
1
 40
1
 10
1.319662
 20
3.335867
 30
0.0
 10
1.362473
 20
3.269520
 30
0.0
 10
1.411988
 20
3.230366
 30
0.0
 10
1.459028
 20
3.220356
 30
0.0
  0
SPLINE
  5
16a
100
AcDbEntity
  8
0
 62
7
100
AcDbSpline
 70
8
 71
3
 72
8
 73
4
 74
0
 40
0
 40
0
 40
0
 40
0
 40
1
 40
1
 40
1
 40
1
 10
1.459028
 20
3.220356
 30
0.0
 10
1.506068
 20
3.210347
 30
0.0
 10
1.550634
 20
3.229483
 30
0.0
 10
1.583549
 20
3.279717
 30
0.0
  0
SPLINE
  5
16b
100
AcDbEntity
  8
0
 62
7
100
AcDbSpline
 70
8
 71
3
 72
8
 73
4
 74
0
 40
0
 40
0
 40
0
 40
0
 40
1
 40
1
 40
1
 40
1
 10
1.583549
 20
3.279717
 30
0.0
 10
1.595658
 20
3.298198
 30
0.0
 10
1.608727
 20
3.339380
 30
0.0
 10
1.620028
 20
3.390841
 30
0.0
  0
SPLINE
  5
16c
100
AcDbEntity
  8
0
 62
7
100
AcDbSpline
 70
8
 71
3
 72
8
 73
4
 74
0
 40
0
 40
0
 40
0
 40
0
 40
1
 40
1
 40
1
 40
1
 10
1.620028
 20
3.390841
 30
0.0
 10
1.631330
 20
3.442303
 30
0.0
 10
1.640863
 20
3.504044
 30
0.0
 10
1.645901
 20
3.563643
 30
0.0
  0
LWPOLYLINE
  5
16d
100
AcDbEntity
  8
0
 62
7
100
AcDbPolyline
 90
2
 70
0
 10
12.436828
 20
2.050705
 30
0.0
 10
12.436828
 20
2.050705
 30
0.0
  0
SPLINE
  5
16e
100
AcDbEntity
  8
0
 62
7
100
AcDbSpline
 70
8
 71
3
 72
8
 73
4
 74
0
 40
0
 40
0
 40
0
 40
0
 40
1
 40
1
 40
1
 40
1
 10
0.273050
 20
3.614561
 30
0.0
 10
0.273050
 20
3.568965
 30
0.0
 10
0.275089
 20
3.517317
 30
0.0
 10
0.278374
 20
3.470839
 30
0.0
  0
SPLINE
  5
16f
100
AcDbEntity
  8
0
 62
7
100
AcDbSpline
 70
8
 71
3
 72
8
 73
4
 74
0
 40
0
 40
0
 40
0
 40
0
 40
1
 40
1
 40
1
 40
1
 10
0.278374
 20
3.470839
 30
0.0
 10
0.281660
 20
3.424360
 30
0.0
 10
0.286191
 20
3.383050
 30
0.0
 10
0.291176
 20
3.358127
 30
0.0
  0
SPLINE
  5
170
100
AcDbEntity
  8
0
 62
7
100
AcDbSpline
 70
8
 71
3
 72
8
 73
4
 74
0
 40
0
 40
0
 40
0
 40
0
 40
1
 40
1
 40
1
 40
1
 10
0.291176
 20
3.358127
 30
0.0
 10
0.308768
 20
3.270165
 30
0.0
 10
0.369557
 20
3.224615
 30
0.0
 10
0.436242
 20
3.222603
 30
0.0
  0
SPLINE
  5
171
100
AcDbEntity
  8
0
 62
7
100
AcDbSpline
 70
8
 71
3
 72
8
 73
4
 74
0
 40
0
 40
0
 40
0
 40
0
 40
1
 40
1
 40
1
 40
1
 10
0.436242
 20
3.222603
 30
0.0
 10
0.502928
 20
3.220591
 30
0.0
 10
0.575512
 20
3.262117
 30
0.0
 10
0.616695
 20
3.348306
 30
0.0
  0
SPLINE
  5
172
100
AcDbEntity
  8
0
 62
7
100
AcDbSpline
 70
8
 71
3
 72
8
 73
4
 74
0
 40
0
 40
0
 40
0
 40
0
 40
1
 40
1
 40
1
 40
1
 10
0.616695
 20
3.348306
 30
0.0
 10
0.627113
 20
3.370109
 30
0.0
 10
0.643292
 20
3.390891
 30
0.0
 10
0.660966
 20
3.406810
 30
0.0
  0
SPLINE
  5
173
100
AcDbEntity
  8
0
 62
7
100
AcDbSpline
 70
8
 71
3
 72
8
 73
4
 74
0
 40
0
 40
0
 40
0
 40
0
 40
1
 40
1
 40
1
 40
1
 10
0.660966
 20
3.406810
 30
0.0
 10
0.678640
 20
3.422729
 30
0.0
 10
0.697809
 20
3.433785
 30
0.0
 10
0.714207
 20
3.436135
 30
0.0
  0
SPLINE
  5
174
100
AcDbEntity
  8
0
 62
7
100
AcDbSpline
 70
8
 71
3
 72
8
 73
4
 74
0
 40
0
 40
0
 40
0
 40
0
 40
1
 40
1
 40
1
 40
1
 10
0.714207
 20
3.436135
 30
0.0
 10
0.743849
 20
3.440383
 30
0.0
 10
0.758773
 20
3.441333
 30
0.0
 10
0.767814
 20
3.338890
 30
0.0
  0
SPLINE
  5
175
100
AcDbEntity
  8
0
 62
7
100
AcDbSpline
 70
8
 71
3
 72
8
 73
4
 74
0
 40
0
 40
0
 40
0
 40
0
 40
1
 40
1
 40
1
 40
1
 10
0.767814
 20
3.338890
 30
0.0
 10
0.776855
 20
3.236447
 30
0.0
 10
0.780013
 20
3.030610
 30
0.0
 10
0.786120
 20
2.621284
 30
0.0
  0
SPLINE
  5
176
100
AcDbEntity
  8
0
 62
7
100
AcDbSpline
 70
8
 71
3
 72
8
 73
4
 74
0
 40
0
 40
0
 40
0
 40
0
 40
1
 40
1
 40
1
 40
1
 10
0.786120
 20
2.621284
 30
0.0
 10
0.791834
 20
2.238335
 30
0.0
 10
0.795834
 20
2.031807
 30
0.0
 10
0.804586
 20
1.916497
 30
0.0
  0
SPLINE
  5
177
100
AcDbEntity
  8
0
 62
7
100
AcDbSpline
 70
8
 71
3
 72
8
 73
4
 74
0
 40
0
 40
0
 40
0
 40
0
 40
1
 40
1
 40
1
 40
1
 10
0.804586
 20
1.916497
 30
0.0
 10
0.813338
 20
1.801187
 30
0.0
 10
0.826842
 20
1.777095
 30
0.0
 10
0.851567
 20
1.759016
 30
0.0
  0
SPLINE
  5
178
100
AcDbEntity
  8
0
 62
7
100
AcDbSpline
 70
8
 71
3
 72
8
 73
4
 74
0
 40
0
 40
0
 40
0
 40
0
 40
1
 40
1
 40
1
 40
1
 10
0.851567
 20
1.759016
 30
0.0
 10
0.885372
 20
1.734297
 30
0.0
 10
0.924865
 20
1.721887
 30
0.0
 10
0.964308
 20
1.721801
 30
0.0
  0
SPLINE
  5
179
100
AcDbEntity
  8
0
 62
7
100
AcDbSpline
 70
8
 71
3
 72
8
 73
4
 74
0
 40
0
 40
0
 40
0
 40
0
 40
1
 40
1
 40
1
 40
1
 10
0.964308
 20
1.721801
 30
0.0
 10
1.003750
 20
1.721716
 30
0.0
 10
1.043141
 20
1.733949
 30
0.0
 10
1.076744
 20
1.758520
 30
0.0
  0
LWPOLYLINE
  5
17a
100
AcDbEntity
  8
0
 62
7
100
AcDbPolyline
 90
9
 70
0
 10
1.645901
 20
3.563643
 30
0.0
 10
1.655061
 20
3.672005
 30
0.0
 10
1.664221
 20
3.780367
 30
0.0
 10
1.316429
 20
3.780367
 30
0.0
 10
0.968636
 20
3.780367
 30
0.0
 10
0.620843
 20
3.780367
 30
0.0
 10
0.273050
 20
3.780367
 30
0.0
 10
0.273050
 20
3.697464
 30
0.0
 10
0.273050
 20
3.614561
 30
0.0
  0
SPLINE
  5
17b
100
AcDbEntity
  8
0
 62
7
100
AcDbSpline
 70
8
 71
3
 72
8
 73
4
 74
0
 40
0
 40
0
 40
0
 40
0
 40
1
 40
1
 40
1
 40
1
 10
2.499294
 20
1.770401
 30
0.0
 10
2.506691
 20
1.784222
 30
0.0
 10
2.515636
 20
1.819329
 30
0.0
 10
2.524090
 20
1.864759
 30
0.0
  0
SPLINE
  5
17c
100
AcDbEntity
  8
0
 62
7
100
AcDbSpline
 70
8
 71
3
 72
8
 73
4
 74
0
 40
0
 40
0
 40
0
 40
0
 40
1
 40
1
 40
1
 40
1
 10
2.524090
 20
1.864759
 30
0.0
 10
2.532544
 20
1.910188
 30
0.0
 10
2.540506
 20
1.965939
 30
0.0
 10
2.545936
 20
2.021045
 30
0.0
  0
SPLINE
  5
17d
100
AcDbEntity
  8
0
 62
7
100
AcDbSpline
 70
8
 71
3
 72
8
 73
4
 74
0
 40
0
 40
0
 40
0
 40
0
 40
1
 40
1
 40
1
 40
1
 10
2.545936
 20
2.021045
 30
0.0
 10
2.551366
 20
2.076152
 30
0.0
 10
2.558772
 20
2.130243
 30
0.0
 10
2.566328
 20
2.172999
 30
0.0
  0
SPLINE
  5
17e
100
AcDbEntity
  8
0
 62
7
100
AcDbSpline
 70
8
 71
3
 72
8
 73
4
 74
0
 40
0
 40
0
 40
0
 40
0
 40
1
 40
1
 40
1
 40
1
 10
2.566328
 20
2.172999
 30
0.0
 10
2.573884
 20
2.215755
 30
0.0
 10
2.581592
 20
2.247175
 30
0.0
 10
2.587626
 20
2.256940
 30
0.0
  0
SPLINE
  5
17f
100
AcDbEntity
  8
0
 62
7
100
AcDbSpline
 70
8
 71
3
 72
8
 73
4
 74
0
 40
0
 40
0
 40
0
 40
0
 40
1
 40
1
 40
1
 40
1
 10
2.587626
 20
2.256940
 30
0.0
 10
2.595563
 20
2.269782
 30
0.0
 10
2.613069
 20
2.269117
 30
0.0
 10
2.644306
 20
2.252764
 30
0.0
  0
SPLINE
  5
180
100
AcDbEntity
  8
0
 62
7
100
AcDbSpline
 70
8
 71
3
 72
8
 73
4
 74
0
 40
0
 40
0
 40
0
 40
0
 40
1
 40
1
 40
1
 40
1
 10
2.644306
 20
2.252764
 30
0.0
 10
2.675544
 20
2.236411
 30
0.0
 10
2.720513
 20
2.204370
 30
0.0
 10
2.783377
 20
2.154462
 30
0.0
  0
SPLINE
  5
181
100
AcDbEntity
  8
0
 62
7
100
AcDbSpline
 70
8
 71
3
 72
8
 73
4
 74
0
 40
0
 40
0
 40
0
 40
0
 40
1
 40
1
 40
1
 40
1
 10
2.783377
 20
2.154462
 30
0.0
 10
3.084358
 20
1.915511
 30
0.0
 10
3.236427
 20
1.795177
 30
0.0
 10
3.326196
 20
1.746297
 30
0.0
  0
SPLINE
  5
182
100
AcDbEntity
  8
0
 62
7
100
AcDbSpline
 70
8
 71
3
 72
8
 73
4
 74
0
 40
0
 40
0
 40
0
 40
0
 40
1
 40
1
 40
1
 40
1
 10
3.326196
 20
1.746297
 30
0.0
 10
3.415965
 20
1.697416
 30
0.0
 10
3.443434
 20
1.719990
 30
0.0
 10
3.495217
 20
1.766852
 30
0.0
  0
SPLINE
  5
183
100
AcDbEntity
  8
0
 62
7
100
AcDbSpline
 70
8
 71
3
 72
8
 73
4
 74
0
 40
0
 40
0
 40
0
 40
0
 40
1
 40
1
 40
1
 40
1
 10
3.495217
 20
1.766852
 30
0.0
 10
3.509410
 20
1.779696
 30
0.0
 10
3.522313
 20
1.798603
 30
0.0
 10
3.531667
 20
1.818717
 30
0.0
  0
SPLINE
  5
184
100
AcDbEntity
  8
0
 62
7
100
AcDbSpline
 70
8
 71
3
 72
8
 73
4
 74
0
 40
0
 40
0
 40
0
 40
0
 40
1
 40
1
 40
1
 40
1
 10
3.531667
 20
1.818717
 30
0.0
 10
3.541022
 20
1.838831
 30
0.0
 10
3.546828
 20
1.860152
 30
0.0
 10
3.546828
 20
1.877825
 30
0.0
  0
SPLINE
  5
185
100
AcDbEntity
  8
0
 62
7
100
AcDbSpline
 70
8
 71
3
 72
8
 73
4
 74
0
 40
0
 40
0
 40
0
 40
0
 40
1
 40
1
 40
1
 40
1
 10
3.546828
 20
1.877825
 30
0.0
 10
3.546828
 20
1.908126
 30
0.0
 10
3.531399
 20
1.938843
 30
0.0
 10
3.454037
 20
2.016888
 30
0.0
  0
SPLINE
  5
186
100
AcDbEntity
  8
0
 62
7
100
AcDbSpline
 70
8
 71
3
 72
8
 73
4
 74
0
 40
0
 40
0
 40
0
 40
0
 40
1
 40
1
 40
1
 40
1
 10
3.454037
 20
2.016888
 30
0.0
 10
3.376676
 20
2.094934
 30
0.0
 10
3.237382
 20
2.220308
 30
0.0
 10
2.989654
 20
2.439926
 30
0.0
  0
LWPOLYLINE
  5
187
100
AcDbEntity
  8
0
 62
7
100
AcDbPolyline
 90
3
 70
0
 10
1.076744
 20
1.758520
 30
0.0
 10
1.076744
 20
1.758520
 30
0.0
 10
1.076744
 20
1.758520
 30
0.0
  0
SPLINE
  5
188
100
AcDbEntity
  8
0
 62
7
100
AcDbSpline
 70
8
 71
3
 72
8
 73
4
 74
0
 40
0
 40
0
 40
0
 40
0
 40
1
 40
1
 40
1
 40
1
 10
3.132185
 20
2.731439
 30
0.0
 10
3.277379
 20
2.857471
 30
0.0
 10
3.359550
 20
2.935516
 30
0.0
 10
3.397193
 20
2.994612
 30
0.0
  0
SPLINE
  5
189
100
AcDbEntity
  8
0
 62
7
100
AcDbSpline
 70
8
 71
3
 72
8
 73
4
 74
0
 40
0
 40
0
 40
0
 40
0
 40
1
 40
1
 40
1
 40
1
 10
3.397193
 20
2.994612
 30
0.0
 10
3.434837
 20
3.053707
 30
0.0
 10
3.427954
 20
3.093853
 30
0.0
 10
3.395040
 20
3.144087
 30
0.0
  0
SPLINE
  5
18a
100
AcDbEntity
  8
0
 62
7
100
AcDbSpline
 70
8
 71
3
 72
8
 73
4
 74
0
 40
0
 40
0
 40
0
 40
0
 40
1
 40
1
 40
1
 40
1
 10
3.395040
 20
3.144087
 30
0.0
 10
3.350118
 20
3.212646
 30
0.0
 10
3.300587
 20
3.235512
 30
0.0
 10
3.211670
 20
3.198021
 30
0.0
  0
SPLINE
  5
18b
100
AcDbEntity
  8
0
 62
7
100
AcDbSpline
 70
8
 71
3
 72
8
 73
4
 74
0
 40
0
 40
0
 40
0
 40
0
 40
1
 40
1
 40
1
 40
1
 10
3.211670
 20
3.198021
 30
0.0
 10
3.122752
 20
3.160530
 30
0.0
 10
2.994447
 20
3.062683
 30
0.0
 10
2.791978
 20
2.889816
 30
0.0
  0
LWPOLYLINE
  5
18c
100
AcDbEntity
  8
0
 62
7
100
AcDbPolyline
 90
5
 70
0
 10
2.989654
 20
2.439926
 30
0.0
 10
2.941837
 20
2.482317
 30
0.0
 10
2.894020
 20
2.524707
 30
0.0
 10
3.013103
 20
2.628073
 30
0.0
 10
3.132185
 20
2.731439
 30
0.0
  0
SPLINE
  5
18d
100
AcDbEntity
  8
0
 62
7
100
AcDbSpline
 70
8
 71
3
 72
8
 73
4
 74
0
 40
0
 40
0
 40
0
 40
0
 40
1
 40
1
 40
1
 40
1
 10
2.556755
 20
3.164086
 30
0.0
 10
2.552181
 20
3.292612
 30
0.0
 10
2.544530
 20
3.414519
 30
0.0
 10
2.535785
 20
3.508472
 30
0.0
  0
SPLINE
  5
18e
100
AcDbEntity
  8
0
 62
7
100
AcDbSpline
 70
8
 71
3
 72
8
 73
4
 74
0
 40
0
 40
0
 40
0
 40
0
 40
1
 40
1
 40
1
 40
1
 10
2.535785
 20
3.508472
 30
0.0
 10
2.527041
 20
3.602425
 30
0.0
 10
2.517204
 20
3.668425
 30
0.0
 10
2.508260
 20
3.685137
 30
0.0
  0
SPLINE
  5
18f
100
AcDbEntity
  8
0
 62
7
100
AcDbSpline
 70
8
 71
3
 72
8
 73
4
 74
0
 40
0
 40
0
 40
0
 40
0
 40
1
 40
1
 40
1
 40
1
 10
2.508260
 20
3.685137
 30
0.0
 10
2.475658
 20
3.746053
 30
0.0
 10
2.414734
 20
3.770401
 30
0.0
 10
2.358701
 20
3.762730
 30
0.0
  0
SPLINE
  5
190
100
AcDbEntity
  8
0
 62
7
100
AcDbSpline
 70
8
 71
3
 72
8
 73
4
 74
0
 40
0
 40
0
 40
0
 40
0
 40
1
 40
1
 40
1
 40
1
 10
2.358701
 20
3.762730
 30
0.0
 10
2.302669
 20
3.755058
 30
0.0
 10
2.251528
 20
3.715367
 30
0.0
 10
2.238495
 20
3.648204
 30
0.0
  0
SPLINE
  5
191
100
AcDbEntity
  8
0
 62
7
100
AcDbSpline
 70
8
 71
3
 72
8
 73
4
 74
0
 40
0
 40
0
 40
0
 40
0
 40
1
 40
1
 40
1
 40
1
 10
2.238495
 20
3.648204
 30
0.0
 10
2.203969
 20
3.470284
 30
0.0
 10
2.192353
 20
3.017532
 30
0.0
 10
2.198838
 20
2.599791
 30
0.0
  0
SPLINE
  5
192
100
AcDbEntity
  8
0
 62
7
100
AcDbSpline
 70
8
 71
3
 72
8
 73
4
 74
0
 40
0
 40
0
 40
0
 40
0
 40
1
 40
1
 40
1
 40
1
 10
2.198838
 20
2.599791
 30
0.0
 10
2.205323
 20
2.182049
 30
0.0
 10
2.229908
 20
1.799319
 30
0.0
 10
2.267783
 20
1.761444
 30
0.0
  0
SPLINE
  5
193
100
AcDbEntity
  8
0
 62
7
100
AcDbSpline
 70
8
 71
3
 72
8
 73
4
 74
0
 40
0
 40
0
 40
0
 40
0
 40
1
 40
1
 40
1
 40
1
 10
2.267783
 20
1.761444
 30
0.0
 10
2.296824
 20
1.732404
 30
0.0
 10
2.346459
 20
1.719242
 30
0.0
 10
2.392956
 20
1.721041
 30
0.0
  0
SPLINE
  5
194
100
AcDbEntity
  8
0
 62
7
100
AcDbSpline
 70
8
 71
3
 72
8
 73
4
 74
0
 40
0
 40
0
 40
0
 40
0
 40
1
 40
1
 40
1
 40
1
 10
2.392956
 20
1.721041
 30
0.0
 10
2.439452
 20
1.722839
 30
0.0
 10
2.482810
 20
1.739600
 30
0.0
 10
2.499295
 20
1.770401
 30
0.0
  0
LWPOLYLINE
  5
195
100
AcDbEntity
  8
0
 62
7
100
AcDbPolyline
 90
5
 70
0
 10
2.791978
 20
2.889816
 30
0.0
 10
2.682570
 20
2.796404
 30
0.0
 10
2.573162
 20
2.702992
 30
0.0
 10
2.564958
 20
2.933539
 30
0.0
 10
2.556755
 20
3.164086
 30
0.0
  0
SPLINE
  5
196
100
AcDbEntity
  8
0
 62
7
100
AcDbSpline
 70
8
 71
3
 72
8
 73
4
 74
0
 40
0
 40
0
 40
0
 40
0
 40
1
 40
1
 40
1
 40
1
 10
4.418405
 20
1.770401
 30
0.0
 10
4.425802
 20
1.784222
 30
0.0
 10
4.434747
 20
1.819329
 30
0.0
 10
4.443201
 20
1.864759
 30
0.0
  0
SPLINE
  5
197
100
AcDbEntity
  8
0
 62
7
100
AcDbSpline
 70
8
 71
3
 72
8
 73
4
 74
0
 40
0
 40
0
 40
0
 40
0
 40
1
 40
1
 40
1
 40
1
 10
4.443201
 20
1.864759
 30
0.0
 10
4.451655
 20
1.910188
 30
0.0
 10
4.459617
 20
1.965939
 30
0.0
 10
4.465047
 20
2.021045
 30
0.0
  0
SPLINE
  5
198
100
AcDbEntity
  8
0
 62
7
100
AcDbSpline
 70
8
 71
3
 72
8
 73
4
 74
0
 40
0
 40
0
 40
0
 40
0
 40
1
 40
1
 40
1
 40
1
 10
4.465047
 20
2.021045
 30
0.0
 10
4.470477
 20
2.076152
 30
0.0
 10
4.477883
 20
2.130243
 30
0.0
 10
4.485439
 20
2.172999
 30
0.0
  0
SPLINE
  5
199
100
AcDbEntity
  8
0
 62
7
100
AcDbSpline
 70
8
 71
3
 72
8
 73
4
 74
0
 40
0
 40
0
 40
0
 40
0
 40
1
 40
1
 40
1
 40
1
 10
4.485439
 20
2.172999
 30
0.0
 10
4.492995
 20
2.215755
 30
0.0
 10
4.500703
 20
2.247175
 30
0.0
 10
4.506737
 20
2.256940
 30
0.0
  0
SPLINE
  5
19a
100
AcDbEntity
  8
0
 62
7
100
AcDbSpline
 70
8
 71
3
 72
8
 73
4
 74
0
 40
0
 40
0
 40
0
 40
0
 40
1
 40
1
 40
1
 40
1
 10
4.506737
 20
2.256940
 30
0.0
 10
4.514674
 20
2.269782
 30
0.0
 10
4.532180
 20
2.269117
 30
0.0
 10
4.563417
 20
2.252764
 30
0.0
  0
SPLINE
  5
19b
100
AcDbEntity
  8
0
 62
7
100
AcDbSpline
 70
8
 71
3
 72
8
 73
4
 74
0
 40
0
 40
0
 40
0
 40
0
 40
1
 40
1
 40
1
 40
1
 10
4.563417
 20
2.252764
 30
0.0
 10
4.594655
 20
2.236411
 30
0.0
 10
4.639624
 20
2.204370
 30
0.0
 10
4.702488
 20
2.154462
 30
0.0
  0
SPLINE
  5
19c
100
AcDbEntity
  8
0
 62
7
100
AcDbSpline
 70
8
 71
3
 72
8
 73
4
 74
0
 40
0
 40
0
 40
0
 40
0
 40
1
 40
1
 40
1
 40
1
 10
4.702488
 20
2.154462
 30
0.0
 10
5.003469
 20
1.915511
 30
0.0
 10
5.155538
 20
1.795177
 30
0.0
 10
5.245307
 20
1.746297
 30
0.0
  0
SPLINE
  5
19d
100
AcDbEntity
  8
0
 62
7
100
AcDbSpline
 70
8
 71
3
 72
8
 73
4
 74
0
 40
0
 40
0
 40
0
 40
0
 40
1
 40
1
 40
1
 40
1
 10
5.245307
 20
1.746297
 30
0.0
 10
5.335076
 20
1.697416
 30
0.0
 10
5.362545
 20
1.719990
 30
0.0
 10
5.414328
 20
1.766852
 30
0.0
  0
SPLINE
  5
19e
100
AcDbEntity
  8
0
 62
7
100
AcDbSpline
 70
8
 71
3
 72
8
 73
4
 74
0
 40
0
 40
0
 40
0
 40
0
 40
1
 40
1
 40
1
 40
1
 10
5.414328
 20
1.766852
 30
0.0
 10
5.428521
 20
1.779696
 30
0.0
 10
5.441424
 20
1.798603
 30
0.0
 10
5.450778
 20
1.818717
 30
0.0
  0
SPLINE
  5
19f
100
AcDbEntity
  8
0
 62
7
100
AcDbSpline
 70
8
 71
3
 72
8
 73
4
 74
0
 40
0
 40
0
 40
0
 40
0
 40
1
 40
1
 40
1
 40
1
 10
5.450778
 20
1.818717
 30
0.0
 10
5.460133
 20
1.838831
 30
0.0
 10
5.465939
 20
1.860152
 30
0.0
 10
5.465939
 20
1.877825
 30
0.0
  0
SPLINE
  5
1a0
100
AcDbEntity
  8
0
 62
7
100
AcDbSpline
 70
8
 71
3
 72
8
 73
4
 74
0
 40
0
 40
0
 40
0
 40
0
 40
1
 40
1
 40
1
 40
1
 10
5.465939
 20
1.877825
 30
0.0
 10
5.465939
 20
1.908126
 30
0.0
 10
5.450510
 20
1.938843
 30
0.0
 10
5.373148
 20
2.016888
 30
0.0
  0
SPLINE
  5
1a1
100
AcDbEntity
  8
0
 62
7
100
AcDbSpline
 70
8
 71
3
 72
8
 73
4
 74
0
 40
0
 40
0
 40
0
 40
0
 40
1
 40
1
 40
1
 40
1
 10
5.373148
 20
2.016888
 30
0.0
 10
5.295787
 20
2.094934
 30
0.0
 10
5.156494
 20
2.220308
 30
0.0
 10
4.908765
 20
2.439926
 30
0.0
  0
LWPOLYLINE
  5
1a2
100
AcDbEntity
  8
0
 62
7
100
AcDbPolyline
 90
2
 70
0
 10
2.499295
 20
1.770401
 30
0.0
 10
2.499294
 20
1.770401
 30
0.0
  0
SPLINE
  5
1a3
100
AcDbEntity
  8
0
 62
7
100
AcDbSpline
 70
8
 71
3
 72
8
 73
4
 74
0
 40
0
 40
0
 40
0
 40
0
 40
1
 40
1
 40
1
 40
1
 10
5.051296
 20
2.731439
 30
0.0
 10
5.196490
 20
2.857471
 30
0.0
 10
5.278661
 20
2.935516
 30
0.0
 10
5.316304
 20
2.994612
 30
0.0
  0
SPLINE
  5
1a4
100
AcDbEntity
  8
0
 62
7
100
AcDbSpline
 70
8
 71
3
 72
8
 73
4
 74
0
 40
0
 40
0
 40
0
 40
0
 40
1
 40
1
 40
1
 40
1
 10
5.316304
 20
2.994612
 30
0.0
 10
5.353948
 20
3.053707
 30
0.0
 10
5.347064
 20
3.093853
 30
0.0
 10
5.314151
 20
3.144087
 30
0.0
  0
SPLINE
  5
1a5
100
AcDbEntity
  8
0
 62
7
100
AcDbSpline
 70
8
 71
3
 72
8
 73
4
 74
0
 40
0
 40
0
 40
0
 40
0
 40
1
 40
1
 40
1
 40
1
 10
5.314151
 20
3.144087
 30
0.0
 10
5.269229
 20
3.212646
 30
0.0
 10
5.219699
 20
3.235512
 30
0.0
 10
5.130781
 20
3.198021
 30
0.0
  0
SPLINE
  5
1a6
100
AcDbEntity
  8
0
 62
7
100
AcDbSpline
 70
8
 71
3
 72
8
 73
4
 74
0
 40
0
 40
0
 40
0
 40
0
 40
1
 40
1
 40
1
 40
1
 10
5.130781
 20
3.198021
 30
0.0
 10
5.041863
 20
3.160530
 30
0.0
 10
4.913558
 20
3.062683
 30
0.0
 10
4.711089
 20
2.889816
 30
0.0
  0
LWPOLYLINE
  5
1a7
100
AcDbEntity
  8
0
 62
7
100
AcDbPolyline
 90
5
 70
0
 10
4.908765
 20
2.439926
 30
0.0
 10
4.860948
 20
2.482317
 30
0.0
 10
4.813132
 20
2.524707
 30
0.0
 10
4.932214
 20
2.628073
 30
0.0
 10
5.051296
 20
2.731439
 30
0.0
  0
SPLINE
  5
1a8
100
AcDbEntity
  8
0
 62
7
100
AcDbSpline
 70
8
 71
3
 72
8
 73
4
 74
0
 40
0
 40
0
 40
0
 40
0
 40
1
 40
1
 40
1
 40
1
 10
4.475866
 20
3.164086
 30
0.0
 10
4.471292
 20
3.292612
 30
0.0
 10
4.463641
 20
3.414519
 30
0.0
 10
4.454896
 20
3.508472
 30
0.0
  0
SPLINE
  5
1a9
100
AcDbEntity
  8
0
 62
7
100
AcDbSpline
 70
8
 71
3
 72
8
 73
4
 74
0
 40
0
 40
0
 40
0
 40
0
 40
1
 40
1
 40
1
 40
1
 10
4.454896
 20
3.508472
 30
0.0
 10
4.446152
 20
3.602425
 30
0.0
 10
4.436315
 20
3.668425
 30
0.0
 10
4.427371
 20
3.685137
 30
0.0
  0
SPLINE
  5
1aa
100
AcDbEntity
  8
0
 62
7
100
AcDbSpline
 70
8
 71
3
 72
8
 73
4
 74
0
 40
0
 40
0
 40
0
 40
0
 40
1
 40
1
 40
1
 40
1
 10
4.427371
 20
3.685137
 30
0.0
 10
4.394770
 20
3.746053
 30
0.0
 10
4.333845
 20
3.770401
 30
0.0
 10
4.277812
 20
3.762730
 30
0.0
  0
SPLINE
  5
1ab
100
AcDbEntity
  8
0
 62
7
100
AcDbSpline
 70
8
 71
3
 72
8
 73
4
 74
0
 40
0
 40
0
 40
0
 40
0
 40
1
 40
1
 40
1
 40
1
 10
4.277812
 20
3.762730
 30
0.0
 10
4.221780
 20
3.755058
 30
0.0
 10
4.170639
 20
3.715367
 30
0.0
 10
4.157606
 20
3.648204
 30
0.0
  0
SPLINE
  5
1ac
100
AcDbEntity
  8
0
 62
7
100
AcDbSpline
 70
8
 71
3
 72
8
 73
4
 74
0
 40
0
 40
0
 40
0
 40
0
 40
1
 40
1
 40
1
 40
1
 10
4.157606
 20
3.648204
 30
0.0
 10
4.123080
 20
3.470284
 30
0.0
 10
4.111464
 20
3.017532
 30
0.0
 10
4.117949
 20
2.599791
 30
0.0
  0
SPLINE
  5
1ad
100
AcDbEntity
  8
0
 62
7
100
AcDbSpline
 70
8
 71
3
 72
8
 73
4
 74
0
 40
0
 40
0
 40
0
 40
0
 40
1
 40
1
 40
1
 40
1
 10
4.117949
 20
2.599791
 30
0.0
 10
4.124434
 20
2.182049
 30
0.0
 10
4.149019
 20
1.799319
 30
0.0
 10
4.186895
 20
1.761444
 30
0.0
  0
SPLINE
  5
1ae
100
AcDbEntity
  8
0
 62
7
100
AcDbSpline
 70
8
 71
3
 72
8
 73
4
 74
0
 40
0
 40
0
 40
0
 40
0
 40
1
 40
1
 40
1
 40
1
 10
4.186895
 20
1.761444
 30
0.0
 10
4.215935
 20
1.732404
 30
0.0
 10
4.265570
 20
1.719242
 30
0.0
 10
4.312067
 20
1.721041
 30
0.0
  0
SPLINE
  5
1af
100
AcDbEntity
  8
0
 62
7
100
AcDbSpline
 70
8
 71
3
 72
8
 73
4
 74
0
 40
0
 40
0
 40
0
 40
0
 40
1
 40
1
 40
1
 40
1
 10
4.312067
 20
1.721041
 30
0.0
 10
4.358564
 20
1.722839
 30
0.0
 10
4.401922
 20
1.739600
 30
0.0
 10
4.418406
 20
1.770401
 30
0.0
  0
LWPOLYLINE
  5
1b0
100
AcDbEntity
  8
0
 62
7
100
AcDbPolyline
 90
5
 70
0
 10
4.711089
 20
2.889816
 30
0.0
 10
4.601681
 20
2.796404
 30
0.0
 10
4.492273
 20
2.702992
 30
0.0
 10
4.484069
 20
2.933539
 30
0.0
 10
4.475866
 20
3.164086
 30
0.0
  0
SPLINE
  5
1b1
100
AcDbEntity
  8
0
 62
7
100
AcDbSpline
 70
8
 71
3
 72
8
 73
4
 74
0
 40
0
 40
0
 40
0
 40
0
 40
1
 40
1
 40
1
 40
1
 10
6.303784
 20
1.742318
 30
0.0
 10
6.337158
 20
1.763539
 30
0.0
 10
6.360530
 20
1.809830
 30
0.0
 10
6.375559
 20
1.890043
 30
0.0
  0
SPLINE
  5
1b2
100
AcDbEntity
  8
0
 62
7
100
AcDbSpline
 70
8
 71
3
 72
8
 73
4
 74
0
 40
0
 40
0
 40
0
 40
0
 40
1
 40
1
 40
1
 40
1
 10
6.375559
 20
1.890043
 30
0.0
 10
6.390587
 20
1.970257
 30
0.0
 10
6.397272
 20
2.084392
 30
0.0
 10
6.397272
 20
2.241301
 30
0.0
  0
LWPOLYLINE
  5
1b3
100
AcDbEntity
  8
0
 62
7
100
AcDbPolyline
 90
2
 70
0
 10
4.418406
 20
1.770401
 30
0.0
 10
4.418405
 20
1.770401
 30
0.0
  0
SPLINE
  5
1b4
100
AcDbEntity
  8
0
 62
7
100
AcDbSpline
 70
8
 71
3
 72
8
 73
4
 74
0
 40
0
 40
0
 40
0
 40
0
 40
1
 40
1
 40
1
 40
1
 10
6.559550
 20
2.700975
 30
0.0
 10
6.654233
 20
2.782513
 30
0.0
 10
6.719418
 20
2.833639
 30
0.0
 10
6.772382
 20
2.864380
 30
0.0
  0
SPLINE
  5
1b5
100
AcDbEntity
  8
0
 62
7
100
AcDbSpline
 70
8
 71
3
 72
8
 73
4
 74
0
 40
0
 40
0
 40
0
 40
0
 40
1
 40
1
 40
1
 40
1
 10
6.772382
 20
2.864380
 30
0.0
 10
6.825345
 20
2.895121
 30
0.0
 10
6.866087
 20
2.905478
 30
0.0
 10
6.911884
 20
2.905478
 30
0.0
  0
SPLINE
  5
1b6
100
AcDbEntity
  8
0
 62
7
100
AcDbSpline
 70
8
 71
3
 72
8
 73
4
 74
0
 40
0
 40
0
 40
0
 40
0
 40
1
 40
1
 40
1
 40
1
 10
6.911884
 20
2.905478
 30
0.0
 10
6.953491
 20
2.905478
 30
0.0
 10
6.987116
 20
2.893196
 30
0.0
 10
7.010339
 20
2.870951
 30
0.0
  0
SPLINE
  5
1b7
100
AcDbEntity
  8
0
 62
7
100
AcDbSpline
 70
8
 71
3
 72
8
 73
4
 74
0
 40
0
 40
0
 40
0
 40
0
 40
1
 40
1
 40
1
 40
1
 10
7.010339
 20
2.870951
 30
0.0
 10
7.033562
 20
2.848705
 30
0.0
 10
7.046383
 20
2.816495
 30
0.0
 10
7.046383
 20
2.776639
 30
0.0
  0
SPLINE
  5
1b8
100
AcDbEntity
  8
0
 62
7
100
AcDbSpline
 70
8
 71
3
 72
8
 73
4
 74
0
 40
0
 40
0
 40
0
 40
0
 40
1
 40
1
 40
1
 40
1
 10
7.046383
 20
2.776639
 30
0.0
 10
7.046383
 20
2.731946
 30
0.0
 10
7.072772
 20
2.679489
 30
0.0
 10
7.108953
 20
2.638205
 30
0.0
  0
SPLINE
  5
1b9
100
AcDbEntity
  8
0
 62
7
100
AcDbSpline
 70
8
 71
3
 72
8
 73
4
 74
0
 40
0
 40
0
 40
0
 40
0
 40
1
 40
1
 40
1
 40
1
 10
7.108953
 20
2.638205
 30
0.0
 10
7.145134
 20
2.596922
 30
0.0
 10
7.191107
 20
2.566811
 30
0.0
 10
7.230276
 20
2.566811
 30
0.0
  0
SPLINE
  5
1ba
100
AcDbEntity
  8
0
 62
7
100
AcDbSpline
 70
8
 71
3
 72
8
 73
4
 74
0
 40
0
 40
0
 40
0
 40
0
 40
1
 40
1
 40
1
 40
1
 10
7.230276
 20
2.566811
 30
0.0
 10
7.303297
 20
2.566811
 30
0.0
 10
7.354610
 20
2.631694
 30
0.0
 10
7.374862
 20
2.720457
 30
0.0
  0
SPLINE
  5
1bb
100
AcDbEntity
  8
0
 62
7
100
AcDbSpline
 70
8
 71
3
 72
8
 73
4
 74
0
 40
0
 40
0
 40
0
 40
0
 40
1
 40
1
 40
1
 40
1
 10
7.374862
 20
2.720457
 30
0.0
 10
7.395113
 20
2.809220
 30
0.0
 10
7.384303
 20
2.921863
 30
0.0
 10
7.333075
 20
3.017382
 30
0.0
  0
SPLINE
  5
1bc
100
AcDbEntity
  8
0
 62
7
100
AcDbSpline
 70
8
 71
3
 72
8
 73
4
 74
0
 40
0
 40
0
 40
0
 40
0
 40
1
 40
1
 40
1
 40
1
 10
7.333075
 20
3.017382
 30
0.0
 10
7.298558
 20
3.081743
 30
0.0
 10
7.245698
 20
3.131239
 30
0.0
 10
7.172099
 20
3.167035
 30
0.0
  0
SPLINE
  5
1bd
100
AcDbEntity
  8
0
 62
7
100
AcDbSpline
 70
8
 71
3
 72
8
 73
4
 74
0
 40
0
 40
0
 40
0
 40
0
 40
1
 40
1
 40
1
 40
1
 10
7.172099
 20
3.167035
 30
0.0
 10
7.098500
 20
3.202831
 30
0.0
 10
7.004163
 20
3.224927
 30
0.0
 10
6.886691
 20
3.234489
 30
0.0
  0
SPLINE
  5
1be
100
AcDbEntity
  8
0
 62
7
100
AcDbSpline
 70
8
 71
3
 72
8
 73
4
 74
0
 40
0
 40
0
 40
0
 40
0
 40
1
 40
1
 40
1
 40
1
 10
6.886691
 20
3.234489
 30
0.0
 10
6.792142
 20
3.242184
 30
0.0
 10
6.743177
 20
3.245580
 30
0.0
 10
6.701406
 20
3.234404
 30
0.0
  0
SPLINE
  5
1bf
100
AcDbEntity
  8
0
 62
7
100
AcDbSpline
 70
8
 71
3
 72
8
 73
4
 74
0
 40
0
 40
0
 40
0
 40
0
 40
1
 40
1
 40
1
 40
1
 10
6.701406
 20
3.234404
 30
0.0
 10
6.659634
 20
3.223229
 30
0.0
 10
6.625056
 20
3.197484
 30
0.0
 10
6.559280
 20
3.146897
 30
0.0
  0
SPLINE
  5
1c0
100
AcDbEntity
  8
0
 62
7
100
AcDbSpline
 70
8
 71
3
 72
8
 73
4
 74
0
 40
0
 40
0
 40
0
 40
0
 40
1
 40
1
 40
1
 40
1
 10
6.559280
 20
3.146897
 30
0.0
 10
6.493757
 20
3.096504
 30
0.0
 10
6.446199
 20
3.069073
 30
0.0
 10
6.415022
 20
3.064363
 30
0.0
  0
SPLINE
  5
1c1
100
AcDbEntity
  8
0
 62
7
100
AcDbSpline
 70
8
 71
3
 72
8
 73
4
 74
0
 40
0
 40
0
 40
0
 40
0
 40
1
 40
1
 40
1
 40
1
 10
6.415022
 20
3.064363
 30
0.0
 10
6.383846
 20
3.059653
 30
0.0
 10
6.369050
 20
3.077664
 30
0.0
 10
6.369050
 20
3.118158
 30
0.0
  0
SPLINE
  5
1c2
100
AcDbEntity
  8
0
 62
7
100
AcDbSpline
 70
8
 71
3
 72
8
 73
4
 74
0
 40
0
 40
0
 40
0
 40
0
 40
1
 40
1
 40
1
 40
1
 10
6.369050
 20
3.118158
 30
0.0
 10
6.369050
 20
3.129163
 30
0.0
 10
6.360982
 20
3.144453
 30
0.0
 10
6.347985
 20
3.160223
 30
0.0
  0
SPLINE
  5
1c3
100
AcDbEntity
  8
0
 62
7
100
AcDbSpline
 70
8
 71
3
 72
8
 73
4
 74
0
 40
0
 40
0
 40
0
 40
0
 40
1
 40
1
 40
1
 40
1
 10
6.347985
 20
3.160223
 30
0.0
 10
6.334987
 20
3.175993
 30
0.0
 10
6.317059
 20
3.192241
 30
0.0
 10
6.297338
 20
3.205163
 30
0.0
  0
SPLINE
  5
1c4
100
AcDbEntity
  8
0
 62
7
100
AcDbSpline
 70
8
 71
3
 72
8
 73
4
 74
0
 40
0
 40
0
 40
0
 40
0
 40
1
 40
1
 40
1
 40
1
 10
6.297338
 20
3.205163
 30
0.0
 10
6.250853
 20
3.235621
 30
0.0
 10
6.200915
 20
3.239969
 30
0.0
 10
6.158704
 20
3.222764
 30
0.0
  0
SPLINE
  5
1c5
100
AcDbEntity
  8
0
 62
7
100
AcDbSpline
 70
8
 71
3
 72
8
 73
4
 74
0
 40
0
 40
0
 40
0
 40
0
 40
1
 40
1
 40
1
 40
1
 10
6.158704
 20
3.222764
 30
0.0
 10
6.116494
 20
3.205558
 30
0.0
 10
6.082012
 20
3.166801
 30
0.0
 10
6.066440
 20
3.111048
 30
0.0
  0
SPLINE
  5
1c6
100
AcDbEntity
  8
0
 62
7
100
AcDbSpline
 70
8
 71
3
 72
8
 73
4
 74
0
 40
0
 40
0
 40
0
 40
0
 40
1
 40
1
 40
1
 40
1
 10
6.066440
 20
3.111048
 30
0.0
 10
6.047087
 20
3.041758
 30
0.0
 10
6.040425
 20
2.727841
 30
0.0
 10
6.043722
 20
2.422280
 30
0.0
  0
SPLINE
  5
1c7
100
AcDbEntity
  8
0
 62
7
100
AcDbSpline
 70
8
 71
3
 72
8
 73
4
 74
0
 40
0
 40
0
 40
0
 40
0
 40
1
 40
1
 40
1
 40
1
 10
6.043722
 20
2.422280
 30
0.0
 10
6.047020
 20
2.116718
 30
0.0
 10
6.060277
 20
1.819512
 30
0.0
 10
6.080765
 20
1.783643
 30
0.0
  0
SPLINE
  5
1c8
100
AcDbEntity
  8
0
 62
7
100
AcDbSpline
 70
8
 71
3
 72
8
 73
4
 74
0
 40
0
 40
0
 40
0
 40
0
 40
1
 40
1
 40
1
 40
1
 10
6.080765
 20
1.783643
 30
0.0
 10
6.099104
 20
1.751537
 30
0.0
 10
6.137379
 20
1.730091
 30
0.0
 10
6.179809
 20
1.722228
 30
0.0
  0
SPLINE
  5
1c9
100
AcDbEntity
  8
0
 62
7
100
AcDbSpline
 70
8
 71
3
 72
8
 73
4
 74
0
 40
0
 40
0
 40
0
 40
0
 40
1
 40
1
 40
1
 40
1
 10
6.179809
 20
1.722228
 30
0.0
 10
6.222239
 20
1.714366
 30
0.0
 10
6.268825
 20
1.720086
 30
0.0
 10
6.303784
 20
1.742316
 30
0.0
  0
LWPOLYLINE
  5
1ca
100
AcDbEntity
  8
0
 62
7
100
AcDbPolyline
 90
5
 70
0
 10
6.397272
 20
2.241301
 30
0.0
 10
6.397272
 20
2.401264
 30
0.0
 10
6.397272
 20
2.561226
 30
0.0
 10
6.478411
 20
2.631100
 30
0.0
 10
6.559550
 20
2.700975
 30
0.0
  0
SPLINE
  5
1cb
100
AcDbEntity
  8
0
 62
7
100
AcDbSpline
 70
8
 71
3
 72
8
 73
4
 74
0
 40
0
 40
0
 40
0
 40
0
 40
1
 40
1
 40
1
 40
1
 10
7.314596
 20
5.050531
 30
0.0
 10
7.319421
 20
5.058338
 30
0.0
 10
7.319866
 20
5.076333
 30
0.0
 10
7.316696
 20
5.099037
 30
0.0
  0
SPLINE
  5
1cc
100
AcDbEntity
  8
0
 62
7
100
AcDbSpline
 70
8
 71
3
 72
8
 73
4
 74
0
 40
0
 40
0
 40
0
 40
0
 40
1
 40
1
 40
1
 40
1
 10
7.316696
 20
5.099037
 30
0.0
 10
7.313526
 20
5.121741
 30
0.0
 10
7.306742
 20
5.149154
 30
0.0
 10
7.297108
 20
5.175795
 30
0.0
  0
SPLINE
  5
1cd
100
AcDbEntity
  8
0
 62
7
100
AcDbSpline
 70
8
 71
3
 72
8
 73
4
 74
0
 40
0
 40
0
 40
0
 40
0
 40
1
 40
1
 40
1
 40
1
 10
7.297108
 20
5.175795
 30
0.0
 10
7.281032
 20
5.220254
 30
0.0
 10
7.273828
 20
5.246682
 30
0.0
 10
7.279324
 20
5.274337
 30
0.0
  0
SPLINE
  5
1ce
100
AcDbEntity
  8
0
 62
7
100
AcDbSpline
 70
8
 71
3
 72
8
 73
4
 74
0
 40
0
 40
0
 40
0
 40
0
 40
1
 40
1
 40
1
 40
1
 10
7.279324
 20
5.274337
 30
0.0
 10
7.284821
 20
5.301993
 30
0.0
 10
7.303018
 20
5.330874
 30
0.0
 10
7.337743
 20
5.380241
 30
0.0
  0
SPLINE
  5
1cf
100
AcDbEntity
  8
0
 62
7
100
AcDbSpline
 70
8
 71
3
 72
8
 73
4
 74
0
 40
0
 40
0
 40
0
 40
0
 40
1
 40
1
 40
1
 40
1
 10
7.337743
 20
5.380241
 30
0.0
 10
7.358551
 20
5.409823
 30
0.0
 10
7.418702
 20
5.482530
 30
0.0
 10
7.498850
 20
5.575839
 30
0.0
  0
SPLINE
  5
1d0
100
AcDbEntity
  8
0
 62
7
100
AcDbSpline
 70
8
 71
3
 72
8
 73
4
 74
0
 40
0
 40
0
 40
0
 40
0
 40
1
 40
1
 40
1
 40
1
 10
7.498850
 20
5.575839
 30
0.0
 10
7.578997
 20
5.669148
 30
0.0
 10
7.679142
 20
5.783059
 30
0.0
 10
7.779937
 20
5.895050
 30
0.0
  0
SPLINE
  5
1d1
100
AcDbEntity
  8
0
 62
7
100
AcDbSpline
 70
8
 71
3
 72
8
 73
4
 74
0
 40
0
 40
0
 40
0
 40
0
 40
1
 40
1
 40
1
 40
1
 10
7.779937
 20
5.895050
 30
0.0
 10
7.880732
 20
6.007040
 30
0.0
 10
7.974140
 20
6.114443
 30
0.0
 10
8.043433
 20
6.197266
 30
0.0
  0
SPLINE
  5
1d2
100
AcDbEntity
  8
0
 62
7
100
AcDbSpline
 70
8
 71
3
 72
8
 73
4
 74
0
 40
0
 40
0
 40
0
 40
0
 40
1
 40
1
 40
1
 40
1
 10
8.043433
 20
6.197266
 30
0.0
 10
8.112726
 20
6.280090
 30
0.0
 10
8.157906
 20
6.338333
 30
0.0
 10
8.162245
 20
6.352005
 30
0.0
  0
SPLINE
  5
1d3
100
AcDbEntity
  8
0
 62
7
100
AcDbSpline
 70
8
 71
3
 72
8
 73
4
 74
0
 40
0
 40
0
 40
0
 40
0
 40
1
 40
1
 40
1
 40
1
 10
8.162245
 20
6.352005
 30
0.0
 10
8.167003
 20
6.366998
 30
0.0
 10
8.162414
 20
6.391212
 30
0.0
 10
8.150143
 20
6.420633
 30
0.0
  0
SPLINE
  5
1d4
100
AcDbEntity
  8
0
 62
7
100
AcDbSpline
 70
8
 71
3
 72
8
 73
4
 74
0
 40
0
 40
0
 40
0
 40
0
 40
1
 40
1
 40
1
 40
1
 10
8.150143
 20
6.420633
 30
0.0
 10
8.137874
 20
6.450053
 30
0.0
 10
8.117929
 20
6.484681
 30
0.0
 10
8.091981
 20
6.520501
 30
0.0
  0
SPLINE
  5
1d5
100
AcDbEntity
  8
0
 62
7
100
AcDbSpline
 70
8
 71
3
 72
8
 73
4
 74
0
 40
0
 40
0
 40
0
 40
0
 40
1
 40
1
 40
1
 40
1
 10
8.091981
 20
6.520501
 30
0.0
 10
8.068320
 20
6.553165
 30
0.0
 10
8.046830
 20
6.586352
 30
0.0
 10
8.031270
 20
6.613508
 30
0.0
  0
SPLINE
  5
1d6
100
AcDbEntity
  8
0
 62
7
100
AcDbSpline
 70
8
 71
3
 72
8
 73
4
 74
0
 40
0
 40
0
 40
0
 40
0
 40
1
 40
1
 40
1
 40
1
 10
8.031270
 20
6.613508
 30
0.0
 10
8.015710
 20
6.640663
 30
0.0
 10
8.006078
 20
6.661786
 30
0.0
 10
8.006131
 20
6.670323
 30
0.0
  0
SPLINE
  5
1d7
100
AcDbEntity
  8
0
 62
7
100
AcDbSpline
 70
8
 71
3
 72
8
 73
4
 74
0
 40
0
 40
0
 40
0
 40
0
 40
1
 40
1
 40
1
 40
1
 10
8.006131
 20
6.670323
 30
0.0
 10
8.006188
 20
6.678860
 30
0.0
 10
8.017403
 20
6.694226
 30
0.0
 10
8.035429
 20
6.712106
 30
0.0
  0
SPLINE
  5
1d8
100
AcDbEntity
  8
0
 62
7
100
AcDbSpline
 70
8
 71
3
 72
8
 73
4
 74
0
 40
0
 40
0
 40
0
 40
0
 40
1
 40
1
 40
1
 40
1
 10
8.035429
 20
6.712106
 30
0.0
 10
8.053454
 20
6.729986
 30
0.0
 10
8.078291
 20
6.750379
 30
0.0
 10
8.105588
 20
6.768970
 30
0.0
  0
SPLINE
  5
1d9
100
AcDbEntity
  8
0
 62
7
100
AcDbSpline
 70
8
 71
3
 72
8
 73
4
 74
0
 40
0
 40
0
 40
0
 40
0
 40
1
 40
1
 40
1
 40
1
 10
8.105588
 20
6.768970
 30
0.0
 10
8.173292
 20
6.815080
 30
0.0
 10
8.236656
 20
6.872986
 30
0.0
 10
8.293771
 20
6.940436
 30
0.0
  0
SPLINE
  5
1da
100
AcDbEntity
  8
0
 62
7
100
AcDbSpline
 70
8
 71
3
 72
8
 73
4
 74
0
 40
0
 40
0
 40
0
 40
0
 40
1
 40
1
 40
1
 40
1
 10
8.293771
 20
6.940436
 30
0.0
 10
8.350886
 20
7.007886
 30
0.0
 10
8.401752
 20
7.084879
 30
0.0
 10
8.444463
 20
7.169164
 30
0.0
  0
SPLINE
  5
1db
100
AcDbEntity
  8
0
 62
7
100
AcDbSpline
 70
8
 71
3
 72
8
 73
4
 74
0
 40
0
 40
0
 40
0
 40
0
 40
1
 40
1
 40
1
 40
1
 10
8.444463
 20
7.169164
 30
0.0
 10
8.464396
 20
7.208502
 30
0.0
 10
8.489368
 20
7.246487
 30
0.0
 10
8.513820
 20
7.276334
 30
0.0
  0
SPLINE
  5
1dc
100
AcDbEntity
  8
0
 62
7
100
AcDbSpline
 70
8
 71
3
 72
8
 73
4
 74
0
 40
0
 40
0
 40
0
 40
0
 40
1
 40
1
 40
1
 40
1
 10
8.513820
 20
7.276334
 30
0.0
 10
8.538272
 20
7.306182
 30
0.0
 10
8.562204
 20
7.327892
 30
0.0
 10
8.580057
 20
7.334680
 30
0.0
  0
SPLINE
  5
1dd
100
AcDbEntity
  8
0
 62
7
100
AcDbSpline
 70
8
 71
3
 72
8
 73
4
 74
0
 40
0
 40
0
 40
0
 40
0
 40
1
 40
1
 40
1
 40
1
 10
8.580057
 20
7.334680
 30
0.0
 10
8.622836
 20
7.350945
 30
0.0
 10
8.682275
 20
7.391576
 30
0.0
 10
8.736065
 20
7.437522
 30
0.0
  0
SPLINE
  5
1de
100
AcDbEntity
  8
0
 62
7
100
AcDbSpline
 70
8
 71
3
 72
8
 73
4
 74
0
 40
0
 40
0
 40
0
 40
0
 40
1
 40
1
 40
1
 40
1
 10
8.736065
 20
7.437522
 30
0.0
 10
8.789855
 20
7.483467
 30
0.0
 10
8.837996
 20
7.534726
 30
0.0
 10
8.858183
 20
7.572244
 30
0.0
  0
SPLINE
  5
1df
100
AcDbEntity
  8
0
 62
7
100
AcDbSpline
 70
8
 71
3
 72
8
 73
4
 74
0
 40
0
 40
0
 40
0
 40
0
 40
1
 40
1
 40
1
 40
1
 10
8.858183
 20
7.572244
 30
0.0
 10
8.906037
 20
7.661187
 30
0.0
 10
8.924407
 20
7.782219
 30
0.0
 10
8.914965
 20
7.912289
 30
0.0
  0
SPLINE
  5
1e0
100
AcDbEntity
  8
0
 62
7
100
AcDbSpline
 70
8
 71
3
 72
8
 73
4
 74
0
 40
0
 40
0
 40
0
 40
0
 40
1
 40
1
 40
1
 40
1
 10
8.914965
 20
7.912289
 30
0.0
 10
8.905523
 20
8.042360
 30
0.0
 10
8.868270
 20
8.181468
 30
0.0
 10
8.804878
 20
8.306565
 30
0.0
  0
SPLINE
  5
1e1
100
AcDbEntity
  8
0
 62
7
100
AcDbSpline
 70
8
 71
3
 72
8
 73
4
 74
0
 40
0
 40
0
 40
0
 40
0
 40
1
 40
1
 40
1
 40
1
 10
8.804878
 20
8.306565
 30
0.0
 10
8.760221
 20
8.394692
 30
0.0
 10
8.681887
 20
8.498472
 30
0.0
 10
8.588453
 20
8.598095
 30
0.0
  0
SPLINE
  5
1e2
100
AcDbEntity
  8
0
 62
7
100
AcDbSpline
 70
8
 71
3
 72
8
 73
4
 74
0
 40
0
 40
0
 40
0
 40
0
 40
1
 40
1
 40
1
 40
1
 10
8.588453
 20
8.598095
 30
0.0
 10
8.495020
 20
8.697718
 30
0.0
 10
8.386487
 20
8.793185
 30
0.0
 10
8.281435
 20
8.864686
 30
0.0
  0
SPLINE
  5
1e3
100
AcDbEntity
  8
0
 62
7
100
AcDbSpline
 70
8
 71
3
 72
8
 73
4
 74
0
 40
0
 40
0
 40
0
 40
0
 40
1
 40
1
 40
1
 40
1
 10
8.281435
 20
8.864686
 30
0.0
 10
8.160747
 20
8.946828
 30
0.0
 10
8.099730
 20
9.010167
 30
0.0
 10
8.097086
 20
9.097623
 30
0.0
  0
SPLINE
  5
1e4
100
AcDbEntity
  8
0
 62
7
100
AcDbSpline
 70
8
 71
3
 72
8
 73
4
 74
0
 40
0
 40
0
 40
0
 40
0
 40
1
 40
1
 40
1
 40
1
 10
8.097086
 20
9.097623
 30
0.0
 10
8.094442
 20
9.185079
 30
0.0
 10
8.150170
 20
9.296653
 30
0.0
 10
8.262973
 20
9.475264
 30
0.0
  0
SPLINE
  5
1e5
100
AcDbEntity
  8
0
 62
7
100
AcDbSpline
 70
8
 71
3
 72
8
 73
4
 74
0
 40
0
 40
0
 40
0
 40
0
 40
1
 40
1
 40
1
 40
1
 10
8.262973
 20
9.475264
 30
0.0
 10
8.340294
 20
9.597693
 30
0.0
 10
8.417146
 20
9.739494
 30
0.0
 10
8.474668
 20
9.860870
 30
0.0
  0
SPLINE
  5
1e6
100
AcDbEntity
  8
0
 62
7
100
AcDbSpline
 70
8
 71
3
 72
8
 73
4
 74
0
 40
0
 40
0
 40
0
 40
0
 40
1
 40
1
 40
1
 40
1
 10
8.474668
 20
9.860870
 30
0.0
 10
8.532190
 20
9.982245
 30
0.0
 10
8.570383
 20
10.083194
 30
0.0
 10
8.570383
 20
10.123916
 30
0.0
  0
SPLINE
  5
1e7
100
AcDbEntity
  8
0
 62
7
100
AcDbSpline
 70
8
 71
3
 72
8
 73
4
 74
0
 40
0
 40
0
 40
0
 40
0
 40
1
 40
1
 40
1
 40
1
 10
8.570383
 20
10.123916
 30
0.0
 10
8.570383
 20
10.171811
 30
0.0
 10
8.553457
 20
10.224682
 30
0.0
 10
8.522122
 20
10.278232
 30
0.0
  0
SPLINE
  5
1e8
100
AcDbEntity
  8
0
 62
7
100
AcDbSpline
 70
8
 71
3
 72
8
 73
4
 74
0
 40
0
 40
0
 40
0
 40
0
 40
1
 40
1
 40
1
 40
1
 10
8.522122
 20
10.278232
 30
0.0
 10
8.490786
 20
10.331782
 30
0.0
 10
8.445040
 20
10.386011
 30
0.0
 10
8.387398
 20
10.436622
 30
0.0
  0
SPLINE
  5
1e9
100
AcDbEntity
  8
0
 62
7
100
AcDbSpline
 70
8
 71
3
 72
8
 73
4
 74
0
 40
0
 40
0
 40
0
 40
0
 40
1
 40
1
 40
1
 40
1
 10
8.387398
 20
10.436622
 30
0.0
 10
8.328388
 20
10.488434
 30
0.0
 10
8.284820
 20
10.515763
 30
0.0
 10
8.237261
 20
10.520576
 30
0.0
  0
SPLINE
  5
1ea
100
AcDbEntity
  8
0
 62
7
100
AcDbSpline
 70
8
 71
3
 72
8
 73
4
 74
0
 40
0
 40
0
 40
0
 40
0
 40
1
 40
1
 40
1
 40
1
 10
8.237261
 20
10.520576
 30
0.0
 10
8.189702
 20
10.525389
 30
0.0
 10
8.138151
 20
10.507687
 30
0.0
 10
8.063173
 20
10.469437
 30
0.0
  0
SPLINE
  5
1eb
100
AcDbEntity
  8
0
 62
7
100
AcDbSpline
 70
8
 71
3
 72
8
 73
4
 74
0
 40
0
 40
0
 40
0
 40
0
 40
1
 40
1
 40
1
 40
1
 10
8.063173
 20
10.469437
 30
0.0
 10
8.002062
 20
10.438260
 30
0.0
 10
7.968114
 20
10.418697
 30
0.0
 10
7.945079
 20
10.391710
 30
0.0
  0
SPLINE
  5
1ec
100
AcDbEntity
  8
0
 62
7
100
AcDbSpline
 70
8
 71
3
 72
8
 73
4
 74
0
 40
0
 40
0
 40
0
 40
0
 40
1
 40
1
 40
1
 40
1
 10
7.945079
 20
10.391710
 30
0.0
 10
7.922044
 20
10.364723
 30
0.0
 10
7.909923
 20
10.330312
 30
0.0
 10
7.892464
 20
10.269437
 30
0.0
  0
LWPOLYLINE
  5
1ed
100
AcDbEntity
  8
0
 62
7
100
AcDbPolyline
 90
2
 70
0
 10
6.303784
 20
1.742316
 30
0.0
 10
6.303784
 20
1.742318
 30
0.0
  0
SPLINE
  5
1ee
100
AcDbEntity
  8
0
 62
7
100
AcDbSpline
 70
8
 71
3
 72
8
 73
4
 74
0
 40
0
 40
0
 40
0
 40
0
 40
1
 40
1
 40
1
 40
1
 10
7.953308
 20
10.256245
 30
0.0
 10
8.029312
 20
10.320198
 30
0.0
 10
8.120081
 20
10.337521
 30
0.0
 10
8.191849
 20
10.317590
 30
0.0
  0
SPLINE
  5
1ef
100
AcDbEntity
  8
0
 62
7
100
AcDbSpline
 70
8
 71
3
 72
8
 73
4
 74
0
 40
0
 40
0
 40
0
 40
0
 40
1
 40
1
 40
1
 40
1
 10
8.191849
 20
10.317590
 30
0.0
 10
8.263616
 20
10.297660
 30
0.0
 10
8.316383
 20
10.240476
 30
0.0
 10
8.316383
 20
10.155415
 30
0.0
  0
SPLINE
  5
1f0
100
AcDbEntity
  8
0
 62
7
100
AcDbSpline
 70
8
 71
3
 72
8
 73
4
 74
0
 40
0
 40
0
 40
0
 40
0
 40
1
 40
1
 40
1
 40
1
 10
8.316383
 20
10.155415
 30
0.0
 10
8.316383
 20
10.142474
 30
0.0
 10
8.289491
 20
10.096332
 30
0.0
 10
8.246166
 20
10.032416
 30
0.0
  0
SPLINE
  5
1f1
100
AcDbEntity
  8
0
 62
7
100
AcDbSpline
 70
8
 71
3
 72
8
 73
4
 74
0
 40
0
 40
0
 40
0
 40
0
 40
1
 40
1
 40
1
 40
1
 10
8.246166
 20
10.032416
 30
0.0
 10
8.202841
 20
9.968501
 30
0.0
 10
8.143082
 20
9.886813
 30
0.0
 10
8.077347
 20
9.802780
 30
0.0
  0
SPLINE
  5
1f2
100
AcDbEntity
  8
0
 62
7
100
AcDbSpline
 70
8
 71
3
 72
8
 73
4
 74
0
 40
0
 40
0
 40
0
 40
0
 40
1
 40
1
 40
1
 40
1
 10
8.077347
 20
9.802780
 30
0.0
 10
7.824960
 20
9.480137
 30
0.0
 10
7.688609
 20
9.249472
 30
0.0
 10
7.660082
 20
9.054740
 30
0.0
  0
SPLINE
  5
1f3
100
AcDbEntity
  8
0
 62
7
100
AcDbSpline
 70
8
 71
3
 72
8
 73
4
 74
0
 40
0
 40
0
 40
0
 40
0
 40
1
 40
1
 40
1
 40
1
 10
7.660082
 20
9.054740
 30
0.0
 10
7.631555
 20
8.860008
 30
0.0
 10
7.710854
 20
8.701208
 30
0.0
 10
7.889766
 20
8.522295
 30
0.0
  0
SPLINE
  5
1f4
100
AcDbEntity
  8
0
 62
7
100
AcDbSpline
 70
8
 71
3
 72
8
 73
4
 74
0
 40
0
 40
0
 40
0
 40
0
 40
1
 40
1
 40
1
 40
1
 10
7.889766
 20
8.522295
 30
0.0
 10
7.926051
 20
8.486010
 30
0.0
 10
7.982168
 20
8.439515
 30
0.0
 10
8.043348
 20
8.393836
 30
0.0
  0
SPLINE
  5
1f5
100
AcDbEntity
  8
0
 62
7
100
AcDbSpline
 70
8
 71
3
 72
8
 73
4
 74
0
 40
0
 40
0
 40
0
 40
0
 40
1
 40
1
 40
1
 40
1
 10
8.043348
 20
8.393836
 30
0.0
 10
8.104528
 20
8.348157
 30
0.0
 10
8.170771
 20
8.303294
 30
0.0
 10
8.227310
 20
8.270273
 30
0.0
  0
SPLINE
  5
1f6
100
AcDbEntity
  8
0
 62
7
100
AcDbSpline
 70
8
 71
3
 72
8
 73
4
 74
0
 40
0
 40
0
 40
0
 40
0
 40
1
 40
1
 40
1
 40
1
 10
8.227310
 20
8.270273
 30
0.0
 10
8.370040
 20
8.186915
 30
0.0
 10
8.462802
 20
8.104198
 30
0.0
 10
8.509416
 20
8.014795
 30
0.0
  0
SPLINE
  5
1f7
100
AcDbEntity
  8
0
 62
7
100
AcDbSpline
 70
8
 71
3
 72
8
 73
4
 74
0
 40
0
 40
0
 40
0
 40
0
 40
1
 40
1
 40
1
 40
1
 10
8.509416
 20
8.014795
 30
0.0
 10
8.556030
 20
7.925393
 30
0.0
 10
8.556497
 20
7.829305
 30
0.0
 10
8.514637
 20
7.719204
 30
0.0
  0
SPLINE
  5
1f8
100
AcDbEntity
  8
0
 62
7
100
AcDbSpline
 70
8
 71
3
 72
8
 73
4
 74
0
 40
0
 40
0
 40
0
 40
0
 40
1
 40
1
 40
1
 40
1
 10
8.514637
 20
7.719204
 30
0.0
 10
8.499669
 20
7.679836
 30
0.0
 10
8.471273
 20
7.654929
 30
0.0
 10
8.446618
 20
7.648771
 30
0.0
  0
SPLINE
  5
1f9
100
AcDbEntity
  8
0
 62
7
100
AcDbSpline
 70
8
 71
3
 72
8
 73
4
 74
0
 40
0
 40
0
 40
0
 40
0
 40
1
 40
1
 40
1
 40
1
 10
8.446618
 20
7.648771
 30
0.0
 10
8.421963
 20
7.642613
 30
0.0
 10
8.401049
 20
7.655204
 30
0.0
 10
8.401049
 20
7.690834
 30
0.0
  0
SPLINE
  5
1fa
100
AcDbEntity
  8
0
 62
7
100
AcDbSpline
 70
8
 71
3
 72
8
 73
4
 74
0
 40
0
 40
0
 40
0
 40
0
 40
1
 40
1
 40
1
 40
1
 10
8.401049
 20
7.690834
 30
0.0
 10
8.401049
 20
7.725170
 30
0.0
 10
8.333423
 20
7.809597
 30
0.0
 10
8.251094
 20
7.891479
 30
0.0
  0
SPLINE
  5
1fb
100
AcDbEntity
  8
0
 62
7
100
AcDbSpline
 70
8
 71
3
 72
8
 73
4
 74
0
 40
0
 40
0
 40
0
 40
0
 40
1
 40
1
 40
1
 40
1
 10
8.251094
 20
7.891479
 30
0.0
 10
8.168765
 20
7.973361
 30
0.0
 10
8.071734
 20
8.052698
 30
0.0
 10
8.012924
 20
8.076852
 30
0.0
  0
SPLINE
  5
1fc
100
AcDbEntity
  8
0
 62
7
100
AcDbSpline
 70
8
 71
3
 72
8
 73
4
 74
0
 40
0
 40
0
 40
0
 40
0
 40
1
 40
1
 40
1
 40
1
 10
8.012924
 20
8.076852
 30
0.0
 10
7.983839
 20
8.088798
 30
0.0
 10
7.934563
 20
8.108158
 30
0.0
 10
7.878603
 20
8.129727
 30
0.0
  0
SPLINE
  5
1fd
100
AcDbEntity
  8
0
 62
7
100
AcDbSpline
 70
8
 71
3
 72
8
 73
4
 74
0
 40
0
 40
0
 40
0
 40
0
 40
1
 40
1
 40
1
 40
1
 10
7.878603
 20
8.129727
 30
0.0
 10
7.822643
 20
8.151295
 30
0.0
 10
7.759999
 20
8.175072
 30
0.0
 10
7.704179
 20
8.195851
 30
0.0
  0
SPLINE
  5
1fe
100
AcDbEntity
  8
0
 62
7
100
AcDbSpline
 70
8
 71
3
 72
8
 73
4
 74
0
 40
0
 40
0
 40
0
 40
0
 40
1
 40
1
 40
1
 40
1
 10
7.704179
 20
8.195851
 30
0.0
 10
7.573773
 20
8.244393
 30
0.0
 10
7.463061
 20
8.303592
 30
0.0
 10
7.374346
 20
8.371678
 30
0.0
  0
SPLINE
  5
1ff
100
AcDbEntity
  8
0
 62
7
100
AcDbSpline
 70
8
 71
3
 72
8
 73
4
 74
0
 40
0
 40
0
 40
0
 40
0
 40
1
 40
1
 40
1
 40
1
 10
7.374346
 20
8.371678
 30
0.0
 10
7.285632
 20
8.439764
 30
0.0
 10
7.218917
 20
8.516737
 30
0.0
 10
7.176505
 20
8.600828
 30
0.0
  0
SPLINE
  5
200
100
AcDbEntity
  8
0
 62
7
100
AcDbSpline
 70
8
 71
3
 72
8
 73
4
 74
0
 40
0
 40
0
 40
0
 40
0
 40
1
 40
1
 40
1
 40
1
 10
7.176505
 20
8.600828
 30
0.0
 10
7.123452
 20
8.706016
 30
0.0
 10
7.095253
 20
8.787524
 30
0.0
 10
7.089145
 20
8.893115
 30
0.0
  0
SPLINE
  5
201
100
AcDbEntity
  8
0
 62
7
100
AcDbSpline
 70
8
 71
3
 72
8
 73
4
 74
0
 40
0
 40
0
 40
0
 40
0
 40
1
 40
1
 40
1
 40
1
 10
7.089145
 20
8.893115
 30
0.0
 10
7.083037
 20
8.998706
 30
0.0
 10
7.099020
 20
9.128380
 30
0.0
 10
7.134332
 20
9.329900
 30
0.0
  0
SPLINE
  5
202
100
AcDbEntity
  8
0
 62
7
100
AcDbSpline
 70
8
 71
3
 72
8
 73
4
 74
0
 40
0
 40
0
 40
0
 40
0
 40
1
 40
1
 40
1
 40
1
 10
7.134332
 20
9.329900
 30
0.0
 10
7.201673
 20
9.714213
 30
0.0
 10
7.218779
 20
9.976995
 30
0.0
 10
7.170874
 20
10.181254
 30
0.0
  0
SPLINE
  5
203
100
AcDbEntity
  8
0
 62
7
100
AcDbSpline
 70
8
 71
3
 72
8
 73
4
 74
0
 40
0
 40
0
 40
0
 40
0
 40
1
 40
1
 40
1
 40
1
 10
7.170874
 20
10.181254
 30
0.0
 10
7.122970
 20
10.385514
 30
0.0
 10
7.010053
 20
10.531251
 30
0.0
 10
6.817348
 20
10.681472
 30
0.0
  0
SPLINE
  5
204
100
AcDbEntity
  8
0
 62
7
100
AcDbSpline
 70
8
 71
3
 72
8
 73
4
 74
0
 40
0
 40
0
 40
0
 40
0
 40
1
 40
1
 40
1
 40
1
 10
6.817348
 20
10.681472
 30
0.0
 10
6.772438
 20
10.716481
 30
0.0
 10
6.731557
 20
10.755770
 30
0.0
 10
6.697810
 20
10.795669
 30
0.0
  0
SPLINE
  5
205
100
AcDbEntity
  8
0
 62
7
100
AcDbSpline
 70
8
 71
3
 72
8
 73
4
 74
0
 40
0
 40
0
 40
0
 40
0
 40
1
 40
1
 40
1
 40
1
 10
6.697810
 20
10.795669
 30
0.0
 10
6.664062
 20
10.835569
 30
0.0
 10
6.637446
 20
10.876080
 30
0.0
 10
6.621067
 20
10.913533
 30
0.0
  0
SPLINE
  5
206
100
AcDbEntity
  8
0
 62
7
100
AcDbSpline
 70
8
 71
3
 72
8
 73
4
 74
0
 40
0
 40
0
 40
0
 40
0
 40
1
 40
1
 40
1
 40
1
 10
6.621067
 20
10.913533
 30
0.0
 10
6.590777
 20
10.982793
 30
0.0
 10
6.560629
 20
11.020990
 30
0.0
 10
6.530870
 20
11.028065
 30
0.0
  0
SPLINE
  5
207
100
AcDbEntity
  8
0
 62
7
100
AcDbSpline
 70
8
 71
3
 72
8
 73
4
 74
0
 40
0
 40
0
 40
0
 40
0
 40
1
 40
1
 40
1
 40
1
 10
6.530870
 20
11.028065
 30
0.0
 10
6.501112
 20
11.035141
 30
0.0
 10
6.471743
 20
11.011094
 30
0.0
 10
6.443011
 20
10.955867
 30
0.0
  0
SPLINE
  5
208
100
AcDbEntity
  8
0
 62
7
100
AcDbSpline
 70
8
 71
3
 72
8
 73
4
 74
0
 40
0
 40
0
 40
0
 40
0
 40
1
 40
1
 40
1
 40
1
 10
6.443011
 20
10.955867
 30
0.0
 10
6.415599
 20
10.903175
 30
0.0
 10
6.380224
 20
10.858483
 30
0.0
 10
6.326630
 20
10.813108
 30
0.0
  0
SPLINE
  5
209
100
AcDbEntity
  8
0
 62
7
100
AcDbSpline
 70
8
 71
3
 72
8
 73
4
 74
0
 40
0
 40
0
 40
0
 40
0
 40
1
 40
1
 40
1
 40
1
 10
6.326630
 20
10.813108
 30
0.0
 10
6.273037
 20
10.767732
 30
0.0
 10
6.201225
 20
10.721672
 30
0.0
 10
6.100938
 20
10.666246
 30
0.0
  0
SPLINE
  5
20a
100
AcDbEntity
  8
0
 62
7
100
AcDbSpline
 70
8
 71
3
 72
8
 73
4
 74
0
 40
0
 40
0
 40
0
 40
0
 40
1
 40
1
 40
1
 40
1
 10
6.100938
 20
10.666246
 30
0.0
 10
5.971214
 20
10.594550
 30
0.0
 10
5.775639
 20
10.471313
 30
0.0
 10
5.603292
 20
10.356088
 30
0.0
  0
SPLINE
  5
20b
100
AcDbEntity
  8
0
 62
7
100
AcDbSpline
 70
8
 71
3
 72
8
 73
4
 74
0
 40
0
 40
0
 40
0
 40
0
 40
1
 40
1
 40
1
 40
1
 10
5.603292
 20
10.356088
 30
0.0
 10
5.430944
 20
10.240863
 30
0.0
 10
5.281822
 20
10.133649
 30
0.0
 10
5.245002
 20
10.094001
 30
0.0
  0
SPLINE
  5
20c
100
AcDbEntity
  8
0
 62
7
100
AcDbSpline
 70
8
 71
3
 72
8
 73
4
 74
0
 40
0
 40
0
 40
0
 40
0
 40
1
 40
1
 40
1
 40
1
 10
5.245002
 20
10.094001
 30
0.0
 10
5.212893
 20
10.059424
 30
0.0
 10
5.196740
 20
10.041195
 30
0.0
 10
5.194538
 20
10.020054
 30
0.0
  0
SPLINE
  5
20d
100
AcDbEntity
  8
0
 62
7
100
AcDbSpline
 70
8
 71
3
 72
8
 73
4
 74
0
 40
0
 40
0
 40
0
 40
0
 40
1
 40
1
 40
1
 40
1
 10
5.194538
 20
10.020054
 30
0.0
 10
5.192336
 20
9.998913
 30
0.0
 10
5.204082
 20
9.974860
 30
0.0
 10
5.227773
 20
9.928635
 30
0.0
  0
SPLINE
  5
20e
100
AcDbEntity
  8
0
 62
7
100
AcDbSpline
 70
8
 71
3
 72
8
 73
4
 74
0
 40
0
 40
0
 40
0
 40
0
 40
1
 40
1
 40
1
 40
1
 10
5.227773
 20
9.928635
 30
0.0
 10
5.255325
 20
9.874877
 30
0.0
 10
5.277579
 20
9.840905
 30
0.0
 10
5.302212
 20
9.820296
 30
0.0
  0
SPLINE
  5
20f
100
AcDbEntity
  8
0
 62
7
100
AcDbSpline
 70
8
 71
3
 72
8
 73
4
 74
0
 40
0
 40
0
 40
0
 40
0
 40
1
 40
1
 40
1
 40
1
 10
5.302212
 20
9.820296
 30
0.0
 10
5.326846
 20
9.799687
 30
0.0
 10
5.353859
 20
9.792440
 30
0.0
 10
5.390931
 20
9.792132
 30
0.0
  0
SPLINE
  5
210
100
AcDbEntity
  8
0
 62
7
100
AcDbSpline
 70
8
 71
3
 72
8
 73
4
 74
0
 40
0
 40
0
 40
0
 40
0
 40
1
 40
1
 40
1
 40
1
 10
5.390931
 20
9.792132
 30
0.0
 10
5.405230
 20
9.792019
 30
0.0
 10
5.426241
 20
9.785608
 30
0.0
 10
5.448575
 20
9.775373
 30
0.0
  0
SPLINE
  5
211
100
AcDbEntity
  8
0
 62
7
100
AcDbSpline
 70
8
 71
3
 72
8
 73
4
 74
0
 40
0
 40
0
 40
0
 40
0
 40
1
 40
1
 40
1
 40
1
 10
5.448575
 20
9.775373
 30
0.0
 10
5.470910
 20
9.765137
 30
0.0
 10
5.494566
 20
9.751078
 30
0.0
 10
5.514155
 20
9.735670
 30
0.0
  0
SPLINE
  5
212
100
AcDbEntity
  8
0
 62
7
100
AcDbSpline
 70
8
 71
3
 72
8
 73
4
 74
0
 40
0
 40
0
 40
0
 40
0
 40
1
 40
1
 40
1
 40
1
 10
5.514155
 20
9.735670
 30
0.0
 10
5.546729
 20
9.710048
 30
0.0
 10
5.571575
 20
9.696419
 30
0.0
 10
5.625973
 20
9.691222
 30
0.0
  0
SPLINE
  5
213
100
AcDbEntity
  8
0
 62
7
100
AcDbSpline
 70
8
 71
3
 72
8
 73
4
 74
0
 40
0
 40
0
 40
0
 40
0
 40
1
 40
1
 40
1
 40
1
 10
5.625973
 20
9.691222
 30
0.0
 10
5.680371
 20
9.686026
 30
0.0
 10
5.764320
 20
9.689261
 30
0.0
 10
5.915098
 20
9.697369
 30
0.0
  0
LWPOLYLINE
  5
214
100
AcDbEntity
  8
0
 62
7
100
AcDbPolyline
 90
5
 70
0
 10
7.892464
 20
10.269437
 30
0.0
 10
7.880294
 20
10.227002
 30
0.0
 10
7.868124
 20
10.184567
 30
0.0
 10
7.910716
 20
10.220406
 30
0.0
 10
7.953308
 20
10.256245
 30
0.0
  0
SPLINE
  5
215
100
AcDbEntity
  8
0
 62
7
100
AcDbSpline
 70
8
 71
3
 72
8
 73
4
 74
0
 40
0
 40
0
 40
0
 40
0
 40
1
 40
1
 40
1
 40
1
 10
6.278708
 20
9.601957
 30
0.0
 10
6.302910
 20
9.521178
 30
0.0
 10
6.314327
 20
9.478679
 30
0.0
 10
6.304599
 20
9.448675
 30
0.0
  0
SPLINE
  5
216
100
AcDbEntity
  8
0
 62
7
100
AcDbSpline
 70
8
 71
3
 72
8
 73
4
 74
0
 40
0
 40
0
 40
0
 40
0
 40
1
 40
1
 40
1
 40
1
 10
6.304599
 20
9.448675
 30
0.0
 10
6.294871
 20
9.418671
 30
0.0
 10
6.263998
 20
9.401161
 30
0.0
 10
6.203618
 20
9.370357
 30
0.0
  0
SPLINE
  5
217
100
AcDbEntity
  8
0
 62
7
100
AcDbSpline
 70
8
 71
3
 72
8
 73
4
 74
0
 40
0
 40
0
 40
0
 40
0
 40
1
 40
1
 40
1
 40
1
 10
6.203618
 20
9.370357
 30
0.0
 10
6.173646
 20
9.355066
 30
0.0
 10
6.126620
 20
9.321692
 30
0.0
 10
6.075000
 20
9.280239
 30
0.0
  0
SPLINE
  5
218
100
AcDbEntity
  8
0
 62
7
100
AcDbSpline
 70
8
 71
3
 72
8
 73
4
 74
0
 40
0
 40
0
 40
0
 40
0
 40
1
 40
1
 40
1
 40
1
 10
6.075000
 20
9.280239
 30
0.0
 10
6.023379
 20
9.238786
 30
0.0
 10
5.967165
 20
9.189254
 30
0.0
 10
5.918816
 20
9.141650
 30
0.0
  0
SPLINE
  5
219
100
AcDbEntity
  8
0
 62
7
100
AcDbSpline
 70
8
 71
3
 72
8
 73
4
 74
0
 40
0
 40
0
 40
0
 40
0
 40
1
 40
1
 40
1
 40
1
 10
5.918816
 20
9.141650
 30
0.0
 10
5.836584
 20
9.060685
 30
0.0
 10
5.791419
 20
9.017919
 30
0.0
 10
5.758039
 20
8.999094
 30
0.0
  0
SPLINE
  5
21a
100
AcDbEntity
  8
0
 62
7
100
AcDbSpline
 70
8
 71
3
 72
8
 73
4
 74
0
 40
0
 40
0
 40
0
 40
0
 40
1
 40
1
 40
1
 40
1
 10
5.758039
 20
8.999094
 30
0.0
 10
5.724659
 20
8.980270
 30
0.0
 10
5.703064
 20
8.985385
 30
0.0
 10
5.667970
 20
9.000184
 30
0.0
  0
SPLINE
  5
21b
100
AcDbEntity
  8
0
 62
7
100
AcDbSpline
 70
8
 71
3
 72
8
 73
4
 74
0
 40
0
 40
0
 40
0
 40
0
 40
1
 40
1
 40
1
 40
1
 10
5.667970
 20
9.000184
 30
0.0
 10
5.647336
 20
9.008884
 30
0.0
 10
5.604766
 20
9.038897
 30
0.0
 10
5.552802
 20
9.080241
 30
0.0
  0
SPLINE
  5
21c
100
AcDbEntity
  8
0
 62
7
100
AcDbSpline
 70
8
 71
3
 72
8
 73
4
 74
0
 40
0
 40
0
 40
0
 40
0
 40
1
 40
1
 40
1
 40
1
 10
5.552802
 20
9.080241
 30
0.0
 10
5.500838
 20
9.121586
 30
0.0
 10
5.439480
 20
9.174262
 30
0.0
 10
5.381272
 20
9.228291
 30
0.0
  0
SPLINE
  5
21d
100
AcDbEntity
  8
0
 62
7
100
AcDbSpline
 70
8
 71
3
 72
8
 73
4
 74
0
 40
0
 40
0
 40
0
 40
0
 40
1
 40
1
 40
1
 40
1
 10
5.381272
 20
9.228291
 30
0.0
 10
5.302260
 20
9.301629
 30
0.0
 10
5.244298
 20
9.350748
 30
0.0
 10
5.198656
 20
9.381534
 30
0.0
  0
SPLINE
  5
21e
100
AcDbEntity
  8
0
 62
7
100
AcDbSpline
 70
8
 71
3
 72
8
 73
4
 74
0
 40
0
 40
0
 40
0
 40
0
 40
1
 40
1
 40
1
 40
1
 10
5.198656
 20
9.381534
 30
0.0
 10
5.153014
 20
9.412321
 30
0.0
 10
5.119693
 20
9.424775
 30
0.0
 10
5.089964
 20
9.424785
 30
0.0
  0
SPLINE
  5
21f
100
AcDbEntity
  8
0
 62
7
100
AcDbSpline
 70
8
 71
3
 72
8
 73
4
 74
0
 40
0
 40
0
 40
0
 40
0
 40
1
 40
1
 40
1
 40
1
 10
5.089964
 20
9.424785
 30
0.0
 10
4.999027
 20
9.424813
 30
0.0
 10
4.853085
 20
9.341604
 30
0.0
 10
4.722992
 20
9.233847
 30
0.0
  0
SPLINE
  5
220
100
AcDbEntity
  8
0
 62
7
100
AcDbSpline
 70
8
 71
3
 72
8
 73
4
 74
0
 40
0
 40
0
 40
0
 40
0
 40
1
 40
1
 40
1
 40
1
 10
4.722992
 20
9.233847
 30
0.0
 10
4.592899
 20
9.126090
 30
0.0
 10
4.478656
 20
8.993785
 30
0.0
 10
4.451117
 20
8.895621
 30
0.0
  0
SPLINE
  5
221
100
AcDbEntity
  8
0
 62
7
100
AcDbSpline
 70
8
 71
3
 72
8
 73
4
 74
0
 40
0
 40
0
 40
0
 40
0
 40
1
 40
1
 40
1
 40
1
 10
4.451117
 20
8.895621
 30
0.0
 10
4.442954
 20
8.866523
 30
0.0
 10
4.433481
 20
8.823036
 30
0.0
 10
4.424795
 20
8.776412
 30
0.0
  0
SPLINE
  5
222
100
AcDbEntity
  8
0
 62
7
100
AcDbSpline
 70
8
 71
3
 72
8
 73
4
 74
0
 40
0
 40
0
 40
0
 40
0
 40
1
 40
1
 40
1
 40
1
 10
4.424795
 20
8.776412
 30
0.0
 10
4.416109
 20
8.729789
 30
0.0
 10
4.408210
 20
8.680029
 30
0.0
 10
4.403195
 20
8.638388
 30
0.0
  0
SPLINE
  5
223
100
AcDbEntity
  8
0
 62
7
100
AcDbSpline
 70
8
 71
3
 72
8
 73
4
 74
0
 40
0
 40
0
 40
0
 40
0
 40
1
 40
1
 40
1
 40
1
 10
4.403195
 20
8.638388
 30
0.0
 10
4.394161
 20
8.563382
 30
0.0
 10
4.389759
 20
8.525575
 30
0.0
 10
4.396008
 20
8.509129
 30
0.0
  0
SPLINE
  5
224
100
AcDbEntity
  8
0
 62
7
100
AcDbSpline
 70
8
 71
3
 72
8
 73
4
 74
0
 40
0
 40
0
 40
0
 40
0
 40
1
 40
1
 40
1
 40
1
 10
4.396008
 20
8.509129
 30
0.0
 10
4.402257
 20
8.492683
 30
0.0
 10
4.419157
 20
8.497598
 30
0.0
 10
4.452726
 20
8.508034
 30
0.0
  0
SPLINE
  5
225
100
AcDbEntity
  8
0
 62
7
100
AcDbSpline
 70
8
 71
3
 72
8
 73
4
 74
0
 40
0
 40
0
 40
0
 40
0
 40
1
 40
1
 40
1
 40
1
 10
4.452726
 20
8.508034
 30
0.0
 10
4.533891
 20
8.533270
 30
0.0
 10
4.595877
 20
8.570842
 30
0.0
 10
4.639815
 20
8.622069
 30
0.0
  0
SPLINE
  5
226
100
AcDbEntity
  8
0
 62
7
100
AcDbSpline
 70
8
 71
3
 72
8
 73
4
 74
0
 40
0
 40
0
 40
0
 40
0
 40
1
 40
1
 40
1
 40
1
 10
4.639815
 20
8.622069
 30
0.0
 10
4.683754
 20
8.673296
 30
0.0
 10
4.709643
 20
8.738178
 30
0.0
 10
4.718615
 20
8.818032
 30
0.0
  0
SPLINE
  5
227
100
AcDbEntity
  8
0
 62
7
100
AcDbSpline
 70
8
 71
3
 72
8
 73
4
 74
0
 40
0
 40
0
 40
0
 40
0
 40
1
 40
1
 40
1
 40
1
 10
4.718615
 20
8.818032
 30
0.0
 10
4.720359
 20
8.833554
 30
0.0
 10
4.722350
 20
8.849747
 30
0.0
 10
4.724152
 20
8.863333
 30
0.0
  0
SPLINE
  5
228
100
AcDbEntity
  8
0
 62
7
100
AcDbSpline
 70
8
 71
3
 72
8
 73
4
 74
0
 40
0
 40
0
 40
0
 40
0
 40
1
 40
1
 40
1
 40
1
 10
4.724152
 20
8.863333
 30
0.0
 10
4.725956
 20
8.876918
 30
0.0
 10
4.727568
 20
8.887894
 30
0.0
 10
4.728559
 20
8.892984
 30
0.0
  0
SPLINE
  5
229
100
AcDbEntity
  8
0
 62
7
100
AcDbSpline
 70
8
 71
3
 72
8
 73
4
 74
0
 40
0
 40
0
 40
0
 40
0
 40
1
 40
1
 40
1
 40
1
 10
4.728559
 20
8.892984
 30
0.0
 10
4.731774
 20
8.909507
 30
0.0
 10
4.798267
 20
8.957802
 30
0.0
 10
4.869687
 20
9.001869
 30
0.0
  0
SPLINE
  5
22a
100
AcDbEntity
  8
0
 62
7
100
AcDbSpline
 70
8
 71
3
 72
8
 73
4
 74
0
 40
0
 40
0
 40
0
 40
0
 40
1
 40
1
 40
1
 40
1
 10
4.869687
 20
9.001869
 30
0.0
 10
4.941108
 20
9.045936
 30
0.0
 10
5.017457
 20
9.085775
 30
0.0
 10
5.040388
 20
9.085384
 30
0.0
  0
SPLINE
  5
22b
100
AcDbEntity
  8
0
 62
7
100
AcDbSpline
 70
8
 71
3
 72
8
 73
4
 74
0
 40
0
 40
0
 40
0
 40
0
 40
1
 40
1
 40
1
 40
1
 10
5.040388
 20
9.085384
 30
0.0
 10
5.052639
 20
9.085187
 30
0.0
 10
5.071715
 20
9.071898
 30
0.0
 10
5.092577
 20
9.050674
 30
0.0
  0
SPLINE
  5
22c
100
AcDbEntity
  8
0
 62
7
100
AcDbSpline
 70
8
 71
3
 72
8
 73
4
 74
0
 40
0
 40
0
 40
0
 40
0
 40
1
 40
1
 40
1
 40
1
 10
5.092577
 20
9.050674
 30
0.0
 10
5.113440
 20
9.029450
 30
0.0
 10
5.136091
 20
9.000281
 30
0.0
 10
5.155494
 20
8.968288
 30
0.0
  0
SPLINE
  5
22d
100
AcDbEntity
  8
0
 62
7
100
AcDbSpline
 70
8
 71
3
 72
8
 73
4
 74
0
 40
0
 40
0
 40
0
 40
0
 40
1
 40
1
 40
1
 40
1
 10
5.155494
 20
8.968288
 30
0.0
 10
5.174897
 20
8.936295
 30
0.0
 10
5.210792
 20
8.887889
 30
0.0
 10
5.252993
 20
8.835673
 30
0.0
  0
SPLINE
  5
22e
100
AcDbEntity
  8
0
 62
7
100
AcDbSpline
 70
8
 71
3
 72
8
 73
4
 74
0
 40
0
 40
0
 40
0
 40
0
 40
1
 40
1
 40
1
 40
1
 10
5.252993
 20
8.835673
 30
0.0
 10
5.295194
 20
8.783457
 30
0.0
 10
5.343701
 20
8.727432
 30
0.0
 10
5.388327
 20
8.680200
 30
0.0
  0
SPLINE
  5
22f
100
AcDbEntity
  8
0
 62
7
100
AcDbSpline
 70
8
 71
3
 72
8
 73
4
 74
0
 40
0
 40
0
 40
0
 40
0
 40
1
 40
1
 40
1
 40
1
 10
5.388327
 20
8.680200
 30
0.0
 10
5.447292
 20
8.617793
 30
0.0
 10
5.487862
 20
8.569463
 30
0.0
 10
5.513690
 20
8.529565
 30
0.0
  0
SPLINE
  5
230
100
AcDbEntity
  8
0
 62
7
100
AcDbSpline
 70
8
 71
3
 72
8
 73
4
 74
0
 40
0
 40
0
 40
0
 40
0
 40
1
 40
1
 40
1
 40
1
 10
5.513690
 20
8.529565
 30
0.0
 10
5.539518
 20
8.489667
 30
0.0
 10
5.550605
 20
8.458201
 30
0.0
 10
5.550605
 20
8.429522
 30
0.0
  0
SPLINE
  5
231
100
AcDbEntity
  8
0
 62
7
100
AcDbSpline
 70
8
 71
3
 72
8
 73
4
 74
0
 40
0
 40
0
 40
0
 40
0
 40
1
 40
1
 40
1
 40
1
 10
5.550605
 20
8.429522
 30
0.0
 10
5.550605
 20
8.374837
 30
0.0
 10
5.538115
 20
8.344789
 30
0.0
 10
5.486995
 20
8.333717
 30
0.0
  0
SPLINE
  5
232
100
AcDbEntity
  8
0
 62
7
100
AcDbSpline
 70
8
 71
3
 72
8
 73
4
 74
0
 40
0
 40
0
 40
0
 40
0
 40
1
 40
1
 40
1
 40
1
 10
5.486995
 20
8.333717
 30
0.0
 10
5.435875
 20
8.322644
 30
0.0
 10
5.346123
 20
8.330546
 30
0.0
 10
5.191601
 20
8.351762
 30
0.0
  0
SPLINE
  5
233
100
AcDbEntity
  8
0
 62
7
100
AcDbSpline
 70
8
 71
3
 72
8
 73
4
 74
0
 40
0
 40
0
 40
0
 40
0
 40
1
 40
1
 40
1
 40
1
 10
5.191601
 20
8.351762
 30
0.0
 10
5.065223
 20
8.369113
 30
0.0
 10
4.997850
 20
8.377554
 30
0.0
 10
4.955602
 20
8.375186
 30
0.0
  0
SPLINE
  5
234
100
AcDbEntity
  8
0
 62
7
100
AcDbSpline
 70
8
 71
3
 72
8
 73
4
 74
0
 40
0
 40
0
 40
0
 40
0
 40
1
 40
1
 40
1
 40
1
 10
4.955602
 20
8.375186
 30
0.0
 10
4.913353
 20
8.372818
 30
0.0
 10
4.896227
 20
8.359642
 30
0.0
 10
4.870343
 20
8.333758
 30
0.0
  0
SPLINE
  5
235
100
AcDbEntity
  8
0
 62
7
100
AcDbSpline
 70
8
 71
3
 72
8
 73
4
 74
0
 40
0
 40
0
 40
0
 40
0
 40
1
 40
1
 40
1
 40
1
 10
4.870343
 20
8.333758
 30
0.0
 10
4.854340
 20
8.317755
 30
0.0
 10
4.837841
 20
8.286716
 30
0.0
 10
4.823326
 20
8.247371
 30
0.0
  0
SPLINE
  5
236
100
AcDbEntity
  8
0
 62
7
100
AcDbSpline
 70
8
 71
3
 72
8
 73
4
 74
0
 40
0
 40
0
 40
0
 40
0
 40
1
 40
1
 40
1
 40
1
 10
4.823326
 20
8.247371
 30
0.0
 10
4.808811
 20
8.208025
 30
0.0
 10
4.796282
 20
8.160373
 30
0.0
 10
4.788220
 20
8.111145
 30
0.0
  0
SPLINE
  5
237
100
AcDbEntity
  8
0
 62
7
100
AcDbSpline
 70
8
 71
3
 72
8
 73
4
 74
0
 40
0
 40
0
 40
0
 40
0
 40
1
 40
1
 40
1
 40
1
 10
4.788220
 20
8.111145
 30
0.0
 10
4.772667
 20
8.016165
 30
0.0
 10
4.763534
 20
7.833042
 30
0.0
 10
4.761732
 20
7.652822
 30
0.0
  0
SPLINE
  5
238
100
AcDbEntity
  8
0
 62
7
100
AcDbSpline
 70
8
 71
3
 72
8
 73
4
 74
0
 40
0
 40
0
 40
0
 40
0
 40
1
 40
1
 40
1
 40
1
 10
4.761732
 20
7.652822
 30
0.0
 10
4.759928
 20
7.472602
 30
0.0
 10
4.765458
 20
7.295284
 30
0.0
 10
4.779228
 20
7.211916
 30
0.0
  0
SPLINE
  5
239
100
AcDbEntity
  8
0
 62
7
100
AcDbSpline
 70
8
 71
3
 72
8
 73
4
 74
0
 40
0
 40
0
 40
0
 40
0
 40
1
 40
1
 40
1
 40
1
 10
4.779228
 20
7.211916
 30
0.0
 10
4.789677
 20
7.148653
 30
0.0
 10
4.856416
 20
7.021797
 30
0.0
 10
4.934886
 20
6.900324
 30
0.0
  0
SPLINE
  5
23a
100
AcDbEntity
  8
0
 62
7
100
AcDbSpline
 70
8
 71
3
 72
8
 73
4
 74
0
 40
0
 40
0
 40
0
 40
0
 40
1
 40
1
 40
1
 40
1
 10
4.934886
 20
6.900324
 30
0.0
 10
5.013356
 20
6.778851
 30
0.0
 10
5.103558
 20
6.662761
 30
0.0
 10
5.160934
 20
6.621030
 30
0.0
  0
SPLINE
  5
23b
100
AcDbEntity
  8
0
 62
7
100
AcDbSpline
 70
8
 71
3
 72
8
 73
4
 74
0
 40
0
 40
0
 40
0
 40
0
 40
1
 40
1
 40
1
 40
1
 10
5.160934
 20
6.621030
 30
0.0
 10
5.197064
 20
6.594752
 30
0.0
 10
5.216964
 20
6.581524
 30
0.0
 10
5.236541
 20
6.580572
 30
0.0
  0
SPLINE
  5
23c
100
AcDbEntity
  8
0
 62
7
100
AcDbSpline
 70
8
 71
3
 72
8
 73
4
 74
0
 40
0
 40
0
 40
0
 40
0
 40
1
 40
1
 40
1
 40
1
 10
5.236541
 20
6.580572
 30
0.0
 10
5.256119
 20
6.579621
 30
0.0
 10
5.275374
 20
6.590947
 30
0.0
 10
5.310216
 20
6.613776
 30
0.0
  0
SPLINE
  5
23d
100
AcDbEntity
  8
0
 62
7
100
AcDbSpline
 70
8
 71
3
 72
8
 73
4
 74
0
 40
0
 40
0
 40
0
 40
0
 40
1
 40
1
 40
1
 40
1
 10
5.310216
 20
6.613776
 30
0.0
 10
5.330370
 20
6.626981
 30
0.0
 10
5.354044
 20
6.650210
 30
0.0
 10
5.375950
 20
6.676997
 30
0.0
  0
SPLINE
  5
23e
100
AcDbEntity
  8
0
 62
7
100
AcDbSpline
 70
8
 71
3
 72
8
 73
4
 74
0
 40
0
 40
0
 40
0
 40
0
 40
1
 40
1
 40
1
 40
1
 10
5.375950
 20
6.676997
 30
0.0
 10
5.397857
 20
6.703784
 30
0.0
 10
5.417996
 20
6.734129
 30
0.0
 10
5.431080
 20
6.761566
 30
0.0
  0
SPLINE
  5
23f
100
AcDbEntity
  8
0
 62
7
100
AcDbSpline
 70
8
 71
3
 72
8
 73
4
 74
0
 40
0
 40
0
 40
0
 40
0
 40
1
 40
1
 40
1
 40
1
 10
5.431080
 20
6.761566
 30
0.0
 10
5.451830
 20
6.805080
 30
0.0
 10
5.462395
 20
6.830776
 30
0.0
 10
5.463232
 20
6.848165
 30
0.0
  0
SPLINE
  5
240
100
AcDbEntity
  8
0
 62
7
100
AcDbSpline
 70
8
 71
3
 72
8
 73
4
 74
0
 40
0
 40
0
 40
0
 40
0
 40
1
 40
1
 40
1
 40
1
 10
5.463232
 20
6.848165
 30
0.0
 10
5.464071
 20
6.865555
 30
0.0
 10
5.455180
 20
6.874638
 30
0.0
 10
5.437020
 20
6.884925
 30
0.0
  0
SPLINE
  5
241
100
AcDbEntity
  8
0
 62
7
100
AcDbSpline
 70
8
 71
3
 72
8
 73
4
 74
0
 40
0
 40
0
 40
0
 40
0
 40
1
 40
1
 40
1
 40
1
 10
5.437020
 20
6.884925
 30
0.0
 10
5.337616
 20
6.941239
 30
0.0
 10
5.277475
 20
6.981281
 30
0.0
 10
5.234479
 20
7.030241
 30
0.0
  0
SPLINE
  5
242
100
AcDbEntity
  8
0
 62
7
100
AcDbSpline
 70
8
 71
3
 72
8
 73
4
 74
0
 40
0
 40
0
 40
0
 40
0
 40
1
 40
1
 40
1
 40
1
 10
5.234479
 20
7.030241
 30
0.0
 10
5.191483
 20
7.079201
 30
0.0
 10
5.165632
 20
7.137077
 30
0.0
 10
5.134804
 20
7.229059
 30
0.0
  0
SPLINE
  5
243
100
AcDbEntity
  8
0
 62
7
100
AcDbSpline
 70
8
 71
3
 72
8
 73
4
 74
0
 40
0
 40
0
 40
0
 40
0
 40
1
 40
1
 40
1
 40
1
 10
5.134804
 20
7.229059
 30
0.0
 10
5.093635
 20
7.351898
 30
0.0
 10
5.067154
 20
7.466853
 30
0.0
 10
5.055870
 20
7.569295
 30
0.0
  0
SPLINE
  5
244
100
AcDbEntity
  8
0
 62
7
100
AcDbSpline
 70
8
 71
3
 72
8
 73
4
 74
0
 40
0
 40
0
 40
0
 40
0
 40
1
 40
1
 40
1
 40
1
 10
5.055870
 20
7.569295
 30
0.0
 10
5.044587
 20
7.671736
 30
0.0
 10
5.048501
 20
7.761665
 30
0.0
 10
5.068122
 20
7.834452
 30
0.0
  0
LWPOLYLINE
  5
245
100
AcDbEntity
  8
0
 62
7
100
AcDbPolyline
 90
5
 70
0
 10
5.915098
 20
9.697369
 30
0.0
 10
6.079954
 20
9.706233
 30
0.0
 10
6.244810
 20
9.715097
 30
0.0
 10
6.261759
 20
9.658527
 30
0.0
 10
6.278708
 20
9.601957
 30
0.0
  0
SPLINE
  5
246
100
AcDbEntity
  8
0
 62
7
100
AcDbSpline
 70
8
 71
3
 72
8
 73
4
 74
0
 40
0
 40
0
 40
0
 40
0
 40
1
 40
1
 40
1
 40
1
 10
5.230853
 20
7.912063
 30
0.0
 10
5.316659
 20
7.886239
 30
0.0
 10
5.389822
 20
7.873774
 30
0.0
 10
5.459107
 20
7.874796
 30
0.0
  0
SPLINE
  5
247
100
AcDbEntity
  8
0
 62
7
100
AcDbSpline
 70
8
 71
3
 72
8
 73
4
 74
0
 40
0
 40
0
 40
0
 40
0
 40
1
 40
1
 40
1
 40
1
 10
5.459107
 20
7.874796
 30
0.0
 10
5.528392
 20
7.875818
 30
0.0
 10
5.593799
 20
7.890327
 30
0.0
 10
5.664094
 20
7.918454
 30
0.0
  0
SPLINE
  5
248
100
AcDbEntity
  8
0
 62
7
100
AcDbSpline
 70
8
 71
3
 72
8
 73
4
 74
0
 40
0
 40
0
 40
0
 40
0
 40
1
 40
1
 40
1
 40
1
 10
5.664094
 20
7.918454
 30
0.0
 10
5.730891
 20
7.945181
 30
0.0
 10
5.773747
 20
7.953948
 30
0.0
 10
5.790602
 20
7.945756
 30
0.0
  0
SPLINE
  5
249
100
AcDbEntity
  8
0
 62
7
100
AcDbSpline
 70
8
 71
3
 72
8
 73
4
 74
0
 40
0
 40
0
 40
0
 40
0
 40
1
 40
1
 40
1
 40
1
 10
5.790602
 20
7.945756
 30
0.0
 10
5.807458
 20
7.937564
 30
0.0
 10
5.798313
 20
7.912414
 30
0.0
 10
5.761110
 20
7.871304
 30
0.0
  0
SPLINE
  5
24a
100
AcDbEntity
  8
0
 62
7
100
AcDbSpline
 70
8
 71
3
 72
8
 73
4
 74
0
 40
0
 40
0
 40
0
 40
0
 40
1
 40
1
 40
1
 40
1
 10
5.761110
 20
7.871304
 30
0.0
 10
5.735291
 20
7.842775
 30
0.0
 10
5.722516
 20
7.827955
 30
0.0
 10
5.726427
 20
7.811804
 30
0.0
  0
SPLINE
  5
24b
100
AcDbEntity
  8
0
 62
7
100
AcDbSpline
 70
8
 71
3
 72
8
 73
4
 74
0
 40
0
 40
0
 40
0
 40
0
 40
1
 40
1
 40
1
 40
1
 10
5.726427
 20
7.811804
 30
0.0
 10
5.730337
 20
7.795653
 30
0.0
 10
5.750934
 20
7.778171
 30
0.0
 10
5.791857
 20
7.744317
 30
0.0
  0
SPLINE
  5
24c
100
AcDbEntity
  8
0
 62
7
100
AcDbSpline
 70
8
 71
3
 72
8
 73
4
 74
0
 40
0
 40
0
 40
0
 40
0
 40
1
 40
1
 40
1
 40
1
 10
5.791857
 20
7.744317
 30
0.0
 10
5.858445
 20
7.689232
 30
0.0
 10
5.959920
 20
7.630709
 30
0.0
 10
6.071451
 20
7.580033
 30
0.0
  0
SPLINE
  5
24d
100
AcDbEntity
  8
0
 62
7
100
AcDbSpline
 70
8
 71
3
 72
8
 73
4
 74
0
 40
0
 40
0
 40
0
 40
0
 40
1
 40
1
 40
1
 40
1
 10
6.071451
 20
7.580033
 30
0.0
 10
6.182983
 20
7.529356
 30
0.0
 10
6.304570
 20
7.486525
 30
0.0
 10
6.411383
 20
7.462822
 30
0.0
  0
SPLINE
  5
24e
100
AcDbEntity
  8
0
 62
7
100
AcDbSpline
 70
8
 71
3
 72
8
 73
4
 74
0
 40
0
 40
0
 40
0
 40
0
 40
1
 40
1
 40
1
 40
1
 10
6.411383
 20
7.462822
 30
0.0
 10
6.556043
 20
7.430720
 30
0.0
 10
6.625089
 20
7.417523
 30
0.0
 10
6.649576
 20
7.396248
 30
0.0
  0
SPLINE
  5
24f
100
AcDbEntity
  8
0
 62
7
100
AcDbSpline
 70
8
 71
3
 72
8
 73
4
 74
0
 40
0
 40
0
 40
0
 40
0
 40
1
 40
1
 40
1
 40
1
 10
6.649576
 20
7.396248
 30
0.0
 10
6.674063
 20
7.374973
 30
0.0
 10
6.653991
 20
7.345619
 30
0.0
 10
6.620415
 20
7.281204
 30
0.0
  0
SPLINE
  5
250
100
AcDbEntity
  8
0
 62
7
100
AcDbSpline
 70
8
 71
3
 72
8
 73
4
 74
0
 40
0
 40
0
 40
0
 40
0
 40
1
 40
1
 40
1
 40
1
 10
6.620415
 20
7.281204
 30
0.0
 10
6.600985
 20
7.243925
 30
0.0
 10
6.584905
 20
7.196525
 30
0.0
 10
6.572429
 20
7.140142
 30
0.0
  0
SPLINE
  5
251
100
AcDbEntity
  8
0
 62
7
100
AcDbSpline
 70
8
 71
3
 72
8
 73
4
 74
0
 40
0
 40
0
 40
0
 40
0
 40
1
 40
1
 40
1
 40
1
 10
6.572429
 20
7.140142
 30
0.0
 10
6.559953
 20
7.083759
 30
0.0
 10
6.551080
 20
7.018394
 30
0.0
 10
6.546062
 20
6.945185
 30
0.0
  0
LWPOLYLINE
  5
252
100
AcDbEntity
  8
0
 62
7
100
AcDbPolyline
 90
5
 70
0
 10
5.068122
 20
7.834452
 30
0.0
 10
5.083904
 20
7.892996
 30
0.0
 10
5.099686
 20
7.951539
 30
0.0
 10
5.165269
 20
7.931801
 30
0.0
 10
5.230853
 20
7.912063
 30
0.0
  0
SPLINE
  5
253
100
AcDbEntity
  8
0
 62
7
100
AcDbSpline
 70
8
 71
3
 72
8
 73
4
 74
0
 40
0
 40
0
 40
0
 40
0
 40
1
 40
1
 40
1
 40
1
 10
6.240043
 20
6.709607
 30
0.0
 10
6.110015
 20
6.703824
 30
0.0
 10
6.034747
 20
6.698624
 30
0.0
 10
5.981066
 20
6.686542
 30
0.0
  0
SPLINE
  5
254
100
AcDbEntity
  8
0
 62
7
100
AcDbSpline
 70
8
 71
3
 72
8
 73
4
 74
0
 40
0
 40
0
 40
0
 40
0
 40
1
 40
1
 40
1
 40
1
 10
5.981066
 20
6.686542
 30
0.0
 10
5.927385
 20
6.674459
 30
0.0
 10
5.895291
 20
6.655493
 30
0.0
 10
5.851612
 20
6.622177
 30
0.0
  0
SPLINE
  5
255
100
AcDbEntity
  8
0
 62
7
100
AcDbSpline
 70
8
 71
3
 72
8
 73
4
 74
0
 40
0
 40
0
 40
0
 40
0
 40
1
 40
1
 40
1
 40
1
 10
5.851612
 20
6.622177
 30
0.0
 10
5.798850
 20
6.581934
 30
0.0
 10
5.746870
 20
6.515651
 30
0.0
 10
5.706346
 20
6.442577
 30
0.0
  0
SPLINE
  5
256
100
AcDbEntity
  8
0
 62
7
100
AcDbSpline
 70
8
 71
3
 72
8
 73
4
 74
0
 40
0
 40
0
 40
0
 40
0
 40
1
 40
1
 40
1
 40
1
 10
5.706346
 20
6.442577
 30
0.0
 10
5.665821
 20
6.369502
 30
0.0
 10
5.636751
 20
6.289635
 30
0.0
 10
5.629812
 20
6.222224
 30
0.0
  0
SPLINE
  5
257
100
AcDbEntity
  8
0
 62
7
100
AcDbSpline
 70
8
 71
3
 72
8
 73
4
 74
0
 40
0
 40
0
 40
0
 40
0
 40
1
 40
1
 40
1
 40
1
 10
5.629812
 20
6.222224
 30
0.0
 10
5.626018
 20
6.185373
 30
0.0
 10
5.626890
 20
6.163311
 30
0.0
 10
5.639541
 20
6.146699
 30
0.0
  0
SPLINE
  5
258
100
AcDbEntity
  8
0
 62
7
100
AcDbSpline
 70
8
 71
3
 72
8
 73
4
 74
0
 40
0
 40
0
 40
0
 40
0
 40
1
 40
1
 40
1
 40
1
 10
5.639541
 20
6.146699
 30
0.0
 10
5.652191
 20
6.130086
 30
0.0
 10
5.676620
 20
6.118924
 30
0.0
 10
5.719938
 20
6.103873
 30
0.0
  0
SPLINE
  5
259
100
AcDbEntity
  8
0
 62
7
100
AcDbSpline
 70
8
 71
3
 72
8
 73
4
 74
0
 40
0
 40
0
 40
0
 40
0
 40
1
 40
1
 40
1
 40
1
 10
5.719938
 20
6.103873
 30
0.0
 10
5.747102
 20
6.094434
 30
0.0
 10
5.784824
 20
6.085675
 30
0.0
 10
5.823717
 20
6.079165
 30
0.0
  0
SPLINE
  5
25a
100
AcDbEntity
  8
0
 62
7
100
AcDbSpline
 70
8
 71
3
 72
8
 73
4
 74
0
 40
0
 40
0
 40
0
 40
0
 40
1
 40
1
 40
1
 40
1
 10
5.823717
 20
6.079165
 30
0.0
 10
5.862609
 20
6.072656
 30
0.0
 10
5.902672
 20
6.068396
 30
0.0
 10
5.934518
 20
6.067958
 30
0.0
  0
LWPOLYLINE
  5
25b
100
AcDbEntity
  8
0
 62
7
100
AcDbPolyline
 90
5
 70
0
 10
6.546062
 20
6.945185
 30
0.0
 10
6.538431
 20
6.833861
 30
0.0
 10
6.530801
 20
6.722538
 30
0.0
 10
6.385422
 20
6.716072
 30
0.0
 10
6.240043
 20
6.709607
 30
0.0
  0
SPLINE
  5
25c
100
AcDbEntity
  8
0
 62
7
100
AcDbSpline
 70
8
 71
3
 72
8
 73
4
 74
0
 40
0
 40
0
 40
0
 40
0
 40
1
 40
1
 40
1
 40
1
 10
6.037434
 20
6.200464
 30
0.0
 10
6.032215
 20
6.254788
 30
0.0
 10
6.031671
 20
6.290736
 30
0.0
 10
6.038148
 20
6.318275
 30
0.0
  0
SPLINE
  5
25d
100
AcDbEntity
  8
0
 62
7
100
AcDbSpline
 70
8
 71
3
 72
8
 73
4
 74
0
 40
0
 40
0
 40
0
 40
0
 40
1
 40
1
 40
1
 40
1
 10
6.038148
 20
6.318275
 30
0.0
 10
6.044626
 20
6.345815
 30
0.0
 10
6.058125
 20
6.364947
 30
0.0
 10
6.080989
 20
6.385639
 30
0.0
  0
SPLINE
  5
25e
100
AcDbEntity
  8
0
 62
7
100
AcDbSpline
 70
8
 71
3
 72
8
 73
4
 74
0
 40
0
 40
0
 40
0
 40
0
 40
1
 40
1
 40
1
 40
1
 10
6.080989
 20
6.385639
 30
0.0
 10
6.116172
 20
6.417480
 30
0.0
 10
6.198551
 20
6.443167
 30
0.0
 10
6.316762
 20
6.460986
 30
0.0
  0
SPLINE
  5
25f
100
AcDbEntity
  8
0
 62
7
100
AcDbSpline
 70
8
 71
3
 72
8
 73
4
 74
0
 40
0
 40
0
 40
0
 40
0
 40
1
 40
1
 40
1
 40
1
 10
6.316762
 20
6.460986
 30
0.0
 10
6.434972
 20
6.478807
 30
0.0
 10
6.589014
 20
6.488759
 30
0.0
 10
6.767523
 20
6.489132
 30
0.0
  0
LWPOLYLINE
  5
260
100
AcDbEntity
  8
0
 62
7
100
AcDbPolyline
 90
5
 70
0
 10
5.934518
 20
6.067958
 30
0.0
 10
5.992419
 20
6.067163
 30
0.0
 10
6.050319
 20
6.066367
 30
0.0
 10
6.043877
 20
6.133415
 30
0.0
 10
6.037434
 20
6.200464
 30
0.0
  0
SPLINE
  5
261
100
AcDbEntity
  8
0
 62
7
100
AcDbSpline
 70
8
 71
3
 72
8
 73
4
 74
0
 40
0
 40
0
 40
0
 40
0
 40
1
 40
1
 40
1
 40
1
 10
7.056490
 20
6.595533
 30
0.0
 10
7.061300
 20
6.624637
 30
0.0
 10
7.065709
 20
6.670752
 30
0.0
 10
7.068936
 20
6.721603
 30
0.0
  0
SPLINE
  5
262
100
AcDbEntity
  8
0
 62
7
100
AcDbSpline
 70
8
 71
3
 72
8
 73
4
 74
0
 40
0
 40
0
 40
0
 40
0
 40
1
 40
1
 40
1
 40
1
 10
7.068936
 20
6.721603
 30
0.0
 10
7.072163
 20
6.772454
 30
0.0
 10
7.074208
 20
6.828041
 30
0.0
 10
7.074294
 20
6.876090
 30
0.0
  0
SPLINE
  5
263
100
AcDbEntity
  8
0
 62
7
100
AcDbSpline
 70
8
 71
3
 72
8
 73
4
 74
0
 40
0
 40
0
 40
0
 40
0
 40
1
 40
1
 40
1
 40
1
 10
7.074294
 20
6.876090
 30
0.0
 10
7.074378
 20
6.924138
 30
0.0
 10
7.077298
 20
6.969576
 30
0.0
 10
7.081934
 20
7.004075
 30
0.0
  0
SPLINE
  5
264
100
AcDbEntity
  8
0
 62
7
100
AcDbSpline
 70
8
 71
3
 72
8
 73
4
 74
0
 40
0
 40
0
 40
0
 40
0
 40
1
 40
1
 40
1
 40
1
 10
7.081934
 20
7.004075
 30
0.0
 10
7.086570
 20
7.038573
 30
0.0
 10
7.092921
 20
7.062134
 30
0.0
 10
7.099870
 20
7.066428
 30
0.0
  0
SPLINE
  5
265
100
AcDbEntity
  8
0
 62
7
100
AcDbSpline
 70
8
 71
3
 72
8
 73
4
 74
0
 40
0
 40
0
 40
0
 40
0
 40
1
 40
1
 40
1
 40
1
 10
7.099870
 20
7.066428
 30
0.0
 10
7.113931
 20
7.075118
 30
0.0
 10
7.128781
 20
7.063356
 30
0.0
 10
7.140116
 20
7.040007
 30
0.0
  0
SPLINE
  5
266
100
AcDbEntity
  8
0
 62
7
100
AcDbSpline
 70
8
 71
3
 72
8
 73
4
 74
0
 40
0
 40
0
 40
0
 40
0
 40
1
 40
1
 40
1
 40
1
 10
7.140116
 20
7.040007
 30
0.0
 10
7.151452
 20
7.016659
 30
0.0
 10
7.159271
 20
6.981724
 30
0.0
 10
7.159271
 20
6.944069
 30
0.0
  0
SPLINE
  5
267
100
AcDbEntity
  8
0
 62
7
100
AcDbSpline
 70
8
 71
3
 72
8
 73
4
 74
0
 40
0
 40
0
 40
0
 40
0
 40
1
 40
1
 40
1
 40
1
 10
7.159271
 20
6.944069
 30
0.0
 10
7.159271
 20
6.845312
 30
0.0
 10
7.208968
 20
6.711068
 30
0.0
 10
7.276425
 20
6.595877
 30
0.0
  0
SPLINE
  5
268
100
AcDbEntity
  8
0
 62
7
100
AcDbSpline
 70
8
 71
3
 72
8
 73
4
 74
0
 40
0
 40
0
 40
0
 40
0
 40
1
 40
1
 40
1
 40
1
 10
7.276425
 20
6.595877
 30
0.0
 10
7.343881
 20
6.480687
 30
0.0
 10
7.429097
 20
6.384549
 30
0.0
 10
7.500133
 20
6.362003
 30
0.0
  0
SPLINE
  5
269
100
AcDbEntity
  8
0
 62
7
100
AcDbSpline
 70
8
 71
3
 72
8
 73
4
 74
0
 40
0
 40
0
 40
0
 40
0
 40
1
 40
1
 40
1
 40
1
 10
7.500133
 20
6.362003
 30
0.0
 10
7.515052
 20
6.357268
 30
0.0
 10
7.528614
 20
6.348551
 30
0.0
 10
7.538447
 20
6.338321
 30
0.0
  0
SPLINE
  5
26a
100
AcDbEntity
  8
0
 62
7
100
AcDbSpline
 70
8
 71
3
 72
8
 73
4
 74
0
 40
0
 40
0
 40
0
 40
0
 40
1
 40
1
 40
1
 40
1
 10
7.538447
 20
6.338321
 30
0.0
 10
7.548279
 20
6.328091
 30
0.0
 10
7.554382
 20
6.316348
 30
0.0
 10
7.554382
 20
6.305562
 30
0.0
  0
SPLINE
  5
26b
100
AcDbEntity
  8
0
 62
7
100
AcDbSpline
 70
8
 71
3
 72
8
 73
4
 74
0
 40
0
 40
0
 40
0
 40
0
 40
1
 40
1
 40
1
 40
1
 10
7.554382
 20
6.305562
 30
0.0
 10
7.554382
 20
6.294776
 30
0.0
 10
7.529776
 20
6.252944
 30
0.0
 10
7.490133
 20
6.194238
 30
0.0
  0
SPLINE
  5
26c
100
AcDbEntity
  8
0
 62
7
100
AcDbSpline
 70
8
 71
3
 72
8
 73
4
 74
0
 40
0
 40
0
 40
0
 40
0
 40
1
 40
1
 40
1
 40
1
 10
7.490133
 20
6.194238
 30
0.0
 10
7.450489
 20
6.135531
 30
0.0
 10
7.395809
 20
6.059950
 30
0.0
 10
7.335660
 20
5.981665
 30
0.0
  0
SPLINE
  5
26d
100
AcDbEntity
  8
0
 62
7
100
AcDbSpline
 70
8
 71
3
 72
8
 73
4
 74
0
 40
0
 40
0
 40
0
 40
0
 40
1
 40
1
 40
1
 40
1
 10
7.335660
 20
5.981665
 30
0.0
 10
7.156356
 20
5.748295
 30
0.0
 10
7.055814
 20
5.611330
 30
0.0
 10
7.000098
 20
5.507571
 30
0.0
  0
SPLINE
  5
26e
100
AcDbEntity
  8
0
 62
7
100
AcDbSpline
 70
8
 71
3
 72
8
 73
4
 74
0
 40
0
 40
0
 40
0
 40
0
 40
1
 40
1
 40
1
 40
1
 10
7.000098
 20
5.507571
 30
0.0
 10
6.944383
 20
5.403811
 30
0.0
 10
6.933493
 20
5.333257
 30
0.0
 10
6.933493
 20
5.232707
 30
0.0
  0
SPLINE
  5
26f
100
AcDbEntity
  8
0
 62
7
100
AcDbSpline
 70
8
 71
3
 72
8
 73
4
 74
0
 40
0
 40
0
 40
0
 40
0
 40
1
 40
1
 40
1
 40
1
 10
6.933493
 20
5.232707
 30
0.0
 10
6.933493
 20
5.185151
 30
0.0
 10
6.935610
 20
5.139801
 30
0.0
 10
6.939020
 20
5.105046
 30
0.0
  0
SPLINE
  5
270
100
AcDbEntity
  8
0
 62
7
100
AcDbSpline
 70
8
 71
3
 72
8
 73
4
 74
0
 40
0
 40
0
 40
0
 40
0
 40
1
 40
1
 40
1
 40
1
 10
6.939020
 20
5.105046
 30
0.0
 10
6.942430
 20
5.070292
 30
0.0
 10
6.947134
 20
5.046133
 30
0.0
 10
6.952308
 20
5.040959
 30
0.0
  0
SPLINE
  5
271
100
AcDbEntity
  8
0
 62
7
100
AcDbSpline
 70
8
 71
3
 72
8
 73
4
 74
0
 40
0
 40
0
 40
0
 40
0
 40
1
 40
1
 40
1
 40
1
 10
6.952308
 20
5.040959
 30
0.0
 10
6.967313
 20
5.025954
 30
0.0
 10
7.053046
 20
5.020519
 30
0.0
 10
7.137448
 20
5.022749
 30
0.0
  0
SPLINE
  5
272
100
AcDbEntity
  8
0
 62
7
100
AcDbSpline
 70
8
 71
3
 72
8
 73
4
 74
0
 40
0
 40
0
 40
0
 40
0
 40
1
 40
1
 40
1
 40
1
 10
7.137448
 20
5.022749
 30
0.0
 10
7.221849
 20
5.024978
 30
0.0
 10
7.304918
 20
5.034874
 30
0.0
 10
7.314595
 20
5.050531
 30
0.0
  0
LWPOLYLINE
  5
273
100
AcDbEntity
  8
0
 62
7
100
AcDbPolyline
 90
5
 70
0
 10
6.767523
 20
6.489132
 30
0.0
 10
6.903260
 20
6.489415
 30
0.0
 10
7.038997
 20
6.489700
 30
0.0
 10
7.047743
 20
6.542616
 30
0.0
 10
7.056490
 20
6.595533
 30
0.0
  0
LWPOLYLINE
  5
274
100
AcDbEntity
  8
0
 62
7
100
AcDbPolyline
 90
3
 70
0
 10
7.314595
 20
5.050531
 30
0.0
 10
7.314595
 20
5.050530
 30
0.0
 10
7.314596
 20
5.050531
 30
0.0
  0
ENDSEC
  0
SECTION
  2
OBJECTS
  0
DICTIONARY
  5
C
330
0
100
AcDbDictionary
  3
ACAD_GROUP
350
D
  3
ACAD_MLINESTYLE
350
17
  0
DICTIONARY
  5
D
330
C
100
AcDbDictionary
  0
DICTIONARY
  5
1A
330
C
100
AcDbDictionary
  0
DICTIONARY
  5
17
330
C
100
AcDbDictionary
  3
STANDARD
350
18
  0
DICTIONARY
  5
19
330
C
100
AcDbDictionary
  0
ENDSEC
  0
EOF
