  0
SECTION
  2
HEADER
  9
$ACADVER
  1
AC1014
  9
$HANDSEED
  5
FFFF
  9
$MEASUREMENT
 70
     1
  0
ENDSEC
  0
SECTION
  2
TABLES
  0
TABLE
  2
VPORT
  5
8
330
0
100
AcDbSymbolTable
 70
     4
  0
VPORT
  5
2E
330
8
100
AcDbSymbolTableRecord
100
AcDbViewportTableRecord
  2
*ACTIVE
 70
     0
 10
0.0
 20
0.0
 11
1.0
 21
1.0
 12
210.0
 22
148.5
 13
0.0
 23
0.0
 14
10.0
 24
10.0
 15
10.0
 25
10.0
 16
0.0
 26
0.0
 36
1.0
 17
0.0
 27
0.0
 37
0.0
 40
341.0
 41
1.24
 42
50.0
 43
0.0
 44
0.0
 50
0.0
 51
0.0
 71
     0
 72
   100
 73
     1
 74
     3
 75
     0
 76
     0
 77
     0
 78
     0
  0
ENDTAB
  0
TABLE
  2
LTYPE
  5
5
330
0
100
AcDbSymbolTable
 70
     1
  0
LTYPE
  5
14
330
5
100
AcDbSymbolTableRecord
100
AcDbLinetypeTableRecord
  2
BYBLOCK
 70
     0
  3

 72
    65
 73
     0
 40
0.0
  0
LTYPE
  5
15
330
5
100
AcDbSymbolTableRecord
100
AcDbLinetypeTableRecord
  2
BYLAYER
 70
     0
  3

 72
    65
 73
     0
 40
0.0
  0
LTYPE
  5
16
330
5
100
AcDbSymbolTableRecord
100
AcDbLinetypeTableRecord
  2
CONTINUOUS
 70
     0
  3
Solid line
 72
    65
 73
     0
 40
0.0
  0
ENDTAB
  0
TABLE
  2
LAYER
  5
2
100
AcDbSymbolTable
 70
1
  0
LAYER
  5
50
100
AcDbSymbolTableRecord
100
AcDbLayerTableRecord
  2
0
 70
0
  6
CONTINUOUS
  0
ENDTAB
  0
TABLE
  2
STYLE
  5
3
330
0
100
AcDbSymbolTable
 70
     1
  0
STYLE
  5
11
330
3
100
AcDbSymbolTableRecord
100
AcDbTextStyleTableRecord
  2
STANDARD
 70
     0
 40
0.0
 41
1.0
 50
0.0
 71
     0
 42
2.5
  3
txt
  4

  0
ENDTAB
  0
TABLE
  2
VIEW
  5
6
330
0
100
AcDbSymbolTable
 70
     0
  0
ENDTAB
  0
TABLE
  2
UCS
  5
7
330
0
100
AcDbSymbolTable
 70
     0
  0
ENDTAB
  0
TABLE
  2
APPID
  5
9
330
0
100
AcDbSymbolTable
 70
     2
  0
APPID
  5
12
330
9
100
AcDbSymbolTableRecord
100
AcDbRegAppTableRecord
  2
ACAD
 70
     0
  0
ENDTAB
  0
TABLE
  2
DIMSTYLE
  5
A
330
0
100
AcDbSymbolTable
 70
     1
  0
DIMSTYLE
105
27
330
A
100
AcDbSymbolTableRecord
100
AcDbDimStyleTableRecord
  2
ISO-25
 70
     0
  3

  4

  5

  6

  7

 40
1.0
 41
2.5
 42
0.625
 43
3.75
 44
1.25
 45
0.0
 46
0.0
 47
0.0
 48
0.0
140
2.5
141
2.5
142
0.0
143
0.03937007874016
144
1.0
145
0.0
146
1.0
147
0.625
 71
     0
 72
     0
 73
     0
 74
     0
 75
     0
 76
     0
 77
     1
 78
     8
170
     0
171
     3
172
     1
173
     0
174
     0
175
     0
176
     0
177
     0
178
     0
270
     2
271
     2
272
     2
273
     2
274
     3
340
11
275
     0
280
     0
281
     0
282
     0
283
     0
284
     8
285
     0
286
     0
287
     3
288
     0
  0
ENDTAB
  0
TABLE
  2
BLOCK_RECORD
  5
1
330
0
100
AcDbSymbolTable
 70
     1
  0
BLOCK_RECORD
  5
1F
330
1
100
AcDbSymbolTableRecord
100
AcDbBlockTableRecord
  2
*MODEL_SPACE
  0
BLOCK_RECORD
  5
1B
330
1
100
AcDbSymbolTableRecord
100
AcDbBlockTableRecord
  2
*PAPER_SPACE
  0
ENDTAB
  0
ENDSEC
  0
SECTION
  2
BLOCKS
  0
BLOCK
  5
20
330
1F
100
AcDbEntity
  8
0
100
AcDbBlockBegin
  2
*MODEL_SPACE
 70
     0
 10
0.0
 20
0.0
 30
0.0
  3
*MODEL_SPACE
  1

  0
ENDBLK
  5
21
330
1F
100
AcDbEntity
  8
0
100
AcDbBlockEnd
  0
BLOCK
  5
1C
330
1B
100
AcDbEntity
 67
     1
  8
0
100
AcDbBlockBegin
  2
*PAPER_SPACE
  1

  0
ENDBLK
  5
1D
330
1B
100
AcDbEntity
 67
     1
  8
0
100
AcDbBlockEnd
  0
ENDSEC
  0
SECTION
  2
ENTITIES
  0
LWPOLYLINE
  5
100
100
AcDbEntity
  8
0
 62
7
100
AcDbPolyline
 90
381
 70
0
 10
68.891562
 20
53.567401
 30
0.0
 10
68.687383
 20
54.264182
 30
0.0
 10
68.592322
 20
55.275934
 30
0.0
 10
68.612585
 20
56.423563
 30
0.0
 10
68.754374
 20
57.527972
 30
0.0
 10
68.977222
 20
58.058281
 30
0.0
 10
69.455084
 20
58.857684
 30
0.0
 10
70.117727
 20
59.817827
 30
0.0
 10
70.894911
 20
60.830344
 30
0.0
 10
71.745825
 20
61.898962
 30
0.0
 10
72.609216
 20
63.011849
 30
0.0
 10
73.384184
 20
64.037317
 30
0.0
 10
73.969840
 20
64.843680
 30
0.0
 10
74.247034
 20
65.239384
 30
0.0
 10
74.524224
 20
65.635090
 30
0.0
 10
74.801417
 20
66.030794
 30
0.0
 10
75.078610
 20
66.426498
 30
0.0
 10
74.882333
 20
66.509025
 30
0.0
 10
74.686056
 20
66.591553
 30
0.0
 10
74.489781
 20
66.674080
 30
0.0
 10
74.293504
 20
66.756607
 30
0.0
 10
73.482716
 20
67.281078
 30
0.0
 10
72.629070
 20
68.106812
 30
0.0
 10
71.913513
 20
69.031931
 30
0.0
 10
71.516977
 20
69.854544
 30
0.0
 10
71.473071
 20
70.029479
 30
0.0
 10
71.429166
 20
70.204417
 30
0.0
 10
71.385258
 20
70.379353
 30
0.0
 10
71.341353
 20
70.554288
 30
0.0
 10
71.207850
 20
70.384568
 30
0.0
 10
71.074348
 20
70.214848
 30
0.0
 10
70.940848
 20
70.045128
 30
0.0
 10
70.807346
 20
69.875408
 30
0.0
 10
70.600000
 20
69.568534
 30
0.0
 10
70.430201
 20
69.234840
 30
0.0
 10
70.315472
 20
68.914597
 30
0.0
 10
70.273336
 20
68.648078
 30
0.0
 10
70.169453
 20
68.342942
 30
0.0
 10
69.663386
 20
68.153176
 30
0.0
 10
68.463518
 20
68.024313
 30
0.0
 10
66.278227
 20
67.901885
 30
0.0
 10
63.675057
 20
67.711405
 30
0.0
 10
61.856566
 20
67.425801
 30
0.0
 10
60.735537
 20
67.024696
 30
0.0
 10
60.224752
 20
66.487715
 30
0.0
 10
60.188413
 20
66.241408
 30
0.0
 10
60.209862
 20
65.884527
 30
0.0
 10
60.283268
 20
65.464893
 30
0.0
 10
60.402778
 20
65.030327
 30
0.0
 10
60.557585
 20
64.502806
 30
0.0
 10
60.602980
 20
64.150076
 30
0.0
 10
60.537067
 20
63.918143
 30
0.0
 10
60.357952
 20
63.753009
 30
0.0
 10
59.770639
 20
63.554060
 30
0.0
 10
58.952652
 20
63.524946
 30
0.0
 10
57.969486
 20
63.661756
 30
0.0
 10
56.886630
 20
63.960570
 30
0.0
 10
56.548706
 20
64.075711
 30
0.0
 10
56.210781
 20
64.190855
 30
0.0
 10
55.872860
 20
64.305996
 30
0.0
 10
55.534935
 20
64.421137
 30
0.0
 10
55.582422
 20
64.782246
 30
0.0
 10
55.629909
 20
65.143355
 30
0.0
 10
55.677398
 20
65.504461
 30
0.0
 10
55.724885
 20
65.865570
 30
0.0
 10
55.989307
 20
67.125904
 30
0.0
 10
56.444492
 20
68.159743
 30
0.0
 10
57.135022
 20
69.041628
 30
0.0
 10
58.105477
 20
69.846094
 30
0.0
 10
58.838854
 20
70.317828
 30
0.0
 10
59.522555
 20
70.569619
 30
0.0
 10
60.458167
 20
70.666390
 30
0.0
 10
61.947278
 20
70.673050
 30
0.0
 10
62.605071
 20
70.667152
 30
0.0
 10
63.262863
 20
70.661253
 30
0.0
 10
63.920655
 20
70.655355
 30
0.0
 10
64.578447
 20
70.649457
 30
0.0
 10
64.626597
 20
71.219805
 30
0.0
 10
64.674744
 20
71.790154
 30
0.0
 10
64.722894
 20
72.360502
 30
0.0
 10
64.771044
 20
72.930851
 30
0.0
 10
64.888451
 20
73.949814
 30
0.0
 10
65.054881
 20
74.851105
 30
0.0
 10
65.261211
 20
75.594472
 30
0.0
 10
65.498317
 20
76.139664
 30
0.0
 10
65.829194
 20
76.745950
 30
0.0
 10
65.719737
 20
77.095361
 30
0.0
 10
64.894158
 20
77.372783
 30
0.0
 10
63.076664
 20
77.763102
 30
0.0
 10
62.144337
 20
77.976961
 30
0.0
 10
61.274853
 20
78.206487
 30
0.0
 10
60.565436
 20
78.424145
 30
0.0
 10
60.113331
 20
78.602394
 30
0.0
 10
59.096374
 20
79.253975
 30
0.0
 10
57.791265
 20
80.225146
 30
0.0
 10
56.689919
 20
81.132014
 30
0.0
 10
56.284249
 20
81.590676
 30
0.0
 10
56.167539
 20
81.636616
 30
0.0
 10
55.766823
 20
81.678402
 30
0.0
 10
55.145068
 20
81.711427
 30
0.0
 10
54.365243
 20
81.731070
 30
0.0
 10
53.525268
 20
81.769286
 30
0.0
 10
52.739744
 20
81.852849
 30
0.0
 10
52.096645
 20
81.969435
 30
0.0
 10
51.683957
 20
82.106714
 30
0.0
 10
51.419094
 20
82.229353
 30
0.0
 10
51.178491
 20
82.306081
 30
0.0
 10
50.988660
 20
82.330663
 30
0.0
 10
50.876104
 20
82.296855
 30
0.0
 10
50.666884
 20
81.634113
 30
0.0
 10
50.578227
 20
80.400406
 30
0.0
 10
50.616290
 20
78.925158
 30
0.0
 10
50.787221
 20
77.537790
 30
0.0
 10
51.236118
 20
75.655890
 30
0.0
 10
51.775831
 20
74.338948
 30
0.0
 10
52.482019
 20
73.453196
 30
0.0
 10
53.430345
 20
72.864870
 30
0.0
 10
54.160513
 20
72.523065
 30
0.0
 10
54.512402
 20
72.239025
 30
0.0
 10
54.581879
 20
71.862459
 30
0.0
 10
54.464814
 20
71.243057
 30
0.0
 10
54.156384
 20
70.410795
 30
0.0
 10
53.655776
 20
69.671641
 30
0.0
 10
53.020443
 20
69.092278
 30
0.0
 10
52.307834
 20
68.739393
 30
0.0
 10
51.380607
 20
69.021757
 30
0.0
 10
50.147880
 20
70.103289
 30
0.0
 10
48.857340
 20
71.719206
 30
0.0
 10
47.756674
 20
73.604721
 30
0.0
 10
47.510432
 20
74.120067
 30
0.0
 10
47.264193
 20
74.635414
 30
0.0
 10
47.017954
 20
75.150760
 30
0.0
 10
46.771712
 20
75.666106
 30
0.0
 10
46.805720
 20
76.844127
 30
0.0
 10
46.839728
 20
78.022148
 30
0.0
 10
46.873739
 20
79.200169
 30
0.0
 10
46.907746
 20
80.378190
 30
0.0
 10
46.996116
 20
82.713189
 30
0.0
 10
47.114931
 20
84.309091
 30
0.0
 10
47.284307
 20
85.349893
 30
0.0
 10
47.524351
 20
86.019598
 30
0.0
 10
48.080989
 20
86.823790
 30
0.0
 10
48.765189
 20
87.287834
 30
0.0
 10
49.618192
 20
87.427937
 30
0.0
 10
50.681238
 20
87.260311
 30
0.0
 10
52.086617
 20
86.991100
 30
0.0
 10
53.387405
 20
86.923372
 30
0.0
 10
54.380305
 20
87.051755
 30
0.0
 10
54.862024
 20
87.370866
 30
0.0
 10
55.005444
 20
87.876863
 30
0.0
 10
55.014193
 20
88.270918
 30
0.0
 10
54.892837
 20
88.526674
 30
0.0
 10
54.645944
 20
88.617783
 30
0.0
 10
54.048745
 20
88.961290
 30
0.0
 10
53.139854
 20
89.857182
 30
0.0
 10
52.102724
 20
91.103512
 30
0.0
 10
51.120799
 20
92.498339
 30
0.0
 10
50.736012
 20
93.073643
 30
0.0
 10
50.386223
 20
93.544765
 30
0.0
 10
50.109986
 20
93.863092
 30
0.0
 10
49.945852
 20
93.980006
 30
0.0
 10
49.759839
 20
93.906473
 30
0.0
 10
49.424026
 20
93.706261
 30
0.0
 10
48.986065
 20
93.409951
 30
0.0
 10
48.493607
 20
93.048114
 30
0.0
 10
47.905498
 20
92.560010
 30
0.0
 10
47.527123
 20
92.137343
 30
0.0
 10
47.322695
 20
91.729089
 30
0.0
 10
47.256426
 20
91.284225
 30
0.0
 10
47.222280
 20
90.909879
 30
0.0
 10
47.140989
 20
90.505661
 30
0.0
 10
47.024719
 20
90.120199
 30
0.0
 10
46.885637
 20
89.802126
 30
0.0
 10
46.366961
 20
89.167564
 30
0.0
 10
45.609470
 20
88.607276
 30
0.0
 10
44.757681
 20
88.207480
 30
0.0
 10
43.956111
 20
88.054394
 30
0.0
 10
43.412512
 20
88.177158
 30
0.0
 10
43.189866
 20
88.671180
 30
0.0
 10
43.271203
 20
89.721873
 30
0.0
 10
43.639559
 20
91.514665
 30
0.0
 10
43.929176
 20
92.635205
 30
0.0
 10
44.263756
 20
93.436341
 30
0.0
 10
44.765296
 20
94.137234
 30
0.0
 10
45.555795
 20
94.957042
 30
0.0
 10
46.888166
 20
96.068797
 30
0.0
 10
48.459096
 20
97.121156
 30
0.0
 10
49.923847
 20
97.905533
 30
0.0
 10
50.937679
 20
98.213345
 30
0.0
 10
51.250700
 20
98.076272
 30
0.0
 10
51.746672
 20
97.703053
 30
0.0
 10
52.357438
 20
97.150690
 30
0.0
 10
53.014840
 20
96.476185
 30
0.0
 10
53.731363
 20
95.739503
 30
0.0
 10
54.503097
 20
95.017852
 30
0.0
 10
55.237301
 20
94.394088
 30
0.0
 10
55.841237
 20
93.951064
 30
0.0
 10
56.149045
 20
93.754073
 30
0.0
 10
56.456854
 20
93.557084
 30
0.0
 10
56.764665
 20
93.360093
 30
0.0
 10
57.072474
 20
93.163102
 30
0.0
 10
57.341812
 20
93.503843
 30
0.0
 10
57.611154
 20
93.844581
 30
0.0
 10
57.880493
 20
94.185322
 30
0.0
 10
58.149834
 20
94.526063
 30
0.0
 10
59.014044
 20
95.522505
 30
0.0
 10
59.877619
 20
96.319718
 30
0.0
 10
60.755979
 20
96.930159
 30
0.0
 10
61.664545
 20
97.366294
 30
0.0
 10
62.078393
 20
97.555324
 30
0.0
 10
62.290926
 20
97.779961
 30
0.0
 10
62.343095
 20
98.128955
 30
0.0
 10
62.275847
 20
98.691042
 30
0.0
 10
62.182395
 20
99.110377
 30
0.0
 10
62.051367
 20
99.491563
 30
0.0
 10
61.900144
 20
99.792592
 30
0.0
 10
61.746110
 20
99.971451
 30
0.0
 10
60.943233
 20
100.089784
 30
0.0
 10
59.382731
 20
100.077310
 30
0.0
 10
57.515729
 20
99.952133
 30
0.0
 10
55.793361
 20
99.732380
 30
0.0
 10
55.223224
 20
99.654038
 30
0.0
 10
54.876141
 20
99.681047
 30
0.0
 10
54.679579
 20
99.837977
 30
0.0
 10
54.561001
 20
100.149358
 30
0.0
 10
54.446701
 20
100.422261
 30
0.0
 10
54.263990
 20
100.610848
 30
0.0
 10
54.004501
 20
100.720765
 30
0.0
 10
53.659862
 20
100.757660
 30
0.0
 10
53.092378
 20
100.803888
 30
0.0
 10
52.657666
 20
100.970148
 30
0.0
 10
52.269582
 20
101.309368
 30
0.0
 10
51.841976
 20
101.874470
 30
0.0
 10
51.453172
 20
102.664006
 30
0.0
 10
51.395715
 20
103.421572
 30
0.0
 10
51.671310
 20
104.158847
 30
0.0
 10
52.281667
 20
104.887499
 30
0.0
 10
53.765035
 20
106.056591
 30
0.0
 10
55.976207
 20
107.554674
 30
0.0
 10
58.471850
 20
109.095517
 30
0.0
 10
60.808636
 20
110.392885
 30
0.0
 10
61.825688
 20
110.946523
 30
0.0
 10
62.604856
 20
111.440824
 30
0.0
 10
63.120820
 20
111.857962
 30
0.0
 10
63.348258
 20
112.180127
 30
0.0
 10
63.465817
 20
112.467345
 30
0.0
 10
63.669204
 20
112.829744
 30
0.0
 10
63.929841
 20
113.220915
 30
0.0
 10
64.219153
 20
113.594450
 30
0.0
 10
64.397410
 20
113.806117
 30
0.0
 10
64.575667
 20
114.017783
 30
0.0
 10
64.753922
 20
114.229450
 30
0.0
 10
64.932179
 20
114.441117
 30
0.0
 10
65.075077
 20
114.269094
 30
0.0
 10
65.217971
 20
114.097071
 30
0.0
 10
65.360869
 20
113.925048
 30
0.0
 10
65.503764
 20
113.753025
 30
0.0
 10
65.737774
 20
113.425470
 30
0.0
 10
65.952401
 20
113.042274
 30
0.0
 10
66.123868
 20
112.651122
 30
0.0
 10
66.228395
 20
112.299702
 30
0.0
 10
66.379502
 20
111.907035
 30
0.0
 10
66.680453
 20
111.504253
 30
0.0
 10
67.136357
 20
111.085813
 30
0.0
 10
67.752333
 20
110.646165
 30
0.0
 10
70.269235
 20
108.297255
 30
0.0
 10
71.736822
 20
105.225971
 30
0.0
 10
72.138184
 20
101.493868
 30
0.0
 10
71.456420
 20
97.162485
 30
0.0
 10
70.943340
 20
94.559811
 30
0.0
 10
70.870106
 20
92.260708
 30
0.0
 10
71.235965
 20
90.276130
 30
0.0
 10
72.040174
 20
88.617019
 30
0.0
 10
72.970489
 20
87.671817
 30
0.0
 10
74.405388
 20
86.673721
 30
0.0
 10
76.096698
 20
85.773435
 30
0.0
 10
77.796238
 20
85.121668
 30
0.0
 10
78.528410
 20
84.891459
 30
0.0
 10
79.302717
 20
84.623656
 30
0.0
 10
80.026877
 20
84.351503
 30
0.0
 10
80.608613
 20
84.108256
 30
0.0
 10
81.542382
 20
83.501289
 30
0.0
 10
82.537131
 20
82.579453
 30
0.0
 10
83.394333
 20
81.551732
 30
0.0
 10
83.915464
 20
80.627118
 30
0.0
 10
84.136346
 20
80.286527
 30
0.0
 10
84.386970
 20
80.324410
 30
0.0
 10
84.628753
 20
80.707763
 30
0.0
 10
84.823108
 20
81.403579
 30
0.0
 10
84.798950
 20
82.748388
 30
0.0
 10
84.146850
 20
83.957338
 30
0.0
 10
82.805995
 20
85.102263
 30
0.0
 10
80.715567
 20
86.254999
 30
0.0
 10
79.528608
 20
86.995068
 30
0.0
 10
78.339894
 20
88.045592
 30
0.0
 10
77.268965
 20
89.285405
 30
0.0
 10
76.435368
 20
90.593339
 30
0.0
 10
75.797571
 20
92.799764
 30
0.0
 10
76.142048
 20
95.221535
 30
0.0
 10
77.515974
 20
98.001435
 30
0.0
 10
79.966510
 20
101.282240
 30
0.0
 10
81.571572
 20
103.323150
 30
0.0
 10
82.355128
 20
104.707789
 30
0.0
 10
82.375731
 20
105.602117
 30
0.0
 10
81.691963
 20
106.172093
 30
0.0
 10
80.934780
 20
106.346320
 30
0.0
 10
80.180685
 20
106.206121
 30
0.0
 10
79.479967
 20
105.771369
 30
0.0
 10
78.882903
 20
105.061933
 30
0.0
 10
78.395370
 20
104.392990
 30
0.0
 10
78.080610
 20
104.194266
 30
0.0
 10
77.952956
 20
104.463477
 30
0.0
 10
78.026731
 20
105.198339
 30
0.0
 10
78.512083
 20
106.730744
 30
0.0
 10
79.324194
 20
107.808920
 30
0.0
 10
80.478249
 20
108.446107
 30
0.0
 10
81.989428
 20
108.655561
 30
0.0
 10
82.664221
 20
108.618088
 30
0.0
 10
83.188432
 20
108.473486
 30
0.0
 10
83.671407
 20
108.173478
 30
0.0
 10
84.222505
 20
107.669796
 30
0.0
 10
85.317113
 20
106.140975
 30
0.0
 10
85.651591
 20
104.443457
 30
0.0
 10
85.223675
 20
102.488884
 30
0.0
 10
84.031102
 20
100.188889
 30
0.0
 10
81.790080
 20
96.476453
 30
0.0
 10
80.993203
 20
94.302343
 30
0.0
 10
81.601412
 20
92.933097
 30
0.0
 10
83.575660
 20
91.635255
 30
0.0
 10
84.877066
 20
90.700530
 30
0.0
 10
86.171174
 20
89.428007
 30
0.0
 10
87.336074
 20
87.953853
 30
0.0
 10
88.249859
 20
86.414240
 30
0.0
 10
88.808038
 20
84.859594
 30
0.0
 10
89.120328
 20
83.085014
 30
0.0
 10
89.166440
 20
81.292387
 30
0.0
 10
88.926097
 20
79.683587
 30
0.0
 10
88.378927
 20
78.592333
 30
0.0
 10
87.447478
 20
77.455621
 30
0.0
 10
86.411373
 20
76.561995
 30
0.0
 10
85.550234
 20
76.200000
 30
0.0
 10
85.303910
 20
76.150495
 30
0.0
 10
85.098935
 20
76.003311
 30
0.0
 10
84.937188
 20
75.760442
 30
0.0
 10
84.820543
 20
75.423889
 30
0.0
 10
84.420295
 20
74.429936
 30
0.0
 10
83.715270
 20
73.363170
 30
0.0
 10
82.766778
 20
72.302469
 30
0.0
 10
81.636119
 20
71.326708
 30
0.0
 10
81.059520
 20
70.862230
 30
0.0
 10
80.587334
 20
70.426377
 30
0.0
 10
80.268287
 20
70.068062
 30
0.0
 10
80.151111
 20
69.836188
 30
0.0
 10
80.229436
 20
69.609736
 30
0.0
 10
80.442697
 20
69.266175
 30
0.0
 10
80.758324
 20
68.852167
 30
0.0
 10
81.143743
 20
68.414358
 30
0.0
 10
81.575746
 20
67.914184
 30
0.0
 10
81.854506
 20
67.489840
 30
0.0
 10
81.984305
 20
67.133131
 30
0.0
 10
81.969432
 20
66.835864
 30
0.0
 10
81.689143
 20
66.401837
 30
0.0
 10
81.049388
 20
65.608920
 30
0.0
 10
80.145247
 20
64.569927
 30
0.0
 10
79.071797
 20
63.397675
 30
0.0
 10
76.403846
 20
60.509091
 30
0.0
 10
74.342162
 20
58.189300
 30
0.0
 10
73.032445
 20
56.606942
 30
0.0
 10
72.620403
 20
55.930665
 30
0.0
 10
73.009921
 20
55.120342
 30
0.0
 10
73.343321
 20
54.344076
 30
0.0
 10
73.562083
 20
53.747391
 30
0.0
 10
73.607673
 20
53.475819
 30
0.0
 10
73.398820
 20
53.421384
 30
0.0
 10
72.904502
 20
53.347513
 30
0.0
 10
72.198631
 20
53.263902
 30
0.0
 10
71.355117
 20
53.180248
 30
0.0
 10
70.170923
 20
53.088913
 30
0.0
 10
69.484931
 20
53.104237
 30
0.0
 10
69.118147
 20
53.254357
 30
0.0
 10
68.891562
 20
53.567401
 30
0.0
  0
ENDSEC
  0
SECTION
  2
OBJECTS
  0
DICTIONARY
  5
C
330
0
100
AcDbDictionary
  3
ACAD_GROUP
350
D
  3
ACAD_MLINESTYLE
350
17
  0
DICTIONARY
  5
D
330
C
100
AcDbDictionary
  0
DICTIONARY
  5
1A
330
C
100
AcDbDictionary
  0
DICTIONARY
  5
17
330
C
100
AcDbDictionary
  3
STANDARD
350
18
  0
DICTIONARY
  5
19
330
C
100
AcDbDictionary
  0
ENDSEC
  0
EOF
