  0
SECTION
  2
HEADER
  9
$ACADVER
  1
AC1014
  9
$HANDSEED
  5
FFFF
  9
$MEASUREMENT
 70
     1
  0
ENDSEC
  0
SECTION
  2
TABLES
  0
TABLE
  2
VPORT
  5
8
330
0
100
AcDbSymbolTable
 70
     4
  0
VPORT
  5
2E
330
8
100
AcDbSymbolTableRecord
100
AcDbViewportTableRecord
  2
*ACTIVE
 70
     0
 10
0.0
 20
0.0
 11
1.0
 21
1.0
 12
210.0
 22
148.5
 13
0.0
 23
0.0
 14
10.0
 24
10.0
 15
10.0
 25
10.0
 16
0.0
 26
0.0
 36
1.0
 17
0.0
 27
0.0
 37
0.0
 40
341.0
 41
1.24
 42
50.0
 43
0.0
 44
0.0
 50
0.0
 51
0.0
 71
     0
 72
   100
 73
     1
 74
     3
 75
     0
 76
     0
 77
     0
 78
     0
  0
ENDTAB
  0
TABLE
  2
LTYPE
  5
5
330
0
100
AcDbSymbolTable
 70
     1
  0
LTYPE
  5
14
330
5
100
AcDbSymbolTableRecord
100
AcDbLinetypeTableRecord
  2
BYBLOCK
 70
     0
  3

 72
    65
 73
     0
 40
0.0
  0
LTYPE
  5
15
330
5
100
AcDbSymbolTableRecord
100
AcDbLinetypeTableRecord
  2
BYLAYER
 70
     0
  3

 72
    65
 73
     0
 40
0.0
  0
LTYPE
  5
16
330
5
100
AcDbSymbolTableRecord
100
AcDbLinetypeTableRecord
  2
CONTINUOUS
 70
     0
  3
Solid line
 72
    65
 73
     0
 40
0.0
  0
ENDTAB
  0
TABLE
  2
LAYER
  5
2
100
AcDbSymbolTable
 70
1
  0
LAYER
  5
50
100
AcDbSymbolTableRecord
100
AcDbLayerTableRecord
  2
0
 70
0
  6
CONTINUOUS
  0
ENDTAB
  0
TABLE
  2
STYLE
  5
3
330
0
100
AcDbSymbolTable
 70
     1
  0
STYLE
  5
11
330
3
100
AcDbSymbolTableRecord
100
AcDbTextStyleTableRecord
  2
STANDARD
 70
     0
 40
0.0
 41
1.0
 50
0.0
 71
     0
 42
2.5
  3
txt
  4

  0
ENDTAB
  0
TABLE
  2
VIEW
  5
6
330
0
100
AcDbSymbolTable
 70
     0
  0
ENDTAB
  0
TABLE
  2
UCS
  5
7
330
0
100
AcDbSymbolTable
 70
     0
  0
ENDTAB
  0
TABLE
  2
APPID
  5
9
330
0
100
AcDbSymbolTable
 70
     2
  0
APPID
  5
12
330
9
100
AcDbSymbolTableRecord
100
AcDbRegAppTableRecord
  2
ACAD
 70
     0
  0
ENDTAB
  0
TABLE
  2
DIMSTYLE
  5
A
330
0
100
AcDbSymbolTable
 70
     1
  0
DIMSTYLE
105
27
330
A
100
AcDbSymbolTableRecord
100
AcDbDimStyleTableRecord
  2
ISO-25
 70
     0
  3

  4

  5

  6

  7

 40
1.0
 41
2.5
 42
0.625
 43
3.75
 44
1.25
 45
0.0
 46
0.0
 47
0.0
 48
0.0
140
2.5
141
2.5
142
0.0
143
0.03937007874016
144
1.0
145
0.0
146
1.0
147
0.625
 71
     0
 72
     0
 73
     0
 74
     0
 75
     0
 76
     0
 77
     1
 78
     8
170
     0
171
     3
172
     1
173
     0
174
     0
175
     0
176
     0
177
     0
178
     0
270
     2
271
     2
272
     2
273
     2
274
     3
340
11
275
     0
280
     0
281
     0
282
     0
283
     0
284
     8
285
     0
286
     0
287
     3
288
     0
  0
ENDTAB
  0
TABLE
  2
BLOCK_RECORD
  5
1
330
0
100
AcDbSymbolTable
 70
     1
  0
BLOCK_RECORD
  5
1F
330
1
100
AcDbSymbolTableRecord
100
AcDbBlockTableRecord
  2
*MODEL_SPACE
  0
BLOCK_RECORD
  5
1B
330
1
100
AcDbSymbolTableRecord
100
AcDbBlockTableRecord
  2
*PAPER_SPACE
  0
ENDTAB
  0
ENDSEC
  0
SECTION
  2
BLOCKS
  0
BLOCK
  5
20
330
1F
100
AcDbEntity
  8
0
100
AcDbBlockBegin
  2
*MODEL_SPACE
 70
     0
 10
0.0
 20
0.0
 30
0.0
  3
*MODEL_SPACE
  1

  0
ENDBLK
  5
21
330
1F
100
AcDbEntity
  8
0
100
AcDbBlockEnd
  0
BLOCK
  5
1C
330
1B
100
AcDbEntity
 67
     1
  8
0
100
AcDbBlockBegin
  2
*PAPER_SPACE
  1

  0
ENDBLK
  5
1D
330
1B
100
AcDbEntity
 67
     1
  8
0
100
AcDbBlockEnd
  0
ENDSEC
  0
SECTION
  2
ENTITIES
  0
LWPOLYLINE
  5
100
100
AcDbEntity
  8
0
 62
7
100
AcDbPolyline
 90
257
 70
0
 10
1.569178
 20
2.274672
 30
0.0
 10
1.467381
 20
2.410864
 30
0.0
 10
1.378137
 20
2.561582
 30
0.0
 10
1.300618
 20
2.753256
 30
0.0
 10
1.234000
 20
3.012327
 30
0.0
 10
1.177457
 20
3.365226
 30
0.0
 10
1.130163
 20
3.838392
 30
0.0
 10
1.091292
 20
4.458256
 30
0.0
 10
1.060018
 20
5.251258
 30
0.0
 10
1.035516
 20
6.243828
 30
0.0
 10
1.016961
 20
7.462401
 30
0.0
 10
1.003525
 20
8.933420
 30
0.0
 10
0.994384
 20
10.683311
 30
0.0
 10
0.988712
 20
12.738512
 30
0.0
 10
0.985683
 20
15.125460
 30
0.0
 10
0.984472
 20
17.870591
 30
0.0
 10
0.984251
 20
21.000336
 30
0.0
 10
0.985341
 20
23.342453
 30
0.0
 10
0.988662
 20
25.508972
 30
0.0
 10
0.994293
 20
27.504427
 30
0.0
 10
1.002313
 20
29.333354
 30
0.0
 10
1.012801
 20
31.000282
 30
0.0
 10
1.025836
 20
32.509754
 30
0.0
 10
1.041497
 20
33.866297
 30
0.0
 10
1.059863
 20
35.074451
 30
0.0
 10
1.081011
 20
36.138747
 30
0.0
 10
1.105023
 20
37.063720
 30
0.0
 10
1.131975
 20
37.853905
 30
0.0
 10
1.161947
 20
38.513839
 30
0.0
 10
1.195018
 20
39.048052
 30
0.0
 10
1.231267
 20
39.461079
 30
0.0
 10
1.270772
 20
39.757457
 30
0.0
 10
1.313613
 20
39.941720
 30
0.0
 10
1.416875
 20
40.202273
 30
0.0
 10
1.595331
 20
40.583699
 30
0.0
 10
1.871810
 20
41.125933
 30
0.0
 10
2.269139
 20
41.868900
 30
0.0
 10
2.810145
 20
42.852535
 30
0.0
 10
3.517657
 20
44.116766
 30
0.0
 10
4.414502
 20
45.701523
 30
0.0
 10
5.523507
 20
47.646740
 30
0.0
 10
6.867501
 20
49.992342
 30
0.0
 10
8.469312
 20
52.778265
 30
0.0
 10
10.351766
 20
56.044440
 30
0.0
 10
12.537692
 20
59.830789
 30
0.0
 10
15.049917
 20
64.177254
 30
0.0
 10
17.911269
 20
69.123758
 30
0.0
 10
21.144577
 20
74.710234
 30
0.0
 10
24.772666
 20
80.976611
 30
0.0
 10
30.596824
 20
91.033916
 30
0.0
 10
35.831965
 20
100.072091
 30
0.0
 10
40.508494
 20
108.143308
 30
0.0
 10
44.656816
 20
115.299752
 30
0.0
 10
48.307335
 20
121.593593
 30
0.0
 10
51.490452
 20
127.077013
 30
0.0
 10
54.236573
 20
131.802184
 30
0.0
 10
56.576102
 20
135.821287
 30
0.0
 10
58.539440
 20
139.186499
 30
0.0
 10
60.156994
 20
141.949995
 30
0.0
 10
61.459168
 20
144.163953
 30
0.0
 10
62.476361
 20
145.880550
 30
0.0
 10
63.238985
 20
147.151964
 30
0.0
 10
63.777434
 20
148.030371
 30
0.0
 10
64.122118
 20
148.567948
 30
0.0
 10
64.303440
 20
148.816873
 30
0.0
 10
64.473544
 20
148.994195
 30
0.0
 10
64.654098
 20
149.159640
 30
0.0
 10
64.845242
 20
149.313257
 30
0.0
 10
65.047109
 20
149.455094
 30
0.0
 10
65.259837
 20
149.585200
 30
0.0
 10
65.483563
 20
149.703623
 30
0.0
 10
65.718423
 20
149.810411
 30
0.0
 10
65.964555
 20
149.905614
 30
0.0
 10
66.222091
 20
149.989279
 30
0.0
 10
66.491173
 20
150.061456
 30
0.0
 10
66.771936
 20
150.122192
 30
0.0
 10
67.064516
 20
150.171537
 30
0.0
 10
67.369050
 20
150.209538
 30
0.0
 10
67.685676
 20
150.236245
 30
0.0
 10
68.014527
 20
150.251705
 30
0.0
 10
68.355742
 20
150.255967
 30
0.0
 10
68.730313
 20
150.246140
 30
0.0
 10
69.096595
 20
150.219701
 30
0.0
 10
69.454007
 20
150.176903
 30
0.0
 10
69.801956
 20
150.117997
 30
0.0
 10
70.139857
 20
150.043239
 30
0.0
 10
70.467125
 20
149.952879
 30
0.0
 10
70.783172
 20
149.847170
 30
0.0
 10
71.087410
 20
149.726365
 30
0.0
 10
71.379250
 20
149.590716
 30
0.0
 10
71.658109
 20
149.440477
 30
0.0
 10
71.923397
 20
149.275899
 30
0.0
 10
72.174530
 20
149.097235
 30
0.0
 10
72.410917
 20
148.904738
 30
0.0
 10
72.631973
 20
148.698661
 30
0.0
 10
72.837109
 20
148.479255
 30
0.0
 10
73.025741
 20
148.246774
 30
0.0
 10
73.179727
 20
148.010381
 30
0.0
 10
73.488650
 20
147.506253
 30
0.0
 10
73.944126
 20
146.748693
 30
0.0
 10
74.537766
 20
145.752007
 30
0.0
 10
75.261186
 20
144.530497
 30
0.0
 10
76.105993
 20
143.098469
 30
0.0
 10
77.063801
 20
141.470227
 30
0.0
 10
78.126227
 20
139.660075
 30
0.0
 10
79.284879
 20
137.682317
 30
0.0
 10
80.531370
 20
135.551257
 30
0.0
 10
81.857312
 20
133.281201
 30
0.0
 10
83.254321
 20
130.886451
 30
0.0
 10
84.714008
 20
128.381314
 30
0.0
 10
86.227983
 20
125.780091
 30
0.0
 10
87.787862
 20
123.097089
 30
0.0
 10
89.385257
 20
120.346611
 30
0.0
 10
91.035334
 20
117.505880
 30
0.0
 10
92.749789
 20
114.558066
 30
0.0
 10
94.515030
 20
111.526390
 30
0.0
 10
96.317464
 20
108.434078
 30
0.0
 10
98.143496
 20
105.304352
 30
0.0
 10
99.979532
 20
102.160434
 30
0.0
 10
101.811978
 20
99.025551
 30
0.0
 10
103.627240
 20
95.922924
 30
0.0
 10
105.411728
 20
92.875777
 30
0.0
 10
107.151843
 20
89.907332
 30
0.0
 10
108.833994
 20
87.040815
 30
0.0
 10
110.444589
 20
84.299447
 30
0.0
 10
111.970034
 20
81.706451
 30
0.0
 10
113.396729
 20
79.285055
 30
0.0
 10
114.711089
 20
77.058477
 30
0.0
 10
115.899512
 20
75.049944
 30
0.0
 10
118.785525
 20
70.177823
 30
0.0
 10
121.390572
 20
65.776695
 30
0.0
 10
123.728729
 20
61.822344
 30
0.0
 10
125.814072
 20
58.290555
 30
0.0
 10
127.660678
 20
55.157110
 30
0.0
 10
129.282623
 20
52.397795
 30
0.0
 10
130.693985
 20
49.988396
 30
0.0
 10
131.908839
 20
47.904696
 30
0.0
 10
132.941261
 20
46.122479
 30
0.0
 10
133.805333
 20
44.617529
 30
0.0
 10
134.515125
 20
43.365634
 30
0.0
 10
135.084717
 20
42.342573
 30
0.0
 10
135.528187
 20
41.524134
 30
0.0
 10
135.859609
 20
40.886100
 30
0.0
 10
136.093057
 20
40.404256
 30
0.0
 10
136.242615
 20
40.054388
 30
0.0
 10
136.359244
 20
39.754606
 30
0.0
 10
136.460719
 20
39.479959
 30
0.0
 10
136.547957
 20
39.196436
 30
0.0
 10
136.621868
 20
38.870026
 30
0.0
 10
136.683364
 20
38.466716
 30
0.0
 10
136.733360
 20
37.952496
 30
0.0
 10
136.772772
 20
37.293355
 30
0.0
 10
136.802507
 20
36.455279
 30
0.0
 10
136.823477
 20
35.404258
 30
0.0
 10
136.836600
 20
34.106278
 30
0.0
 10
136.842781
 20
32.527333
 30
0.0
 10
136.842950
 20
30.633407
 30
0.0
 10
136.838011
 20
28.390488
 30
0.0
 10
136.828867
 20
25.764568
 30
0.0
 10
136.816449
 20
22.721634
 30
0.0
 10
136.801661
 20
19.227672
 30
0.0
 10
136.797371
 20
18.208224
 30
0.0
 10
136.793081
 20
17.188778
 30
0.0
 10
136.788791
 20
16.169329
 30
0.0
 10
136.784502
 20
15.149880
 30
0.0
 10
136.780212
 20
14.130434
 30
0.0
 10
136.775922
 20
13.110986
 30
0.0
 10
136.771632
 20
12.091540
 30
0.0
 10
136.767343
 20
11.072091
 30
0.0
 10
136.763053
 20
10.052642
 30
0.0
 10
136.758763
 20
9.033196
 30
0.0
 10
136.754473
 20
8.013747
 30
0.0
 10
136.750183
 20
6.994299
 30
0.0
 10
136.745894
 20
5.974853
 30
0.0
 10
136.741604
 20
4.955404
 30
0.0
 10
136.737314
 20
3.935958
 30
0.0
 10
136.733024
 20
2.916509
 30
0.0
 10
136.689729
 20
2.873214
 30
0.0
 10
136.646433
 20
2.829918
 30
0.0
 10
136.603137
 20
2.786622
 30
0.0
 10
136.559841
 20
2.743326
 30
0.0
 10
136.516546
 20
2.700034
 30
0.0
 10
136.473250
 20
2.656738
 30
0.0
 10
136.429954
 20
2.613442
 30
0.0
 10
136.386659
 20
2.570146
 30
0.0
 10
136.343366
 20
2.526851
 30
0.0
 10
136.300070
 20
2.483555
 30
0.0
 10
136.256774
 20
2.440259
 30
0.0
 10
136.213479
 20
2.396966
 30
0.0
 10
136.170183
 20
2.353671
 30
0.0
 10
136.126887
 20
2.310375
 30
0.0
 10
136.083591
 20
2.267079
 30
0.0
 10
136.040296
 20
2.223784
 30
0.0
 10
135.997000
 20
2.180488
 30
0.0
 10
135.953704
 20
2.137192
 30
0.0
 10
135.910409
 20
2.093896
 30
0.0
 10
135.867116
 20
2.050601
 30
0.0
 10
135.823820
 20
2.007305
 30
0.0
 10
135.780524
 20
1.964009
 30
0.0
 10
135.737229
 20
1.920714
 30
0.0
 10
135.693933
 20
1.877418
 30
0.0
 10
135.650637
 20
1.834125
 30
0.0
 10
135.607341
 20
1.790829
 30
0.0
 10
135.564046
 20
1.747534
 30
0.0
 10
135.520750
 20
1.704238
 30
0.0
 10
135.477457
 20
1.660942
 30
0.0
 10
135.434161
 20
1.617646
 30
0.0
 10
135.390866
 20
1.574351
 30
0.0
 10
135.347570
 20
1.531055
 30
0.0
 10
131.185269
 20
1.531055
 30
0.0
 10
127.022971
 20
1.531055
 30
0.0
 10
122.860673
 20
1.531055
 30
0.0
 10
118.698372
 20
1.531055
 30
0.0
 10
114.536072
 20
1.531055
 30
0.0
 10
110.373774
 20
1.531055
 30
0.0
 10
106.211476
 20
1.531055
 30
0.0
 10
102.049175
 20
1.531055
 30
0.0
 10
97.886874
 20
1.531055
 30
0.0
 10
93.724576
 20
1.531055
 30
0.0
 10
89.562275
 20
1.531055
 30
0.0
 10
85.399977
 20
1.531055
 30
0.0
 10
81.237679
 20
1.531055
 30
0.0
 10
77.075378
 20
1.531055
 30
0.0
 10
72.913077
 20
1.531055
 30
0.0
 10
68.750779
 20
1.531055
 30
0.0
 10
64.588481
 20
1.531055
 30
0.0
 10
60.426181
 20
1.531055
 30
0.0
 10
56.263883
 20
1.531055
 30
0.0
 10
52.101582
 20
1.531055
 30
0.0
 10
47.939284
 20
1.531055
 30
0.0
 10
43.776983
 20
1.531055
 30
0.0
 10
39.614685
 20
1.531055
 30
0.0
 10
35.452384
 20
1.531055
 30
0.0
 10
31.290086
 20
1.531055
 30
0.0
 10
27.127787
 20
1.531055
 30
0.0
 10
22.965488
 20
1.531055
 30
0.0
 10
18.803188
 20
1.531055
 30
0.0
 10
14.640889
 20
1.531055
 30
0.0
 10
10.478590
 20
1.531055
 30
0.0
 10
6.316291
 20
1.531055
 30
0.0
 10
2.153992
 20
1.531055
 30
0.0
 10
2.117434
 20
1.577531
 30
0.0
 10
2.080876
 20
1.624008
 30
0.0
 10
2.044318
 20
1.670484
 30
0.0
 10
2.007760
 20
1.716958
 30
0.0
 10
1.971202
 20
1.763434
 30
0.0
 10
1.934644
 20
1.809910
 30
0.0
 10
1.898086
 20
1.856387
 30
0.0
 10
1.861528
 20
1.902863
 30
0.0
 10
1.824970
 20
1.949339
 30
0.0
 10
1.788412
 20
1.995816
 30
0.0
 10
1.751854
 20
2.042292
 30
0.0
 10
1.715295
 20
2.088766
 30
0.0
 10
1.678738
 20
2.135242
 30
0.0
 10
1.642179
 20
2.181718
 30
0.0
 10
1.605621
 20
2.228195
 30
0.0
 10
1.569178
 20
2.274672
 30
0.0
  0
LWPOLYLINE
  5
101
100
AcDbEntity
  8
0
 62
7
100
AcDbPolyline
 90
305
 70
0
 10
20.109341
 20
19.522722
 30
0.0
 10
20.114034
 20
20.003383
 30
0.0
 10
20.118728
 20
20.484042
 30
0.0
 10
20.123421
 20
20.964703
 30
0.0
 10
20.128114
 20
21.445361
 30
0.0
 10
20.132808
 20
21.926022
 30
0.0
 10
20.137501
 20
22.406681
 30
0.0
 10
20.142194
 20
22.887342
 30
0.0
 10
20.146888
 20
23.368000
 30
0.0
 10
20.151581
 20
23.848661
 30
0.0
 10
20.156274
 20
24.329319
 30
0.0
 10
20.160968
 20
24.809981
 30
0.0
 10
20.165661
 20
25.290639
 30
0.0
 10
20.170354
 20
25.771300
 30
0.0
 10
20.175048
 20
26.251958
 30
0.0
 10
20.179741
 20
26.732619
 30
0.0
 10
20.184435
 20
27.213278
 30
0.0
 10
20.254707
 20
27.213278
 30
0.0
 10
20.324979
 20
27.213278
 30
0.0
 10
20.395251
 20
27.213278
 30
0.0
 10
20.465523
 20
27.213278
 30
0.0
 10
20.535795
 20
27.213278
 30
0.0
 10
20.606067
 20
27.213278
 30
0.0
 10
20.676339
 20
27.213278
 30
0.0
 10
20.746611
 20
27.213278
 30
0.0
 10
20.816884
 20
27.213278
 30
0.0
 10
20.887155
 20
27.213278
 30
0.0
 10
20.957428
 20
27.213278
 30
0.0
 10
21.027700
 20
27.213278
 30
0.0
 10
21.097972
 20
27.213278
 30
0.0
 10
21.168244
 20
27.213278
 30
0.0
 10
21.238516
 20
27.213278
 30
0.0
 10
21.308788
 20
27.213278
 30
0.0
 10
21.485505
 20
27.212149
 30
0.0
 10
21.642981
 20
27.208706
 30
0.0
 10
21.782299
 20
27.202158
 30
0.0
 10
21.904539
 20
27.191885
 30
0.0
 10
22.010783
 20
27.177238
 30
0.0
 10
22.102114
 20
27.157539
 30
0.0
 10
22.179612
 20
27.132167
 30
0.0
 10
22.244361
 20
27.100490
 30
0.0
 10
22.297441
 20
27.061849
 30
0.0
 10
22.339933
 20
27.015601
 30
0.0
 10
22.372921
 20
26.961095
 30
0.0
 10
22.397485
 20
26.897688
 30
0.0
 10
22.414707
 20
26.824737
 30
0.0
 10
22.425668
 20
26.741594
 30
0.0
 10
22.431451
 20
26.647617
 30
0.0
 10
22.433144
 20
26.542153
 30
0.0
 10
22.440324
 20
26.387702
 30
0.0
 10
22.461477
 20
26.241056
 30
0.0
 10
22.496019
 20
26.102716
 30
0.0
 10
22.543372
 20
25.973176
 30
0.0
 10
22.602953
 20
25.852941
 30
0.0
 10
22.674183
 20
25.742502
 30
0.0
 10
22.756479
 20
25.642358
 30
0.0
 10
22.849261
 20
25.553010
 30
0.0
 10
22.951948
 20
25.474950
 30
0.0
 10
23.063958
 20
25.408681
 30
0.0
 10
23.184711
 20
25.354698
 30
0.0
 10
23.313625
 20
25.313496
 30
0.0
 10
23.450120
 20
25.285584
 30
0.0
 10
23.593615
 20
25.271445
 30
0.0
 10
23.743528
 20
25.271583
 30
0.0
 10
23.899278
 20
25.286485
 30
0.0
 10
24.005843
 20
25.303757
 30
0.0
 10
24.100424
 20
25.325205
 30
0.0
 10
24.183855
 20
25.353287
 30
0.0
 10
24.256969
 20
25.390404
 30
0.0
 10
24.320598
 20
25.438989
 30
0.0
 10
24.375576
 20
25.501470
 30
0.0
 10
24.422735
 20
25.580278
 30
0.0
 10
24.462908
 20
25.677839
 30
0.0
 10
24.496927
 20
25.796579
 30
0.0
 10
24.525626
 20
25.938932
 30
0.0
 10
24.549838
 20
26.107319
 30
0.0
 10
24.570395
 20
26.304172
 30
0.0
 10
24.588130
 20
26.531917
 30
0.0
 10
24.603875
 20
26.792987
 30
0.0
 10
24.618466
 20
27.089806
 30
0.0
 10
24.632732
 20
27.424801
 30
0.0
 10
24.637914
 20
27.552681
 30
0.0
 10
24.643096
 20
27.680564
 30
0.0
 10
24.648277
 20
27.808445
 30
0.0
 10
24.653459
 20
27.936328
 30
0.0
 10
24.658640
 20
28.064209
 30
0.0
 10
24.663822
 20
28.192092
 30
0.0
 10
24.669004
 20
28.319973
 30
0.0
 10
24.674185
 20
28.447856
 30
0.0
 10
24.679367
 20
28.575737
 30
0.0
 10
24.684548
 20
28.703620
 30
0.0
 10
24.689730
 20
28.831500
 30
0.0
 10
24.694912
 20
28.959384
 30
0.0
 10
24.700093
 20
29.087264
 30
0.0
 10
24.705275
 20
29.215148
 30
0.0
 10
24.710456
 20
29.343028
 30
0.0
 10
24.715638
 20
29.470912
 30
0.0
 10
24.361315
 20
29.470912
 30
0.0
 10
24.006991
 20
29.470912
 30
0.0
 10
23.652668
 20
29.470912
 30
0.0
 10
23.298345
 20
29.470912
 30
0.0
 10
22.944022
 20
29.470912
 30
0.0
 10
22.589698
 20
29.470912
 30
0.0
 10
22.235375
 20
29.470912
 30
0.0
 10
21.881052
 20
29.470912
 30
0.0
 10
21.526728
 20
29.470912
 30
0.0
 10
21.172405
 20
29.470912
 30
0.0
 10
20.818082
 20
29.470912
 30
0.0
 10
20.463758
 20
29.470912
 30
0.0
 10
20.109435
 20
29.470912
 30
0.0
 10
19.755112
 20
29.470912
 30
0.0
 10
19.400788
 20
29.470912
 30
0.0
 10
19.046465
 20
29.470912
 30
0.0
 10
18.692142
 20
29.470912
 30
0.0
 10
18.337818
 20
29.470912
 30
0.0
 10
17.983495
 20
29.470912
 30
0.0
 10
17.629172
 20
29.470912
 30
0.0
 10
17.274849
 20
29.470912
 30
0.0
 10
16.920525
 20
29.470912
 30
0.0
 10
16.566202
 20
29.470912
 30
0.0
 10
16.211879
 20
29.470912
 30
0.0
 10
15.857556
 20
29.470912
 30
0.0
 10
15.503232
 20
29.470912
 30
0.0
 10
15.148909
 20
29.470912
 30
0.0
 10
14.794586
 20
29.470912
 30
0.0
 10
14.440262
 20
29.470912
 30
0.0
 10
14.085939
 20
29.470912
 30
0.0
 10
13.731616
 20
29.470912
 30
0.0
 10
13.377292
 20
29.470912
 30
0.0
 10
13.382474
 20
29.343028
 30
0.0
 10
13.387656
 20
29.215148
 30
0.0
 10
13.392837
 20
29.087264
 30
0.0
 10
13.398019
 20
28.959384
 30
0.0
 10
13.403200
 20
28.831500
 30
0.0
 10
13.408382
 20
28.703620
 30
0.0
 10
13.413564
 20
28.575737
 30
0.0
 10
13.418745
 20
28.447856
 30
0.0
 10
13.423927
 20
28.319973
 30
0.0
 10
13.429108
 20
28.192092
 30
0.0
 10
13.434290
 20
28.064209
 30
0.0
 10
13.439472
 20
27.936328
 30
0.0
 10
13.444653
 20
27.808445
 30
0.0
 10
13.449835
 20
27.680564
 30
0.0
 10
13.455016
 20
27.552681
 30
0.0
 10
13.460198
 20
27.424801
 30
0.0
 10
13.465380
 20
27.296917
 30
0.0
 10
13.470561
 20
27.169037
 30
0.0
 10
13.475743
 20
27.041153
 30
0.0
 10
13.480924
 20
26.913273
 30
0.0
 10
13.486106
 20
26.785389
 30
0.0
 10
13.491288
 20
26.657509
 30
0.0
 10
13.496469
 20
26.529625
 30
0.0
 10
13.501651
 20
26.401745
 30
0.0
 10
13.506832
 20
26.273862
 30
0.0
 10
13.512014
 20
26.145981
 30
0.0
 10
13.517196
 20
26.018098
 30
0.0
 10
13.522377
 20
25.890217
 30
0.0
 10
13.527559
 20
25.762334
 30
0.0
 10
13.532740
 20
25.634453
 30
0.0
 10
13.537922
 20
25.506570
 30
0.0
 10
13.543104
 20
25.378689
 30
0.0
 10
13.604840
 20
25.378689
 30
0.0
 10
13.666576
 20
25.378689
 30
0.0
 10
13.728312
 20
25.378689
 30
0.0
 10
13.790048
 20
25.378689
 30
0.0
 10
13.851784
 20
25.378689
 30
0.0
 10
13.913520
 20
25.378689
 30
0.0
 10
13.975256
 20
25.378689
 30
0.0
 10
14.036993
 20
25.378689
 30
0.0
 10
14.098729
 20
25.378689
 30
0.0
 10
14.160465
 20
25.378689
 30
0.0
 10
14.222201
 20
25.378689
 30
0.0
 10
14.283937
 20
25.378689
 30
0.0
 10
14.345673
 20
25.378689
 30
0.0
 10
14.407409
 20
25.378689
 30
0.0
 10
14.469145
 20
25.378689
 30
0.0
 10
14.530881
 20
25.378689
 30
0.0
 10
14.691729
 20
25.379818
 30
0.0
 10
14.834522
 20
25.383600
 30
0.0
 10
14.960454
 20
25.391164
 30
0.0
 10
15.070722
 20
25.403497
 30
0.0
 10
15.166520
 20
25.421644
 30
0.0
 10
15.249044
 20
25.446620
 30
0.0
 10
15.319487
 20
25.479446
 30
0.0
 10
15.379047
 20
25.521138
 30
0.0
 10
15.428917
 20
25.572709
 30
0.0
 10
15.470292
 20
25.635181
 30
0.0
 10
15.504369
 20
25.709575
 30
0.0
 10
15.532343
 20
25.796903
 30
0.0
 10
15.555406
 20
25.898190
 30
0.0
 10
15.574756
 20
26.014451
 30
0.0
 10
15.591587
 20
26.146706
 30
0.0
 10
15.607095
 20
26.295971
 30
0.0
 10
15.622798
 20
26.448738
 30
0.0
 10
15.639616
 20
26.583592
 30
0.0
 10
15.659005
 20
26.701643
 30
0.0
 10
15.682418
 20
26.804002
 30
0.0
 10
15.711309
 20
26.891782
 30
0.0
 10
15.747132
 20
26.966096
 30
0.0
 10
15.791343
 20
27.028055
 30
0.0
 10
15.845393
 20
27.078773
 30
0.0
 10
15.910738
 20
27.119357
 30
0.0
 10
15.988831
 20
27.150924
 30
0.0
 10
16.081127
 20
27.174574
 30
0.0
 10
16.189080
 20
27.191451
 30
0.0
 10
16.314144
 20
27.202627
 30
0.0
 10
16.457773
 20
27.209231
 30
0.0
 10
16.621420
 20
27.212392
 30
0.0
 10
16.806540
 20
27.213238
 30
0.0
 10
16.875978
 20
27.213238
 30
0.0
 10
16.945416
 20
27.213238
 30
0.0
 10
17.014854
 20
27.213238
 30
0.0
 10
17.084292
 20
27.213238
 30
0.0
 10
17.153730
 20
27.213238
 30
0.0
 10
17.223168
 20
27.213238
 30
0.0
 10
17.292606
 20
27.213238
 30
0.0
 10
17.362044
 20
27.213238
 30
0.0
 10
17.431482
 20
27.213238
 30
0.0
 10
17.500920
 20
27.213238
 30
0.0
 10
17.570358
 20
27.213238
 30
0.0
 10
17.639796
 20
27.213238
 30
0.0
 10
17.709234
 20
27.213238
 30
0.0
 10
17.778672
 20
27.213238
 30
0.0
 10
17.848110
 20
27.213238
 30
0.0
 10
17.917547
 20
27.213238
 30
0.0
 10
17.917547
 20
26.739929
 30
0.0
 10
17.917547
 20
26.266617
 30
0.0
 10
17.917547
 20
25.793308
 30
0.0
 10
17.917547
 20
25.319998
 30
0.0
 10
17.917547
 20
24.846686
 30
0.0
 10
17.917547
 20
24.373377
 30
0.0
 10
17.917547
 20
23.900068
 30
0.0
 10
17.917547
 20
23.426759
 30
0.0
 10
17.917547
 20
22.953447
 30
0.0
 10
17.917547
 20
22.480137
 30
0.0
 10
17.917547
 20
22.006828
 30
0.0
 10
17.917547
 20
21.533516
 30
0.0
 10
17.917547
 20
21.060207
 30
0.0
 10
17.917547
 20
20.586898
 30
0.0
 10
17.917547
 20
20.113585
 30
0.0
 10
17.917547
 20
19.640276
 30
0.0
 10
17.918592
 20
18.867792
 30
0.0
 10
17.921659
 20
18.114913
 30
0.0
 10
17.926646
 20
17.385634
 30
0.0
 10
17.933448
 20
16.683934
 30
0.0
 10
17.941963
 20
16.013803
 30
0.0
 10
17.952086
 20
15.379226
 30
0.0
 10
17.963713
 20
14.784186
 30
0.0
 10
17.976744
 20
14.232673
 30
0.0
 10
17.991072
 20
13.728672
 30
0.0
 10
18.006597
 20
13.276165
 30
0.0
 10
18.023214
 20
12.879143
 30
0.0
 10
18.040819
 20
12.541591
 30
0.0
 10
18.059311
 20
12.267492
 30
0.0
 10
18.078583
 20
12.060834
 30
0.0
 10
18.098537
 20
11.925605
 30
0.0
 10
18.119065
 20
11.865788
 30
0.0
 10
18.144039
 20
11.845694
 30
0.0
 10
18.177034
 20
11.827010
 30
0.0
 10
18.217509
 20
11.809823
 30
0.0
 10
18.264920
 20
11.794160
 30
0.0
 10
18.318725
 20
11.780105
 30
0.0
 10
18.378382
 20
11.767716
 30
0.0
 10
18.443347
 20
11.757019
 30
0.0
 10
18.513078
 20
11.748129
 30
0.0
 10
18.587033
 20
11.741074
 30
0.0
 10
18.664669
 20
11.735909
 30
0.0
 10
18.745444
 20
11.732720
 30
0.0
 10
18.828814
 20
11.731591
 30
0.0
 10
18.914237
 20
11.732438
 30
0.0
 10
19.001170
 20
11.735486
 30
0.0
 10
19.089072
 20
11.740735
 30
0.0
 10
19.177399
 20
11.748242
 30
0.0
 10
19.230950
 20
11.753492
 30
0.0
 10
19.284500
 20
11.758741
 30
0.0
 10
19.338051
 20
11.763990
 30
0.0
 10
19.391601
 20
11.769240
 30
0.0
 10
19.445152
 20
11.774489
 30
0.0
 10
19.498703
 20
11.779738
 30
0.0
 10
19.552253
 20
11.784988
 30
0.0
 10
19.605804
 20
11.790237
 30
0.0
 10
19.659354
 20
11.795486
 30
0.0
 10
19.712905
 20
11.800736
 30
0.0
 10
19.766456
 20
11.805985
 30
0.0
 10
19.820006
 20
11.811234
 30
0.0
 10
19.873557
 20
11.816484
 30
0.0
 10
19.927107
 20
11.821733
 30
0.0
 10
19.980658
 20
11.826982
 30
0.0
 10
20.034209
 20
11.832232
 30
0.0
 10
20.038902
 20
12.312890
 30
0.0
 10
20.043596
 20
12.793551
 30
0.0
 10
20.048289
 20
13.274209
 30
0.0
 10
20.052982
 20
13.754870
 30
0.0
 10
20.057676
 20
14.235529
 30
0.0
 10
20.062369
 20
14.716190
 30
0.0
 10
20.067062
 20
15.196848
 30
0.0
 10
20.071756
 20
15.677509
 30
0.0
 10
20.076449
 20
16.158168
 30
0.0
 10
20.081142
 20
16.638829
 30
0.0
 10
20.085836
 20
17.119490
 30
0.0
 10
20.090529
 20
17.600148
 30
0.0
 10
20.095222
 20
18.080809
 30
0.0
 10
20.099916
 20
18.561468
 30
0.0
 10
20.104609
 20
19.042129
 30
0.0
 10
20.109341
 20
19.522722
 30
0.0
  0
LWPOLYLINE
  5
102
100
AcDbEntity
  8
0
 62
7
100
AcDbPolyline
 90
257
 70
0
 10
32.254472
 20
12.029722
 30
0.0
 10
32.290631
 20
12.075118
 30
0.0
 10
32.325395
 20
12.137108
 30
0.0
 10
32.358632
 20
12.214837
 30
0.0
 10
32.390218
 20
12.307451
 30
0.0
 10
32.420021
 20
12.414095
 30
0.0
 10
32.447905
 20
12.533912
 30
0.0
 10
32.473756
 20
12.666046
 30
0.0
 10
32.497435
 20
12.809646
 30
0.0
 10
32.518799
 20
12.963852
 30
0.0
 10
32.537736
 20
13.127812
 30
0.0
 10
32.554133
 20
13.300668
 30
0.0
 10
32.567821
 20
13.481566
 30
0.0
 10
32.578686
 20
13.669653
 30
0.0
 10
32.586617
 20
13.864071
 30
0.0
 10
32.591471
 20
14.063966
 30
0.0
 10
32.593164
 20
14.268481
 30
0.0
 10
32.598752
 20
14.769843
 30
0.0
 10
32.618169
 20
15.203726
 30
0.0
 10
32.655468
 20
15.569949
 30
0.0
 10
32.714684
 20
15.868342
 30
0.0
 10
32.799853
 20
16.098723
 30
0.0
 10
32.915013
 20
16.260925
 30
0.0
 10
33.064202
 20
16.354766
 30
0.0
 10
33.251456
 20
16.380082
 30
0.0
 10
33.480812
 20
16.336682
 30
0.0
 10
33.756306
 20
16.224394
 30
0.0
 10
34.081980
 20
16.043046
 30
0.0
 10
34.461868
 20
15.792464
 30
0.0
 10
34.900006
 20
15.472472
 30
0.0
 10
35.400432
 20
15.082893
 30
0.0
 10
35.967182
 20
14.623553
 30
0.0
 10
36.604296
 20
14.094277
 30
0.0
 10
37.002686
 20
13.762482
 30
0.0
 10
37.370975
 20
13.459960
 30
0.0
 10
37.710666
 20
13.185733
 30
0.0
 10
38.023269
 20
12.938819
 30
0.0
 10
38.310292
 20
12.718240
 30
0.0
 10
38.573242
 20
12.523010
 30
0.0
 10
38.813630
 20
12.352155
 30
0.0
 10
39.032959
 20
12.204692
 30
0.0
 10
39.232738
 20
12.079639
 30
0.0
 10
39.414478
 20
11.976015
 30
0.0
 10
39.579685
 20
11.892844
 30
0.0
 10
39.729867
 20
11.829141
 30
0.0
 10
39.866530
 20
11.783929
 30
0.0
 10
39.991185
 20
11.756215
 30
0.0
 10
40.105338
 20
11.745039
 30
0.0
 10
40.210497
 20
11.749413
 30
0.0
 10
40.305897
 20
11.762791
 30
0.0
 10
40.393891
 20
11.779922
 30
0.0
 10
40.474756
 20
11.801088
 30
0.0
 10
40.548774
 20
11.826601
 30
0.0
 10
40.616226
 20
11.856737
 30
0.0
 10
40.677392
 20
11.891795
 30
0.0
 10
40.732552
 20
11.932068
 30
0.0
 10
40.781989
 20
11.977850
 30
0.0
 10
40.825982
 20
12.029429
 30
0.0
 10
40.864810
 20
12.087101
 30
0.0
 10
40.898755
 20
12.151157
 30
0.0
 10
40.928098
 20
12.221890
 30
0.0
 10
40.953131
 20
12.299589
 30
0.0
 10
40.974100
 20
12.384552
 30
0.0
 10
40.991316
 20
12.477067
 30
0.0
 10
41.005060
 20
12.577428
 30
0.0
 10
41.013245
 20
12.695611
 30
0.0
 10
41.008334
 20
12.811390
 30
0.0
 10
40.988014
 20
12.927381
 30
0.0
 10
40.949922
 20
13.046194
 30
0.0
 10
40.891720
 20
13.170442
 30
0.0
 10
40.811058
 20
13.302739
 30
0.0
 10
40.705594
 20
13.445696
 30
0.0
 10
40.572984
 20
13.601926
 30
0.0
 10
40.410881
 20
13.774045
 30
0.0
 10
40.216943
 20
13.964660
 30
0.0
 10
39.988820
 20
14.176389
 30
0.0
 10
39.724172
 20
14.411844
 30
0.0
 10
39.420650
 20
14.673634
 30
0.0
 10
39.075913
 20
14.964373
 30
0.0
 10
38.687612
 20
15.286677
 30
0.0
 10
38.253405
 20
15.643154
 30
0.0
 10
37.964305
 20
15.880563
 30
0.0
 10
37.683313
 20
16.113325
 30
0.0
 10
37.411880
 20
16.340153
 30
0.0
 10
37.151465
 20
16.559753
 30
0.0
 10
36.903522
 20
16.770835
 30
0.0
 10
36.669506
 20
16.972111
 30
0.0
 10
36.450871
 20
17.162286
 30
0.0
 10
36.249074
 20
17.340069
 30
0.0
 10
36.065567
 20
17.504170
 30
0.0
 10
35.901808
 20
17.653299
 30
0.0
 10
35.759252
 20
17.786164
 30
0.0
 10
35.639350
 20
17.901471
 30
0.0
 10
35.543561
 20
17.997935
 30
0.0
 10
35.473338
 20
18.074262
 30
0.0
 10
35.430138
 20
18.129157
 30
0.0
 10
35.415406
 20
18.161336
 30
0.0
 10
35.427852
 20
18.192016
 30
0.0
 10
35.464369
 20
18.242523
 30
0.0
 10
35.523726
 20
18.311712
 30
0.0
 10
35.604693
 20
18.398442
 30
0.0
 10
35.706044
 20
18.501563
 30
0.0
 10
35.826545
 20
18.619941
 30
0.0
 10
35.964966
 20
18.752425
 30
0.0
 10
36.120081
 20
18.897877
 30
0.0
 10
36.290656
 20
19.055153
 30
0.0
 10
36.475461
 20
19.223107
 30
0.0
 10
36.673271
 20
19.400599
 30
0.0
 10
36.882852
 20
19.586482
 30
0.0
 10
37.102974
 20
19.779618
 30
0.0
 10
37.332409
 20
19.978858
 30
0.0
 10
37.569925
 20
20.183066
 30
0.0
 10
37.814295
 20
20.391092
 30
0.0
 10
38.058663
 20
20.600165
 30
0.0
 10
38.296181
 20
20.807440
 30
0.0
 10
38.525617
 20
21.011670
 30
0.0
 10
38.745739
 20
21.211613
 30
0.0
 10
38.955320
 20
21.406017
 30
0.0
 10
39.153126
 20
21.593638
 30
0.0
 10
39.337934
 20
21.773227
 30
0.0
 10
39.508509
 20
21.943543
 30
0.0
 10
39.663624
 20
22.103334
 30
0.0
 10
39.802046
 20
22.251354
 30
0.0
 10
39.922546
 20
22.386361
 30
0.0
 10
40.023898
 20
22.507101
 30
0.0
 10
40.104864
 20
22.612333
 30
0.0
 10
40.164221
 20
22.700810
 30
0.0
 10
40.200738
 20
22.771283
 30
0.0
 10
40.213184
 20
22.822507
 30
0.0
 10
40.204717
 20
22.909871
 30
0.0
 10
40.180362
 20
23.004822
 30
0.0
 10
40.141759
 20
23.105528
 30
0.0
 10
40.090513
 20
23.210170
 30
0.0
 10
40.028235
 20
23.316926
 30
0.0
 10
39.956537
 20
23.423965
 30
0.0
 10
39.877029
 20
23.529468
 30
0.0
 10
39.791324
 20
23.631610
 30
0.0
 10
39.701038
 20
23.728567
 30
0.0
 10
39.607781
 20
23.818514
 30
0.0
 10
39.513163
 20
23.899628
 30
0.0
 10
39.418799
 20
23.970084
 30
0.0
 10
39.326301
 20
24.028059
 30
0.0
 10
39.237282
 20
24.071727
 30
0.0
 10
39.153352
 20
24.099272
 30
0.0
 10
39.076128
 20
24.108867
 30
0.0
 10
39.034853
 20
24.095631
 30
0.0
 10
38.963727
 20
24.056797
 30
0.0
 10
38.864444
 20
23.993673
 30
0.0
 10
38.738694
 20
23.907567
 30
0.0
 10
38.588163
 20
23.799783
 30
0.0
 10
38.414542
 20
23.671634
 30
0.0
 10
38.219521
 20
23.524427
 30
0.0
 10
38.004792
 20
23.359468
 30
0.0
 10
37.772041
 20
23.178064
 30
0.0
 10
37.522960
 20
22.981528
 30
0.0
 10
37.259240
 20
22.771165
 30
0.0
 10
36.982569
 20
22.548283
 30
0.0
 10
36.694638
 20
22.314188
 30
0.0
 10
36.397133
 20
22.070190
 30
0.0
 10
36.091752
 20
21.817598
 30
0.0
 10
35.780176
 20
21.557719
 30
0.0
 10
35.589808
 20
21.398272
 30
0.0
 10
35.399441
 20
21.238825
 30
0.0
 10
35.209071
 20
21.079378
 30
0.0
 10
35.018703
 20
20.919934
 30
0.0
 10
34.828336
 20
20.760487
 30
0.0
 10
34.637969
 20
20.601040
 30
0.0
 10
34.447599
 20
20.441593
 30
0.0
 10
34.257231
 20
20.282146
 30
0.0
 10
34.066864
 20
20.122698
 30
0.0
 10
33.876496
 20
19.963251
 30
0.0
 10
33.686126
 20
19.803804
 30
0.0
 10
33.495759
 20
19.644360
 30
0.0
 10
33.305392
 20
19.484913
 30
0.0
 10
33.115024
 20
19.325466
 30
0.0
 10
32.924654
 20
19.166019
 30
0.0
 10
32.734287
 20
19.006572
 30
0.0
 10
32.725453
 20
19.290177
 30
0.0
 10
32.716620
 20
19.573779
 30
0.0
 10
32.707786
 20
19.857384
 30
0.0
 10
32.698952
 20
20.140989
 30
0.0
 10
32.690119
 20
20.424592
 30
0.0
 10
32.681285
 20
20.708197
 30
0.0
 10
32.672452
 20
20.991799
 30
0.0
 10
32.663618
 20
21.275404
 30
0.0
 10
32.654785
 20
21.559009
 30
0.0
 10
32.645951
 20
21.842611
 30
0.0
 10
32.637118
 20
22.126217
 30
0.0
 10
32.628284
 20
22.409822
 30
0.0
 10
32.619450
 20
22.693424
 30
0.0
 10
32.610617
 20
22.977029
 30
0.0
 10
32.601783
 20
23.260631
 30
0.0
 10
32.592950
 20
23.544236
 30
0.0
 10
32.566252
 20
24.356215
 30
0.0
 10
32.538707
 20
25.077349
 30
0.0
 10
32.508969
 20
25.712968
 30
0.0
 10
32.475689
 20
26.268403
 30
0.0
 10
32.437513
 20
26.748988
 30
0.0
 10
32.393097
 20
27.160051
 30
0.0
 10
32.341086
 20
27.506927
 30
0.0
 10
32.280138
 20
27.794949
 30
0.0
 10
32.208899
 20
28.029445
 30
0.0
 10
32.126022
 20
28.215748
 30
0.0
 10
32.030159
 20
28.359190
 30
0.0
 10
31.919960
 20
28.465103
 30
0.0
 10
31.794075
 20
28.538819
 30
0.0
 10
31.651157
 20
28.585671
 30
0.0
 10
31.489859
 20
28.610986
 30
0.0
 10
31.308827
 20
28.620102
 30
0.0
 10
31.150645
 20
28.612510
 30
0.0
 10
31.010451
 20
28.578491
 30
0.0
 10
30.887170
 20
28.508548
 30
0.0
 10
30.779734
 20
28.393181
 30
0.0
 10
30.687064
 20
28.222888
 30
0.0
 10
30.608089
 20
27.988173
 30
0.0
 10
30.541733
 20
27.679526
 30
0.0
 10
30.486920
 20
27.287451
 30
0.0
 10
30.442580
 20
26.802447
 30
0.0
 10
30.407635
 20
26.215010
 30
0.0
 10
30.381022
 20
25.515641
 30
0.0
 10
30.361661
 20
24.694837
 30
0.0
 10
30.348453
 20
23.743096
 30
0.0
 10
30.340354
 20
22.650918
 30
0.0
 10
30.336290
 20
21.408802
 30
0.0
 10
30.335161
 20
20.007247
 30
0.0
 10
30.336007
 20
19.197455
 30
0.0
 10
30.338858
 20
18.408458
 30
0.0
 10
30.343515
 20
17.644418
 30
0.0
 10
30.349865
 20
16.909505
 30
0.0
 10
30.357823
 20
16.207884
 30
0.0
 10
30.367278
 20
15.543725
 30
0.0
 10
30.378143
 20
14.921193
 30
0.0
 10
30.390307
 20
14.344458
 30
0.0
 10
30.403684
 20
13.817682
 30
0.0
 10
30.418191
 20
13.345039
 30
0.0
 10
30.433713
 20
12.930688
 30
0.0
 10
30.450138
 20
12.578805
 30
0.0
 10
30.467410
 20
12.293549
 30
0.0
 10
30.485416
 20
12.079094
 30
0.0
 10
30.504043
 20
11.939606
 30
0.0
 10
30.523205
 20
11.879247
 30
0.0
 10
30.589169
 20
11.826392
 30
0.0
 10
30.670650
 20
11.782699
 30
0.0
 10
30.765533
 20
11.747985
 30
0.0
 10
30.871699
 20
11.722049
 30
0.0
 10
30.987024
 20
11.704749
 30
0.0
 10
31.109395
 20
11.695859
 30
0.0
 10
31.236686
 20
11.695295
 30
0.0
 10
31.366782
 20
11.702689
 30
0.0
 10
31.497564
 20
11.717957
 30
0.0
 10
31.626909
 20
11.740930
 30
0.0
 10
31.752701
 20
11.771399
 30
0.0
 10
31.872817
 20
11.809185
 30
0.0
 10
31.985142
 20
11.854107
 30
0.0
 10
32.087555
 20
11.905979
 30
0.0
 10
32.177936
 20
11.964616
 30
0.0
 10
32.254472
 20
12.029722
 30
0.0
  0
LWPOLYLINE
  5
103
100
AcDbEntity
  8
0
 62
7
100
AcDbPolyline
 90
289
 70
0
 10
49.095158
 20
12.326056
 30
0.0
 10
49.110200
 20
12.398643
 30
0.0
 10
49.125553
 20
12.484701
 30
0.0
 10
49.141132
 20
12.583123
 30
0.0
 10
49.156795
 20
12.692801
 30
0.0
 10
49.172458
 20
12.812629
 30
0.0
 10
49.188009
 20
12.941500
 30
0.0
 10
49.203305
 20
13.078310
 30
0.0
 10
49.218263
 20
13.221950
 30
0.0
 10
49.232769
 20
13.371316
 30
0.0
 10
49.246711
 20
13.525300
 30
0.0
 10
49.259975
 20
13.682794
 30
0.0
 10
49.272450
 20
13.842692
 30
0.0
 10
49.284021
 20
14.003892
 30
0.0
 10
49.294576
 20
14.165281
 30
0.0
 10
49.304002
 20
14.325758
 30
0.0
 10
49.312215
 20
14.484212
 30
0.0
 10
49.338772
 20
14.926462
 30
0.0
 10
49.375703
 20
15.308456
 30
0.0
 10
49.427023
 20
15.629817
 30
0.0
 10
49.496729
 20
15.890181
 30
0.0
 10
49.588818
 20
16.089170
 30
0.0
 10
49.707292
 20
16.226417
 30
0.0
 10
49.856150
 20
16.301553
 30
0.0
 10
50.039389
 20
16.314197
 30
0.0
 10
50.261009
 20
16.263990
 30
0.0
 10
50.525011
 20
16.150559
 30
0.0
 10
50.835393
 20
15.973527
 30
0.0
 10
51.196153
 20
15.732529
 30
0.0
 10
51.611290
 20
15.427192
 30
0.0
 10
52.084805
 20
15.057143
 30
0.0
 10
52.620697
 20
14.622015
 30
0.0
 10
53.222962
 20
14.121432
 30
0.0
 10
53.626106
 20
13.785652
 30
0.0
 10
53.998667
 20
13.479534
 30
0.0
 10
54.342182
 20
13.202085
 30
0.0
 10
54.658181
 20
12.952301
 30
0.0
 10
54.948198
 20
12.729187
 30
0.0
 10
55.213761
 20
12.531742
 30
0.0
 10
55.456404
 20
12.358968
 30
0.0
 10
55.677661
 20
12.209867
 30
0.0
 10
55.879060
 20
12.083440
 30
0.0
 10
56.062138
 20
11.978688
 30
0.0
 10
56.228423
 20
11.894611
 30
0.0
 10
56.379449
 20
11.830211
 30
0.0
 10
56.516747
 20
11.784491
 30
0.0
 10
56.641850
 20
11.756438
 30
0.0
 10
56.756289
 20
11.745064
 30
0.0
 10
56.861597
 20
11.749382
 30
0.0
 10
56.957632
 20
11.762816
 30
0.0
 10
57.046094
 20
11.780004
 30
0.0
 10
57.127284
 20
11.801255
 30
0.0
 10
57.201503
 20
11.826881
 30
0.0
 10
57.269047
 20
11.857203
 30
0.0
 10
57.330221
 20
11.892540
 30
0.0
 10
57.385325
 20
11.933208
 30
0.0
 10
57.434655
 20
11.979526
 30
0.0
 10
57.478515
 20
12.031808
 30
0.0
 10
57.517202
 20
12.090375
 30
0.0
 10
57.551015
 20
12.155545
 30
0.0
 10
57.580259
 20
12.227631
 30
0.0
 10
57.605236
 20
12.306955
 30
0.0
 10
57.626233
 20
12.393834
 30
0.0
 10
57.643562
 20
12.488582
 30
0.0
 10
57.657532
 20
12.591519
 30
0.0
 10
57.666224
 20
12.712581
 30
0.0
 10
57.662160
 20
12.830531
 30
0.0
 10
57.642912
 20
12.948096
 30
0.0
 10
57.606063
 20
13.068004
 30
0.0
 10
57.549175
 20
13.192989
 30
0.0
 10
57.469817
 20
13.325777
 30
0.0
 10
57.365556
 20
13.469104
 30
0.0
 10
57.233967
 20
13.625697
 30
0.0
 10
57.072620
 20
13.798285
 30
0.0
 10
56.879084
 20
13.989600
 30
0.0
 10
56.650927
 20
14.202370
 30
0.0
 10
56.385722
 20
14.439330
 30
0.0
 10
56.081041
 20
14.703205
 30
0.0
 10
55.734452
 20
14.996727
 30
0.0
 10
55.343529
 20
15.322626
 30
0.0
 10
54.905837
 20
15.683634
 30
0.0
 10
54.616598
 20
15.922255
 30
0.0
 10
54.335471
 20
16.156136
 30
0.0
 10
54.063908
 20
16.383979
 30
0.0
 10
53.803369
 20
16.604494
 30
0.0
 10
53.555307
 20
16.816380
 30
0.0
 10
53.321179
 20
17.018350
 30
0.0
 10
53.102437
 20
17.209104
 30
0.0
 10
52.900543
 20
17.387353
 30
0.0
 10
52.716949
 20
17.551798
 30
0.0
 10
52.553111
 20
17.701150
 30
0.0
 10
52.410484
 20
17.834110
 30
0.0
 10
52.290526
 20
17.949387
 30
0.0
 10
52.194691
 20
18.045687
 30
0.0
 10
52.124435
 20
18.121712
 30
0.0
 10
52.081213
 20
18.176172
 30
0.0
 10
52.066481
 20
18.207773
 30
0.0
 10
52.078165
 20
18.236590
 30
0.0
 10
52.112486
 20
18.282889
 30
0.0
 10
52.168273
 20
18.345647
 30
0.0
 10
52.244368
 20
18.423845
 30
0.0
 10
52.339621
 20
18.516467
 30
0.0
 10
52.452871
 20
18.622490
 30
0.0
 10
52.582967
 20
18.740899
 30
0.0
 10
52.728749
 20
18.870670
 30
0.0
 10
52.889063
 20
19.010788
 30
0.0
 10
53.062751
 20
19.160230
 30
0.0
 10
53.248659
 20
19.317978
 30
0.0
 10
53.445630
 20
19.483016
 30
0.0
 10
53.652510
 20
19.654322
 30
0.0
 10
53.868142
 20
19.830878
 30
0.0
 10
54.091372
 20
20.011664
 30
0.0
 10
54.321038
 20
20.195659
 30
0.0
 10
54.752339
 20
20.545338
 30
0.0
 10
55.141083
 20
20.873463
 30
0.0
 10
55.487832
 20
21.180970
 30
0.0
 10
55.793143
 20
21.468800
 30
0.0
 10
56.057583
 20
21.737890
 30
0.0
 10
56.281701
 20
21.989178
 30
0.0
 10
56.466065
 20
22.223603
 30
0.0
 10
56.611229
 20
22.442102
 30
0.0
 10
56.717757
 20
22.645616
 30
0.0
 10
56.786207
 20
22.835080
 30
0.0
 10
56.817139
 20
23.011432
 30
0.0
 10
56.811099
 20
23.175612
 30
0.0
 10
56.768670
 20
23.328559
 30
0.0
 10
56.690401
 20
23.471211
 30
0.0
 10
56.576852
 20
23.604502
 30
0.0
 10
56.428581
 20
23.729377
 30
0.0
 10
56.374625
 20
23.768027
 30
0.0
 10
56.320035
 20
23.805594
 30
0.0
 10
56.265183
 20
23.841885
 30
0.0
 10
56.210440
 20
23.876700
 30
0.0
 10
56.156183
 20
23.909847
 30
0.0
 10
56.102786
 20
23.941134
 30
0.0
 10
56.050626
 20
23.970364
 30
0.0
 10
56.000074
 20
23.997344
 30
0.0
 10
55.951504
 20
24.021869
 30
0.0
 10
55.905290
 20
24.043770
 30
0.0
 10
55.861811
 20
24.062820
 30
0.0
 10
55.821436
 20
24.078850
 30
0.0
 10
55.784541
 20
24.091663
 30
0.0
 10
55.751501
 20
24.101061
 30
0.0
 10
55.722689
 20
24.106846
 30
0.0
 10
55.698475
 20
24.108822
 30
0.0
 10
55.661131
 20
24.095755
 30
0.0
 10
55.593779
 20
24.057384
 30
0.0
 10
55.498086
 20
23.995010
 30
0.0
 10
55.375728
 20
23.909929
 30
0.0
 10
55.228377
 20
23.803429
 30
0.0
 10
55.057706
 20
23.676808
 30
0.0
 10
54.865386
 20
23.531353
 30
0.0
 10
54.653090
 20
23.368358
 30
0.0
 10
54.422492
 20
23.189116
 30
0.0
 10
54.175262
 20
22.994922
 30
0.0
 10
53.913075
 20
22.787062
 30
0.0
 10
53.637603
 20
22.566833
 30
0.0
 10
53.350516
 20
22.335527
 30
0.0
 10
53.053491
 20
22.094436
 30
0.0
 10
52.748194
 20
21.844852
 30
0.0
 10
52.436305
 20
21.588067
 30
0.0
 10
52.245618
 20
21.430519
 30
0.0
 10
52.054935
 20
21.272971
 30
0.0
 10
51.864249
 20
21.115424
 30
0.0
 10
51.673562
 20
20.957876
 30
0.0
 10
51.482879
 20
20.800328
 30
0.0
 10
51.292193
 20
20.642780
 30
0.0
 10
51.101509
 20
20.485233
 30
0.0
 10
50.910823
 20
20.327685
 30
0.0
 10
50.720137
 20
20.170137
 30
0.0
 10
50.529453
 20
20.012589
 30
0.0
 10
50.338767
 20
19.855042
 30
0.0
 10
50.148081
 20
19.697494
 30
0.0
 10
49.957397
 20
19.539946
 30
0.0
 10
49.766711
 20
19.382399
 30
0.0
 10
49.576028
 20
19.224851
 30
0.0
 10
49.385341
 20
19.067303
 30
0.0
 10
49.376508
 20
19.343915
 30
0.0
 10
49.367674
 20
19.620524
 30
0.0
 10
49.358841
 20
19.897135
 30
0.0
 10
49.350007
 20
20.173744
 30
0.0
 10
49.341174
 20
20.450356
 30
0.0
 10
49.332340
 20
20.726964
 30
0.0
 10
49.323506
 20
21.003576
 30
0.0
 10
49.314673
 20
21.280185
 30
0.0
 10
49.305839
 20
21.556797
 30
0.0
 10
49.297006
 20
21.833405
 30
0.0
 10
49.288172
 20
22.110017
 30
0.0
 10
49.279339
 20
22.386626
 30
0.0
 10
49.270505
 20
22.663237
 30
0.0
 10
49.261672
 20
22.939846
 30
0.0
 10
49.252838
 20
23.216458
 30
0.0
 10
49.244004
 20
23.493067
 30
0.0
 10
49.228454
 20
23.945740
 30
0.0
 10
49.211013
 20
24.389311
 30
0.0
 10
49.191878
 20
24.821329
 30
0.0
 10
49.171219
 20
25.239345
 30
0.0
 10
49.149234
 20
25.640911
 30
0.0
 10
49.126120
 20
26.023573
 30
0.0
 10
49.102075
 20
26.384885
 30
0.0
 10
49.077268
 20
26.722395
 30
0.0
 10
49.051924
 20
27.033652
 30
0.0
 10
49.026185
 20
27.316207
 30
0.0
 10
49.000277
 20
27.567611
 30
0.0
 10
48.974369
 20
27.785413
 30
0.0
 10
48.948659
 20
27.967164
 30
0.0
 10
48.923344
 20
28.110414
 30
0.0
 10
48.898593
 20
28.212714
 30
0.0
 10
48.874604
 20
28.271611
 30
0.0
 10
48.814304
 20
28.350377
 30
0.0
 10
48.742927
 20
28.418815
 30
0.0
 10
48.661803
 20
28.476914
 30
0.0
 10
48.572259
 20
28.524657
 30
0.0
 10
48.475629
 20
28.562040
 30
0.0
 10
48.373236
 20
28.589049
 30
0.0
 10
48.266412
 20
28.605672
 30
0.0
 10
48.156487
 20
28.611881
 30
0.0
 10
48.044789
 20
28.607676
 30
0.0
 10
47.932648
 20
28.593057
 30
0.0
 10
47.821393
 20
28.567995
 30
0.0
 10
47.712353
 20
28.532486
 30
0.0
 10
47.606856
 20
28.486515
 30
0.0
 10
47.506235
 20
28.430073
 30
0.0
 10
47.411815
 20
28.363144
 30
0.0
 10
47.324927
 20
28.285719
 30
0.0
 10
47.280362
 20
28.215697
 30
0.0
 10
47.239357
 20
28.096839
 30
0.0
 10
47.201822
 20
27.926832
 30
0.0
 10
47.167656
 20
27.703351
 30
0.0
 10
47.136772
 20
27.424086
 30
0.0
 10
47.109058
 20
27.086712
 30
0.0
 10
47.084448
 20
26.688917
 30
0.0
 10
47.062830
 20
26.228381
 30
0.0
 10
47.044119
 20
25.702782
 30
0.0
 10
47.028202
 20
25.109808
 30
0.0
 10
47.014994
 20
24.447136
 30
0.0
 10
47.004410
 20
23.712449
 30
0.0
 10
46.996339
 20
22.903431
 30
0.0
 10
46.990694
 20
22.017761
 30
0.0
 10
46.987364
 20
21.053126
 30
0.0
 10
46.986235
 20
20.007202
 30
0.0
 10
46.987082
 20
19.197410
 30
0.0
 10
46.989960
 20
18.408413
 30
0.0
 10
46.994617
 20
17.644372
 30
0.0
 10
47.000967
 20
16.909460
 30
0.0
 10
47.008926
 20
16.207839
 30
0.0
 10
47.018380
 20
15.543680
 30
0.0
 10
47.029246
 20
14.921148
 30
0.0
 10
47.041410
 20
14.344413
 30
0.0
 10
47.054787
 20
13.817637
 30
0.0
 10
47.069293
 20
13.344993
 30
0.0
 10
47.084815
 20
12.930643
 30
0.0
 10
47.101241
 20
12.578760
 30
0.0
 10
47.118513
 20
12.293504
 30
0.0
 10
47.136518
 20
12.079049
 30
0.0
 10
47.155145
 20
11.939561
 30
0.0
 10
47.174308
 20
11.879202
 30
0.0
 10
47.197591
 20
11.860039
 30
0.0
 10
47.228311
 20
11.841412
 30
0.0
 10
47.265957
 20
11.823406
 30
0.0
 10
47.310032
 20
11.806134
 30
0.0
 10
47.360024
 20
11.789709
 30
0.0
 10
47.415436
 20
11.774187
 30
0.0
 10
47.475761
 20
11.759681
 30
0.0
 10
47.540494
 20
11.746303
 30
0.0
 10
47.609136
 20
11.734140
 30
0.0
 10
47.681182
 20
11.723274
 30
0.0
 10
47.756126
 20
11.713820
 30
0.0
 10
47.833466
 20
11.705861
 30
0.0
 10
47.912697
 20
11.699511
 30
0.0
 10
47.993314
 20
11.694854
 30
0.0
 10
48.074820
 20
11.691976
 30
0.0
 10
48.156704
 20
11.691129
 30
0.0
 10
48.263765
 20
11.693104
 30
0.0
 10
48.362833
 20
11.699031
 30
0.0
 10
48.454239
 20
11.709163
 30
0.0
 10
48.538311
 20
11.723754
 30
0.0
 10
48.615374
 20
11.743001
 30
0.0
 10
48.685763
 20
11.767131
 30
0.0
 10
48.749805
 20
11.796370
 30
0.0
 10
48.807830
 20
11.830942
 30
0.0
 10
48.860165
 20
11.871068
 30
0.0
 10
48.907138
 20
11.916972
 30
0.0
 10
48.949079
 20
11.968878
 30
0.0
 10
48.986321
 20
12.027004
 30
0.0
 10
49.019189
 20
12.091577
 30
0.0
 10
49.048012
 20
12.162818
 30
0.0
 10
49.073130
 20
12.240951
 30
0.0
 10
49.095158
 20
12.326056
 30
0.0
  0
LWPOLYLINE
  5
104
100
AcDbEntity
  8
0
 62
7
100
AcDbPolyline
 90
257
 70
0
 10
65.724055
 20
12.137472
 30
0.0
 10
65.741496
 20
12.198821
 30
0.0
 10
65.758458
 20
12.289601
 30
0.0
 10
65.774855
 20
12.408013
 30
0.0
 10
65.790575
 20
12.552259
 30
0.0
 10
65.805533
 20
12.720540
 30
0.0
 10
65.819644
 20
12.911060
 30
0.0
 10
65.832852
 20
13.122021
 30
0.0
 10
65.845044
 20
13.351623
 30
0.0
 10
65.856135
 20
13.598073
 30
0.0
 10
65.866013
 20
13.859569
 30
0.0
 10
65.874621
 20
14.134315
 30
0.0
 10
65.881845
 20
14.420514
 30
0.0
 10
65.887631
 20
14.716368
 30
0.0
 10
65.891864
 20
15.020076
 30
0.0
 10
65.894404
 20
15.329845
 30
0.0
 10
65.895251
 20
15.643874
 30
0.0
 10
65.895251
 20
15.835122
 30
0.0
 10
65.895251
 20
16.026373
 30
0.0
 10
65.895251
 20
16.217621
 30
0.0
 10
65.895251
 20
16.408871
 30
0.0
 10
65.895251
 20
16.600119
 30
0.0
 10
65.895251
 20
16.791370
 30
0.0
 10
65.895251
 20
16.982618
 30
0.0
 10
65.895251
 20
17.173869
 30
0.0
 10
65.895251
 20
17.365116
 30
0.0
 10
65.895251
 20
17.556367
 30
0.0
 10
65.895251
 20
17.747615
 30
0.0
 10
65.895251
 20
17.938866
 30
0.0
 10
65.895251
 20
18.130114
 30
0.0
 10
65.895251
 20
18.321364
 30
0.0
 10
65.895251
 20
18.512612
 30
0.0
 10
65.895251
 20
18.703863
 30
0.0
 10
66.013739
 20
18.802212
 30
0.0
 10
66.132227
 20
18.900563
 30
0.0
 10
66.250716
 20
18.998912
 30
0.0
 10
66.369201
 20
19.097261
 30
0.0
 10
66.487689
 20
19.195613
 30
0.0
 10
66.606177
 20
19.293961
 30
0.0
 10
66.724665
 20
19.392310
 30
0.0
 10
66.843154
 20
19.490659
 30
0.0
 10
66.961642
 20
19.589011
 30
0.0
 10
67.080130
 20
19.687359
 30
0.0
 10
67.198618
 20
19.785708
 30
0.0
 10
67.317104
 20
19.884060
 30
0.0
 10
67.435592
 20
19.982409
 30
0.0
 10
67.554080
 20
20.080757
 30
0.0
 10
67.672568
 20
20.179109
 30
0.0
 10
67.791056
 20
20.277458
 30
0.0
 10
68.051197
 20
20.491188
 30
0.0
 10
68.294871
 20
20.686646
 30
0.0
 10
68.523172
 20
20.864457
 30
0.0
 10
68.737203
 20
21.025237
 30
0.0
 10
68.938064
 20
21.169602
 30
0.0
 10
69.126856
 20
21.298171
 30
0.0
 10
69.304682
 20
21.411562
 30
0.0
 10
69.472641
 20
21.510394
 30
0.0
 10
69.631831
 20
21.595283
 30
0.0
 10
69.783353
 20
21.666849
 30
0.0
 10
69.928311
 20
21.725709
 30
0.0
 10
70.067802
 20
21.772482
 30
0.0
 10
70.202927
 20
21.807785
 30
0.0
 10
70.334790
 20
21.832226
 30
0.0
 10
70.464485
 20
21.846450
 30
0.0
 10
70.593119
 20
21.851050
 30
0.0
 10
70.787314
 20
21.843825
 30
0.0
 10
70.973414
 20
21.822517
 30
0.0
 10
71.150810
 20
21.787646
 30
0.0
 10
71.318890
 20
21.739725
 30
0.0
 10
71.477045
 20
21.679273
 30
0.0
 10
71.624656
 20
21.606801
 30
0.0
 10
71.761116
 20
21.522834
 30
0.0
 10
71.885810
 20
21.427886
 30
0.0
 10
71.998129
 20
21.322473
 30
0.0
 10
72.097454
 20
21.207115
 30
0.0
 10
72.183182
 20
21.082330
 30
0.0
 10
72.254694
 20
20.948636
 30
0.0
 10
72.311381
 20
20.806545
 30
0.0
 10
72.352628
 20
20.656581
 30
0.0
 10
72.377831
 20
20.499259
 30
0.0
 10
72.386354
 20
20.335096
 30
0.0
 10
72.392083
 20
20.196240
 30
0.0
 10
72.408931
 20
20.062605
 30
0.0
 10
72.436448
 20
19.934710
 30
0.0
 10
72.474167
 20
19.813070
 30
0.0
 10
72.521631
 20
19.698200
 30
0.0
 10
72.578381
 20
19.590614
 30
0.0
 10
72.643952
 20
19.490828
 30
0.0
 10
72.717886
 20
19.399360
 30
0.0
 10
72.799719
 20
19.316720
 30
0.0
 10
72.888991
 20
19.243429
 30
0.0
 10
72.985243
 20
19.179997
 30
0.0
 10
73.088015
 20
19.126945
 30
0.0
 10
73.196839
 20
19.084784
 30
0.0
 10
73.311261
 20
19.054030
 30
0.0
 10
73.430819
 20
19.035206
 30
0.0
 10
73.555047
 20
19.028828
 30
0.0
 10
73.675350
 20
19.033823
 30
0.0
 10
73.785101
 20
19.049317
 30
0.0
 10
73.884657
 20
19.076043
 30
0.0
 10
73.974367
 20
19.114685
 30
0.0
 10
74.054592
 20
19.165985
 30
0.0
 10
74.125684
 20
19.230656
 30
0.0
 10
74.187993
 20
19.309421
 30
0.0
 10
74.241880
 20
19.403004
 30
0.0
 10
74.287696
 20
19.512122
 30
0.0
 10
74.325796
 20
19.637496
 30
0.0
 10
74.356533
 20
19.779849
 30
0.0
 10
74.380268
 20
19.939897
 30
0.0
 10
74.397342
 20
20.118364
 30
0.0
 10
74.408123
 20
20.315970
 30
0.0
 10
74.412949
 20
20.533436
 30
0.0
 10
74.412102
 20
20.771479
 30
0.0
 10
74.386590
 20
21.174704
 30
0.0
 10
74.322373
 20
21.555877
 30
0.0
 10
74.220708
 20
21.914039
 30
0.0
 10
74.082870
 20
22.248233
 30
0.0
 10
73.910136
 20
22.557494
 30
0.0
 10
73.703778
 20
22.840868
 30
0.0
 10
73.465072
 20
23.097391
 30
0.0
 10
73.195296
 20
23.326107
 30
0.0
 10
72.895717
 20
23.526053
 30
0.0
 10
72.567614
 20
23.696272
 30
0.0
 10
72.212262
 20
23.835803
 30
0.0
 10
71.830932
 20
23.943688
 30
0.0
 10
71.424904
 20
24.018965
 30
0.0
 10
70.995447
 20
24.060675
 30
0.0
 10
70.543841
 20
24.067872
 30
0.0
 10
70.071355
 20
24.039570
 30
0.0
 10
69.887471
 20
24.019081
 30
0.0
 10
69.709961
 20
23.993399
 30
0.0
 10
69.537921
 20
23.962098
 30
0.0
 10
69.370431
 20
23.924788
 30
0.0
 10
69.206578
 20
23.881063
 30
0.0
 10
69.045452
 20
23.830528
 30
0.0
 10
68.886135
 20
23.772783
 30
0.0
 10
68.727718
 20
23.707426
 30
0.0
 10
68.569284
 20
23.634059
 30
0.0
 10
68.409919
 20
23.552280
 30
0.0
 10
68.248711
 20
23.461686
 30
0.0
 10
68.084748
 20
23.361884
 30
0.0
 10
67.917114
 20
23.252472
 30
0.0
 10
67.744896
 20
23.133047
 30
0.0
 10
67.567181
 20
23.003211
 30
0.0
 10
67.383053
 20
22.862563
 30
0.0
 10
67.298988
 20
22.797067
 30
0.0
 10
67.214919
 20
22.731572
 30
0.0
 10
67.130854
 20
22.666074
 30
0.0
 10
67.046785
 20
22.600579
 30
0.0
 10
66.962720
 20
22.535083
 30
0.0
 10
66.878652
 20
22.469588
 30
0.0
 10
66.794586
 20
22.404093
 30
0.0
 10
66.710520
 20
22.338597
 30
0.0
 10
66.626452
 20
22.273099
 30
0.0
 10
66.542387
 20
22.207604
 30
0.0
 10
66.458318
 20
22.142109
 30
0.0
 10
66.374253
 20
22.076613
 30
0.0
 10
66.290184
 20
22.011118
 30
0.0
 10
66.206119
 20
21.945620
 30
0.0
 10
66.122050
 20
21.880124
 30
0.0
 10
66.037985
 20
21.814629
 30
0.0
 10
66.026470
 20
21.870964
 30
0.0
 10
66.014956
 20
21.927298
 30
0.0
 10
66.003441
 20
21.983635
 30
0.0
 10
65.991926
 20
22.039969
 30
0.0
 10
65.980412
 20
22.096304
 30
0.0
 10
65.968897
 20
22.152638
 30
0.0
 10
65.957382
 20
22.208973
 30
0.0
 10
65.945868
 20
22.265310
 30
0.0
 10
65.934353
 20
22.321644
 30
0.0
 10
65.922838
 20
22.377979
 30
0.0
 10
65.911324
 20
22.434313
 30
0.0
 10
65.899809
 20
22.490647
 30
0.0
 10
65.888294
 20
22.546982
 30
0.0
 10
65.876780
 20
22.603319
 30
0.0
 10
65.865265
 20
22.659653
 30
0.0
 10
65.853750
 20
22.715988
 30
0.0
 10
65.797633
 20
22.953385
 30
0.0
 10
65.731300
 20
23.168610
 30
0.0
 10
65.655373
 20
23.361323
 30
0.0
 10
65.570487
 20
23.531189
 30
0.0
 10
65.477260
 20
23.677874
 30
0.0
 10
65.376326
 20
23.801042
 30
0.0
 10
65.268311
 20
23.900359
 30
0.0
 10
65.153839
 20
23.975481
 30
0.0
 10
65.033542
 20
24.026080
 30
0.0
 10
64.908043
 20
24.051819
 30
0.0
 10
64.777970
 20
24.052383
 30
0.0
 10
64.643954
 20
24.027378
 30
0.0
 10
64.506619
 20
23.976516
 30
0.0
 10
64.366592
 20
23.899447
 30
0.0
 10
64.224501
 20
23.795838
 30
0.0
 10
64.080974
 20
23.665352
 30
0.0
 10
64.014723
 20
23.588356
 30
0.0
 10
63.955171
 20
23.493894
 30
0.0
 10
63.901983
 20
23.377618
 30
0.0
 10
63.854827
 20
23.235181
 30
0.0
 10
63.813363
 20
23.062235
 30
0.0
 10
63.777264
 20
22.854432
 30
0.0
 10
63.746188
 20
22.607425
 30
0.0
 10
63.719800
 20
22.316869
 30
0.0
 10
63.697787
 20
21.978414
 30
0.0
 10
63.679781
 20
21.587714
 30
0.0
 10
63.665473
 20
21.140417
 30
0.0
 10
63.654522
 20
20.632183
 30
0.0
 10
63.646592
 20
20.058657
 30
0.0
 10
63.641343
 20
19.415498
 30
0.0
 10
63.638436
 20
18.698354
 30
0.0
 10
63.637589
 20
17.902880
 30
0.0
 10
63.638436
 20
17.358733
 30
0.0
 10
63.640976
 20
16.825296
 30
0.0
 10
63.645209
 20
16.305533
 30
0.0
 10
63.650995
 20
15.802393
 30
0.0
 10
63.658219
 20
15.318836
 30
0.0
 10
63.666827
 20
14.857817
 30
0.0
 10
63.676705
 20
14.422292
 30
0.0
 10
63.687768
 20
14.015215
 30
0.0
 10
63.699960
 20
13.639543
 30
0.0
 10
63.713168
 20
13.298232
 30
0.0
 10
63.727279
 20
12.994239
 30
0.0
 10
63.742237
 20
12.730520
 30
0.0
 10
63.757957
 20
12.510028
 30
0.0
 10
63.774354
 20
12.335719
 30
0.0
 10
63.791315
 20
12.210553
 30
0.0
 10
63.808757
 20
12.137483
 30
0.0
 10
63.830883
 20
12.089745
 30
0.0
 10
63.859732
 20
12.043867
 30
0.0
 10
63.894936
 20
12.000013
 30
0.0
 10
63.936132
 20
11.958357
 30
0.0
 10
63.982958
 20
11.919063
 30
0.0
 10
64.035054
 20
11.882303
 30
0.0
 10
64.092060
 20
11.848245
 30
0.0
 10
64.153613
 20
11.817054
 30
0.0
 10
64.219351
 20
11.788916
 30
0.0
 10
64.288910
 20
11.763968
 30
0.0
 10
64.361935
 20
11.742406
 30
0.0
 10
64.438059
 20
11.724372
 30
0.0
 10
64.516923
 20
11.710063
 30
0.0
 10
64.598163
 20
11.699621
 30
0.0
 10
64.681422
 20
11.693243
 30
0.0
 10
64.766334
 20
11.690985
 30
0.0
 10
64.851246
 20
11.693243
 30
0.0
 10
64.934505
 20
11.699621
 30
0.0
 10
65.015745
 20
11.710063
 30
0.0
 10
65.094609
 20
11.724372
 30
0.0
 10
65.170733
 20
11.742406
 30
0.0
 10
65.243758
 20
11.763968
 30
0.0
 10
65.313317
 20
11.788916
 30
0.0
 10
65.379055
 20
11.817054
 30
0.0
 10
65.440608
 20
11.848245
 30
0.0
 10
65.497614
 20
11.882303
 30
0.0
 10
65.549709
 20
11.919063
 30
0.0
 10
65.596536
 20
11.958357
 30
0.0
 10
65.637732
 20
12.000013
 30
0.0
 10
65.672936
 20
12.043867
 30
0.0
 10
65.701785
 20
12.089745
 30
0.0
 10
65.724055
 20
12.137472
 30
0.0
  0
LWPOLYLINE
  5
105
100
AcDbEntity
  8
0
 62
7
100
AcDbPolyline
 90
161
 70
0
 10
91.247296
 20
12.184944
 30
0.0
 10
91.295048
 20
12.289099
 30
0.0
 10
91.332775
 20
12.395680
 30
0.0
 10
91.360631
 20
12.503954
 30
0.0
 10
91.378806
 20
12.613194
 30
0.0
 10
91.387442
 20
12.722662
 30
0.0
 10
91.386595
 20
12.831634
 30
0.0
 10
91.376661
 20
12.939370
 30
0.0
 10
91.357696
 20
13.045144
 30
0.0
 10
91.329840
 20
13.148223
 30
0.0
 10
91.293278
 20
13.247875
 30
0.0
 10
91.248168
 20
13.343368
 30
0.0
 10
91.194676
 20
13.433970
 30
0.0
 10
91.132962
 20
13.518950
 30
0.0
 10
91.063191
 20
13.597580
 30
0.0
 10
90.985529
 20
13.669120
 30
0.0
 10
90.900140
 20
13.732846
 30
0.0
 10
90.846941
 20
13.753984
 30
0.0
 10
90.752905
 20
13.774587
 30
0.0
 10
90.620322
 20
13.794511
 30
0.0
 10
90.451483
 20
13.813674
 30
0.0
 10
90.248678
 20
13.831962
 30
0.0
 10
90.014202
 20
13.849263
 30
0.0
 10
89.750344
 20
13.865490
 30
0.0
 10
89.459393
 20
13.880505
 30
0.0
 10
89.143642
 20
13.894221
 30
0.0
 10
88.805382
 20
13.906525
 30
0.0
 10
88.446906
 20
13.917306
 30
0.0
 10
88.070501
 20
13.926450
 30
0.0
 10
87.678460
 20
13.933845
 30
0.0
 10
87.273076
 20
13.939376
 30
0.0
 10
86.856638
 20
13.942960
 30
0.0
 10
86.431436
 20
13.944371
 30
0.0
 10
86.171546
 20
13.944642
 30
0.0
 10
85.911656
 20
13.944910
 30
0.0
 10
85.651766
 20
13.945181
 30
0.0
 10
85.391876
 20
13.945449
 30
0.0
 10
85.131986
 20
13.945720
 30
0.0
 10
84.872096
 20
13.945991
 30
0.0
 10
84.612206
 20
13.946259
 30
0.0
 10
84.352313
 20
13.946530
 30
0.0
 10
84.092423
 20
13.946801
 30
0.0
 10
83.832533
 20
13.947069
 30
0.0
 10
83.572644
 20
13.947340
 30
0.0
 10
83.312754
 20
13.947608
 30
0.0
 10
83.052864
 20
13.947879
 30
0.0
 10
82.792974
 20
13.948150
 30
0.0
 10
82.533084
 20
13.948418
 30
0.0
 10
82.273194
 20
13.948689
 30
0.0
 10
82.268509
 20
14.429348
 30
0.0
 10
82.263824
 20
14.910009
 30
0.0
 10
82.259139
 20
15.390667
 30
0.0
 10
82.254454
 20
15.871328
 30
0.0
 10
82.249769
 20
16.351987
 30
0.0
 10
82.245084
 20
16.832648
 30
0.0
 10
82.240399
 20
17.313306
 30
0.0
 10
82.235715
 20
17.793967
 30
0.0
 10
82.231030
 20
18.274625
 30
0.0
 10
82.226345
 20
18.755287
 30
0.0
 10
82.221660
 20
19.235945
 30
0.0
 10
82.216975
 20
19.716606
 30
0.0
 10
82.212290
 20
20.197264
 30
0.0
 10
82.207605
 20
20.677926
 30
0.0
 10
82.202920
 20
21.158584
 30
0.0
 10
82.198235
 20
21.639245
 30
0.0
 10
82.193551
 20
22.119903
 30
0.0
 10
82.188866
 20
22.600564
 30
0.0
 10
82.184181
 20
23.081223
 30
0.0
 10
82.179496
 20
23.561884
 30
0.0
 10
82.174811
 20
24.042542
 30
0.0
 10
82.170126
 20
24.523203
 30
0.0
 10
82.165441
 20
25.003862
 30
0.0
 10
82.160756
 20
25.484523
 30
0.0
 10
82.156071
 20
25.965181
 30
0.0
 10
82.151387
 20
26.445842
 30
0.0
 10
82.146702
 20
26.926500
 30
0.0
 10
82.142017
 20
27.407162
 30
0.0
 10
82.137332
 20
27.887820
 30
0.0
 10
82.132647
 20
28.368481
 30
0.0
 10
82.127962
 20
28.849139
 30
0.0
 10
82.123277
 20
29.329801
 30
0.0
 10
82.082617
 20
29.335558
 30
0.0
 10
82.041960
 20
29.341315
 30
0.0
 10
82.001301
 20
29.347073
 30
0.0
 10
81.960644
 20
29.352830
 30
0.0
 10
81.919984
 20
29.358587
 30
0.0
 10
81.879327
 20
29.364345
 30
0.0
 10
81.838667
 20
29.370102
 30
0.0
 10
81.798010
 20
29.375859
 30
0.0
 10
81.757351
 20
29.381617
 30
0.0
 10
81.716694
 20
29.387374
 30
0.0
 10
81.676034
 20
29.393131
 30
0.0
 10
81.635377
 20
29.398889
 30
0.0
 10
81.594717
 20
29.404646
 30
0.0
 10
81.554060
 20
29.410403
 30
0.0
 10
81.513401
 20
29.416161
 30
0.0
 10
81.472744
 20
29.421918
 30
0.0
 10
81.218058
 20
29.454292
 30
0.0
 10
80.994710
 20
29.466004
 30
0.0
 10
80.800648
 20
29.444188
 30
0.0
 10
80.633813
 20
29.376017
 30
0.0
 10
80.492146
 20
29.248633
 30
0.0
 10
80.373593
 20
29.049184
 30
0.0
 10
80.276093
 20
28.764820
 30
0.0
 10
80.197590
 20
28.382688
 30
0.0
 10
80.136029
 20
27.889942
 30
0.0
 10
80.089350
 20
27.273727
 30
0.0
 10
80.055497
 20
26.521196
 30
0.0
 10
80.032411
 20
25.619496
 30
0.0
 10
80.018046
 20
24.555780
 30
0.0
 10
80.010313
 20
23.317194
 30
0.0
 10
80.007181
 20
21.890891
 30
0.0
 10
80.006616
 20
20.264021
 30
0.0
 10
80.006616
 20
19.728194
 30
0.0
 10
80.006616
 20
19.192367
 30
0.0
 10
80.006616
 20
18.656543
 30
0.0
 10
80.006616
 20
18.120716
 30
0.0
 10
80.006616
 20
17.584888
 30
0.0
 10
80.006616
 20
17.049061
 30
0.0
 10
80.006616
 20
16.513237
 30
0.0
 10
80.006616
 20
15.977410
 30
0.0
 10
80.006616
 20
15.441583
 30
0.0
 10
80.006616
 20
14.905756
 30
0.0
 10
80.006616
 20
14.369931
 30
0.0
 10
80.006616
 20
13.834104
 30
0.0
 10
80.006616
 20
13.298277
 30
0.0
 10
80.006616
 20
12.762450
 30
0.0
 10
80.006616
 20
12.226626
 30
0.0
 10
80.006616
 20
11.690799
 30
0.0
 10
80.349954
 20
11.690799
 30
0.0
 10
80.693291
 20
11.690799
 30
0.0
 10
81.036628
 20
11.690799
 30
0.0
 10
81.379966
 20
11.690799
 30
0.0
 10
81.723306
 20
11.690799
 30
0.0
 10
82.066644
 20
11.690799
 30
0.0
 10
82.409981
 20
11.690799
 30
0.0
 10
82.753319
 20
11.690799
 30
0.0
 10
83.096656
 20
11.690799
 30
0.0
 10
83.439993
 20
11.690799
 30
0.0
 10
83.783331
 20
11.690799
 30
0.0
 10
84.126668
 20
11.690799
 30
0.0
 10
84.470009
 20
11.690799
 30
0.0
 10
84.813346
 20
11.690799
 30
0.0
 10
85.156683
 20
11.690799
 30
0.0
 10
85.500021
 20
11.690799
 30
0.0
 10
86.377278
 20
11.691363
 30
0.0
 10
87.157899
 20
11.693621
 30
0.0
 10
87.847791
 20
11.698108
 30
0.0
 10
88.452858
 20
11.705277
 30
0.0
 10
88.979011
 20
11.715606
 30
0.0
 10
89.432155
 20
11.729633
 30
0.0
 10
89.818196
 20
11.747864
 30
0.0
 10
90.143036
 20
11.770809
 30
0.0
 10
90.412587
 20
11.798946
 30
0.0
 10
90.632754
 20
11.832813
 30
0.0
 10
90.809445
 20
11.872903
 30
0.0
 10
90.948561
 20
11.919729
 30
0.0
 10
91.056014
 20
11.973797
 30
0.0
 10
91.137706
 20
12.035615
 30
0.0
 10
91.199547
 20
12.105691
 30
0.0
 10
91.247296
 20
12.184944
 30
0.0
  0
LWPOLYLINE
  5
106
100
AcDbEntity
  8
0
 62
7
100
AcDbPolyline
 90
257
 70
0
 10
104.616693
 20
12.143808
 30
0.0
 10
104.759235
 20
12.157213
 30
0.0
 10
104.886362
 20
12.192516
 30
0.0
 10
104.999327
 20
12.242427
 30
0.0
 10
105.099372
 20
12.299642
 30
0.0
 10
105.187742
 20
12.356857
 30
0.0
 10
105.265683
 20
12.406768
 30
0.0
 10
105.334441
 20
12.442071
 30
0.0
 10
105.395262
 20
12.455449
 30
0.0
 10
105.449395
 20
12.450595
 30
0.0
 10
105.498079
 20
12.435975
 30
0.0
 10
105.542565
 20
12.411620
 30
0.0
 10
105.584094
 20
12.377533
 30
0.0
 10
105.623916
 20
12.333709
 30
0.0
 10
105.663278
 20
12.280146
 30
0.0
 10
105.703418
 20
12.216844
 30
0.0
 10
105.745590
 20
12.143805
 30
0.0
 10
105.818847
 20
12.037876
 30
0.0
 10
105.910050
 20
11.946678
 30
0.0
 10
106.016594
 20
11.870159
 30
0.0
 10
106.135876
 20
11.808260
 30
0.0
 10
106.265289
 20
11.760925
 30
0.0
 10
106.402231
 20
11.728092
 30
0.0
 10
106.544096
 20
11.709719
 30
0.0
 10
106.688283
 20
11.705711
 30
0.0
 10
106.832183
 20
11.716041
 30
0.0
 10
106.973198
 20
11.740650
 30
0.0
 10
107.108715
 20
11.779484
 30
0.0
 10
107.236139
 20
11.832477
 30
0.0
 10
107.352860
 20
11.899575
 30
0.0
 10
107.456275
 20
11.980720
 30
0.0
 10
107.543778
 20
12.075854
 30
0.0
 10
107.612767
 20
12.184919
 30
0.0
 10
107.637405
 20
12.258918
 30
0.0
 10
107.659616
 20
12.377316
 30
0.0
 10
107.679371
 20
12.537519
 30
0.0
 10
107.696615
 20
12.736937
 30
0.0
 10
107.711319
 20
12.972977
 30
0.0
 10
107.723426
 20
13.243038
 30
0.0
 10
107.732909
 20
13.544530
 30
0.0
 10
107.739739
 20
13.874863
 30
0.0
 10
107.743859
 20
14.231437
 30
0.0
 10
107.745270
 20
14.611658
 30
0.0
 10
107.743859
 20
15.012938
 30
0.0
 10
107.739598
 20
15.432676
 30
0.0
 10
107.732457
 20
15.868283
 30
0.0
 10
107.722382
 20
16.317163
 30
0.0
 10
107.709343
 20
16.776725
 30
0.0
 10
107.693313
 20
17.244370
 30
0.0
 10
107.665740
 20
17.961726
 30
0.0
 10
107.638873
 20
18.604253
 30
0.0
 10
107.612005
 20
19.177068
 30
0.0
 10
107.584404
 20
19.685282
 30
0.0
 10
107.555357
 20
20.134013
 30
0.0
 10
107.524132
 20
20.528370
 30
0.0
 10
107.490000
 20
20.873472
 30
0.0
 10
107.452236
 20
21.174431
 30
0.0
 10
107.410117
 20
21.436358
 30
0.0
 10
107.362913
 20
21.664368
 30
0.0
 10
107.309900
 20
21.863578
 30
0.0
 10
107.250354
 20
22.039100
 30
0.0
 10
107.183547
 20
22.196050
 30
0.0
 10
107.108755
 20
22.339540
 30
0.0
 10
107.025248
 20
22.474682
 30
0.0
 10
106.932307
 20
22.606593
 30
0.0
 10
106.782749
 20
22.792803
 30
0.0
 10
106.620042
 20
22.965365
 30
0.0
 10
106.443419
 20
23.124533
 30
0.0
 10
106.252112
 20
23.270568
 30
0.0
 10
106.045356
 20
23.403729
 30
0.0
 10
105.822380
 20
23.524275
 30
0.0
 10
105.582426
 20
23.632468
 30
0.0
 10
105.324721
 20
23.728559
 30
0.0
 10
105.048499
 20
23.812813
 30
0.0
 10
104.752995
 20
23.885491
 30
0.0
 10
104.437442
 20
23.946846
 30
0.0
 10
104.101076
 20
23.997138
 30
0.0
 10
103.743125
 20
24.036630
 30
0.0
 10
103.362825
 20
24.065577
 30
0.0
 10
102.959408
 20
24.084232
 30
0.0
 10
102.532112
 20
24.092868
 30
0.0
 10
102.092850
 20
24.092586
 30
0.0
 10
101.688781
 20
24.083583
 30
0.0
 10
101.318966
 20
24.065577
 30
0.0
 10
100.982453
 20
24.038202
 30
0.0
 10
100.678299
 20
24.001109
 30
0.0
 10
100.405554
 20
23.953953
 30
0.0
 10
100.163277
 20
23.896376
 30
0.0
 10
99.950518
 20
23.828028
 30
0.0
 10
99.766334
 20
23.748560
 30
0.0
 10
99.609777
 20
23.657616
 30
0.0
 10
99.479899
 20
23.554842
 30
0.0
 10
99.375759
 20
23.439893
 30
0.0
 10
99.296409
 20
23.312408
 30
0.0
 10
99.240899
 20
23.172042
 30
0.0
 10
99.208288
 20
23.018437
 30
0.0
 10
99.197620
 20
22.851243
 30
0.0
 10
99.202107
 20
22.702616
 30
0.0
 10
99.218025
 20
22.570121
 30
0.0
 10
99.248976
 20
22.452640
 30
0.0
 10
99.298588
 20
22.349068
 30
0.0
 10
99.370490
 20
22.258285
 30
0.0
 10
99.468299
 20
22.179181
 30
0.0
 10
99.595649
 20
22.110646
 30
0.0
 10
99.756158
 20
22.051566
 30
0.0
 10
99.953451
 20
22.000828
 30
0.0
 10
100.191155
 20
21.957321
 30
0.0
 10
100.472895
 20
21.919929
 30
0.0
 10
100.802290
 20
21.887544
 30
0.0
 10
101.182972
 20
21.859051
 30
0.0
 10
101.618562
 20
21.833340
 30
0.0
 10
102.112682
 20
21.809295
 30
0.0
 10
102.668962
 20
21.785814
 30
0.0
 10
103.091894
 20
21.766284
 30
0.0
 10
103.469601
 20
21.742408
 30
0.0
 10
103.804570
 20
21.712657
 30
0.0
 10
104.099287
 20
21.675482
 30
0.0
 10
104.356241
 20
21.629333
 30
0.0
 10
104.577924
 20
21.572666
 30
0.0
 10
104.766824
 20
21.503934
 30
0.0
 10
104.925424
 20
21.421590
 30
0.0
 10
105.056218
 20
21.324087
 30
0.0
 10
105.161692
 20
21.209881
 30
0.0
 10
105.244336
 20
21.077420
 30
0.0
 10
105.306636
 20
20.925163
 30
0.0
 10
105.351083
 20
20.751560
 30
0.0
 10
105.380166
 20
20.555069
 30
0.0
 10
105.396366
 20
20.334139
 30
0.0
 10
105.402180
 20
20.087226
 30
0.0
 10
105.402451
 20
20.038718
 30
0.0
 10
105.402719
 20
19.990212
 30
0.0
 10
105.402990
 20
19.941704
 30
0.0
 10
105.403258
 20
19.893198
 30
0.0
 10
105.403529
 20
19.844690
 30
0.0
 10
105.403800
 20
19.796184
 30
0.0
 10
105.404068
 20
19.747676
 30
0.0
 10
105.404339
 20
19.699170
 30
0.0
 10
105.404610
 20
19.650662
 30
0.0
 10
105.404878
 20
19.602156
 30
0.0
 10
105.405149
 20
19.553648
 30
0.0
 10
105.405417
 20
19.505143
 30
0.0
 10
105.405688
 20
19.456634
 30
0.0
 10
105.405959
 20
19.408129
 30
0.0
 10
105.406227
 20
19.359620
 30
0.0
 10
105.406498
 20
19.311115
 30
0.0
 10
105.220414
 20
19.311115
 30
0.0
 10
105.034328
 20
19.311115
 30
0.0
 10
104.848245
 20
19.311115
 30
0.0
 10
104.662159
 20
19.311115
 30
0.0
 10
104.476076
 20
19.311115
 30
0.0
 10
104.289993
 20
19.311115
 30
0.0
 10
104.103907
 20
19.311115
 30
0.0
 10
103.917823
 20
19.311115
 30
0.0
 10
103.731740
 20
19.311115
 30
0.0
 10
103.545654
 20
19.311115
 30
0.0
 10
103.359571
 20
19.311115
 30
0.0
 10
103.173485
 20
19.311115
 30
0.0
 10
102.987402
 20
19.311115
 30
0.0
 10
102.801318
 20
19.311115
 30
0.0
 10
102.615232
 20
19.311115
 30
0.0
 10
102.429149
 20
19.311115
 30
0.0
 10
101.822058
 20
19.307023
 30
0.0
 10
101.268234
 20
19.293984
 30
0.0
 10
100.764509
 20
19.270926
 30
0.0
 10
100.307730
 20
19.236783
 30
0.0
 10
99.894729
 20
19.190462
 30
0.0
 10
99.522351
 20
19.130885
 30
0.0
 10
99.187429
 20
19.056965
 30
0.0
 10
98.886809
 20
18.967619
 30
0.0
 10
98.617326
 20
18.861772
 30
0.0
 10
98.375820
 20
18.738334
 30
0.0
 10
98.159130
 20
18.596226
 30
0.0
 10
97.964094
 20
18.434363
 30
0.0
 10
97.787553
 20
18.251670
 30
0.0
 10
97.626348
 20
18.047056
 30
0.0
 10
97.477315
 20
17.819446
 30
0.0
 10
97.337293
 20
17.567752
 30
0.0
 10
97.278650
 20
17.447808
 30
0.0
 10
97.225344
 20
17.324826
 30
0.0
 10
97.177301
 20
17.198289
 30
0.0
 10
97.134457
 20
17.067668
 30
0.0
 10
97.096741
 20
16.932439
 30
0.0
 10
97.064088
 20
16.792075
 30
0.0
 10
97.036430
 20
16.646054
 30
0.0
 10
97.013683
 20
16.493846
 30
0.0
 10
96.995790
 20
16.334932
 30
0.0
 10
96.982695
 20
16.168782
 30
0.0
 10
96.974313
 20
15.994874
 30
0.0
 10
96.970588
 20
15.812683
 30
0.0
 10
96.971434
 20
15.621683
 30
0.0
 10
96.976796
 20
15.421348
 30
0.0
 10
96.986590
 20
15.211154
 30
0.0
 10
97.000757
 20
14.990575
 30
0.0
 10
97.021134
 20
14.728359
 30
0.0
 10
97.043090
 20
14.490638
 30
0.0
 10
97.067531
 20
14.275206
 30
0.0
 10
97.095358
 20
14.079844
 30
0.0
 10
97.127478
 20
13.902343
 30
0.0
 10
97.164802
 20
13.740488
 30
0.0
 10
97.208230
 20
13.592068
 30
0.0
 10
97.258674
 20
13.454874
 30
0.0
 10
97.317041
 20
13.326686
 30
0.0
 10
97.384235
 20
13.205299
 30
0.0
 10
97.461166
 20
13.088496
 30
0.0
 10
97.548740
 20
12.974066
 30
0.0
 10
97.647867
 20
12.859797
 30
0.0
 10
97.759449
 20
12.743474
 30
0.0
 10
97.884395
 20
12.622888
 30
0.0
 10
98.023615
 20
12.495826
 30
0.0
 10
98.174686
 20
12.362931
 30
0.0
 10
98.315046
 20
12.245461
 30
0.0
 10
98.448591
 20
12.142473
 30
0.0
 10
98.579201
 20
12.053017
 30
0.0
 10
98.710764
 20
11.976148
 30
0.0
 10
98.847171
 20
11.910924
 30
0.0
 10
98.992306
 20
11.856398
 30
0.0
 10
99.150057
 20
11.811627
 30
0.0
 10
99.324312
 20
11.775660
 30
0.0
 10
99.518955
 20
11.747551
 30
0.0
 10
99.737878
 20
11.726356
 30
0.0
 10
99.984964
 20
11.711144
 30
0.0
 10
100.264101
 20
11.700956
 30
0.0
 10
100.579180
 20
11.694860
 30
0.0
 10
100.934083
 20
11.691897
 30
0.0
 10
101.332699
 20
11.691050
 30
0.0
 10
101.636254
 20
11.692743
 30
0.0
 10
101.925224
 20
11.697739
 30
0.0
 10
102.199931
 20
11.706149
 30
0.0
 10
102.460685
 20
11.717974
 30
0.0
 10
102.707801
 20
11.733299
 30
0.0
 10
102.941603
 20
11.752151
 30
0.0
 10
103.162402
 20
11.774559
 30
0.0
 10
103.370515
 20
11.800580
 30
0.0
 10
103.566256
 20
11.836640
 30
0.0
 10
103.749946
 20
11.885529
 30
0.0
 10
103.921899
 20
11.941813
 30
0.0
 10
104.082432
 20
12.000055
 30
0.0
 10
104.231858
 20
12.054817
 30
0.0
 10
104.370497
 20
12.100662
 30
0.0
 10
104.498662
 20
12.132158
 30
0.0
 10
104.616673
 20
12.143870
 30
0.0
 10
104.616673
 20
12.143870
 30
0.0
 10
104.616673
 20
12.143870
 30
0.0
 10
104.616673
 20
12.143870
 30
0.0
 10
104.616673
 20
12.143870
 30
0.0
 10
104.616673
 20
12.143870
 30
0.0
 10
104.616673
 20
12.143870
 30
0.0
 10
104.616673
 20
12.143870
 30
0.0
 10
104.616673
 20
12.143870
 30
0.0
 10
104.616676
 20
12.143870
 30
0.0
 10
104.616676
 20
12.143870
 30
0.0
 10
104.616676
 20
12.143870
 30
0.0
 10
104.616676
 20
12.143870
 30
0.0
 10
104.616676
 20
12.143870
 30
0.0
 10
104.616676
 20
12.143870
 30
0.0
 10
104.616676
 20
12.143870
 30
0.0
 10
104.616693
 20
12.143808
 30
0.0
  0
LWPOLYLINE
  5
107
100
AcDbEntity
  8
0
 62
7
100
AcDbPolyline
 90
97
 70
0
 10
99.832583
 20
13.957627
 30
0.0
 10
99.741948
 20
13.996777
 30
0.0
 10
99.659813
 20
14.038371
 30
0.0
 10
99.585817
 20
14.083191
 30
0.0
 10
99.519590
 20
14.132021
 30
0.0
 10
99.460770
 20
14.185649
 30
0.0
 10
99.408985
 20
14.244856
 30
0.0
 10
99.363871
 20
14.310428
 30
0.0
 10
99.325063
 20
14.383145
 30
0.0
 10
99.292193
 20
14.463793
 30
0.0
 10
99.264902
 20
14.553159
 30
0.0
 10
99.242804
 20
14.652024
 30
0.0
 10
99.225560
 20
14.761173
 30
0.0
 10
99.212775
 20
14.881392
 30
0.0
 10
99.204111
 20
15.013460
 30
0.0
 10
99.199172
 20
15.158167
 30
0.0
 10
99.197479
 20
15.316293
 30
0.0
 10
99.202474
 20
15.597584
 30
0.0
 10
99.219718
 20
15.847684
 30
0.0
 10
99.252546
 20
16.068229
 30
0.0
 10
99.304325
 20
16.260868
 30
0.0
 10
99.378412
 20
16.427241
 30
0.0
 10
99.478169
 20
16.568993
 30
0.0
 10
99.606952
 20
16.687763
 30
0.0
 10
99.768118
 20
16.785198
 30
0.0
 10
99.965030
 20
16.862936
 30
0.0
 10
100.201041
 20
16.922626
 30
0.0
 10
100.479510
 20
16.965907
 30
0.0
 10
100.803797
 20
16.994423
 30
0.0
 10
101.177259
 20
17.009804
 30
0.0
 10
101.603257
 20
17.013727
 30
0.0
 10
102.085146
 20
17.007800
 30
0.0
 10
102.626284
 20
16.993689
 30
0.0
 10
102.791220
 20
16.988581
 30
0.0
 10
102.956157
 20
16.983473
 30
0.0
 10
103.121093
 20
16.978365
 30
0.0
 10
103.286029
 20
16.973256
 30
0.0
 10
103.450966
 20
16.968148
 30
0.0
 10
103.615902
 20
16.963068
 30
0.0
 10
103.780838
 20
16.957960
 30
0.0
 10
103.945775
 20
16.952852
 30
0.0
 10
104.110711
 20
16.947744
 30
0.0
 10
104.275647
 20
16.942635
 30
0.0
 10
104.440584
 20
16.937527
 30
0.0
 10
104.605520
 20
16.932419
 30
0.0
 10
104.770456
 20
16.927311
 30
0.0
 10
104.935393
 20
16.922231
 30
0.0
 10
105.100329
 20
16.917122
 30
0.0
 10
105.265265
 20
16.912014
 30
0.0
 10
105.270514
 20
16.849787
 30
0.0
 10
105.275764
 20
16.787560
 30
0.0
 10
105.281013
 20
16.725333
 30
0.0
 10
105.286262
 20
16.663106
 30
0.0
 10
105.291512
 20
16.600878
 30
0.0
 10
105.296761
 20
16.538651
 30
0.0
 10
105.302010
 20
16.476424
 30
0.0
 10
105.307260
 20
16.414197
 30
0.0
 10
105.312509
 20
16.351970
 30
0.0
 10
105.317758
 20
16.289742
 30
0.0
 10
105.323008
 20
16.227515
 30
0.0
 10
105.328257
 20
16.165288
 30
0.0
 10
105.333506
 20
16.103061
 30
0.0
 10
105.338756
 20
16.040834
 30
0.0
 10
105.344005
 20
15.978607
 30
0.0
 10
105.349254
 20
15.916379
 30
0.0
 10
105.361898
 20
15.751130
 30
0.0
 10
105.369433
 20
15.603333
 30
0.0
 10
105.370562
 20
15.471072
 30
0.0
 10
105.363648
 20
15.352429
 30
0.0
 10
105.347364
 20
15.245492
 30
0.0
 10
105.320270
 20
15.148343
 30
0.0
 10
105.280968
 20
15.059062
 30
0.0
 10
105.228023
 20
14.975738
 30
0.0
 10
105.160010
 20
14.896454
 30
0.0
 10
105.075507
 20
14.819291
 30
0.0
 10
104.973086
 20
14.742338
 30
0.0
 10
104.851327
 20
14.663674
 30
0.0
 10
104.708802
 20
14.581384
 30
0.0
 10
104.544086
 20
14.493553
 30
0.0
 10
104.355753
 20
14.398264
 30
0.0
 10
104.142385
 20
14.293602
 30
0.0
 10
103.886147
 20
14.177758
 30
0.0
 10
103.619958
 20
14.073923
 30
0.0
 10
103.345573
 20
13.982229
 30
0.0
 10
103.064753
 20
13.902814
 30
0.0
 10
102.779251
 20
13.835817
 30
0.0
 10
102.490829
 20
13.781374
 30
0.0
 10
102.201246
 20
13.739619
 30
0.0
 10
101.912256
 20
13.710691
 30
0.0
 10
101.625623
 20
13.694718
 30
0.0
 10
101.343099
 20
13.691867
 30
0.0
 10
101.066445
 20
13.702253
 30
0.0
 10
100.797416
 20
13.726016
 30
0.0
 10
100.537778
 20
13.763278
 30
0.0
 10
100.289278
 20
13.814188
 30
0.0
 10
100.053682
 20
13.878885
 30
0.0
 10
99.832583
 20
13.957627
 30
0.0
  0
LWPOLYLINE
  5
108
100
AcDbEntity
  8
0
 62
7
100
AcDbPolyline
 90
289
 70
0
 10
115.732664
 20
12.396069
 30
0.0
 10
115.743728
 20
12.440133
 30
0.0
 10
115.754791
 20
12.484196
 30
0.0
 10
115.765854
 20
12.528259
 30
0.0
 10
115.776917
 20
12.572323
 30
0.0
 10
115.787980
 20
12.616386
 30
0.0
 10
115.799043
 20
12.660449
 30
0.0
 10
115.810106
 20
12.704513
 30
0.0
 10
115.821169
 20
12.748576
 30
0.0
 10
115.832232
 20
12.792639
 30
0.0
 10
115.843296
 20
12.836703
 30
0.0
 10
115.854359
 20
12.880766
 30
0.0
 10
115.865422
 20
12.924830
 30
0.0
 10
115.876485
 20
12.968893
 30
0.0
 10
115.887548
 20
13.012956
 30
0.0
 10
115.898611
 20
13.057020
 30
0.0
 10
115.909674
 20
13.101083
 30
0.0
 10
115.962041
 20
13.057020
 30
0.0
 10
116.014407
 20
13.012956
 30
0.0
 10
116.066773
 20
12.968893
 30
0.0
 10
116.119140
 20
12.924830
 30
0.0
 10
116.171506
 20
12.880766
 30
0.0
 10
116.223872
 20
12.836703
 30
0.0
 10
116.276239
 20
12.792639
 30
0.0
 10
116.328605
 20
12.748576
 30
0.0
 10
116.380971
 20
12.704513
 30
0.0
 10
116.433338
 20
12.660449
 30
0.0
 10
116.485704
 20
12.616386
 30
0.0
 10
116.538070
 20
12.572323
 30
0.0
 10
116.590437
 20
12.528259
 30
0.0
 10
116.642803
 20
12.484196
 30
0.0
 10
116.695169
 20
12.440133
 30
0.0
 10
116.747536
 20
12.396069
 30
0.0
 10
116.880770
 20
12.286903
 30
0.0
 10
117.008427
 20
12.189381
 30
0.0
 10
117.133170
 20
12.102863
 30
0.0
 10
117.257647
 20
12.026717
 30
0.0
 10
117.384511
 20
11.960310
 30
0.0
 10
117.516422
 20
11.903004
 30
0.0
 10
117.656029
 20
11.854169
 30
0.0
 10
117.805987
 20
11.813167
 30
0.0
 10
117.968954
 20
11.779366
 30
0.0
 10
118.147578
 20
11.752131
 30
0.0
 10
118.344518
 20
11.730823
 30
0.0
 10
118.562428
 20
11.714821
 30
0.0
 10
118.803959
 20
11.703476
 30
0.0
 10
119.071768
 20
11.696167
 30
0.0
 10
119.368511
 20
11.692244
 30
0.0
 10
119.696837
 20
11.691115
 30
0.0
 10
120.068667
 20
11.691397
 30
0.0
 10
120.396102
 20
11.693655
 30
0.0
 10
120.684157
 20
11.699497
 30
0.0
 10
120.937867
 20
11.710842
 30
0.0
 10
121.162253
 20
11.729497
 30
0.0
 10
121.362340
 20
11.757324
 30
0.0
 10
121.543157
 20
11.796147
 30
0.0
 10
121.709725
 20
11.847796
 30
0.0
 10
121.867069
 20
11.914099
 30
0.0
 10
122.020220
 20
11.996886
 30
0.0
 10
122.174198
 20
12.097989
 30
0.0
 10
122.334028
 20
12.219234
 30
0.0
 10
122.504742
 20
12.362457
 30
0.0
 10
122.691358
 20
12.529484
 30
0.0
 10
122.898905
 20
12.722149
 30
0.0
 10
123.132407
 20
12.942276
 30
0.0
 10
123.215166
 20
13.020469
 30
0.0
 10
123.297922
 20
13.098661
 30
0.0
 10
123.380681
 20
13.176854
 30
0.0
 10
123.463439
 20
13.255046
 30
0.0
 10
123.546195
 20
13.333239
 30
0.0
 10
123.628954
 20
13.411431
 30
0.0
 10
123.711713
 20
13.489624
 30
0.0
 10
123.794469
 20
13.567814
 30
0.0
 10
123.877228
 20
13.646006
 30
0.0
 10
123.959987
 20
13.724199
 30
0.0
 10
124.042746
 20
13.802391
 30
0.0
 10
124.125502
 20
13.880584
 30
0.0
 10
124.208261
 20
13.958776
 30
0.0
 10
124.291019
 20
14.036969
 30
0.0
 10
124.373775
 20
14.115161
 30
0.0
 10
124.456534
 20
14.193353
 30
0.0
 10
124.456534
 20
14.414043
 30
0.0
 10
124.456534
 20
14.634732
 30
0.0
 10
124.456534
 20
14.855421
 30
0.0
 10
124.456534
 20
15.076111
 30
0.0
 10
124.456534
 20
15.296800
 30
0.0
 10
124.456534
 20
15.517489
 30
0.0
 10
124.456534
 20
15.738179
 30
0.0
 10
124.456534
 20
15.958865
 30
0.0
 10
124.456534
 20
16.179554
 30
0.0
 10
124.456534
 20
16.400244
 30
0.0
 10
124.456534
 20
16.620933
 30
0.0
 10
124.456534
 20
16.841622
 30
0.0
 10
124.456534
 20
17.062312
 30
0.0
 10
124.456534
 20
17.283001
 30
0.0
 10
124.456534
 20
17.503690
 30
0.0
 10
124.456534
 20
17.724380
 30
0.0
 10
124.456534
 20
17.945069
 30
0.0
 10
124.456534
 20
18.165758
 30
0.0
 10
124.456534
 20
18.386448
 30
0.0
 10
124.456534
 20
18.607137
 30
0.0
 10
124.456534
 20
18.827826
 30
0.0
 10
124.456534
 20
19.048516
 30
0.0
 10
124.456534
 20
19.269205
 30
0.0
 10
124.456534
 20
19.489891
 30
0.0
 10
124.456534
 20
19.710581
 30
0.0
 10
124.456534
 20
19.931270
 30
0.0
 10
124.456534
 20
20.151959
 30
0.0
 10
124.456534
 20
20.372649
 30
0.0
 10
124.456534
 20
20.593338
 30
0.0
 10
124.456534
 20
20.814027
 30
0.0
 10
124.456534
 20
21.034716
 30
0.0
 10
124.456534
 20
21.255406
 30
0.0
 10
124.394798
 20
21.319625
 30
0.0
 10
124.333062
 20
21.383848
 30
0.0
 10
124.271326
 20
21.448068
 30
0.0
 10
124.209590
 20
21.512287
 30
0.0
 10
124.147854
 20
21.576510
 30
0.0
 10
124.086118
 20
21.640729
 30
0.0
 10
124.024382
 20
21.704952
 30
0.0
 10
123.962645
 20
21.769172
 30
0.0
 10
123.900909
 20
21.833391
 30
0.0
 10
123.839173
 20
21.897614
 30
0.0
 10
123.777437
 20
21.961833
 30
0.0
 10
123.715701
 20
22.026053
 30
0.0
 10
123.653965
 20
22.090276
 30
0.0
 10
123.592229
 20
22.154495
 30
0.0
 10
123.530493
 20
22.218718
 30
0.0
 10
123.468757
 20
22.282937
 30
0.0
 10
123.197603
 20
22.558268
 30
0.0
 10
122.938083
 20
22.807033
 30
0.0
 10
122.687817
 20
23.030214
 30
0.0
 10
122.444423
 20
23.228797
 30
0.0
 10
122.205527
 20
23.403763
 30
0.0
 10
121.968751
 20
23.556101
 30
0.0
 10
121.731710
 20
23.686795
 30
0.0
 10
121.492030
 20
23.796825
 30
0.0
 10
121.247329
 20
23.887176
 30
0.0
 10
120.995228
 20
23.958835
 30
0.0
 10
120.733352
 20
24.012785
 30
0.0
 10
120.459319
 20
24.050010
 30
0.0
 10
120.170750
 20
24.071487
 30
0.0
 10
119.865264
 20
24.078204
 30
0.0
 10
119.540488
 20
24.071148
 30
0.0
 10
119.194038
 20
24.051308
 30
0.0
 10
118.977438
 20
24.033782
 30
0.0
 10
118.773211
 20
24.013293
 30
0.0
 10
118.580789
 20
23.989699
 30
0.0
 10
118.399594
 20
23.962775
 30
0.0
 10
118.229055
 20
23.932371
 30
0.0
 10
118.068601
 20
23.898290
 30
0.0
 10
117.917660
 20
23.860354
 30
0.0
 10
117.775657
 20
23.818376
 30
0.0
 10
117.642022
 20
23.772173
 30
0.0
 10
117.516182
 20
23.721565
 30
0.0
 10
117.397561
 20
23.666368
 30
0.0
 10
117.285592
 20
23.606396
 30
0.0
 10
117.179702
 20
23.541468
 30
0.0
 10
117.079313
 20
23.471398
 30
0.0
 10
116.983860
 20
23.396008
 30
0.0
 10
116.892764
 20
23.315112
 30
0.0
 10
116.824828
 20
23.252232
 30
0.0
 10
116.756826
 20
23.191114
 30
0.0
 10
116.689197
 20
23.132079
 30
0.0
 10
116.622376
 20
23.075437
 30
0.0
 10
116.556798
 20
23.021507
 30
0.0
 10
116.492901
 20
22.970609
 30
0.0
 10
116.431116
 20
22.923057
 30
0.0
 10
116.371886
 20
22.879163
 30
0.0
 10
116.315642
 20
22.839251
 30
0.0
 10
116.262825
 20
22.803632
 30
0.0
 10
116.213865
 20
22.772627
 30
0.0
 10
116.169203
 20
22.746549
 30
0.0
 10
116.129271
 20
22.725721
 30
0.0
 10
116.094510
 20
22.710453
 30
0.0
 10
116.065351
 20
22.701055
 30
0.0
 10
116.042237
 20
22.697866
 30
0.0
 10
116.022538
 20
22.711469
 30
0.0
 10
116.003375
 20
22.751421
 30
0.0
 10
115.984861
 20
22.816366
 30
0.0
 10
115.967109
 20
22.904955
 30
0.0
 10
115.950204
 20
23.015843
 30
0.0
 10
115.934259
 20
23.147686
 30
0.0
 10
115.919357
 20
23.299135
 30
0.0
 10
115.905585
 20
23.468846
 30
0.0
 10
115.893082
 20
23.655477
 30
0.0
 10
115.881906
 20
23.857678
 30
0.0
 10
115.872198
 20
24.074103
 30
0.0
 10
115.864013
 20
24.303409
 30
0.0
 10
115.857494
 20
24.544249
 30
0.0
 10
115.852696
 20
24.795280
 30
0.0
 10
115.849761
 20
25.055150
 30
0.0
 10
115.848632
 20
25.322519
 30
0.0
 10
115.845810
 20
25.785081
 30
0.0
 10
115.837343
 20
26.205680
 30
0.0
 10
115.822611
 20
26.585988
 30
0.0
 10
115.801078
 20
26.927680
 30
0.0
 10
115.772249
 20
27.232427
 30
0.0
 10
115.735594
 20
27.501901
 30
0.0
 10
115.690591
 20
27.737774
 30
0.0
 10
115.636726
 20
27.941719
 30
0.0
 10
115.573474
 20
28.115407
 30
0.0
 10
115.500322
 20
28.260511
 30
0.0
 10
115.416751
 20
28.378703
 30
0.0
 10
115.322237
 20
28.471656
 30
0.0
 10
115.216268
 20
28.541043
 30
0.0
 10
115.098319
 20
28.588533
 30
0.0
 10
114.967879
 20
28.615795
 30
0.0
 10
114.824423
 20
28.624516
 30
0.0
 10
114.786799
 20
28.622258
 30
0.0
 10
114.745719
 20
28.615513
 30
0.0
 10
114.701582
 20
28.604535
 30
0.0
 10
114.654798
 20
28.589577
 30
0.0
 10
114.605768
 20
28.570837
 30
0.0
 10
114.554900
 20
28.548570
 30
0.0
 10
114.502599
 20
28.522972
 30
0.0
 10
114.449267
 20
28.494296
 30
0.0
 10
114.395312
 20
28.462763
 30
0.0
 10
114.341140
 20
28.428597
 30
0.0
 10
114.287153
 20
28.392027
 30
0.0
 10
114.233757
 20
28.353281
 30
0.0
 10
114.181359
 20
28.312584
 30
0.0
 10
114.130365
 20
28.270169
 30
0.0
 10
114.081176
 20
28.226258
 30
0.0
 10
114.034200
 20
28.181080
 30
0.0
 10
113.966408
 20
28.099735
 30
0.0
 10
113.905713
 20
27.994108
 30
0.0
 10
113.851738
 20
27.857399
 30
0.0
 10
113.804107
 20
27.682819
 30
0.0
 10
113.762449
 20
27.463575
 30
0.0
 10
113.726381
 20
27.192867
 30
0.0
 10
113.695531
 20
26.863906
 30
0.0
 10
113.669510
 20
26.469896
 30
0.0
 10
113.647976
 20
26.004046
 30
0.0
 10
113.630535
 20
25.459560
 30
0.0
 10
113.616791
 20
24.829643
 30
0.0
 10
113.606405
 20
24.107504
 30
0.0
 10
113.598983
 20
23.286345
 30
0.0
 10
113.594128
 20
22.359377
 30
0.0
 10
113.591588
 20
21.319803
 30
0.0
 10
113.590742
 20
20.160829
 30
0.0
 10
113.591588
 20
19.386685
 30
0.0
 10
113.594128
 20
18.629706
 30
0.0
 10
113.598362
 20
17.894004
 30
0.0
 10
113.604147
 20
17.183690
 30
0.0
 10
113.611372
 20
16.502882
 30
0.0
 10
113.619980
 20
15.855690
 30
0.0
 10
113.629858
 20
15.246226
 30
0.0
 10
113.640921
 20
14.678609
 30
0.0
 10
113.653113
 20
14.156947
 30
0.0
 10
113.666321
 20
13.685356
 30
0.0
 10
113.680432
 20
13.267952
 30
0.0
 10
113.695390
 20
12.908844
 30
0.0
 10
113.711109
 20
12.612147
 30
0.0
 10
113.727507
 20
12.381972
 30
0.0
 10
113.744468
 20
12.222438
 30
0.0
 10
113.761909
 20
12.137655
 30
0.0
 10
113.784346
 20
12.089172
 30
0.0
 10
113.813517
 20
12.042738
 30
0.0
 10
113.849077
 20
11.998506
 30
0.0
 10
113.890704
 20
11.956621
 30
0.0
 10
113.938073
 20
11.917231
 30
0.0
 10
113.990851
 20
11.880486
 30
0.0
 10
114.048712
 20
11.846537
 30
0.0
 10
114.111332
 20
11.815530
 30
0.0
 10
114.178382
 20
11.787618
 30
0.0
 10
114.249536
 20
11.762952
 30
0.0
 10
114.324466
 20
11.741672
 30
0.0
 10
114.402845
 20
11.723920
 30
0.0
 10
114.484342
 20
11.709866
 30
0.0
 10
114.568636
 20
11.699649
 30
0.0
 10
114.655397
 20
11.693412
 30
0.0
 10
114.744300
 20
11.691154
 30
0.0
 10
114.857646
 20
11.693130
 30
0.0
 10
114.961893
 20
11.699085
 30
0.0
 10
115.057515
 20
11.709414
 30
0.0
 10
115.144990
 20
11.724457
 30
0.0
 10
115.224791
 20
11.744551
 30
0.0
 10
115.297396
 20
11.770035
 30
0.0
 10
115.363281
 20
11.801252
 30
0.0
 10
115.422923
 20
11.838542
 30
0.0
 10
115.476793
 20
11.882247
 30
0.0
 10
115.525372
 20
11.932706
 30
0.0
 10
115.569131
 20
11.990256
 30
0.0
 10
115.608552
 20
12.055238
 30
0.0
 10
115.644106
 20
12.127992
 30
0.0
 10
115.676274
 20
12.208857
 30
0.0
 10
115.705526
 20
12.298175
 30
0.0
 10
115.732664
 20
12.396069
 30
0.0
  0
LWPOLYLINE
  5
109
100
AcDbEntity
  8
0
 62
7
100
AcDbPolyline
 90
113
 70
0
 10
117.285149
 20
14.802062
 30
0.0
 10
117.195371
 20
14.873026
 30
0.0
 10
117.105591
 20
14.943994
 30
0.0
 10
117.015813
 20
15.014959
 30
0.0
 10
116.926035
 20
15.085924
 30
0.0
 10
116.836258
 20
15.156891
 30
0.0
 10
116.746477
 20
15.227856
 30
0.0
 10
116.656699
 20
15.298824
 30
0.0
 10
116.566922
 20
15.369788
 30
0.0
 10
116.477144
 20
15.440753
 30
0.0
 10
116.387364
 20
15.511721
 30
0.0
 10
116.297586
 20
15.582686
 30
0.0
 10
116.207808
 20
15.653650
 30
0.0
 10
116.118030
 20
15.724618
 30
0.0
 10
116.028250
 20
15.795583
 30
0.0
 10
115.938472
 20
15.866550
 30
0.0
 10
115.848694
 20
15.937515
 30
0.0
 10
115.848694
 20
16.050384
 30
0.0
 10
115.848694
 20
16.163256
 30
0.0
 10
115.848694
 20
16.276125
 30
0.0
 10
115.848694
 20
16.388994
 30
0.0
 10
115.848694
 20
16.501866
 30
0.0
 10
115.848694
 20
16.614735
 30
0.0
 10
115.848694
 20
16.727607
 30
0.0
 10
115.848694
 20
16.840477
 30
0.0
 10
115.848694
 20
16.953346
 30
0.0
 10
115.848694
 20
17.066218
 30
0.0
 10
115.848694
 20
17.179087
 30
0.0
 10
115.848694
 20
17.291956
 30
0.0
 10
115.848694
 20
17.404828
 30
0.0
 10
115.848694
 20
17.517697
 30
0.0
 10
115.848694
 20
17.630569
 30
0.0
 10
115.848694
 20
17.743438
 30
0.0
 10
115.848977
 20
18.061463
 30
0.0
 10
115.851234
 20
18.341543
 30
0.0
 10
115.857472
 20
18.587994
 30
0.0
 10
115.869607
 20
18.805141
 30
0.0
 10
115.889617
 20
18.997306
 30
0.0
 10
115.919436
 20
19.168810
 30
0.0
 10
115.961033
 20
19.323976
 30
0.0
 10
116.016374
 20
19.467124
 30
0.0
 10
116.087418
 20
19.602580
 30
0.0
 10
116.176126
 20
19.734665
 30
0.0
 10
116.284457
 20
19.867697
 30
0.0
 10
116.414378
 20
20.006002
 30
0.0
 10
116.567845
 20
20.153904
 30
0.0
 10
116.746822
 20
20.315719
 30
0.0
 10
116.953270
 20
20.495774
 30
0.0
 10
117.189148
 20
20.698387
 30
0.0
 10
117.495656
 20
20.949559
 30
0.0
 10
117.794111
 20
21.170477
 30
0.0
 10
118.085136
 20
21.361202
 30
0.0
 10
118.369337
 20
21.521793
 30
0.0
 10
118.647334
 20
21.652312
 30
0.0
 10
118.919738
 20
21.752817
 30
0.0
 10
119.187166
 20
21.823370
 30
0.0
 10
119.450228
 20
21.864029
 30
0.0
 10
119.709542
 20
21.874867
 30
0.0
 10
119.965724
 20
21.855930
 30
0.0
 10
120.219385
 20
21.807274
 30
0.0
 10
120.471139
 20
21.728969
 30
0.0
 10
120.721600
 20
21.621070
 30
0.0
 10
120.971386
 20
21.483642
 30
0.0
 10
121.221108
 20
21.316741
 30
0.0
 10
121.471382
 20
21.120430
 30
0.0
 10
121.622078
 20
20.992552
 30
0.0
 10
121.754248
 20
20.875653
 30
0.0
 10
121.869107
 20
20.765033
 30
0.0
 10
121.967873
 20
20.655988
 30
0.0
 10
122.051755
 20
20.543819
 30
0.0
 10
122.121975
 20
20.423821
 30
0.0
 10
122.179740
 20
20.291295
 30
0.0
 10
122.226268
 20
20.141534
 30
0.0
 10
122.262773
 20
19.969841
 30
0.0
 10
122.290459
 20
19.771510
 30
0.0
 10
122.310553
 20
19.541840
 30
0.0
 10
122.324269
 20
19.276131
 30
0.0
 10
122.332821
 20
18.969680
 30
0.0
 10
122.337421
 20
18.617785
 30
0.0
 10
122.339396
 20
18.215743
 30
0.0
 10
122.339679
 20
17.758850
 30
0.0
 10
122.339396
 20
17.301958
 30
0.0
 10
122.337421
 20
16.899915
 30
0.0
 10
122.332821
 20
16.548021
 30
0.0
 10
122.324269
 20
16.241570
 30
0.0
 10
122.310553
 20
15.975861
 30
0.0
 10
122.290459
 20
15.746191
 30
0.0
 10
122.262773
 20
15.547859
 30
0.0
 10
122.226268
 20
15.376167
 30
0.0
 10
122.179738
 20
15.226405
 30
0.0
 10
122.121972
 20
15.093879
 30
0.0
 10
122.051755
 20
14.973881
 30
0.0
 10
121.967871
 20
14.861712
 30
0.0
 10
121.869107
 20
14.752667
 30
0.0
 10
121.754248
 20
14.642047
 30
0.0
 10
121.622078
 20
14.525148
 30
0.0
 10
121.471385
 20
14.397270
 30
0.0
 10
121.230554
 20
14.207388
 30
0.0
 10
120.992070
 20
14.045703
 30
0.0
 10
120.754834
 20
13.912322
 30
0.0
 10
120.517751
 20
13.807347
 30
0.0
 10
120.279722
 20
13.730884
 30
0.0
 10
120.039646
 20
13.683042
 30
0.0
 10
119.796433
 20
13.663936
 30
0.0
 10
119.548978
 20
13.673644
 30
0.0
 10
119.296188
 20
13.712300
 30
0.0
 10
119.036965
 20
13.780000
 30
0.0
 10
118.770208
 20
13.876853
 30
0.0
 10
118.494824
 20
14.002958
 30
0.0
 10
118.209715
 20
14.158428
 30
0.0
 10
117.913779
 20
14.343369
 30
0.0
 10
117.605926
 20
14.557883
 30
0.0
 10
117.285149
 20
14.802062
 30
0.0
  0
LWPOLYLINE
  5
10a
100
AcDbEntity
  8
0
 62
7
100
AcDbPolyline
 90
2097
 70
0
 10
74.035864
 20
46.371259
 30
0.0
 10
74.090821
 20
46.408574
 30
0.0
 10
74.138090
 20
46.446533
 30
0.0
 10
74.177629
 20
46.485914
 30
0.0
 10
74.209382
 20
46.527497
 30
0.0
 10
74.233315
 20
46.572060
 30
0.0
 10
74.249345
 20
46.620385
 30
0.0
 10
74.257445
 20
46.673245
 30
0.0
 10
74.257569
 20
46.731425
 30
0.0
 10
74.249667
 20
46.795701
 30
0.0
 10
74.233693
 20
46.866855
 30
0.0
 10
74.209591
 20
46.945663
 30
0.0
 10
74.177296
 20
47.032906
 30
0.0
 10
74.136772
 20
47.129364
 30
0.0
 10
74.087967
 20
47.235816
 30
0.0
 10
74.030837
 20
47.353037
 30
0.0
 10
73.965331
 20
47.481812
 30
0.0
 10
73.919495
 20
47.572653
 30
0.0
 10
73.874946
 20
47.665276
 30
0.0
 10
73.831913
 20
47.759013
 30
0.0
 10
73.790624
 20
47.853205
 30
0.0
 10
73.751316
 20
47.947185
 30
0.0
 10
73.714212
 20
48.040290
 30
0.0
 10
73.679550
 20
48.131857
 30
0.0
 10
73.647554
 20
48.221217
 30
0.0
 10
73.618463
 20
48.307712
 30
0.0
 10
73.592498
 20
48.390675
 30
0.0
 10
73.569892
 20
48.469443
 30
0.0
 10
73.550870
 20
48.543348
 30
0.0
 10
73.535687
 20
48.611734
 30
0.0
 10
73.524567
 20
48.673927
 30
0.0
 10
73.517709
 20
48.729271
 30
0.0
 10
73.515451
 20
48.777096
 30
0.0
 10
73.546070
 20
48.890809
 30
0.0
 10
73.636883
 20
49.064384
 30
0.0
 10
73.786345
 20
49.296012
 30
0.0
 10
73.992898
 20
49.583879
 30
0.0
 10
74.254989
 20
49.926169
 30
0.0
 10
74.571064
 20
50.321075
 30
0.0
 10
74.939576
 20
50.766780
 30
0.0
 10
75.358964
 20
51.261470
 30
0.0
 10
75.827678
 20
51.803337
 30
0.0
 10
76.344165
 20
52.390562
 30
0.0
 10
76.906874
 20
53.021337
 30
0.0
 10
77.514247
 20
53.693850
 30
0.0
 10
78.164732
 20
54.406284
 30
0.0
 10
78.856781
 20
55.156828
 30
0.0
 10
79.588834
 20
55.943672
 30
0.0
 10
80.359340
 20
56.764998
 30
0.0
 10
80.757440
 20
57.193888
 30
0.0
 10
81.122557
 20
57.599992
 30
0.0
 10
81.454298
 20
57.982637
 30
0.0
 10
81.752268
 20
58.341147
 30
0.0
 10
82.016078
 20
58.674849
 30
0.0
 10
82.245327
 20
58.983070
 30
0.0
 10
82.439626
 20
59.265134
 30
0.0
 10
82.598582
 20
59.520368
 30
0.0
 10
82.721800
 20
59.748098
 30
0.0
 10
82.808882
 20
59.947652
 30
0.0
 10
82.859443
 20
60.118354
 30
0.0
 10
82.873074
 20
60.259527
 30
0.0
 10
82.849395
 20
60.370506
 30
0.0
 10
82.788015
 20
60.450609
 30
0.0
 10
82.688532
 20
60.499165
 30
0.0
 10
82.550556
 20
60.515506
 30
0.0
 10
82.518230
 20
60.521517
 30
0.0
 10
82.478993
 20
60.539184
 30
0.0
 10
82.433383
 20
60.567897
 30
0.0
 10
82.381934
 20
60.607064
 30
0.0
 10
82.325185
 20
60.656089
 30
0.0
 10
82.263669
 20
60.714376
 30
0.0
 10
82.197925
 20
60.781336
 30
0.0
 10
82.128487
 20
60.856368
 30
0.0
 10
82.055894
 20
60.938878
 30
0.0
 10
81.980682
 20
61.028275
 30
0.0
 10
81.903384
 20
61.123960
 30
0.0
 10
81.824542
 20
61.225340
 30
0.0
 10
81.744687
 20
61.331819
 30
0.0
 10
81.664356
 20
61.442803
 30
0.0
 10
81.584089
 20
61.557696
 30
0.0
 10
81.504420
 20
61.675902
 30
0.0
 10
81.456426
 20
61.748427
 30
0.0
 10
81.408431
 20
61.820953
 30
0.0
 10
81.360436
 20
61.893475
 30
0.0
 10
81.312441
 20
61.966001
 30
0.0
 10
81.264447
 20
62.038526
 30
0.0
 10
81.216452
 20
62.111052
 30
0.0
 10
81.168457
 20
62.183577
 30
0.0
 10
81.120463
 20
62.256100
 30
0.0
 10
81.072468
 20
62.328625
 30
0.0
 10
81.024473
 20
62.401151
 30
0.0
 10
80.976478
 20
62.473676
 30
0.0
 10
80.928484
 20
62.546202
 30
0.0
 10
80.880489
 20
62.618727
 30
0.0
 10
80.832494
 20
62.691250
 30
0.0
 10
80.784500
 20
62.763775
 30
0.0
 10
80.736505
 20
62.836301
 30
0.0
 10
80.788660
 20
62.873848
 30
0.0
 10
80.840814
 20
62.911395
 30
0.0
 10
80.892966
 20
62.948941
 30
0.0
 10
80.945121
 20
62.986488
 30
0.0
 10
80.997275
 20
63.024038
 30
0.0
 10
81.049430
 20
63.061585
 30
0.0
 10
81.101585
 20
63.099132
 30
0.0
 10
81.153739
 20
63.136678
 30
0.0
 10
81.205891
 20
63.174225
 30
0.0
 10
81.258046
 20
63.211772
 30
0.0
 10
81.310201
 20
63.249319
 30
0.0
 10
81.362355
 20
63.286866
 30
0.0
 10
81.414510
 20
63.324415
 30
0.0
 10
81.466662
 20
63.361962
 30
0.0
 10
81.518816
 20
63.399509
 30
0.0
 10
81.570971
 20
63.437056
 30
0.0
 10
82.007301
 20
63.758273
 30
0.0
 10
82.413732
 20
64.072668
 30
0.0
 10
82.791681
 20
64.382049
 30
0.0
 10
83.142571
 20
64.688226
 30
0.0
 10
83.467818
 20
64.993004
 30
0.0
 10
83.768844
 20
65.298196
 30
0.0
 10
84.047070
 20
65.605606
 30
0.0
 10
84.303915
 20
65.917041
 30
0.0
 10
84.540798
 20
66.234316
 30
0.0
 10
84.759140
 20
66.559232
 30
0.0
 10
84.960358
 20
66.893601
 30
0.0
 10
85.145874
 20
67.239227
 30
0.0
 10
85.317110
 20
67.597923
 30
0.0
 10
85.475485
 20
67.971495
 30
0.0
 10
85.622415
 20
68.361752
 30
0.0
 10
85.759324
 20
68.770500
 30
0.0
 10
85.779475
 20
68.823936
 30
0.0
 10
85.805241
 20
68.875156
 30
0.0
 10
85.836354
 20
68.923989
 30
0.0
 10
85.872515
 20
68.970268
 30
0.0
 10
85.913445
 20
69.013821
 30
0.0
 10
85.958852
 20
69.054475
 30
0.0
 10
86.008447
 20
69.092067
 30
0.0
 10
86.061948
 20
69.126422
 30
0.0
 10
86.119061
 20
69.157370
 30
0.0
 10
86.179499
 20
69.184746
 30
0.0
 10
86.242979
 20
69.208368
 30
0.0
 10
86.309211
 20
69.228067
 30
0.0
 10
86.377904
 20
69.243702
 30
0.0
 10
86.448776
 20
69.255076
 30
0.0
 10
86.521533
 20
69.262018
 30
0.0
 10
86.595893
 20
69.264276
 30
0.0
 10
86.676230
 20
69.269384
 30
0.0
 10
86.763439
 20
69.284483
 30
0.0
 10
86.856999
 20
69.309262
 30
0.0
 10
86.956386
 20
69.343411
 30
0.0
 10
87.061082
 20
69.386605
 30
0.0
 10
87.170568
 20
69.438534
 30
0.0
 10
87.284314
 20
69.498876
 30
0.0
 10
87.401809
 20
69.567321
 30
0.0
 10
87.522527
 20
69.643543
 30
0.0
 10
87.645948
 20
69.727236
 30
0.0
 10
87.771551
 20
69.818078
 30
0.0
 10
87.898814
 20
69.915752
 30
0.0
 10
88.027219
 20
70.019943
 30
0.0
 10
88.156240
 20
70.130334
 30
0.0
 10
88.285360
 20
70.246610
 30
0.0
 10
88.414056
 20
70.368454
 30
0.0
 10
88.577375
 20
70.530153
 30
0.0
 10
88.727232
 20
70.685685
 30
0.0
 10
88.864480
 20
70.836640
 30
0.0
 10
88.989972
 20
70.984598
 30
0.0
 10
89.104566
 20
71.131142
 30
0.0
 10
89.209115
 20
71.277858
 30
0.0
 10
89.304475
 20
71.426330
 30
0.0
 10
89.391501
 20
71.578137
 30
0.0
 10
89.471048
 20
71.734866
 30
0.0
 10
89.543969
 20
71.898101
 30
0.0
 10
89.611121
 20
72.069427
 30
0.0
 10
89.673359
 20
72.250424
 30
0.0
 10
89.731537
 20
72.442677
 30
0.0
 10
89.786511
 20
72.647768
 30
0.0
 10
89.839134
 20
72.867286
 30
0.0
 10
89.890261
 20
73.102809
 30
0.0
 10
89.966648
 20
73.504905
 30
0.0
 10
90.026092
 20
73.895989
 30
0.0
 10
90.068287
 20
74.278005
 30
0.0
 10
90.092925
 20
74.652903
 30
0.0
 10
90.099698
 20
75.022623
 30
0.0
 10
90.088297
 20
75.389113
 30
0.0
 10
90.058415
 20
75.754317
 30
0.0
 10
90.009743
 20
76.120179
 30
0.0
 10
89.941970
 20
76.488646
 30
0.0
 10
89.854789
 20
76.861664
 30
0.0
 10
89.747894
 20
77.241174
 30
0.0
 10
89.620973
 20
77.629125
 30
0.0
 10
89.473718
 20
78.027462
 30
0.0
 10
89.305824
 20
78.438127
 30
0.0
 10
89.116978
 20
78.863066
 30
0.0
 10
88.906875
 20
79.304227
 30
0.0
 10
88.700480
 20
79.702965
 30
0.0
 10
88.475261
 20
80.096713
 30
0.0
 10
88.231492
 20
80.485192
 30
0.0
 10
87.969440
 20
80.868116
 30
0.0
 10
87.689380
 20
81.245208
 30
0.0
 10
87.391579
 20
81.616183
 30
0.0
 10
87.076308
 20
81.980761
 30
0.0
 10
86.743839
 20
82.338658
 30
0.0
 10
86.394445
 20
82.689596
 30
0.0
 10
86.028395
 20
83.033291
 30
0.0
 10
85.645958
 20
83.369463
 30
0.0
 10
85.247409
 20
83.697829
 30
0.0
 10
84.833017
 20
84.018109
 30
0.0
 10
84.403051
 20
84.330018
 30
0.0
 10
83.957784
 20
84.633277
 30
0.0
 10
83.497485
 20
84.927607
 30
0.0
 10
83.083273
 20
85.195921
 30
0.0
 10
82.725497
 20
85.456313
 30
0.0
 10
82.424386
 20
85.714109
 30
0.0
 10
82.180170
 20
85.974631
 30
0.0
 10
81.993080
 20
86.243202
 30
0.0
 10
81.863345
 20
86.525151
 30
0.0
 10
81.791198
 20
86.825794
 30
0.0
 10
81.776861
 20
87.150462
 30
0.0
 10
81.820580
 20
87.504476
 30
0.0
 10
81.922575
 20
87.893158
 30
0.0
 10
82.083080
 20
88.321837
 30
0.0
 10
82.302325
 20
88.795835
 30
0.0
 10
82.580542
 20
89.320472
 30
0.0
 10
82.917959
 20
89.901076
 30
0.0
 10
83.314805
 20
90.542971
 30
0.0
 10
83.771314
 20
91.251481
 30
0.0
 10
84.254317
 20
92.002249
 30
0.0
 10
84.686693
 20
92.701813
 30
0.0
 10
85.069482
 20
93.353842
 30
0.0
 10
85.403713
 20
93.962008
 30
0.0
 10
85.690419
 20
94.529975
 30
0.0
 10
85.930636
 20
95.061419
 30
0.0
 10
86.125400
 20
95.560007
 30
0.0
 10
86.275740
 20
96.029405
 30
0.0
 10
86.382691
 20
96.473287
 30
0.0
 10
86.447291
 20
96.895322
 30
0.0
 10
86.470575
 20
97.299176
 30
0.0
 10
86.453557
 20
97.688524
 30
0.0
 10
86.397296
 20
98.067029
 30
0.0
 10
86.302816
 20
98.438366
 30
0.0
 10
86.171151
 20
98.806200
 30
0.0
 10
86.003333
 20
99.174204
 30
0.0
 10
85.885457
 20
99.386644
 30
0.0
 10
85.747146
 20
99.597292
 30
0.0
 10
85.590634
 20
99.804505
 30
0.0
 10
85.418162
 20
100.006635
 30
0.0
 10
85.231972
 20
100.202043
 30
0.0
 10
85.034303
 20
100.389083
 30
0.0
 10
84.827398
 20
100.566110
 30
0.0
 10
84.613490
 20
100.731484
 30
0.0
 10
84.394825
 20
100.883556
 30
0.0
 10
84.173641
 20
101.020685
 30
0.0
 10
83.952179
 20
101.141231
 30
0.0
 10
83.732678
 20
101.243542
 30
0.0
 10
83.517376
 20
101.325979
 30
0.0
 10
83.308517
 20
101.386900
 30
0.0
 10
83.108340
 20
101.424655
 30
0.0
 10
82.919082
 20
101.437609
 30
0.0
 10
82.716517
 20
101.429199
 30
0.0
 10
82.505906
 20
101.404646
 30
0.0
 10
82.289328
 20
101.364991
 30
0.0
 10
82.068853
 20
101.311242
 30
0.0
 10
81.846555
 20
101.244420
 30
0.0
 10
81.624514
 20
101.165550
 30
0.0
 10
81.404801
 20
101.075651
 30
0.0
 10
81.189491
 20
100.975747
 30
0.0
 10
80.980658
 20
100.866854
 30
0.0
 10
80.780379
 20
100.749997
 30
0.0
 10
80.590729
 20
100.626198
 30
0.0
 10
80.413778
 20
100.496477
 30
0.0
 10
80.251605
 20
100.361857
 30
0.0
 10
80.106280
 20
100.223354
 30
0.0
 10
79.979884
 20
100.081997
 30
0.0
 10
79.874488
 20
99.938800
 30
0.0
 10
79.827044
 20
99.861920
 30
0.0
 10
79.779424
 20
99.776119
 30
0.0
 10
79.731935
 20
99.682314
 30
0.0
 10
79.684888
 20
99.581420
 30
0.0
 10
79.638596
 20
99.474353
 30
0.0
 10
79.593369
 20
99.362029
 30
0.0
 10
79.549518
 20
99.245366
 30
0.0
 10
79.507354
 20
99.125281
 30
0.0
 10
79.467188
 20
99.002689
 30
0.0
 10
79.429331
 20
98.878506
 30
0.0
 10
79.394092
 20
98.753651
 30
0.0
 10
79.361784
 20
98.629035
 30
0.0
 10
79.332717
 20
98.505583
 30
0.0
 10
79.307205
 20
98.384202
 30
0.0
 10
79.285558
 20
98.265815
 30
0.0
 10
79.268089
 20
98.151338
 30
0.0
 10
79.258832
 20
98.083325
 30
0.0
 10
79.249575
 20
98.015315
 30
0.0
 10
79.240318
 20
97.947302
 30
0.0
 10
79.231061
 20
97.879292
 30
0.0
 10
79.221804
 20
97.811280
 30
0.0
 10
79.212547
 20
97.743270
 30
0.0
 10
79.203290
 20
97.675257
 30
0.0
 10
79.194033
 20
97.607244
 30
0.0
 10
79.184777
 20
97.539234
 30
0.0
 10
79.175520
 20
97.471222
 30
0.0
 10
79.166263
 20
97.403212
 30
0.0
 10
79.157006
 20
97.335199
 30
0.0
 10
79.147749
 20
97.267189
 30
0.0
 10
79.138492
 20
97.199176
 30
0.0
 10
79.129235
 20
97.131166
 30
0.0
 10
79.119978
 20
97.063154
 30
0.0
 10
79.150458
 20
97.109494
 30
0.0
 10
79.180938
 20
97.155835
 30
0.0
 10
79.211421
 20
97.202176
 30
0.0
 10
79.241901
 20
97.248517
 30
0.0
 10
79.272381
 20
97.294858
 30
0.0
 10
79.302861
 20
97.341199
 30
0.0
 10
79.333341
 20
97.387540
 30
0.0
 10
79.363824
 20
97.433881
 30
0.0
 10
79.394304
 20
97.480222
 30
0.0
 10
79.424784
 20
97.526562
 30
0.0
 10
79.455264
 20
97.572903
 30
0.0
 10
79.485744
 20
97.619244
 30
0.0
 10
79.516224
 20
97.665585
 30
0.0
 10
79.546707
 20
97.711926
 30
0.0
 10
79.577187
 20
97.758267
 30
0.0
 10
79.607667
 20
97.804608
 30
0.0
 10
79.661602
 20
97.882654
 30
0.0
 10
79.722379
 20
97.963442
 30
0.0
 10
79.789328
 20
98.046348
 30
0.0
 10
79.861771
 20
98.130744
 30
0.0
 10
79.939047
 20
98.216000
 30
0.0
 10
80.020476
 20
98.301485
 30
0.0
 10
80.105394
 20
98.386575
 30
0.0
 10
80.193126
 20
98.470635
 30
0.0
 10
80.283005
 20
98.553044
 30
0.0
 10
80.374357
 20
98.633167
 30
0.0
 10
80.466514
 20
98.710380
 30
0.0
 10
80.558804
 20
98.784052
 30
0.0
 10
80.650557
 20
98.853552
 30
0.0
 10
80.741099
 20
98.918257
 30
0.0
 10
80.829765
 20
98.977532
 30
0.0
 10
80.915880
 20
99.030753
 30
0.0
 10
81.189641
 20
99.168241
 30
0.0
 10
81.464737
 20
99.261013
 30
0.0
 10
81.737736
 20
99.311463
 30
0.0
 10
82.005210
 20
99.321990
 30
0.0
 10
82.263722
 20
99.294981
 30
0.0
 10
82.509845
 20
99.232822
 30
0.0
 10
82.740147
 20
99.137910
 30
0.0
 10
82.951193
 20
99.012640
 30
0.0
 10
83.139554
 20
98.859405
 30
0.0
 10
83.301795
 20
98.680597
 30
0.0
 10
83.434490
 20
98.478611
 30
0.0
 10
83.534202
 20
98.255839
 30
0.0
 10
83.597502
 20
98.014674
 30
0.0
 10
83.620954
 20
97.757505
 30
0.0
 10
83.601142
 20
97.486732
 30
0.0
 10
83.534614
 20
97.204742
 30
0.0
 10
83.504713
 20
97.133743
 30
0.0
 10
83.452761
 20
97.038157
 30
0.0
 10
83.380001
 20
96.919613
 30
0.0
 10
83.287681
 20
96.779732
 30
0.0
 10
83.177041
 20
96.620147
 30
0.0
 10
83.049330
 20
96.442485
 30
0.0
 10
82.905789
 20
96.248375
 30
0.0
 10
82.747663
 20
96.039443
 30
0.0
 10
82.576199
 20
95.817317
 30
0.0
 10
82.392641
 20
95.583623
 30
0.0
 10
82.198230
 20
95.339992
 30
0.0
 10
81.994217
 20
95.088052
 30
0.0
 10
81.781842
 20
94.829430
 30
0.0
 10
81.562349
 20
94.565752
 30
0.0
 10
81.336986
 20
94.298646
 30
0.0
 10
81.106998
 20
94.029742
 30
0.0
 10
80.642909
 20
93.479236
 30
0.0
 10
80.205346
 20
92.936373
 30
0.0
 10
79.794481
 20
92.401475
 30
0.0
 10
79.410489
 20
91.874865
 30
0.0
 10
79.053543
 20
91.356863
 30
0.0
 10
78.723815
 20
90.847793
 30
0.0
 10
78.421481
 20
90.347981
 30
0.0
 10
78.146712
 20
89.857744
 30
0.0
 10
77.899683
 20
89.377410
 30
0.0
 10
77.680569
 20
88.907295
 30
0.0
 10
77.489541
 20
88.447728
 30
0.0
 10
77.326772
 20
87.999031
 30
0.0
 10
77.192437
 20
87.561522
 30
0.0
 10
77.086708
 20
87.135527
 30
0.0
 10
77.009760
 20
86.721371
 30
0.0
 10
76.961766
 20
86.319371
 30
0.0
 10
76.947372
 20
85.801533
 30
0.0
 10
76.989711
 20
85.277269
 30
0.0
 10
77.086711
 20
84.749409
 30
0.0
 10
77.236317
 20
84.220784
 30
0.0
 10
77.436478
 20
83.694225
 30
0.0
 10
77.685135
 20
83.172562
 30
0.0
 10
77.980235
 20
82.658625
 30
0.0
 10
78.319720
 20
82.155244
 30
0.0
 10
78.701536
 20
81.665250
 30
0.0
 10
79.123630
 20
81.191475
 30
0.0
 10
79.583946
 20
80.736745
 30
0.0
 10
80.080429
 20
80.303892
 30
0.0
 10
80.611023
 20
79.895748
 30
0.0
 10
81.173673
 20
79.515143
 30
0.0
 10
81.766323
 20
79.164905
 30
0.0
 10
82.386921
 20
78.847865
 30
0.0
 10
82.816675
 20
78.635877
 30
0.0
 10
83.218641
 20
78.419133
 30
0.0
 10
83.592834
 20
78.197625
 30
0.0
 10
83.939256
 20
77.971345
 30
0.0
 10
84.257921
 20
77.740281
 30
0.0
 10
84.548830
 20
77.504425
 30
0.0
 10
84.811997
 20
77.263769
 30
0.0
 10
85.047427
 20
77.018303
 30
0.0
 10
85.255131
 20
76.768020
 30
0.0
 10
85.435113
 20
76.512908
 30
0.0
 10
85.587383
 20
76.252959
 30
0.0
 10
85.711950
 20
75.988164
 30
0.0
 10
85.808820
 20
75.718515
 30
0.0
 10
85.878004
 20
75.444003
 30
0.0
 10
85.919510
 20
75.164617
 30
0.0
 10
85.933339
 20
74.880349
 30
0.0
 10
85.928767
 20
74.658200
 30
0.0
 10
85.915390
 20
74.441146
 30
0.0
 10
85.893687
 20
74.230453
 30
0.0
 10
85.864141
 20
74.027403
 30
0.0
 10
85.827249
 20
73.833268
 30
0.0
 10
85.783499
 20
73.649326
 30
0.0
 10
85.733388
 20
73.476849
 30
0.0
 10
85.677398
 20
73.317111
 30
0.0
 10
85.616023
 20
73.171394
 30
0.0
 10
85.549754
 20
73.040968
 30
0.0
 10
85.479077
 20
72.927106
 30
0.0
 10
85.404486
 20
72.831088
 30
0.0
 10
85.326468
 20
72.754188
 30
0.0
 10
85.245516
 20
72.697681
 30
0.0
 10
85.162116
 20
72.662841
 30
0.0
 10
85.076761
 20
72.650960
 30
0.0
 10
85.049019
 20
72.653923
 30
0.0
 10
85.022066
 20
72.662615
 30
0.0
 10
84.996017
 20
72.676726
 30
0.0
 10
84.971041
 20
72.695974
 30
0.0
 10
84.947249
 20
72.720076
 30
0.0
 10
84.924784
 20
72.748730
 30
0.0
 10
84.903815
 20
72.781648
 30
0.0
 10
84.884455
 20
72.818532
 30
0.0
 10
84.866844
 20
72.859093
 30
0.0
 10
84.851124
 20
72.903040
 30
0.0
 10
84.837437
 20
72.950076
 30
0.0
 10
84.825922
 20
72.999913
 30
0.0
 10
84.816721
 20
73.052257
 30
0.0
 10
84.809976
 20
73.106816
 30
0.0
 10
84.805828
 20
73.163295
 30
0.0
 10
84.804417
 20
73.221404
 30
0.0
 10
84.796740
 20
73.287374
 30
0.0
 10
84.774191
 20
73.366921
 30
0.0
 10
84.737527
 20
73.458970
 30
0.0
 10
84.687517
 20
73.562458
 30
0.0
 10
84.624920
 20
73.676315
 30
0.0
 10
84.550493
 20
73.799469
 30
0.0
 10
84.464996
 20
73.930849
 30
0.0
 10
84.369190
 20
74.069389
 30
0.0
 10
84.263837
 20
74.214019
 30
0.0
 10
84.149689
 20
74.363670
 30
0.0
 10
84.027515
 20
74.517273
 30
0.0
 10
83.898068
 20
74.673756
 30
0.0
 10
83.762111
 20
74.832052
 30
0.0
 10
83.620398
 20
74.991093
 30
0.0
 10
83.473699
 20
75.149806
 30
0.0
 10
83.322764
 20
75.307122
 30
0.0
 10
83.086674
 20
75.545942
 30
0.0
 10
82.867003
 20
75.761607
 30
0.0
 10
82.660055
 20
75.956256
 30
0.0
 10
82.462122
 20
76.132030
 30
0.0
 10
82.269502
 20
76.291059
 30
0.0
 10
82.078491
 20
76.435489
 30
0.0
 10
81.885386
 20
76.567448
 30
0.0
 10
81.686487
 20
76.689083
 30
0.0
 10
81.478086
 20
76.802522
 30
0.0
 10
81.256482
 20
76.909907
 30
0.0
 10
81.017971
 20
77.013379
 30
0.0
 10
80.758851
 20
77.115066
 30
0.0
 10
80.475418
 20
77.217115
 30
0.0
 10
80.163969
 20
77.321656
 30
0.0
 10
79.820801
 20
77.430830
 30
0.0
 10
79.442208
 20
77.546776
 30
0.0
 10
78.797607
 20
77.750820
 30
0.0
 10
78.180147
 20
77.965365
 30
0.0
 10
77.590246
 20
78.190144
 30
0.0
 10
77.028325
 20
78.424893
 30
0.0
 10
76.494798
 20
78.669337
 30
0.0
 10
75.990086
 20
78.923216
 30
0.0
 10
75.514606
 20
79.186255
 30
0.0
 10
75.068777
 20
79.458191
 30
0.0
 10
74.653016
 20
79.738751
 30
0.0
 10
74.267740
 20
80.027670
 30
0.0
 10
73.913371
 20
80.324678
 30
0.0
 10
73.590322
 20
80.629509
 30
0.0
 10
73.299015
 20
80.941895
 30
0.0
 10
73.039865
 20
81.261565
 30
0.0
 10
72.813294
 20
81.588254
 30
0.0
 10
72.619718
 20
81.921691
 30
0.0
 10
72.408982
 20
82.341511
 30
0.0
 10
72.224161
 20
82.752119
 30
0.0
 10
72.065058
 20
83.157701
 30
0.0
 10
71.931482
 20
83.562444
 30
0.0
 10
71.823233
 20
83.970540
 30
0.0
 10
71.740118
 20
84.386174
 30
0.0
 10
71.681941
 20
84.813538
 30
0.0
 10
71.648506
 20
85.256819
 30
0.0
 10
71.639616
 20
85.720205
 30
0.0
 10
71.655082
 20
86.207885
 30
0.0
 10
71.694700
 20
86.724044
 30
0.0
 10
71.758279
 20
87.272876
 30
0.0
 10
71.845624
 20
87.858566
 30
0.0
 10
71.956535
 20
88.485303
 30
0.0
 10
72.090822
 20
89.157277
 30
0.0
 10
72.248288
 20
89.878673
 30
0.0
 10
72.479902
 20
90.980785
 30
0.0
 10
72.663753
 20
92.029207
 30
0.0
 10
72.799479
 20
93.025936
 30
0.0
 10
72.886717
 20
93.972973
 30
0.0
 10
72.925110
 20
94.872316
 30
0.0
 10
72.914301
 20
95.725962
 30
0.0
 10
72.853911
 20
96.535909
 30
0.0
 10
72.743588
 20
97.304160
 30
0.0
 10
72.582972
 20
98.032708
 30
0.0
 10
72.371698
 20
98.723557
 30
0.0
 10
72.109403
 20
99.378699
 30
0.0
 10
71.795730
 20
100.000139
 30
0.0
 10
71.430315
 20
100.589870
 30
0.0
 10
71.012798
 20
101.149892
 30
0.0
 10
70.542813
 20
101.682206
 30
0.0
 10
70.020002
 20
102.188809
 30
0.0
 10
69.869866
 20
102.322557
 30
0.0
 10
69.717841
 20
102.455339
 30
0.0
 10
69.564975
 20
102.586355
 30
0.0
 10
69.412316
 20
102.714795
 30
0.0
 10
69.260912
 20
102.839850
 30
0.0
 10
69.111808
 20
102.960718
 30
0.0
 10
68.966052
 20
103.076589
 30
0.0
 10
68.824692
 20
103.186662
 30
0.0
 10
68.688774
 20
103.290124
 30
0.0
 10
68.559344
 20
103.386173
 30
0.0
 10
68.437450
 20
103.474004
 30
0.0
 10
68.324140
 20
103.552806
 30
0.0
 10
68.220463
 20
103.621772
 30
0.0
 10
68.127459
 20
103.680102
 30
0.0
 10
68.046182
 20
103.726985
 30
0.0
 10
67.977679
 20
103.761616
 30
0.0
 10
67.913814
 20
103.795457
 30
0.0
 10
67.848850
 20
103.838821
 30
0.0
 10
67.783202
 20
103.891088
 30
0.0
 10
67.717297
 20
103.951653
 30
0.0
 10
67.651548
 20
104.019895
 30
0.0
 10
67.586383
 20
104.095203
 30
0.0
 10
67.522217
 20
104.176963
 30
0.0
 10
67.459473
 20
104.264564
 30
0.0
 10
67.398573
 20
104.357387
 30
0.0
 10
67.339932
 20
104.454825
 30
0.0
 10
67.283976
 20
104.556261
 30
0.0
 10
67.231125
 20
104.661081
 30
0.0
 10
67.181795
 20
104.768670
 30
0.0
 10
67.136411
 20
104.878418
 30
0.0
 10
67.095393
 20
104.989709
 30
0.0
 10
67.059158
 20
105.101932
 30
0.0
 10
66.990228
 20
105.315817
 30
0.0
 10
66.915572
 20
105.517394
 30
0.0
 10
66.835819
 20
105.705975
 30
0.0
 10
66.751598
 20
105.880879
 30
0.0
 10
66.663542
 20
106.041421
 30
0.0
 10
66.572274
 20
106.186918
 30
0.0
 10
66.478429
 20
106.316684
 30
0.0
 10
66.382635
 20
106.430039
 30
0.0
 10
66.285522
 20
106.526293
 30
0.0
 10
66.187718
 20
106.604768
 30
0.0
 10
66.089855
 20
106.664774
 30
0.0
 10
65.992558
 20
106.705634
 30
0.0
 10
65.896462
 20
106.726660
 30
0.0
 10
65.802194
 20
106.727224
 30
0.0
 10
65.710381
 20
106.706537
 30
0.0
 10
65.621656
 20
106.663956
 30
0.0
 10
65.588377
 20
106.639543
 30
0.0
 10
65.550421
 20
106.604824
 30
0.0
 10
65.508223
 20
106.560442
 30
0.0
 10
65.462218
 20
106.507040
 30
0.0
 10
65.412843
 20
106.445270
 30
0.0
 10
65.360530
 20
106.375781
 30
0.0
 10
65.305723
 20
106.299220
 30
0.0
 10
65.248849
 20
106.216238
 30
0.0
 10
65.190347
 20
106.127479
 30
0.0
 10
65.130655
 20
106.033598
 30
0.0
 10
65.070203
 20
105.935238
 30
0.0
 10
65.009432
 20
105.833051
 30
0.0
 10
64.948776
 20
105.727683
 30
0.0
 10
64.888672
 20
105.619784
 30
0.0
 10
64.829555
 20
105.510000
 30
0.0
 10
64.771857
 20
105.398985
 30
0.0
 10
64.684941
 20
105.237255
 30
0.0
 10
64.592553
 20
105.083858
 30
0.0
 10
64.492432
 20
104.937044
 30
0.0
 10
64.382320
 20
104.795066
 30
0.0
 10
64.259962
 20
104.656168
 30
0.0
 10
64.123099
 20
104.518598
 30
0.0
 10
63.969468
 20
104.380611
 30
0.0
 10
63.796816
 20
104.240451
 30
0.0
 10
63.602881
 20
104.096371
 30
0.0
 10
63.385409
 20
103.946616
 30
0.0
 10
63.142139
 20
103.789435
 30
0.0
 10
62.870814
 20
103.623082
 30
0.0
 10
62.569172
 20
103.445798
 30
0.0
 10
62.234959
 20
103.255840
 30
0.0
 10
61.865914
 20
103.051452
 30
0.0
 10
61.459779
 20
102.830884
 30
0.0
 10
60.607403
 20
102.362632
 30
0.0
 10
59.761529
 20
101.880738
 30
0.0
 10
58.928852
 20
101.389953
 30
0.0
 10
58.116058
 20
100.895029
 30
0.0
 10
57.329838
 20
100.400714
 30
0.0
 10
56.576886
 20
99.911758
 30
0.0
 10
55.863888
 20
99.432914
 30
0.0
 10
55.197536
 20
98.968933
 30
0.0
 10
54.584524
 20
98.524560
 30
0.0
 10
54.031538
 20
98.104548
 30
0.0
 10
53.545272
 20
97.713650
 30
0.0
 10
53.132411
 20
97.356614
 30
0.0
 10
52.799655
 20
97.038191
 30
0.0
 10
52.553687
 20
96.763132
 30
0.0
 10
52.401199
 20
96.536185
 30
0.0
 10
52.348884
 20
96.362102
 30
0.0
 10
52.357774
 20
96.245745
 30
0.0
 10
52.383286
 20
96.107781
 30
0.0
 10
52.423672
 20
95.951830
 30
0.0
 10
52.477199
 20
95.781526
 30
0.0
 10
52.542127
 20
95.600492
 30
0.0
 10
52.616718
 20
95.412354
 30
0.0
 10
52.699231
 20
95.220736
 30
0.0
 10
52.787931
 20
95.029268
 30
0.0
 10
52.881073
 20
94.841574
 30
0.0
 10
52.976921
 20
94.661279
 30
0.0
 10
53.073740
 20
94.492013
 30
0.0
 10
53.169783
 20
94.337398
 30
0.0
 10
53.263317
 20
94.201062
 30
0.0
 10
53.352601
 20
94.086629
 30
0.0
 10
53.435896
 20
93.997729
 30
0.0
 10
53.511461
 20
93.937986
 30
0.0
 10
53.553402
 20
93.914759
 30
0.0
 10
53.601812
 20
93.892774
 30
0.0
 10
53.656111
 20
93.872115
 30
0.0
 10
53.715722
 20
93.852867
 30
0.0
 10
53.780072
 20
93.835116
 30
0.0
 10
53.848584
 20
93.818944
 30
0.0
 10
53.920678
 20
93.804466
 30
0.0
 10
53.995780
 20
93.791766
 30
0.0
 10
54.073315
 20
93.780901
 30
0.0
 10
54.152704
 20
93.771982
 30
0.0
 10
54.233374
 20
93.765096
 30
0.0
 10
54.314745
 20
93.760355
 30
0.0
 10
54.396242
 20
93.757815
 30
0.0
 10
54.477288
 20
93.757575
 30
0.0
 10
54.557309
 20
93.759833
 30
0.0
 10
54.635725
 20
93.764461
 30
0.0
 10
54.732727
 20
93.769965
 30
0.0
 10
54.823416
 20
93.771093
 30
0.0
 10
54.907967
 20
93.767763
 30
0.0
 10
54.986558
 20
93.759889
 30
0.0
 10
55.059368
 20
93.747359
 30
0.0
 10
55.126577
 20
93.730058
 30
0.0
 10
55.188358
 20
93.707932
 30
0.0
 10
55.244893
 20
93.680839
 30
0.0
 10
55.296356
 20
93.648716
 30
0.0
 10
55.342928
 20
93.611452
 30
0.0
 10
55.384787
 20
93.568949
 30
0.0
 10
55.422109
 20
93.521112
 30
0.0
 10
55.455072
 20
93.467843
 30
0.0
 10
55.483856
 20
93.409042
 30
0.0
 10
55.508635
 20
93.344613
 30
0.0
 10
55.529604
 20
93.274459
 30
0.0
 10
55.556613
 20
93.183306
 30
0.0
 10
55.590014
 20
93.103288
 30
0.0
 10
55.634441
 20
93.033937
 30
0.0
 10
55.694507
 20
92.974784
 30
0.0
 10
55.774833
 20
92.925355
 30
0.0
 10
55.880037
 20
92.885187
 30
0.0
 10
56.014736
 20
92.853804
 30
0.0
 10
56.183550
 20
92.830746
 30
0.0
 10
56.391096
 20
92.815534
 30
0.0
 10
56.641992
 20
92.807688
 30
0.0
 10
56.940856
 20
92.806842
 30
0.0
 10
57.292308
 20
92.812345
 30
0.0
 10
57.700966
 20
92.823832
 30
0.0
 10
58.171447
 20
92.840793
 30
0.0
 10
58.708369
 20
92.862806
 30
0.0
 10
59.316352
 20
92.889364
 30
0.0
 10
59.544080
 20
92.899495
 30
0.0
 10
59.771808
 20
92.909627
 30
0.0
 10
59.999533
 20
92.919759
 30
0.0
 10
60.227261
 20
92.929891
 30
0.0
 10
60.454989
 20
92.940022
 30
0.0
 10
60.682717
 20
92.950154
 30
0.0
 10
60.910442
 20
92.960286
 30
0.0
 10
61.138170
 20
92.970418
 30
0.0
 10
61.365898
 20
92.980550
 30
0.0
 10
61.593626
 20
92.990681
 30
0.0
 10
61.821351
 20
93.000813
 30
0.0
 10
62.049079
 20
93.010945
 30
0.0
 10
62.276807
 20
93.021077
 30
0.0
 10
62.504534
 20
93.031208
 30
0.0
 10
62.732260
 20
93.041340
 30
0.0
 10
62.959988
 20
93.051472
 30
0.0
 10
62.981182
 20
92.980772
 30
0.0
 10
63.002377
 20
92.910076
 30
0.0
 10
63.023572
 20
92.839376
 30
0.0
 10
63.044767
 20
92.768680
 30
0.0
 10
63.065962
 20
92.697980
 30
0.0
 10
63.087157
 20
92.627283
 30
0.0
 10
63.108324
 20
92.556584
 30
0.0
 10
63.129518
 20
92.485887
 30
0.0
 10
63.150713
 20
92.415188
 30
0.0
 10
63.171908
 20
92.344491
 30
0.0
 10
63.193103
 20
92.273792
 30
0.0
 10
63.214298
 20
92.203095
 30
0.0
 10
63.235493
 20
92.132396
 30
0.0
 10
63.256688
 20
92.061699
 30
0.0
 10
63.277883
 20
91.990999
 30
0.0
 10
63.299078
 20
91.920303
 30
0.0
 10
63.379319
 20
91.654209
 30
0.0
 10
63.448461
 20
91.422705
 30
0.0
 10
63.504913
 20
91.222257
 30
0.0
 10
63.547086
 20
91.049331
 30
0.0
 10
63.573389
 20
90.900385
 30
0.0
 10
63.582223
 20
90.771890
 30
0.0
 10
63.572006
 20
90.660302
 30
0.0
 10
63.541151
 20
90.562091
 30
0.0
 10
63.488062
 20
90.473719
 30
0.0
 10
63.411145
 20
90.391649
 30
0.0
 10
63.308814
 20
90.312347
 30
0.0
 10
63.179477
 20
90.232275
 30
0.0
 10
63.021540
 20
90.147896
 30
0.0
 10
62.833417
 20
90.055677
 30
0.0
 10
62.613509
 20
89.952082
 30
0.0
 10
62.360234
 20
89.833571
 30
0.0
 10
62.220548
 20
89.762996
 30
0.0
 10
62.069972
 20
89.677776
 30
0.0
 10
61.909836
 20
89.578998
 30
0.0
 10
61.741471
 20
89.467746
 30
0.0
 10
61.566205
 20
89.345098
 30
0.0
 10
61.385368
 20
89.212146
 30
0.0
 10
61.200292
 20
89.069966
 30
0.0
 10
61.012304
 20
88.919648
 30
0.0
 10
60.822736
 20
88.762270
 30
0.0
 10
60.632916
 20
88.598923
 30
0.0
 10
60.444174
 20
88.430684
 30
0.0
 10
60.257842
 20
88.258639
 30
0.0
 10
60.075247
 20
88.083873
 30
0.0
 10
59.897721
 20
87.907467
 30
0.0
 10
59.726593
 20
87.730508
 30
0.0
 10
59.563192
 20
87.554079
 30
0.0
 10
59.468235
 20
87.449149
 30
0.0
 10
59.373279
 20
87.344219
 30
0.0
 10
59.278322
 20
87.239289
 30
0.0
 10
59.183366
 20
87.134359
 30
0.0
 10
59.088409
 20
87.029428
 30
0.0
 10
58.993453
 20
86.924498
 30
0.0
 10
58.898496
 20
86.819568
 30
0.0
 10
58.803543
 20
86.714635
 30
0.0
 10
58.708586
 20
86.609705
 30
0.0
 10
58.613630
 20
86.504774
 30
0.0
 10
58.518673
 20
86.399844
 30
0.0
 10
58.423717
 20
86.294914
 30
0.0
 10
58.328760
 20
86.189984
 30
0.0
 10
58.233804
 20
86.085053
 30
0.0
 10
58.138847
 20
85.980123
 30
0.0
 10
58.043891
 20
85.875193
 30
0.0
 10
57.984991
 20
85.905363
 30
0.0
 10
57.926091
 20
85.935535
 30
0.0
 10
57.867189
 20
85.965705
 30
0.0
 10
57.808289
 20
85.995874
 30
0.0
 10
57.749389
 20
86.026046
 30
0.0
 10
57.690489
 20
86.056216
 30
0.0
 10
57.631590
 20
86.086388
 30
0.0
 10
57.572690
 20
86.116558
 30
0.0
 10
57.513787
 20
86.146727
 30
0.0
 10
57.454887
 20
86.176900
 30
0.0
 10
57.395988
 20
86.207069
 30
0.0
 10
57.337088
 20
86.237239
 30
0.0
 10
57.278188
 20
86.267411
 30
0.0
 10
57.219286
 20
86.297581
 30
0.0
 10
57.160386
 20
86.327753
 30
0.0
 10
57.101486
 20
86.357923
 30
0.0
 10
56.995811
 20
86.417144
 30
0.0
 10
56.874119
 20
86.494417
 30
0.0
 10
56.737845
 20
86.588498
 30
0.0
 10
56.588431
 20
86.698153
 30
0.0
 10
56.427319
 20
86.822139
 30
0.0
 10
56.255943
 20
86.959214
 30
0.0
 10
56.075744
 20
87.108140
 30
0.0
 10
55.888159
 20
87.267675
 30
0.0
 10
55.694631
 20
87.436582
 30
0.0
 10
55.496598
 20
87.613617
 30
0.0
 10
55.295501
 20
87.797538
 30
0.0
 10
55.092775
 20
87.987113
 30
0.0
 10
54.889860
 20
88.181093
 30
0.0
 10
54.688198
 20
88.378242
 30
0.0
 10
54.489226
 20
88.577316
 30
0.0
 10
54.294385
 20
88.777081
 30
0.0
 10
54.075765
 20
89.001397
 30
0.0
 10
53.864016
 20
89.213207
 30
0.0
 10
53.659487
 20
89.412239
 30
0.0
 10
53.462524
 20
89.598223
 30
0.0
 10
53.273475
 20
89.770890
 30
0.0
 10
53.092686
 20
89.929962
 30
0.0
 10
52.920505
 20
90.075173
 30
0.0
 10
52.757279
 20
90.206251
 30
0.0
 10
52.603358
 20
90.322925
 30
0.0
 10
52.459086
 20
90.424920
 30
0.0
 10
52.324810
 20
90.511971
 30
0.0
 10
52.200881
 20
90.583800
 30
0.0
 10
52.087645
 20
90.640143
 30
0.0
 10
51.985446
 20
90.680721
 30
0.0
 10
51.894636
 20
90.705274
 30
0.0
 10
51.815557
 20
90.713515
 30
0.0
 10
51.614347
 20
90.698783
 30
0.0
 10
51.386932
 20
90.655606
 30
0.0
 10
51.135918
 20
90.585465
 30
0.0
 10
50.863898
 20
90.489851
 30
0.0
 10
50.573466
 20
90.370254
 30
0.0
 10
50.267227
 20
90.228160
 30
0.0
 10
49.947771
 20
90.065061
 30
0.0
 10
49.617698
 20
89.882449
 30
0.0
 10
49.279607
 20
89.681812
 30
0.0
 10
48.936094
 20
89.464639
 30
0.0
 10
48.589754
 20
89.232418
 30
0.0
 10
48.243188
 20
88.986645
 30
0.0
 10
47.898993
 20
88.728804
 30
0.0
 10
47.559764
 20
88.460388
 30
0.0
 10
47.228100
 20
88.182885
 30
0.0
 10
46.906595
 20
87.897787
 30
0.0
 10
46.638495
 20
87.651525
 30
0.0
 10
46.401397
 20
87.429354
 30
0.0
 10
46.192437
 20
87.225996
 30
0.0
 10
46.008747
 20
87.036173
 30
0.0
 10
45.847468
 20
86.854603
 30
0.0
 10
45.705731
 20
86.676013
 30
0.0
 10
45.580675
 20
86.495120
 30
0.0
 10
45.469432
 20
86.306649
 30
0.0
 10
45.369139
 20
86.105317
 30
0.0
 10
45.276928
 20
85.885847
 30
0.0
 10
45.189942
 20
85.642961
 30
0.0
 10
45.105309
 20
85.371381
 30
0.0
 10
45.020171
 20
85.065828
 30
0.0
 10
44.931657
 20
84.721023
 30
0.0
 10
44.836904
 20
84.331686
 30
0.0
 10
44.733052
 20
83.892540
 30
0.0
 10
44.613195
 20
83.371015
 30
0.0
 10
44.513161
 20
82.907739
 30
0.0
 10
44.433823
 20
82.500162
 30
0.0
 10
44.376046
 20
82.145719
 30
0.0
 10
44.340707
 20
81.841856
 30
0.0
 10
44.328684
 20
81.586019
 30
0.0
 10
44.340820
 20
81.375645
 30
0.0
 10
44.378008
 20
81.208180
 30
0.0
 10
44.441110
 20
81.081067
 30
0.0
 10
44.531003
 20
80.991750
 30
0.0
 10
44.648555
 20
80.937670
 30
0.0
 10
44.794633
 20
80.916278
 30
0.0
 10
44.970113
 20
80.924998
 30
0.0
 10
45.175861
 20
80.961286
 30
0.0
 10
45.412750
 20
81.022585
 30
0.0
 10
45.681652
 20
81.106335
 30
0.0
 10
45.941090
 20
81.203718
 30
0.0
 10
46.192553
 20
81.321058
 30
0.0
 10
46.434496
 20
81.456434
 30
0.0
 10
46.665368
 20
81.607928
 30
0.0
 10
46.883619
 20
81.773626
 30
0.0
 10
47.087697
 20
81.951607
 30
0.0
 10
47.276055
 20
82.139951
 30
0.0
 10
47.447138
 20
82.336742
 30
0.0
 10
47.599400
 20
82.540063
 30
0.0
 10
47.731291
 20
82.747996
 30
0.0
 10
47.841258
 20
82.958621
 30
0.0
 10
47.927754
 20
83.170020
 30
0.0
 10
47.989228
 20
83.380278
 30
0.0
 10
48.024130
 20
83.587471
 30
0.0
 10
48.030903
 20
83.789689
 30
0.0
 10
48.008015
 20
83.985007
 30
0.0
 10
47.985889
 20
84.108389
 30
0.0
 10
47.971524
 20
84.222813
 30
0.0
 10
47.965936
 20
84.329854
 30
0.0
 10
47.970113
 20
84.431099
 30
0.0
 10
47.985099
 20
84.528118
 30
0.0
 10
48.011910
 20
84.622493
 30
0.0
 10
48.051534
 20
84.715802
 30
0.0
 10
48.105001
 20
84.809624
 30
0.0
 10
48.173318
 20
84.905537
 30
0.0
 10
48.257500
 20
85.005119
 30
0.0
 10
48.358563
 20
85.109950
 30
0.0
 10
48.477517
 20
85.221609
 30
0.0
 10
48.615377
 20
85.341674
 30
0.0
 10
48.773153
 20
85.471720
 30
0.0
 10
48.951862
 20
85.613330
 30
0.0
 10
49.152516
 20
85.768081
 30
0.0
 10
49.381396
 20
85.937101
 30
0.0
 10
49.606273
 20
86.092022
 30
0.0
 10
49.825659
 20
86.232362
 30
0.0
 10
50.038068
 20
86.357658
 30
0.0
 10
50.242018
 20
86.467431
 30
0.0
 10
50.436024
 20
86.561213
 30
0.0
 10
50.618602
 20
86.638531
 30
0.0
 10
50.788262
 20
86.698909
 30
0.0
 10
50.943527
 20
86.741881
 30
0.0
 10
51.082905
 20
86.766970
 30
0.0
 10
51.204913
 20
86.773715
 30
0.0
 10
51.308071
 20
86.761636
 30
0.0
 10
51.390886
 20
86.730247
 30
0.0
 10
51.451880
 20
86.679089
 30
0.0
 10
51.489565
 20
86.607684
 30
0.0
 10
51.502462
 20
86.515567
 30
0.0
 10
51.538423
 20
86.365374
 30
0.0
 10
51.640819
 20
86.147151
 30
0.0
 10
51.801435
 20
85.871056
 30
0.0
 10
52.012040
 20
85.547256
 30
0.0
 10
52.264420
 20
85.185919
 30
0.0
 10
52.550348
 20
84.797206
 30
0.0
 10
52.861605
 20
84.391280
 30
0.0
 10
53.189965
 20
83.978307
 30
0.0
 10
53.527209
 20
83.568450
 30
0.0
 10
53.865114
 20
83.171877
 30
0.0
 10
54.195455
 20
82.798748
 30
0.0
 10
54.510014
 20
82.459232
 30
0.0
 10
54.800571
 20
82.163488
 30
0.0
 10
55.058894
 20
81.921683
 30
0.0
 10
55.276770
 20
81.743982
 30
0.0
 10
55.445973
 20
81.640550
 30
0.0
 10
55.569251
 20
81.584343
 30
0.0
 10
55.679363
 20
81.530303
 30
0.0
 10
55.776791
 20
81.477643
 30
0.0
 10
55.862022
 20
81.425576
 30
0.0
 10
55.935536
 20
81.373308
 30
0.0
 10
55.997816
 20
81.320059
 30
0.0
 10
56.049353
 20
81.265034
 30
0.0
 10
56.090625
 20
81.207449
 30
0.0
 10
56.122116
 20
81.146512
 30
0.0
 10
56.144327
 20
81.081437
 30
0.0
 10
56.157704
 20
81.011437
 30
0.0
 10
56.162756
 20
80.935720
 30
0.0
 10
56.159933
 20
80.853503
 30
0.0
 10
56.149802
 20
80.763991
 30
0.0
 10
56.132784
 20
80.666401
 30
0.0
 10
56.109359
 20
80.559944
 30
0.0
 10
56.091382
 20
80.486126
 30
0.0
 10
56.072445
 20
80.411848
 30
0.0
 10
56.052745
 20
80.337598
 30
0.0
 10
56.032425
 20
80.263870
 30
0.0
 10
56.011626
 20
80.191158
 30
0.0
 10
55.990544
 20
80.119954
 30
0.0
 10
55.969321
 20
80.050750
 30
0.0
 10
55.948097
 20
79.984038
 30
0.0
 10
55.927072
 20
79.920313
 30
0.0
 10
55.906385
 20
79.860067
 30
0.0
 10
55.886178
 20
79.803789
 30
0.0
 10
55.866648
 20
79.751976
 30
0.0
 10
55.847937
 20
79.705115
 30
0.0
 10
55.830185
 20
79.663705
 30
0.0
 10
55.813590
 20
79.628235
 30
0.0
 10
55.798266
 20
79.599200
 30
0.0
 10
55.730735
 20
79.546470
 30
0.0
 10
55.601184
 20
79.507602
 30
0.0
 10
55.416831
 20
79.481892
 30
0.0
 10
55.184901
 20
79.468655
 30
0.0
 10
54.912610
 20
79.467244
 30
0.0
 10
54.607186
 20
79.476896
 30
0.0
 10
54.275849
 20
79.496934
 30
0.0
 10
53.925817
 20
79.526658
 30
0.0
 10
53.564319
 20
79.565384
 30
0.0
 10
53.198567
 20
79.612414
 30
0.0
 10
52.835790
 20
79.667055
 30
0.0
 10
52.483207
 20
79.728613
 30
0.0
 10
52.148040
 20
79.796392
 30
0.0
 10
51.837511
 20
79.869699
 30
0.0
 10
51.558842
 20
79.947838
 30
0.0
 10
51.319252
 20
80.030114
 30
0.0
 10
51.183252
 20
80.081188
 30
0.0
 10
51.057881
 20
80.124752
 30
0.0
 10
50.941803
 20
80.160687
 30
0.0
 10
50.833692
 20
80.188881
 30
0.0
 10
50.732210
 20
80.209173
 30
0.0
 10
50.636029
 20
80.221478
 30
0.0
 10
50.543818
 20
80.225654
 30
0.0
 10
50.454247
 20
80.221590
 30
0.0
 10
50.365985
 20
80.209144
 30
0.0
 10
50.277694
 20
80.188204
 30
0.0
 10
50.188052
 20
80.158641
 30
0.0
 10
50.095720
 20
80.120335
 30
0.0
 10
49.999369
 20
80.073161
 30
0.0
 10
49.897671
 20
80.016996
 30
0.0
 10
49.789292
 20
79.951718
 30
0.0
 10
49.672900
 20
79.877200
 30
0.0
 10
49.436649
 20
79.710836
 30
0.0
 10
49.224859
 20
79.533984
 30
0.0
 10
49.036255
 20
79.340741
 30
0.0
 10
48.869563
 20
79.125211
 30
0.0
 10
48.723519
 20
78.881489
 30
0.0
 10
48.596846
 20
78.603678
 30
0.0
 10
48.488273
 20
78.285873
 30
0.0
 10
48.396525
 20
77.922176
 30
0.0
 10
48.320336
 20
77.506686
 30
0.0
 10
48.258434
 20
77.033504
 30
0.0
 10
48.209541
 20
76.496723
 30
0.0
 10
48.172393
 20
75.890450
 30
0.0
 10
48.145723
 20
75.208779
 30
0.0
 10
48.128253
 20
74.445811
 30
0.0
 10
48.118686
 20
73.595645
 30
0.0
 10
48.115779
 20
72.652379
 30
0.0
 10
48.115779
 20
72.624298
 30
0.0
 10
48.115779
 20
72.596330
 30
0.0
 10
48.115779
 20
72.568475
 30
0.0
 10
48.115779
 20
72.540732
 30
0.0
 10
48.115782
 20
72.513103
 30
0.0
 10
48.115782
 20
72.485558
 30
0.0
 10
48.115782
 20
72.458126
 30
0.0
 10
48.115784
 20
72.430807
 30
0.0
 10
48.115787
 20
72.403600
 30
0.0
 10
48.115787
 20
72.376507
 30
0.0
 10
48.115790
 20
72.349498
 30
0.0
 10
48.115793
 20
72.322603
 30
0.0
 10
48.115799
 20
72.295820
 30
0.0
 10
48.115801
 20
72.269150
 30
0.0
 10
48.115807
 20
72.242564
 30
0.0
 10
48.115813
 20
72.216092
 30
0.0
 10
48.115818
 20
72.189732
 30
0.0
 10
48.115827
 20
72.163457
 30
0.0
 10
48.115832
 20
72.137295
 30
0.0
 10
48.115841
 20
72.111246
 30
0.0
 10
48.115852
 20
72.085310
 30
0.0
 10
48.115861
 20
72.059459
 30
0.0
 10
48.115872
 20
72.033720
 30
0.0
 10
48.115883
 20
72.008094
 30
0.0
 10
48.115897
 20
71.982553
 30
0.0
 10
48.115911
 20
71.957125
 30
0.0
 10
48.115926
 20
71.931809
 30
0.0
 10
48.115940
 20
71.906579
 30
0.0
 10
48.115957
 20
71.881461
 30
0.0
 10
48.115976
 20
71.856428
 30
0.0
 10
48.115996
 20
71.831508
 30
0.0
 10
48.116016
 20
71.806672
 30
0.0
 10
48.116038
 20
71.781949
 30
0.0
 10
48.116061
 20
71.757311
 30
0.0
 10
48.116086
 20
71.732786
 30
0.0
 10
48.116112
 20
71.708374
 30
0.0
 10
48.116140
 20
71.684047
 30
0.0
 10
48.116168
 20
71.659832
 30
0.0
 10
48.116202
 20
71.635702
 30
0.0
 10
48.116236
 20
71.611657
 30
0.0
 10
48.116270
 20
71.587724
 30
0.0
 10
48.116307
 20
71.563876
 30
0.0
 10
48.116346
 20
71.540141
 30
0.0
 10
48.116388
 20
71.516491
 30
0.0
 10
48.116434
 20
71.492954
 30
0.0
 10
48.116479
 20
71.469501
 30
0.0
 10
48.116530
 20
71.446161
 30
0.0
 10
48.116580
 20
71.422906
 30
0.0
 10
48.116634
 20
71.399736
 30
0.0
 10
48.116688
 20
71.376678
 30
0.0
 10
48.116741
 20
71.353705
 30
0.0
 10
48.116798
 20
71.330817
 30
0.0
 10
48.116854
 20
71.308042
 30
0.0
 10
48.116913
 20
71.285351
 30
0.0
 10
48.116975
 20
71.262773
 30
0.0
 10
48.117038
 20
71.240280
 30
0.0
 10
48.117108
 20
71.217872
 30
0.0
 10
48.117179
 20
71.195548
 30
0.0
 10
48.117255
 20
71.173337
 30
0.0
 10
48.117334
 20
71.151211
 30
0.0
 10
48.117419
 20
71.129169
 30
0.0
 10
48.117509
 20
71.107213
 30
0.0
 10
48.117608
 20
71.085369
 30
0.0
 10
48.117709
 20
71.063609
 30
0.0
 10
48.117811
 20
71.041935
 30
0.0
 10
48.117910
 20
71.020345
 30
0.0
 10
48.118003
 20
70.998867
 30
0.0
 10
48.118093
 20
70.977475
 30
0.0
 10
48.118181
 20
70.956167
 30
0.0
 10
48.118271
 20
70.934944
 30
0.0
 10
48.118358
 20
70.913806
 30
0.0
 10
48.118451
 20
70.892752
 30
0.0
 10
48.118545
 20
70.871811
 30
0.0
 10
48.118643
 20
70.850955
 30
0.0
 10
48.118748
 20
70.830183
 30
0.0
 10
48.118861
 20
70.809496
 30
0.0
 10
48.118979
 20
70.788894
 30
0.0
 10
48.119109
 20
70.768377
 30
0.0
 10
48.119250
 20
70.747944
 30
0.0
 10
48.119403
 20
70.727595
 30
0.0
 10
48.119558
 20
70.707332
 30
0.0
 10
48.119707
 20
70.687153
 30
0.0
 10
48.119854
 20
70.667087
 30
0.0
 10
48.119998
 20
70.647077
 30
0.0
 10
48.120139
 20
70.627153
 30
0.0
 10
48.120280
 20
70.607341
 30
0.0
 10
48.120421
 20
70.587585
 30
0.0
 10
48.120565
 20
70.567914
 30
0.0
 10
48.120715
 20
70.548328
 30
0.0
 10
48.120867
 20
70.528826
 30
0.0
 10
48.121022
 20
70.509409
 30
0.0
 10
48.121189
 20
70.490077
 30
0.0
 10
48.121361
 20
70.470830
 30
0.0
 10
48.121545
 20
70.451667
 30
0.0
 10
48.121737
 20
70.432589
 30
0.0
 10
48.121943
 20
70.413595
 30
0.0
 10
48.122151
 20
70.394686
 30
0.0
 10
48.122355
 20
70.375862
 30
0.0
 10
48.122552
 20
70.357122
 30
0.0
 10
48.122750
 20
70.338467
 30
0.0
 10
48.122944
 20
70.319869
 30
0.0
 10
48.123139
 20
70.301355
 30
0.0
 10
48.123334
 20
70.282926
 30
0.0
 10
48.123529
 20
70.264582
 30
0.0
 10
48.123729
 20
70.246322
 30
0.0
 10
48.123935
 20
70.228147
 30
0.0
 10
48.124147
 20
70.210028
 30
0.0
 10
48.124364
 20
70.191994
 30
0.0
 10
48.124590
 20
70.174045
 30
0.0
 10
48.124824
 20
70.156180
 30
0.0
 10
48.125072
 20
70.138372
 30
0.0
 10
48.125329
 20
70.120648
 30
0.0
 10
48.125594
 20
70.103009
 30
0.0
 10
48.125860
 20
70.085427
 30
0.0
 10
48.126125
 20
70.067929
 30
0.0
 10
48.126390
 20
70.050516
 30
0.0
 10
48.126661
 20
70.033188
 30
0.0
 10
48.126929
 20
70.015916
 30
0.0
 10
48.127203
 20
69.998728
 30
0.0
 10
48.127477
 20
69.981626
 30
0.0
 10
48.127756
 20
69.964579
 30
0.0
 10
48.128036
 20
69.947618
 30
0.0
 10
48.128318
 20
69.930741
 30
0.0
 10
48.128600
 20
69.913921
 30
0.0
 10
48.128882
 20
69.897185
 30
0.0
 10
48.129165
 20
69.880505
 30
0.0
 10
48.129447
 20
69.863911
 30
0.0
 10
48.129729
 20
69.847401
 30
0.0
 10
48.130011
 20
69.830947
 30
0.0
 10
48.130293
 20
69.814578
 30
0.0
 10
48.130576
 20
69.798266
 30
0.0
 10
48.130858
 20
69.782038
 30
0.0
 10
48.131140
 20
69.765867
 30
0.0
 10
48.131422
 20
69.749780
 30
0.0
 10
48.131705
 20
69.733750
 30
0.0
 10
48.131987
 20
69.717804
 30
0.0
 10
48.132269
 20
69.701915
 30
0.0
 10
48.132551
 20
69.686111
 30
0.0
 10
48.132833
 20
69.670363
 30
0.0
 10
48.133116
 20
69.654699
 30
0.0
 10
48.133398
 20
69.639093
 30
0.0
 10
48.133680
 20
69.623570
 30
0.0
 10
48.133962
 20
69.608105
 30
0.0
 10
48.134245
 20
69.592695
 30
0.0
 10
48.134527
 20
69.577371
 30
0.0
 10
48.134809
 20
69.562102
 30
0.0
 10
48.135091
 20
69.546919
 30
0.0
 10
48.135373
 20
69.531792
 30
0.0
 10
48.135938
 20
69.516721
 30
0.0
 10
48.136502
 20
69.501735
 30
0.0
 10
48.137067
 20
69.486805
 30
0.0
 10
48.137631
 20
69.471932
 30
0.0
 10
48.138196
 20
69.457144
 30
0.0
 10
48.138760
 20
69.442412
 30
0.0
 10
48.139325
 20
69.427736
 30
0.0
 10
48.139889
 20
69.413145
 30
0.0
 10
48.140453
 20
69.398611
 30
0.0
 10
48.141018
 20
69.384133
 30
0.0
 10
48.141582
 20
69.369711
 30
0.0
 10
48.142147
 20
69.355375
 30
0.0
 10
48.142711
 20
69.341094
 30
0.0
 10
48.143276
 20
69.326870
 30
0.0
 10
48.143840
 20
69.312731
 30
0.0
 10
48.144405
 20
69.298648
 30
0.0
 10
48.144969
 20
69.284621
 30
0.0
 10
48.145533
 20
69.270651
 30
0.0
 10
48.146098
 20
69.256738
 30
0.0
 10
48.146662
 20
69.242881
 30
0.0
 10
48.147227
 20
69.229108
 30
0.0
 10
48.147791
 20
69.215392
 30
0.0
 10
48.148356
 20
69.201733
 30
0.0
 10
48.148920
 20
69.188130
 30
0.0
 10
48.149485
 20
69.174583
 30
0.0
 10
48.150049
 20
69.161093
 30
0.0
 10
48.150613
 20
69.147659
 30
0.0
 10
48.151178
 20
69.134282
 30
0.0
 10
48.151742
 20
69.120989
 30
0.0
 10
48.152307
 20
69.107753
 30
0.0
 10
48.152871
 20
69.094573
 30
0.0
 10
48.153436
 20
69.081450
 30
0.0
 10
48.154000
 20
69.068383
 30
0.0
 10
48.154565
 20
69.055372
 30
0.0
 10
48.155129
 20
69.042418
 30
0.0
 10
48.155693
 20
69.029521
 30
0.0
 10
48.156258
 20
69.016680
 30
0.0
 10
48.156822
 20
69.003895
 30
0.0
 10
48.157387
 20
68.991167
 30
0.0
 10
48.157951
 20
68.978495
 30
0.0
 10
48.158516
 20
68.965880
 30
0.0
 10
48.159080
 20
68.953321
 30
0.0
 10
48.159645
 20
68.940790
 30
0.0
 10
48.160209
 20
68.928316
 30
0.0
 10
48.161056
 20
68.915898
 30
0.0
 10
48.161902
 20
68.903537
 30
0.0
 10
48.162749
 20
68.891232
 30
0.0
 10
48.163596
 20
68.878983
 30
0.0
 10
48.164442
 20
68.866791
 30
0.0
 10
48.165289
 20
68.854656
 30
0.0
 10
48.166136
 20
68.842577
 30
0.0
 10
48.166982
 20
68.830554
 30
0.0
 10
48.167829
 20
68.818560
 30
0.0
 10
48.168676
 20
68.806622
 30
0.0
 10
48.169522
 20
68.794740
 30
0.0
 10
48.170369
 20
68.782915
 30
0.0
 10
48.171216
 20
68.771146
 30
0.0
 10
48.172062
 20
68.759406
 30
0.0
 10
48.172909
 20
68.747722
 30
0.0
 10
48.173756
 20
68.736094
 30
0.0
 10
48.174602
 20
68.724523
 30
0.0
 10
48.175449
 20
68.712980
 30
0.0
 10
48.176296
 20
68.701494
 30
0.0
 10
48.177142
 20
68.690064
 30
0.0
 10
48.177989
 20
68.678690
 30
0.0
 10
48.178836
 20
68.667345
 30
0.0
 10
48.179682
 20
68.656056
 30
0.0
 10
48.180529
 20
68.644824
 30
0.0
 10
48.181376
 20
68.633619
 30
0.0
 10
48.182222
 20
68.622472
 30
0.0
 10
48.183069
 20
68.611380
 30
0.0
 10
48.183916
 20
68.600317
 30
0.0
 10
48.184762
 20
68.589311
 30
0.0
 10
48.185609
 20
68.578332
 30
0.0
 10
48.186456
 20
68.567410
 30
0.0
 10
48.187302
 20
68.556545
 30
0.0
 10
48.188149
 20
68.545707
 30
0.0
 10
48.188996
 20
68.534926
 30
0.0
 10
48.189842
 20
68.524174
 30
0.0
 10
48.190971
 20
68.513477
 30
0.0
 10
48.192100
 20
68.502809
 30
0.0
 10
48.193229
 20
68.492198
 30
0.0
 10
48.194358
 20
68.481643
 30
0.0
 10
48.195487
 20
68.471116
 30
0.0
 10
48.196616
 20
68.460645
 30
0.0
 10
48.197745
 20
68.450203
 30
0.0
 10
48.198873
 20
68.439817
 30
0.0
 10
48.200002
 20
68.429460
 30
0.0
 10
48.201131
 20
68.419131
 30
0.0
 10
48.202260
 20
68.408858
 30
0.0
 10
48.203389
 20
68.398613
 30
0.0
 10
48.204518
 20
68.388425
 30
0.0
 10
48.205647
 20
68.378265
 30
0.0
 10
48.206776
 20
68.368161
 30
0.0
 10
48.207905
 20
68.358086
 30
0.0
 10
48.209033
 20
68.348039
 30
0.0
 10
48.210162
 20
68.338048
 30
0.0
 10
48.211291
 20
68.328086
 30
0.0
 10
48.212420
 20
68.318180
 30
0.0
 10
48.213549
 20
68.308302
 30
0.0
 10
48.214678
 20
68.298452
 30
0.0
 10
48.215807
 20
68.288659
 30
0.0
 10
48.216936
 20
68.278894
 30
0.0
 10
48.218065
 20
68.269158
 30
0.0
 10
48.219193
 20
68.259477
 30
0.0
 10
48.220322
 20
68.249825
 30
0.0
 10
48.221451
 20
68.240202
 30
0.0
 10
48.222580
 20
68.230606
 30
0.0
 10
48.223709
 20
68.221067
 30
0.0
 10
48.225120
 20
68.211556
 30
0.0
 10
48.226531
 20
68.202073
 30
0.0
 10
48.227942
 20
68.192619
 30
0.0
 10
48.229353
 20
68.183221
 30
0.0
 10
48.230765
 20
68.173851
 30
0.0
 10
48.232176
 20
68.164510
 30
0.0
 10
48.233587
 20
68.155196
 30
0.0
 10
48.234998
 20
68.145911
 30
0.0
 10
48.236409
 20
68.136683
 30
0.0
 10
48.237820
 20
68.127482
 30
0.0
 10
48.239231
 20
68.118310
 30
0.0
 10
48.240642
 20
68.109166
 30
0.0
 10
48.242053
 20
68.100050
 30
0.0
 10
48.243465
 20
68.090963
 30
0.0
 10
48.244876
 20
68.081903
 30
0.0
 10
48.246287
 20
68.072900
 30
0.0
 10
48.247698
 20
68.063926
 30
0.0
 10
48.249109
 20
68.054979
 30
0.0
 10
48.250520
 20
68.046061
 30
0.0
 10
48.251931
 20
68.037171
 30
0.0
 10
48.253342
 20
68.028309
 30
0.0
 10
48.254753
 20
68.019476
 30
0.0
 10
48.256165
 20
68.010670
 30
0.0
 10
48.257576
 20
68.001893
 30
0.0
 10
48.258987
 20
67.993144
 30
0.0
 10
48.260398
 20
67.984424
 30
0.0
 10
48.261809
 20
67.975731
 30
0.0
 10
48.263502
 20
67.967067
 30
0.0
 10
48.265196
 20
67.958431
 30
0.0
 10
48.266889
 20
67.949823
 30
0.0
 10
48.268582
 20
67.941244
 30
0.0
 10
48.270276
 20
67.932692
 30
0.0
 10
48.271969
 20
67.924169
 30
0.0
 10
48.273662
 20
67.915674
 30
0.0
 10
48.275356
 20
67.907179
 30
0.0
 10
48.277049
 20
67.898713
 30
0.0
 10
48.278742
 20
67.890274
 30
0.0
 10
48.280436
 20
67.881864
 30
0.0
 10
48.282129
 20
67.873482
 30
0.0
 10
48.283822
 20
67.865128
 30
0.0
 10
48.285516
 20
67.856803
 30
0.0
 10
48.287209
 20
67.848477
 30
0.0
 10
48.288902
 20
67.840180
 30
0.0
 10
48.290596
 20
67.831911
 30
0.0
 10
48.292289
 20
67.823670
 30
0.0
 10
48.293982
 20
67.815457
 30
0.0
 10
48.295676
 20
67.807245
 30
0.0
 10
48.297369
 20
67.799060
 30
0.0
 10
48.299062
 20
67.790904
 30
0.0
 10
48.300756
 20
67.782776
 30
0.0
 10
48.302449
 20
67.774648
 30
0.0
 10
48.304142
 20
67.766548
 30
0.0
 10
48.305836
 20
67.758477
 30
0.0
 10
48.307811
 20
67.750433
 30
0.0
 10
48.309787
 20
67.742390
 30
0.0
 10
48.311762
 20
67.734375
 30
0.0
 10
48.313738
 20
67.726388
 30
0.0
 10
48.315713
 20
67.718401
 30
0.0
 10
48.317689
 20
67.710442
 30
0.0
 10
48.319665
 20
67.702512
 30
0.0
 10
48.321640
 20
67.694581
 30
0.0
 10
48.323616
 20
67.686679
 30
0.0
 10
48.325591
 20
67.678777
 30
0.0
 10
48.327567
 20
67.670903
 30
0.0
 10
48.329542
 20
67.663057
 30
0.0
 10
48.331518
 20
67.655211
 30
0.0
 10
48.333493
 20
67.647394
 30
0.0
 10
48.335469
 20
67.639605
 30
0.0
 10
48.337445
 20
67.631815
 30
0.0
 10
48.339420
 20
67.624054
 30
0.0
 10
48.341396
 20
67.616293
 30
0.0
 10
48.343371
 20
67.608560
 30
0.0
 10
48.345347
 20
67.600827
 30
0.0
 10
48.347322
 20
67.593123
 30
0.0
 10
48.349298
 20
67.585418
 30
0.0
 10
48.351556
 20
67.577741
 30
0.0
 10
48.353813
 20
67.570065
 30
0.0
 10
48.356071
 20
67.562417
 30
0.0
 10
48.358329
 20
67.554769
 30
0.0
 10
48.360587
 20
67.547120
 30
0.0
 10
48.362845
 20
67.539500
 30
0.0
 10
48.365102
 20
67.531880
 30
0.0
 10
48.367360
 20
67.524289
 30
0.0
 10
48.369618
 20
67.516697
 30
0.0
 10
48.371876
 20
67.509133
 30
0.0
 10
48.374133
 20
67.501570
 30
0.0
 10
48.376391
 20
67.494006
 30
0.0
 10
48.378649
 20
67.486471
 30
0.0
 10
48.380907
 20
67.478935
 30
0.0
 10
48.383165
 20
67.471400
 30
0.0
 10
48.385422
 20
67.463893
 30
0.0
 10
48.387680
 20
67.456386
 30
0.0
 10
48.389938
 20
67.448879
 30
0.0
 10
48.392196
 20
67.441400
 30
0.0
 10
48.394453
 20
67.433921
 30
0.0
 10
48.396711
 20
67.426442
 30
0.0
 10
48.398969
 20
67.418963
 30
0.0
 10
48.401509
 20
67.411513
 30
0.0
 10
48.404049
 20
67.404062
 30
0.0
 10
48.406589
 20
67.396611
 30
0.0
 10
48.409129
 20
67.389161
 30
0.0
 10
48.411669
 20
67.381738
 30
0.0
 10
48.414209
 20
67.374316
 30
0.0
 10
48.416749
 20
67.366893
 30
0.0
 10
48.419289
 20
67.359471
 30
0.0
 10
48.421829
 20
67.352048
 30
0.0
 10
48.424369
 20
67.344654
 30
0.0
 10
48.426909
 20
67.337260
 30
0.0
 10
48.429449
 20
67.329866
 30
0.0
 10
48.431989
 20
67.322471
 30
0.0
 10
48.434529
 20
67.315077
 30
0.0
 10
48.437069
 20
67.307683
 30
0.0
 10
48.439609
 20
67.300289
 30
0.0
 10
48.442149
 20
67.292923
 30
0.0
 10
48.444689
 20
67.285529
 30
0.0
 10
48.447229
 20
67.278163
 30
0.0
 10
48.449769
 20
67.270797
 30
0.0
 10
48.452591
 20
67.263431
 30
0.0
 10
48.455413
 20
67.256065
 30
0.0
 10
48.458236
 20
67.248699
 30
0.0
 10
48.461058
 20
67.241333
 30
0.0
 10
48.463880
 20
67.233967
 30
0.0
 10
48.466702
 20
67.226601
 30
0.0
 10
48.469525
 20
67.219235
 30
0.0
 10
48.472347
 20
67.211869
 30
0.0
 10
48.475169
 20
67.204503
 30
0.0
 10
48.477991
 20
67.197137
 30
0.0
 10
48.480813
 20
67.189771
 30
0.0
 10
48.483664
 20
67.182405
 30
0.0
 10
48.486514
 20
67.175039
 30
0.0
 10
48.489393
 20
67.167644
 30
0.0
 10
48.492272
 20
67.160250
 30
0.0
 10
48.495179
 20
67.152856
 30
0.0
 10
48.498085
 20
67.145462
 30
0.0
 10
48.501021
 20
67.138067
 30
0.0
 10
48.503956
 20
67.130673
 30
0.0
 10
48.506919
 20
67.123279
 30
0.0
 10
48.509882
 20
67.115885
 30
0.0
 10
48.512874
 20
67.108462
 30
0.0
 10
48.515865
 20
67.101040
 30
0.0
 10
48.518885
 20
67.093617
 30
0.0
 10
48.521933
 20
67.086195
 30
0.0
 10
48.524981
 20
67.078773
 30
0.0
 10
48.528057
 20
67.071350
 30
0.0
 10
48.531134
 20
67.063899
 30
0.0
 10
48.534238
 20
67.056449
 30
0.0
 10
48.537343
 20
67.048998
 30
0.0
 10
48.540475
 20
67.041547
 30
0.0
 10
48.543608
 20
67.034069
 30
0.0
 10
48.546769
 20
67.026590
 30
0.0
 10
48.549930
 20
67.019111
 30
0.0
 10
48.553119
 20
67.011632
 30
0.0
 10
48.556308
 20
67.004125
 30
0.0
 10
48.559525
 20
66.996618
 30
0.0
 10
48.562771
 20
66.989082
 30
0.0
 10
48.566016
 20
66.981547
 30
0.0
 10
48.569290
 20
66.974012
 30
0.0
 10
48.572564
 20
66.966476
 30
0.0
 10
48.575866
 20
66.958913
 30
0.0
 10
48.579168
 20
66.951349
 30
0.0
 10
48.582498
 20
66.943757
 30
0.0
 10
48.585828
 20
66.936166
 30
0.0
 10
48.589187
 20
66.928574
 30
0.0
 10
48.592573
 20
66.920954
 30
0.0
 10
48.595960
 20
66.913334
 30
0.0
 10
48.599375
 20
66.905686
 30
0.0
 10
48.602790
 20
66.898037
 30
0.0
 10
48.606233
 20
66.890361
 30
0.0
 10
48.609704
 20
66.882685
 30
0.0
 10
48.613176
 20
66.875008
 30
0.0
 10
48.616675
 20
66.867303
 30
0.0
 10
48.620175
 20
66.859571
 30
0.0
 10
48.623703
 20
66.851838
 30
0.0
 10
48.627230
 20
66.844105
 30
0.0
 10
48.630786
 20
66.836344
 30
0.0
 10
48.634371
 20
66.828554
 30
0.0
 10
48.637955
 20
66.820765
 30
0.0
 10
48.641567
 20
66.812947
 30
0.0
 10
48.645180
 20
66.805130
 30
0.0
 10
48.648820
 20
66.797284
 30
0.0
 10
48.652489
 20
66.789438
 30
0.0
 10
48.656158
 20
66.781564
 30
0.0
 10
48.659855
 20
66.773662
 30
0.0
 10
48.663552
 20
66.765760
 30
0.0
 10
48.667278
 20
66.757829
 30
0.0
 10
48.671003
 20
66.749899
 30
0.0
 10
48.674757
 20
66.741940
 30
0.0
 10
48.678538
 20
66.733953
 30
0.0
 10
48.682320
 20
66.725938
 30
0.0
 10
48.686130
 20
66.717923
 30
0.0
 10
48.689940
 20
66.709880
 30
0.0
 10
48.693778
 20
66.701808
 30
0.0
 10
48.697645
 20
66.693737
 30
0.0
 10
48.701511
 20
66.685637
 30
0.0
 10
48.705406
 20
66.677509
 30
0.0
 10
48.709329
 20
66.669353
 30
0.0
 10
48.713252
 20
66.661197
 30
0.0
 10
48.717203
 20
66.653012
 30
0.0
 10
48.721154
 20
66.644799
 30
0.0
 10
48.725133
 20
66.636559
 30
0.0
 10
48.729141
 20
66.628318
 30
0.0
 10
48.733148
 20
66.620049
 30
0.0
 10
48.737184
 20
66.611751
 30
0.0
 10
48.741248
 20
66.603426
 30
0.0
 10
48.745312
 20
66.595072
 30
0.0
 10
48.749404
 20
66.586690
 30
0.0
 10
48.753497
 20
66.578308
 30
0.0
 10
48.757617
 20
66.569898
 30
0.0
 10
48.761766
 20
66.561459
 30
0.0
 10
48.765914
 20
66.552993
 30
0.0
 10
48.770091
 20
66.544498
 30
0.0
 10
48.774268
 20
66.535975
 30
0.0
 10
48.778473
 20
66.527423
 30
0.0
 10
48.782707
 20
66.518844
 30
0.0
 10
48.786940
 20
66.510264
 30
0.0
 10
48.791201
 20
66.501628
 30
0.0
 10
48.795491
 20
66.492992
 30
0.0
 10
48.799781
 20
66.484300
 30
0.0
 10
48.804099
 20
66.475607
 30
0.0
 10
48.808445
 20
66.466887
 30
0.0
 10
48.812791
 20
66.458138
 30
0.0
 10
48.817166
 20
66.449361
 30
0.0
 10
48.821540
 20
66.440555
 30
0.0
 10
48.825943
 20
66.431722
 30
0.0
 10
48.830374
 20
66.422860
 30
0.0
 10
48.834805
 20
66.413942
 30
0.0
 10
48.839264
 20
66.404995
 30
0.0
 10
48.843751
 20
66.396021
 30
0.0
 10
48.848267
 20
66.387018
 30
0.0
 10
48.852782
 20
66.377987
 30
0.0
 10
48.857326
 20
66.368927
 30
0.0
 10
48.861870
 20
66.359840
 30
0.0
 10
48.866442
 20
66.350724
 30
0.0
 10
48.871042
 20
66.341580
 30
0.0
 10
48.875642
 20
66.332379
 30
0.0
 10
48.880271
 20
66.323151
 30
0.0
 10
48.884927
 20
66.313894
 30
0.0
 10
48.889584
 20
66.304609
 30
0.0
 10
48.894269
 20
66.295295
 30
0.0
 10
48.898982
 20
66.285954
 30
0.0
 10
48.903695
 20
66.276556
 30
0.0
 10
48.908437
 20
66.267130
 30
0.0
 10
48.913206
 20
66.257675
 30
0.0
 10
48.917976
 20
66.248193
 30
0.0
 10
48.922773
 20
66.238682
 30
0.0
 10
48.927599
 20
66.229114
 30
0.0
 10
48.932425
 20
66.219519
 30
0.0
 10
48.937280
 20
66.209895
 30
0.0
 10
48.942162
 20
66.200215
 30
0.0
 10
48.947045
 20
66.190506
 30
0.0
 10
48.951955
 20
66.180770
 30
0.0
 10
48.956894
 20
66.171005
 30
0.0
 10
48.961833
 20
66.161183
 30
0.0
 10
48.966800
 20
66.151334
 30
0.0
 10
48.971795
 20
66.141456
 30
0.0
 10
49.165118
 20
65.781578
 30
0.0
 10
49.386792
 20
65.409231
 30
0.0
 10
49.632413
 20
65.029342
 30
0.0
 10
49.897566
 20
64.646835
 30
0.0
 10
50.177844
 20
64.266634
 30
0.0
 10
50.468840
 20
63.893660
 30
0.0
 10
50.766142
 20
63.532842
 30
0.0
 10
51.065343
 20
63.189098
 30
0.0
 10
51.362031
 20
62.867357
 30
0.0
 10
51.651800
 20
62.572539
 30
0.0
 10
51.930238
 20
62.309567
 30
0.0
 10
52.192936
 20
62.083369
 30
0.0
 10
52.435489
 20
61.898866
 30
0.0
 10
52.653483
 20
61.760981
 30
0.0
 10
52.842510
 20
61.674637
 30
0.0
 10
52.998161
 20
61.644764
 30
0.0
 10
53.147203
 20
61.661556
 30
0.0
 10
53.308648
 20
61.710022
 30
0.0
 10
53.479782
 20
61.787303
 30
0.0
 10
53.657878
 20
61.890546
 30
0.0
 10
53.840222
 20
62.016888
 30
0.0
 10
54.024090
 20
62.163472
 30
0.0
 10
54.206761
 20
62.327443
 30
0.0
 10
54.385518
 20
62.505937
 30
0.0
 10
54.557639
 20
62.696101
 30
0.0
 10
54.720405
 20
62.895076
 30
0.0
 10
54.871092
 20
63.100006
 30
0.0
 10
55.006985
 20
63.308027
 30
0.0
 10
55.125360
 20
63.516287
 30
0.0
 10
55.223500
 20
63.721923
 30
0.0
 10
55.298684
 20
63.922080
 30
0.0
 10
55.348189
 20
64.113898
 30
0.0
 10
55.375847
 20
64.264359
 30
0.0
 10
55.397267
 20
64.398835
 30
0.0
 10
55.411520
 20
64.518845
 30
0.0
 10
55.417644
 20
64.625903
 30
0.0
 10
55.414709
 20
64.721531
 30
0.0
 10
55.401755
 20
64.807245
 30
0.0
 10
55.377822
 20
64.884562
 30
0.0
 10
55.341994
 20
64.955005
 30
0.0
 10
55.293311
 20
65.020086
 30
0.0
 10
55.230827
 20
65.081328
 30
0.0
 10
55.153591
 20
65.140247
 30
0.0
 10
55.060664
 20
65.198360
 30
0.0
 10
54.951094
 20
65.257189
 30
0.0
 10
54.823933
 20
65.318248
 30
0.0
 10
54.678239
 20
65.383057
 30
0.0
 10
54.513062
 20
65.453133
 30
0.0
 10
54.228800
 20
65.578674
 30
0.0
 10
53.968032
 20
65.709216
 30
0.0
 10
53.729004
 20
65.847414
 30
0.0
 10
53.509954
 20
65.995923
 30
0.0
 10
53.309122
 20
66.157399
 30
0.0
 10
53.124749
 20
66.334496
 30
0.0
 10
52.955077
 20
66.529867
 30
0.0
 10
52.798348
 20
66.746174
 30
0.0
 10
52.652797
 20
66.986065
 30
0.0
 10
52.516670
 20
67.252198
 30
0.0
 10
52.388206
 20
67.547230
 30
0.0
 10
52.265645
 20
67.873812
 30
0.0
 10
52.147227
 20
68.234602
 30
0.0
 10
52.031194
 20
68.632256
 30
0.0
 10
51.915785
 20
69.069427
 30
0.0
 10
51.799244
 20
69.548770
 30
0.0
 10
51.683446
 20
70.047745
 30
0.0
 10
51.581914
 20
70.499645
 30
0.0
 10
51.494377
 20
70.908929
 30
0.0
 10
51.420567
 20
71.280054
 30
0.0
 10
51.360217
 20
71.617484
 30
0.0
 10
51.313055
 20
71.925677
 30
0.0
 10
51.278813
 20
72.209093
 30
0.0
 10
51.257223
 20
72.472194
 30
0.0
 10
51.248022
 20
72.719438
 30
0.0
 10
51.250929
 20
72.955283
 30
0.0
 10
51.265661
 20
73.184193
 30
0.0
 10
51.291964
 20
73.410626
 30
0.0
 10
51.329587
 20
73.639042
 30
0.0
 10
51.378245
 20
73.873899
 30
0.0
 10
51.437667
 20
74.119661
 30
0.0
 10
51.507588
 20
74.380784
 30
0.0
 10
51.525368
 20
74.444773
 30
0.0
 10
51.543148
 20
74.508758
 30
0.0
 10
51.560928
 20
74.572746
 30
0.0
 10
51.578708
 20
74.636732
 30
0.0
 10
51.596488
 20
74.700720
 30
0.0
 10
51.614268
 20
74.764708
 30
0.0
 10
51.632048
 20
74.828694
 30
0.0
 10
51.649828
 20
74.892682
 30
0.0
 10
51.667608
 20
74.956670
 30
0.0
 10
51.685388
 20
75.020655
 30
0.0
 10
51.703168
 20
75.084644
 30
0.0
 10
51.720948
 20
75.148629
 30
0.0
 10
51.738728
 20
75.212617
 30
0.0
 10
51.756508
 20
75.276606
 30
0.0
 10
51.774288
 20
75.340591
 30
0.0
 10
51.792068
 20
75.404579
 30
0.0
 10
51.857981
 20
75.381042
 30
0.0
 10
51.923894
 20
75.357505
 30
0.0
 10
51.989807
 20
75.333967
 30
0.0
 10
52.055720
 20
75.310430
 30
0.0
 10
52.121630
 20
75.286893
 30
0.0
 10
52.187543
 20
75.263355
 30
0.0
 10
52.253456
 20
75.239818
 30
0.0
 10
52.319369
 20
75.216281
 30
0.0
 10
52.385282
 20
75.192771
 30
0.0
 10
52.451195
 20
75.169234
 30
0.0
 10
52.517108
 20
75.145697
 30
0.0
 10
52.583021
 20
75.122159
 30
0.0
 10
52.648931
 20
75.098622
 30
0.0
 10
52.714844
 20
75.075113
 30
0.0
 10
52.780757
 20
75.051576
 30
0.0
 10
52.846670
 20
75.028038
 30
0.0
 10
53.116898
 20
74.941179
 30
0.0
 10
53.405351
 20
74.866161
 30
0.0
 10
53.708585
 20
74.802975
 30
0.0
 10
54.023158
 20
74.751593
 30
0.0
 10
54.345626
 20
74.712009
 30
0.0
 10
54.672546
 20
74.684210
 30
0.0
 10
55.000474
 20
74.668151
 30
0.0
 10
55.325967
 20
74.663862
 30
0.0
 10
55.645581
 20
74.671284
 30
0.0
 10
55.955875
 20
74.690419
 30
0.0
 10
56.253403
 20
74.721246
 30
0.0
 10
56.534722
 20
74.763751
 30
0.0
 10
56.796390
 20
74.817915
 30
0.0
 10
57.034963
 20
74.883724
 30
0.0
 10
57.247000
 20
74.961160
 30
0.0
 10
57.429053
 20
75.050207
 30
0.0
 10
57.614109
 20
75.152651
 30
0.0
 10
57.782491
 20
75.239239
 30
0.0
 10
57.933534
 20
75.310159
 30
0.0
 10
58.066579
 20
75.365587
 30
0.0
 10
58.180966
 20
75.405705
 30
0.0
 10
58.276036
 20
75.430682
 30
0.0
 10
58.351126
 20
75.440729
 30
0.0
 10
58.405576
 20
75.436016
 30
0.0
 10
58.438725
 20
75.416712
 30
0.0
 10
58.449930
 20
75.383003
 30
0.0
 10
58.438500
 20
75.335074
 30
0.0
 10
58.403784
 20
75.273100
 30
0.0
 10
58.345126
 20
75.197270
 30
0.0
 10
58.261865
 20
75.107763
 30
0.0
 10
58.153340
 20
75.004755
 30
0.0
 10
58.018892
 20
74.888434
 30
0.0
 10
57.950275
 20
74.829108
 30
0.0
 10
57.886318
 20
74.769410
 30
0.0
 10
57.827223
 20
74.709720
 30
0.0
 10
57.773200
 20
74.650417
 30
0.0
 10
57.724455
 20
74.591881
 30
0.0
 10
57.681193
 20
74.534497
 30
0.0
 10
57.643621
 20
74.478642
 30
0.0
 10
57.611944
 20
74.424698
 30
0.0
 10
57.586375
 20
74.373046
 30
0.0
 10
57.567099
 20
74.324063
 30
0.0
 10
57.554343
 20
74.278134
 30
0.0
 10
57.548303
 20
74.235637
 30
0.0
 10
57.549150
 20
74.196956
 30
0.0
 10
57.557193
 20
74.162468
 30
0.0
 10
57.572574
 20
74.132553
 30
0.0
 10
57.595491
 20
74.107604
 30
0.0
 10
58.137163
 20
73.658417
 30
0.0
 10
58.631923
 20
73.256510
 30
0.0
 10
59.087156
 20
72.898206
 30
0.0
 10
59.510241
 20
72.579823
 30
0.0
 10
59.908564
 20
72.297688
 30
0.0
 10
60.289499
 20
72.048119
 30
0.0
 10
60.660435
 20
71.827438
 30
0.0
 10
61.028752
 20
71.631971
 30
0.0
 10
61.401827
 20
71.458034
 30
0.0
 10
61.787049
 20
71.301957
 30
0.0
 10
62.191796
 20
71.160053
 30
0.0
 10
62.623452
 20
71.028650
 30
0.0
 10
63.089395
 20
70.904069
 30
0.0
 10
63.597008
 20
70.782632
 30
0.0
 10
64.153677
 20
70.660658
 30
0.0
 10
64.766780
 20
70.534471
 30
0.0
 10
65.011644
 20
70.484845
 30
0.0
 10
65.250613
 20
70.435701
 30
0.0
 10
65.482408
 20
70.387337
 30
0.0
 10
65.705753
 20
70.340039
 30
0.0
 10
65.919364
 20
70.294108
 30
0.0
 10
66.121966
 20
70.249830
 30
0.0
 10
66.312277
 20
70.207505
 30
0.0
 10
66.489021
 20
70.167421
 30
0.0
 10
66.650918
 20
70.129871
 30
0.0
 10
66.796691
 20
70.095152
 30
0.0
 10
66.925060
 20
70.063555
 30
0.0
 10
67.034746
 20
70.035361
 30
0.0
 10
67.124467
 20
70.010892
 30
0.0
 10
67.192951
 20
69.990431
 30
0.0
 10
67.238914
 20
69.974260
 30
0.0
 10
67.261068
 20
69.962660
 30
0.0
 10
67.267475
 20
69.949085
 30
0.0
 10
67.267193
 20
69.927072
 30
0.0
 10
67.260476
 20
69.897134
 30
0.0
 10
67.247635
 20
69.859745
 30
0.0
 10
67.228951
 20
69.815400
 30
0.0
 10
67.204680
 20
69.764580
 30
0.0
 10
67.175118
 20
69.707783
 30
0.0
 10
67.140537
 20
69.645493
 30
0.0
 10
67.101220
 20
69.578203
 30
0.0
 10
67.057445
 20
69.506400
 30
0.0
 10
67.009487
 20
69.430573
 30
0.0
 10
66.957631
 20
69.351215
 30
0.0
 10
66.902152
 20
69.268808
 30
0.0
 10
66.843329
 20
69.183848
 30
0.0
 10
66.781446
 20
69.096822
 30
0.0
 10
66.716775
 20
69.008219
 30
0.0
 10
66.624759
 20
68.878357
 30
0.0
 10
66.540755
 20
68.747634
 30
0.0
 10
66.464304
 20
68.614112
 30
0.0
 10
66.394951
 20
68.475849
 30
0.0
 10
66.332247
 20
68.330902
 30
0.0
 10
66.275729
 20
68.177334
 30
0.0
 10
66.224949
 20
68.013202
 30
0.0
 10
66.179449
 20
67.836567
 30
0.0
 10
66.138775
 20
67.645486
 30
0.0
 10
66.102470
 20
67.438022
 30
0.0
 10
66.070085
 20
67.212233
 30
0.0
 10
66.041160
 20
66.966177
 30
0.0
 10
66.015252
 20
66.697914
 30
0.0
 10
65.991884
 20
66.405503
 30
0.0
 10
65.970604
 20
66.087004
 30
0.0
 10
65.950990
 20
65.740478
 30
0.0
 10
65.943116
 20
65.590321
 30
0.0
 10
65.935242
 20
65.440165
 30
0.0
 10
65.927368
 20
65.290009
 30
0.0
 10
65.919494
 20
65.139852
 30
0.0
 10
65.911620
 20
64.989696
 30
0.0
 10
65.903746
 20
64.839540
 30
0.0
 10
65.895872
 20
64.689383
 30
0.0
 10
65.887998
 20
64.539227
 30
0.0
 10
65.880124
 20
64.389071
 30
0.0
 10
65.872250
 20
64.238914
 30
0.0
 10
65.864376
 20
64.088758
 30
0.0
 10
65.856502
 20
63.938602
 30
0.0
 10
65.848628
 20
63.788445
 30
0.0
 10
65.840754
 20
63.638289
 30
0.0
 10
65.832880
 20
63.488133
 30
0.0
 10
65.825006
 20
63.337976
 30
0.0
 10
65.669617
 20
63.337976
 30
0.0
 10
65.514226
 20
63.337976
 30
0.0
 10
65.358837
 20
63.337976
 30
0.0
 10
65.203448
 20
63.337976
 30
0.0
 10
65.048057
 20
63.337976
 30
0.0
 10
64.892668
 20
63.337976
 30
0.0
 10
64.737276
 20
63.337976
 30
0.0
 10
64.581888
 20
63.337976
 30
0.0
 10
64.426499
 20
63.337976
 30
0.0
 10
64.271107
 20
63.337976
 30
0.0
 10
64.115719
 20
63.337976
 30
0.0
 10
63.960330
 20
63.337976
 30
0.0
 10
63.804938
 20
63.337976
 30
0.0
 10
63.649550
 20
63.337976
 30
0.0
 10
63.494158
 20
63.337976
 30
0.0
 10
63.338769
 20
63.337976
 30
0.0
 10
63.081908
 20
63.336565
 30
0.0
 10
62.825201
 20
63.332558
 30
0.0
 10
62.570275
 20
63.326038
 30
0.0
 10
62.318762
 20
63.317148
 30
0.0
 10
62.072289
 20
63.306029
 30
0.0
 10
61.832487
 20
63.292792
 30
0.0
 10
61.600989
 20
63.277609
 30
0.0
 10
61.379422
 20
63.260591
 30
0.0
 10
61.169412
 20
63.241880
 30
0.0
 10
60.972596
 20
63.221588
 30
0.0
 10
60.790599
 20
63.199885
 30
0.0
 10
60.625050
 20
63.176884
 30
0.0
 10
60.477583
 20
63.152726
 30
0.0
 10
60.349824
 20
63.127551
 30
0.0
 10
60.243407
 20
63.101474
 30
0.0
 10
60.159956
 20
63.074663
 30
0.0
 10
59.928404
 20
62.975544
 30
0.0
 10
59.692692
 20
62.853610
 30
0.0
 10
59.454977
 20
62.711082
 30
0.0
 10
59.217422
 20
62.550184
 30
0.0
 10
58.982192
 20
62.373140
 30
0.0
 10
58.751450
 20
62.182175
 30
0.0
 10
58.527355
 20
61.979511
 30
0.0
 10
58.312070
 20
61.767376
 30
0.0
 10
58.107758
 20
61.547987
 30
0.0
 10
57.916583
 20
61.323576
 30
0.0
 10
57.740705
 20
61.096361
 30
0.0
 10
57.582288
 20
60.868566
 30
0.0
 10
57.443494
 20
60.642418
 30
0.0
 10
57.326485
 20
60.420140
 30
0.0
 10
57.233422
 20
60.203955
 30
0.0
 10
57.166470
 20
59.996087
 30
0.0
 10
57.041178
 20
59.519450
 30
0.0
 10
56.932723
 20
59.105261
 30
0.0
 10
56.841729
 20
58.748385
 30
0.0
 10
56.768814
 20
58.443684
 30
0.0
 10
56.714602
 20
58.186018
 30
0.0
 10
56.679713
 20
57.970248
 30
0.0
 10
56.664756
 20
57.791240
 30
0.0
 10
56.670372
 20
57.643849
 30
0.0
 10
56.697183
 20
57.522945
 30
0.0
 10
56.745796
 20
57.423383
 30
0.0
 10
56.816837
 20
57.340029
 30
0.0
 10
56.910927
 20
57.267740
 30
0.0
 10
57.028687
 20
57.201384
 30
0.0
 10
57.170738
 20
57.135821
 30
0.0
 10
57.337698
 20
57.065909
 30
0.0
 10
57.530193
 20
56.986514
 30
0.0
 10
57.640598
 20
56.943540
 30
0.0
 10
57.762721
 20
56.901769
 30
0.0
 10
57.895301
 20
56.861422
 30
0.0
 10
58.037075
 20
56.822710
 30
0.0
 10
58.186777
 20
56.785854
 30
0.0
 10
58.343145
 20
56.751068
 30
0.0
 10
58.504912
 20
56.718567
 30
0.0
 10
58.670817
 20
56.688569
 30
0.0
 10
58.839594
 20
56.661279
 30
0.0
 10
59.009980
 20
56.636923
 30
0.0
 10
59.180713
 20
56.615728
 30
0.0
 10
59.350529
 20
56.597891
 30
0.0
 10
59.518161
 20
56.583639
 30
0.0
 10
59.682346
 20
56.573197
 30
0.0
 10
59.841821
 20
56.566762
 30
0.0
 10
59.995322
 20
56.564505
 30
0.0
 10
60.086288
 20
56.564505
 30
0.0
 10
60.177254
 20
56.564505
 30
0.0
 10
60.268220
 20
56.564505
 30
0.0
 10
60.359186
 20
56.564505
 30
0.0
 10
60.450151
 20
56.564505
 30
0.0
 10
60.541117
 20
56.564505
 30
0.0
 10
60.632083
 20
56.564505
 30
0.0
 10
60.723049
 20
56.564505
 30
0.0
 10
60.814015
 20
56.564505
 30
0.0
 10
60.904981
 20
56.564505
 30
0.0
 10
60.995947
 20
56.564505
 30
0.0
 10
61.086913
 20
56.564505
 30
0.0
 10
61.177878
 20
56.564505
 30
0.0
 10
61.268844
 20
56.564505
 30
0.0
 10
61.359810
 20
56.564505
 30
0.0
 10
61.450776
 20
56.564505
 30
0.0
 10
61.437766
 20
56.621830
 30
0.0
 10
61.424755
 20
56.679157
 30
0.0
 10
61.411745
 20
56.736482
 30
0.0
 10
61.398734
 20
56.793810
 30
0.0
 10
61.385724
 20
56.851135
 30
0.0
 10
61.372713
 20
56.908463
 30
0.0
 10
61.359703
 20
56.965788
 30
0.0
 10
61.346692
 20
57.023116
 30
0.0
 10
61.333682
 20
57.080441
 30
0.0
 10
61.320672
 20
57.137768
 30
0.0
 10
61.307661
 20
57.195093
 30
0.0
 10
61.294651
 20
57.252421
 30
0.0
 10
61.281640
 20
57.309746
 30
0.0
 10
61.268630
 20
57.367074
 30
0.0
 10
61.255619
 20
57.424399
 30
0.0
 10
61.242609
 20
57.481727
 30
0.0
 10
61.175158
 20
57.786688
 30
0.0
 10
61.119142
 20
58.060325
 30
0.0
 10
61.075240
 20
58.305226
 30
0.0
 10
61.044128
 20
58.523971
 30
0.0
 10
61.026489
 20
58.719144
 30
0.0
 10
61.022989
 20
58.893329
 30
0.0
 10
61.034306
 20
59.049110
 30
0.0
 10
61.061117
 20
59.189067
 30
0.0
 10
61.104086
 20
59.315790
 30
0.0
 10
61.163900
 20
59.431857
 30
0.0
 10
61.241232
 20
59.539855
 30
0.0
 10
61.336761
 20
59.642364
 30
0.0
 10
61.451160
 20
59.741971
 30
0.0
 10
61.585108
 20
59.841260
 30
0.0
 10
61.739280
 20
59.942809
 30
0.0
 10
61.914351
 20
60.049207
 30
0.0
 10
62.064894
 20
60.133329
 30
0.0
 10
62.220571
 20
60.209848
 30
0.0
 10
62.385050
 20
60.279283
 30
0.0
 10
62.562001
 20
60.342165
 30
0.0
 10
62.755100
 20
60.399016
 30
0.0
 10
62.968008
 20
60.450363
 30
0.0
 10
63.204406
 20
60.496732
 30
0.0
 10
63.467954
 20
60.538648
 30
0.0
 10
63.762328
 20
60.576638
 30
0.0
 10
64.091199
 20
60.611227
 30
0.0
 10
64.458235
 20
60.642940
 30
0.0
 10
64.867107
 20
60.672303
 30
0.0
 10
65.321482
 20
60.699848
 30
0.0
 10
65.825037
 20
60.726094
 30
0.0
 10
66.381435
 20
60.751551
 30
0.0
 10
66.994351
 20
60.776781
 30
0.0
 10
67.251989
 20
60.786913
 30
0.0
 10
67.509627
 20
60.797045
 30
0.0
 10
67.767265
 20
60.807177
 30
0.0
 10
68.024903
 20
60.817308
 30
0.0
 10
68.282538
 20
60.827440
 30
0.0
 10
68.540176
 20
60.837572
 30
0.0
 10
68.797813
 20
60.847704
 30
0.0
 10
69.055451
 20
60.857836
 30
0.0
 10
69.313089
 20
60.867967
 30
0.0
 10
69.570727
 20
60.878099
 30
0.0
 10
69.828365
 20
60.888231
 30
0.0
 10
70.086003
 20
60.898363
 30
0.0
 10
70.343638
 20
60.908494
 30
0.0
 10
70.601276
 20
60.918626
 30
0.0
 10
70.858913
 20
60.928758
 30
0.0
 10
71.116551
 20
60.938890
 30
0.0
 10
71.122224
 20
60.988440
 30
0.0
 10
71.127897
 20
61.037986
 30
0.0
 10
71.133569
 20
61.087536
 30
0.0
 10
71.139242
 20
61.137083
 30
0.0
 10
71.144915
 20
61.186633
 30
0.0
 10
71.150587
 20
61.236183
 30
0.0
 10
71.156260
 20
61.285730
 30
0.0
 10
71.161933
 20
61.335279
 30
0.0
 10
71.167605
 20
61.384829
 30
0.0
 10
71.173278
 20
61.434376
 30
0.0
 10
71.178951
 20
61.483926
 30
0.0
 10
71.184623
 20
61.533473
 30
0.0
 10
71.190296
 20
61.583022
 30
0.0
 10
71.195969
 20
61.632572
 30
0.0
 10
71.201641
 20
61.682119
 30
0.0
 10
71.207314
 20
61.731669
 30
0.0
 10
71.218462
 20
61.813155
 30
0.0
 10
71.233024
 20
61.893783
 30
0.0
 10
71.250776
 20
61.973076
 30
0.0
 10
71.271463
 20
62.050555
 30
0.0
 10
71.294831
 20
62.125739
 30
0.0
 10
71.320683
 20
62.198154
 30
0.0
 10
71.348764
 20
62.267321
 30
0.0
 10
71.378857
 20
62.332757
 30
0.0
 10
71.410717
 20
62.393991
 30
0.0
 10
71.444112
 20
62.450537
 30
0.0
 10
71.478809
 20
62.501924
 30
0.0
 10
71.514572
 20
62.547667
 30
0.0
 10
71.551171
 20
62.587291
 30
0.0
 10
71.588368
 20
62.620319
 30
0.0
 10
71.625931
 20
62.646255
 30
0.0
 10
71.663625
 20
62.664656
 30
0.0
 10
71.713045
 20
62.687403
 30
0.0
 10
71.756510
 20
62.715851
 30
0.0
 10
71.794068
 20
62.750590
 30
0.0
 10
71.825759
 20
62.792209
 30
0.0
 10
71.851639
 20
62.841313
 30
0.0
 10
71.871733
 20
62.898491
 30
0.0
 10
71.886098
 20
62.964348
 30
0.0
 10
71.894762
 20
63.039473
 30
0.0
 10
71.897782
 20
63.124464
 30
0.0
 10
71.895242
 20
63.219923
 30
0.0
 10
71.887086
 20
63.326439
 30
0.0
 10
71.873426
 20
63.444614
 30
0.0
 10
71.854291
 20
63.575043
 30
0.0
 10
71.829710
 20
63.718324
 30
0.0
 10
71.799749
 20
63.875051
 30
0.0
 10
71.764443
 20
64.045821
 30
0.0
 10
71.716073
 20
64.298367
 30
0.0
 10
71.676291
 20
64.558393
 30
0.0
 10
71.644860
 20
64.821359
 30
0.0
 10
71.621548
 20
65.082722
 30
0.0
 10
71.606111
 20
65.337950
 30
0.0
 10
71.598322
 20
65.582498
 30
0.0
 10
71.598039
 20
65.811832
 30
0.0
 10
71.604841
 20
66.021410
 30
0.0
 10
71.618557
 20
66.206692
 30
0.0
 10
71.638990
 20
66.363144
 30
0.0
 10
71.665886
 20
66.486224
 30
0.0
 10
71.699010
 20
66.571396
 30
0.0
 10
71.738126
 20
66.614119
 30
0.0
 10
71.782999
 20
66.609857
 30
0.0
 10
71.833396
 20
66.554065
 30
0.0
 10
71.889078
 20
66.442209
 30
0.0
 10
71.907761
 20
66.390780
 30
0.0
 10
71.927743
 20
66.324494
 30
0.0
 10
71.948853
 20
66.244394
 30
0.0
 10
71.970894
 20
66.151514
 30
0.0
 10
71.993698
 20
66.046892
 30
0.0
 10
72.017066
 20
65.931567
 30
0.0
 10
72.040829
 20
65.806577
 30
0.0
 10
72.064818
 20
65.672956
 30
0.0
 10
72.088835
 20
65.531749
 30
0.0
 10
72.112711
 20
65.383989
 30
0.0
 10
72.136248
 20
65.230711
 30
0.0
 10
72.159278
 20
65.072960
 30
0.0
 10
72.181601
 20
64.911769
 30
0.0
 10
72.203050
 20
64.748179
 30
0.0
 10
72.223455
 20
64.583225
 30
0.0
 10
72.242618
 20
64.417945
 30
0.0
 10
72.296666
 20
64.043995
 30
0.0
 10
72.374308
 20
63.670121
 30
0.0
 10
72.474077
 20
63.298694
 30
0.0
 10
72.594510
 20
62.932081
 30
0.0
 10
72.734139
 20
62.572654
 30
0.0
 10
72.891495
 20
62.222784
 30
0.0
 10
73.065118
 20
61.884839
 30
0.0
 10
73.253538
 20
61.561187
 30
0.0
 10
73.455287
 20
61.254197
 30
0.0
 10
73.668904
 20
60.966243
 30
0.0
 10
73.892921
 20
60.699692
 30
0.0
 10
74.125870
 20
60.456913
 30
0.0
 10
74.366289
 20
60.240280
 30
0.0
 10
74.612706
 20
60.052156
 30
0.0
 10
74.863661
 20
59.894913
 30
0.0
 10
75.117683
 20
59.770924
 30
0.0
 10
75.213216
 20
59.729807
 30
0.0
 10
75.306070
 20
59.687483
 30
0.0
 10
75.395765
 20
59.644274
 30
0.0
 10
75.481821
 20
59.600499
 30
0.0
 10
75.563753
 20
59.556481
 30
0.0
 10
75.641084
 20
59.512533
 30
0.0
 10
75.713330
 20
59.468978
 30
0.0
 10
75.780017
 20
59.426136
 30
0.0
 10
75.840655
 20
59.384328
 30
0.0
 10
75.894771
 20
59.343871
 30
0.0
 10
75.941880
 20
59.305088
 30
0.0
 10
75.981501
 20
59.268295
 30
0.0
 10
76.013155
 20
59.233813
 30
0.0
 10
76.036353
 20
59.201962
 30
0.0
 10
76.050634
 20
59.173062
 30
0.0
 10
76.055488
 20
59.147436
 30
0.0
 10
76.031076
 20
59.052770
 30
0.0
 10
75.960512
 20
58.901460
 30
0.0
 10
75.847871
 20
58.699202
 30
0.0
 10
75.697213
 20
58.451691
 30
0.0
 10
75.512597
 20
58.164617
 30
0.0
 10
75.298086
 20
57.843680
 30
0.0
 10
75.057737
 20
57.494571
 30
0.0
 10
74.795617
 20
57.122983
 30
0.0
 10
74.515782
 20
56.734614
 30
0.0
 10
74.222294
 20
56.335157
 30
0.0
 10
73.919215
 20
55.930306
 30
0.0
 10
73.610605
 20
55.525755
 30
0.0
 10
73.300525
 20
55.127198
 30
0.0
 10
72.993036
 20
54.740327
 30
0.0
 10
72.692198
 20
54.370845
 30
0.0
 10
72.402073
 20
54.024437
 30
0.0
 10
71.971411
 20
53.516665
 30
0.0
 10
71.591957
 20
53.063400
 30
0.0
 10
71.260482
 20
52.657773
 30
0.0
 10
70.973752
 20
52.292919
 30
0.0
 10
70.728538
 20
51.961971
 30
0.0
 10
70.521604
 20
51.658057
 30
0.0
 10
70.349717
 20
51.374314
 30
0.0
 10
70.209650
 20
51.103874
 30
0.0
 10
70.098164
 20
50.839867
 30
0.0
 10
70.012032
 20
50.575427
 30
0.0
 10
69.948019
 20
50.303690
 30
0.0
 10
69.902891
 20
50.017782
 30
0.0
 10
69.873419
 20
49.710840
 30
0.0
 10
69.856373
 20
49.375997
 30
0.0
 10
69.848527
 20
49.006382
 30
0.0
 10
69.846551
 20
48.595130
 30
0.0
 10
69.847398
 20
48.380577
 30
0.0
 10
69.850277
 20
48.170124
 30
0.0
 10
69.854933
 20
47.964942
 30
0.0
 10
69.861283
 20
47.766207
 30
0.0
 10
69.869242
 20
47.575083
 30
0.0
 10
69.878696
 20
47.392751
 30
0.0
 10
69.889562
 20
47.220372
 30
0.0
 10
69.901726
 20
47.059125
 30
0.0
 10
69.915103
 20
46.910176
 30
0.0
 10
69.929609
 20
46.774701
 30
0.0
 10
69.945131
 20
46.653871
 30
0.0
 10
69.961557
 20
46.548853
 30
0.0
 10
69.978829
 20
46.460822
 30
0.0
 10
69.996835
 20
46.390949
 30
0.0
 10
70.015461
 20
46.340406
 30
0.0
 10
70.034624
 20
46.310364
 30
0.0
 10
70.119601
 20
46.262970
 30
0.0
 10
70.266518
 20
46.223013
 30
0.0
 10
70.466819
 20
46.190360
 30
0.0
 10
70.711946
 20
46.164875
 30
0.0
 10
70.993350
 20
46.146446
 30
0.0
 10
71.302468
 20
46.134932
 30
0.0
 10
71.630749
 20
46.130190
 30
0.0
 10
71.969633
 20
46.132166
 30
0.0
 10
72.310571
 20
46.140604
 30
0.0
 10
72.645002
 20
46.155421
 30
0.0
 10
72.964373
 20
46.176503
 30
0.0
 10
73.260128
 20
46.203737
 30
0.0
 10
73.523709
 20
46.236966
 30
0.0
 10
73.746563
 20
46.276065
 30
0.0
 10
73.920133
 20
46.320905
 30
0.0
 10
74.035864
 20
46.371259
 30
0.0
  0
ENDSEC
  0
SECTION
  2
OBJECTS
  0
DICTIONARY
  5
C
330
0
100
AcDbDictionary
  3
ACAD_GROUP
350
D
  3
ACAD_MLINESTYLE
350
17
  0
DICTIONARY
  5
D
330
C
100
AcDbDictionary
  0
DICTIONARY
  5
1A
330
C
100
AcDbDictionary
  0
DICTIONARY
  5
17
330
C
100
AcDbDictionary
  3
STANDARD
350
18
  0
DICTIONARY
  5
19
330
C
100
AcDbDictionary
  0
ENDSEC
  0
EOF
